<?xml version="1.0" encoding="UTF-8" standalone="no"?>
<!DOCTYPE svg PUBLIC "-//W3C//DTD SVG 1.1//EN"
 "http://www.w3.org/Graphics/SVG/1.1/DTD/svg11.dtd">
<!-- Generated by graphviz version 2.43.0 (0)
 -->
<!-- Title: G Pages: 1 -->
<svg width="4947pt" height="332pt"
 viewBox="0.00 0.00 4946.50 332.00" xmlns="http://www.w3.org/2000/svg" xmlns:xlink="http://www.w3.org/1999/xlink">
<g id="graph0" class="graph" transform="scale(1 1) rotate(0) translate(4 328)">
<title>G</title>
<polygon fill="white" stroke="transparent" points="-4,4 -4,-328 4942.5,-328 4942.5,4 -4,4"/>
<!-- R0x564fb8d1c710 -->
<g id="node1" class="node">
<title>R0x564fb8d1c710</title>
<polygon fill="none" stroke="blue" points="2141,-240.5 2141,-323.5 2796,-323.5 2796,-240.5 2141,-240.5"/>
<text text-anchor="middle" x="2151.5" y="-278.3" font-family="Times,serif" font-size="14.00"> </text>
<polyline fill="none" stroke="blue" points="2162,-240.5 2162,-323.5 "/>
<text text-anchor="middle" x="2468.5" y="-308.3" font-family="Times,serif" font-size="14.00">ID: 30</text>
<text text-anchor="middle" x="2468.5" y="-293.3" font-family="Times,serif" font-size="14.00">Usr: Mindy9491</text>
<text text-anchor="middle" x="2468.5" y="-278.3" font-family="Times,serif" font-size="14.00">Pass: 4f8db4b9b0d4e26b5dbdf842c93c5bbb2224797ad9eae50639991bb4fe2354ca</text>
<text text-anchor="middle" x="2468.5" y="-263.3" font-family="Times,serif" font-size="14.00">Edad: 48</text>
<text text-anchor="middle" x="2468.5" y="-248.3" font-family="Times,serif" font-size="14.00">Monedas: 5186</text>
<polyline fill="none" stroke="blue" points="2775,-240.5 2775,-323.5 "/>
<text text-anchor="middle" x="2785.5" y="-278.3" font-family="Times,serif" font-size="14.00"> </text>
</g>
<!-- R0x564fb8d1c570 -->
<g id="node2" class="node">
<title>R0x564fb8d1c570</title>
<polygon fill="none" stroke="blue" points="742,-120.5 742,-203.5 2021,-203.5 2021,-120.5 742,-120.5"/>
<text text-anchor="middle" x="752.5" y="-158.3" font-family="Times,serif" font-size="14.00"> </text>
<polyline fill="none" stroke="blue" points="763,-120.5 763,-203.5 "/>
<text text-anchor="middle" x="1064.5" y="-188.3" font-family="Times,serif" font-size="14.00">ID: 14</text>
<text text-anchor="middle" x="1064.5" y="-173.3" font-family="Times,serif" font-size="14.00">Usr: Freida8077</text>
<text text-anchor="middle" x="1064.5" y="-158.3" font-family="Times,serif" font-size="14.00">Pass: 6625e565fab4809dc7662ada16285c7dd1fe4c8963dd621a3a094ffdfc10bd43</text>
<text text-anchor="middle" x="1064.5" y="-143.3" font-family="Times,serif" font-size="14.00">Edad: 15</text>
<text text-anchor="middle" x="1064.5" y="-128.3" font-family="Times,serif" font-size="14.00">Monedas: 1030</text>
<polyline fill="none" stroke="blue" points="1366,-120.5 1366,-203.5 "/>
<text text-anchor="middle" x="1376.5" y="-158.3" font-family="Times,serif" font-size="14.00"> </text>
<polyline fill="none" stroke="blue" points="1387,-120.5 1387,-203.5 "/>
<text text-anchor="middle" x="1693.5" y="-188.3" font-family="Times,serif" font-size="14.00">ID: 28</text>
<text text-anchor="middle" x="1693.5" y="-173.3" font-family="Times,serif" font-size="14.00">Usr: Maricela1491</text>
<text text-anchor="middle" x="1693.5" y="-158.3" font-family="Times,serif" font-size="14.00">Pass: 43f617e7c26c82bfad49c9b32c6d8977079cd964c86312168424a24d5a83c11b</text>
<text text-anchor="middle" x="1693.5" y="-143.3" font-family="Times,serif" font-size="14.00">Edad: 56</text>
<text text-anchor="middle" x="1693.5" y="-128.3" font-family="Times,serif" font-size="14.00">Monedas: 4033</text>
<polyline fill="none" stroke="blue" points="2000,-120.5 2000,-203.5 "/>
<text text-anchor="middle" x="2010.5" y="-158.3" font-family="Times,serif" font-size="14.00"> </text>
</g>
<!-- R0x564fb8d1c710&#45;&gt;R0x564fb8d1c570 -->
<g id="edge1" class="edge">
<title>R0x564fb8d1c710:C1&#45;&gt;R0x564fb8d1c570</title>
<path fill="none" stroke="red" d="M2139.5,-282C1936.65,-282 1706.91,-239.89 1554.06,-205.77"/>
<polygon fill="red" stroke="red" points="1554.62,-202.31 1544.1,-203.54 1553.09,-209.14 1554.62,-202.31"/>
</g>
<!-- R0x564fb8d1c7e0 -->
<g id="node6" class="node">
<title>R0x564fb8d1c7e0</title>
<polygon fill="none" stroke="blue" points="2931.5,-120.5 2931.5,-203.5 4193.5,-203.5 4193.5,-120.5 2931.5,-120.5"/>
<text text-anchor="middle" x="2942" y="-158.3" font-family="Times,serif" font-size="14.00"> </text>
<polyline fill="none" stroke="blue" points="2952.5,-120.5 2952.5,-203.5 "/>
<text text-anchor="middle" x="3255" y="-188.3" font-family="Times,serif" font-size="14.00">ID: 34</text>
<text text-anchor="middle" x="3255" y="-173.3" font-family="Times,serif" font-size="14.00">Usr: Sanchez987</text>
<text text-anchor="middle" x="3255" y="-158.3" font-family="Times,serif" font-size="14.00">Pass: 857aba7c59662e1c306cf59c0c2199ec1d2ce895a928fb62b54f034760ebe8a6</text>
<text text-anchor="middle" x="3255" y="-143.3" font-family="Times,serif" font-size="14.00">Edad: 12</text>
<text text-anchor="middle" x="3255" y="-128.3" font-family="Times,serif" font-size="14.00">Monedas: 2169</text>
<polyline fill="none" stroke="blue" points="3557.5,-120.5 3557.5,-203.5 "/>
<text text-anchor="middle" x="3568" y="-158.3" font-family="Times,serif" font-size="14.00"> </text>
<polyline fill="none" stroke="blue" points="3578.5,-120.5 3578.5,-203.5 "/>
<text text-anchor="middle" x="3875.5" y="-188.3" font-family="Times,serif" font-size="14.00">ID: 45</text>
<text text-anchor="middle" x="3875.5" y="-173.3" font-family="Times,serif" font-size="14.00">Usr: Potts4095</text>
<text text-anchor="middle" x="3875.5" y="-158.3" font-family="Times,serif" font-size="14.00">Pass: f890b04ce28ad415a3cc3b6fcbea3583f48ae6b3743ef32c5e1cec937baf5c3e</text>
<text text-anchor="middle" x="3875.5" y="-143.3" font-family="Times,serif" font-size="14.00">Edad: 47</text>
<text text-anchor="middle" x="3875.5" y="-128.3" font-family="Times,serif" font-size="14.00">Monedas: 2158</text>
<polyline fill="none" stroke="blue" points="4172.5,-120.5 4172.5,-203.5 "/>
<text text-anchor="middle" x="4183" y="-158.3" font-family="Times,serif" font-size="14.00"> </text>
</g>
<!-- R0x564fb8d1c710&#45;&gt;R0x564fb8d1c7e0 -->
<g id="edge5" class="edge">
<title>R0x564fb8d1c710:C2&#45;&gt;R0x564fb8d1c7e0</title>
<path fill="none" stroke="red" d="M2797.5,-282C3002.18,-282 3234.05,-239.89 3388.33,-205.77"/>
<polygon fill="red" stroke="red" points="3389.38,-209.13 3398.38,-203.54 3387.86,-202.29 3389.38,-209.13"/>
</g>
<!-- R0x564fb8d1b460 -->
<g id="node3" class="node">
<title>R0x564fb8d1b460</title>
<polygon fill="none" stroke="blue" points="0,-0.5 0,-83.5 615,-83.5 615,-0.5 0,-0.5"/>
<text text-anchor="middle" x="307.5" y="-68.3" font-family="Times,serif" font-size="14.00">ID: 13</text>
<text text-anchor="middle" x="307.5" y="-53.3" font-family="Times,serif" font-size="14.00">Usr: Morris398</text>
<text text-anchor="middle" x="307.5" y="-38.3" font-family="Times,serif" font-size="14.00">Pass: 5069c9cc7b5ae8e790d93b23b904522e3a84ba7cc9a46da5484d803e6fad1813</text>
<text text-anchor="middle" x="307.5" y="-23.3" font-family="Times,serif" font-size="14.00">Edad: 19</text>
<text text-anchor="middle" x="307.5" y="-8.3" font-family="Times,serif" font-size="14.00">Monedas: 6011</text>
</g>
<!-- R0x564fb8d1c570&#45;&gt;R0x564fb8d1b460 -->
<g id="edge2" class="edge">
<title>R0x564fb8d1c570:C1&#45;&gt;R0x564fb8d1b460</title>
<path fill="none" stroke="red" d="M740.5,-162C623.65,-162 495.2,-121.21 408.79,-87.39"/>
<polygon fill="red" stroke="red" points="409.84,-84.04 399.25,-83.62 407.26,-90.55 409.84,-84.04"/>
</g>
<!-- R0x564fb8d1c230 -->
<g id="node4" class="node">
<title>R0x564fb8d1c230</title>
<polygon fill="none" stroke="blue" points="633,-0.5 633,-83.5 1830,-83.5 1830,-0.5 633,-0.5"/>
<text text-anchor="middle" x="937" y="-68.3" font-family="Times,serif" font-size="14.00">ID: 17</text>
<text text-anchor="middle" x="937" y="-53.3" font-family="Times,serif" font-size="14.00">Usr: Sherry9599</text>
<text text-anchor="middle" x="937" y="-38.3" font-family="Times,serif" font-size="14.00">Pass: 8ae968891b6131dc2dcd0eac5c6b310ae1adf05ed83757bf3a427cf13be41016</text>
<text text-anchor="middle" x="937" y="-23.3" font-family="Times,serif" font-size="14.00">Edad: 50</text>
<text text-anchor="middle" x="937" y="-8.3" font-family="Times,serif" font-size="14.00">Monedas: 3291</text>
<polyline fill="none" stroke="blue" points="1241,-0.5 1241,-83.5 "/>
<text text-anchor="middle" x="1535.5" y="-68.3" font-family="Times,serif" font-size="14.00">ID: 19</text>
<text text-anchor="middle" x="1535.5" y="-53.3" font-family="Times,serif" font-size="14.00">Usr: Garner8579</text>
<text text-anchor="middle" x="1535.5" y="-38.3" font-family="Times,serif" font-size="14.00">Pass: ff749aa29b6c61c260788845c7ea09d7ac9e6c1939f1eaaff9318e67fa73c1f7</text>
<text text-anchor="middle" x="1535.5" y="-23.3" font-family="Times,serif" font-size="14.00">Edad: 59</text>
<text text-anchor="middle" x="1535.5" y="-8.3" font-family="Times,serif" font-size="14.00">Monedas: 3841</text>
</g>
<!-- R0x564fb8d1c570&#45;&gt;R0x564fb8d1c230 -->
<g id="edge3" class="edge">
<title>R0x564fb8d1c570:C2&#45;&gt;R0x564fb8d1c230</title>
<path fill="none" stroke="red" d="M1376.5,-120C1376.5,-108.88 1373.13,-99.37 1367.43,-91.22"/>
<polygon fill="red" stroke="red" points="1370.09,-88.94 1360.98,-83.52 1364.72,-93.44 1370.09,-88.94"/>
</g>
<!-- R0x564fb8d1c4a0 -->
<g id="node5" class="node">
<title>R0x564fb8d1c4a0</title>
<polygon fill="none" stroke="blue" points="1848.5,-0.5 1848.5,-83.5 2462.5,-83.5 2462.5,-0.5 1848.5,-0.5"/>
<text text-anchor="middle" x="2155.5" y="-68.3" font-family="Times,serif" font-size="14.00">ID: 29</text>
<text text-anchor="middle" x="2155.5" y="-53.3" font-family="Times,serif" font-size="14.00">Usr: Alberta2565</text>
<text text-anchor="middle" x="2155.5" y="-38.3" font-family="Times,serif" font-size="14.00">Pass: cac42976c408e599090e8a407ba5968d59c40dd49dfd069c843498ed73d965f5</text>
<text text-anchor="middle" x="2155.5" y="-23.3" font-family="Times,serif" font-size="14.00">Edad: 26</text>
<text text-anchor="middle" x="2155.5" y="-8.3" font-family="Times,serif" font-size="14.00">Monedas: 6954</text>
</g>
<!-- R0x564fb8d1c570&#45;&gt;R0x564fb8d1c4a0 -->
<g id="edge4" class="edge">
<title>R0x564fb8d1c570:C3&#45;&gt;R0x564fb8d1c4a0</title>
<path fill="none" stroke="red" d="M2010.5,-120C2010.5,-108.88 2013.87,-99.37 2019.57,-91.22"/>
<polygon fill="red" stroke="red" points="2022.28,-93.44 2026.02,-83.52 2016.91,-88.94 2022.28,-93.44"/>
</g>
<!-- R0x564fb8d1bfc0 -->
<g id="node7" class="node">
<title>R0x564fb8d1bfc0</title>
<polygon fill="none" stroke="blue" points="2480.5,-0.5 2480.5,-83.5 3100.5,-83.5 3100.5,-0.5 2480.5,-0.5"/>
<text text-anchor="middle" x="2790.5" y="-68.3" font-family="Times,serif" font-size="14.00">ID: 32</text>
<text text-anchor="middle" x="2790.5" y="-53.3" font-family="Times,serif" font-size="14.00">Usr: Randolph3074</text>
<text text-anchor="middle" x="2790.5" y="-38.3" font-family="Times,serif" font-size="14.00">Pass: c84512089a80cd84367ce20bcc6613982b13c4dbd289c4908578466aed2e8680</text>
<text text-anchor="middle" x="2790.5" y="-23.3" font-family="Times,serif" font-size="14.00">Edad: 44</text>
<text text-anchor="middle" x="2790.5" y="-8.3" font-family="Times,serif" font-size="14.00">Monedas: 1170</text>
</g>
<!-- R0x564fb8d1c7e0&#45;&gt;R0x564fb8d1bfc0 -->
<g id="edge6" class="edge">
<title>R0x564fb8d1c7e0:C1&#45;&gt;R0x564fb8d1bfc0</title>
<path fill="none" stroke="red" d="M2941.5,-120C2941.5,-109.08 2938.33,-99.71 2932.9,-91.66"/>
<polygon fill="red" stroke="red" points="2935.49,-89.3 2926.47,-83.75 2930.06,-93.72 2935.49,-89.3"/>
</g>
<!-- R0x564fb8d1c980 -->
<g id="node8" class="node">
<title>R0x564fb8d1c980</title>
<polygon fill="none" stroke="blue" points="3119,-0.5 3119,-83.5 4322,-83.5 4322,-0.5 3119,-0.5"/>
<text text-anchor="middle" x="3418" y="-68.3" font-family="Times,serif" font-size="14.00">ID: 36</text>
<text text-anchor="middle" x="3418" y="-53.3" font-family="Times,serif" font-size="14.00">Usr: Latasha4052</text>
<text text-anchor="middle" x="3418" y="-38.3" font-family="Times,serif" font-size="14.00">Pass: eba0757c94fbe07f31fc4dd697cbbc612e757627238bfb2aa332afef737b258c</text>
<text text-anchor="middle" x="3418" y="-23.3" font-family="Times,serif" font-size="14.00">Edad: 37</text>
<text text-anchor="middle" x="3418" y="-8.3" font-family="Times,serif" font-size="14.00">Monedas: 2808</text>
<polyline fill="none" stroke="blue" points="3717,-0.5 3717,-83.5 "/>
<text text-anchor="middle" x="4019.5" y="-68.3" font-family="Times,serif" font-size="14.00">ID: 44</text>
<text text-anchor="middle" x="4019.5" y="-53.3" font-family="Times,serif" font-size="14.00">Usr: Petra178</text>
<text text-anchor="middle" x="4019.5" y="-38.3" font-family="Times,serif" font-size="14.00">Pass: e7cebd5b4b754acf6ecf77e95701b60c4de72f459015b61dcb8cf146e383d336</text>
<text text-anchor="middle" x="4019.5" y="-23.3" font-family="Times,serif" font-size="14.00">Edad: 59</text>
<text text-anchor="middle" x="4019.5" y="-8.3" font-family="Times,serif" font-size="14.00">Monedas: 9796</text>
</g>
<!-- R0x564fb8d1c7e0&#45;&gt;R0x564fb8d1c980 -->
<g id="edge7" class="edge">
<title>R0x564fb8d1c7e0:C2&#45;&gt;R0x564fb8d1c980</title>
<path fill="none" stroke="red" d="M3568.5,-120C3568.5,-109.02 3571.69,-99.61 3577.16,-91.54"/>
<polygon fill="red" stroke="red" points="3580.02,-93.56 3583.63,-83.6 3574.6,-89.14 3580.02,-93.56"/>
</g>
<!-- R0x564fb8d1cbf0 -->
<g id="node9" class="node">
<title>R0x564fb8d1cbf0</title>
<polygon fill="none" stroke="blue" points="4340.5,-0.5 4340.5,-83.5 4938.5,-83.5 4938.5,-0.5 4340.5,-0.5"/>
<text text-anchor="middle" x="4639.5" y="-68.3" font-family="Times,serif" font-size="14.00">ID: 51</text>
<text text-anchor="middle" x="4639.5" y="-53.3" font-family="Times,serif" font-size="14.00">Usr: Becky9663</text>
<text text-anchor="middle" x="4639.5" y="-38.3" font-family="Times,serif" font-size="14.00">Pass: 576d3dfe0ecb07ee156e1958f5cff34bc3961e44fba5943afb69360dc470ba70</text>
<text text-anchor="middle" x="4639.5" y="-23.3" font-family="Times,serif" font-size="14.00">Edad: 49</text>
<text text-anchor="middle" x="4639.5" y="-8.3" font-family="Times,serif" font-size="14.00">Monedas: 9894</text>
</g>
<!-- R0x564fb8d1c7e0&#45;&gt;R0x564fb8d1cbf0 -->
<g id="edge8" class="edge">
<title>R0x564fb8d1c7e0:C3&#45;&gt;R0x564fb8d1cbf0</title>
<path fill="none" stroke="red" d="M4194.5,-162C4314.48,-162 4446.68,-121.13 4535.56,-87.29"/>
<polygon fill="red" stroke="red" points="4537.02,-90.48 4545.1,-83.62 4534.51,-83.94 4537.02,-90.48"/>
</g>
</g>
</svg>
