<?xml version="1.0" encoding="UTF-8" standalone="no"?>
<!DOCTYPE svg PUBLIC "-//W3C//DTD SVG 1.1//EN"
 "http://www.w3.org/Graphics/SVG/1.1/DTD/svg11.dtd">
<!-- Generated by graphviz version 2.43.0 (0)
 -->
<!-- Title: G Pages: 1 -->
<svg width="864pt" height="423pt"
 viewBox="0.00 0.00 864.00 423.00" xmlns="http://www.w3.org/2000/svg" xmlns:xlink="http://www.w3.org/1999/xlink">
<g id="graph0" class="graph" transform="scale(1 1) rotate(0) translate(4 419)">
<title>G</title>
<polygon fill="white" stroke="transparent" points="-4,4 -4,-419 860,-419 860,4 -4,4"/>
<text text-anchor="middle" x="428" y="-9" font-family="Arial Black" font-size="15.00">Compras EDD</text>
<!-- N4 -->
<g id="node1" class="node">
<title>N4</title>
<polygon fill="black" stroke="black" points="296,-415 145,-362 296,-309 447,-362 296,-415"/>
<text text-anchor="middle" x="296" y="-373.3" font-family="Times,serif" font-size="14.00" fill="white">ID: 1179</text>
<text text-anchor="middle" x="296" y="-358.3" font-family="Times,serif" font-size="14.00" fill="white">Nombre: Randolph</text>
<text text-anchor="middle" x="296" y="-343.3" font-family="Times,serif" font-size="14.00" fill="white">Cantidad: 12</text>
</g>
<!-- N5 -->
<g id="node2" class="node">
<title>N5</title>
<polygon fill="black" stroke="black" points="144,-273 7,-220 144,-167 281,-220 144,-273"/>
<text text-anchor="middle" x="144" y="-231.3" font-family="Times,serif" font-size="14.00" fill="white">ID: 1050</text>
<text text-anchor="middle" x="144" y="-216.3" font-family="Times,serif" font-size="14.00" fill="white">Nombre: Alvarez</text>
<text text-anchor="middle" x="144" y="-201.3" font-family="Times,serif" font-size="14.00" fill="white">Cantidad: 100</text>
</g>
<!-- N4&#45;&gt;N5 -->
<g id="edge2" class="edge">
<title>N4:C0&#45;&gt;N5</title>
<path fill="none" stroke="black" d="M254.87,-323.11C235.3,-305.09 211.79,-283.44 191.47,-264.72"/>
<polygon fill="black" stroke="black" points="193.58,-261.91 183.85,-257.71 188.84,-267.06 193.58,-261.91"/>
</g>
<!-- N2 -->
<g id="node4" class="node">
<title>N2</title>
<polygon fill="black" stroke="black" points="435,-273 313,-220 435,-167 557,-220 435,-273"/>
<text text-anchor="middle" x="435" y="-231.3" font-family="Times,serif" font-size="14.00" fill="white">ID: 1550</text>
<text text-anchor="middle" x="435" y="-216.3" font-family="Times,serif" font-size="14.00" fill="white">Nombre: Salas</text>
<text text-anchor="middle" x="435" y="-201.3" font-family="Times,serif" font-size="14.00" fill="white">Cantidad: 12</text>
</g>
<!-- N4&#45;&gt;N2 -->
<g id="edge5" class="edge">
<title>N4:C1&#45;&gt;N2</title>
<path fill="none" stroke="black" d="M334.35,-322.37C352.09,-304.51 373.23,-283.21 391.56,-264.76"/>
<polygon fill="black" stroke="black" points="394.13,-267.14 398.69,-257.57 389.16,-262.2 394.13,-267.14"/>
</g>
<!-- N6 -->
<g id="node3" class="node">
<title>N6</title>
<polygon fill="black" stroke="black" points="131,-131 0,-78 131,-25 262,-78 131,-131"/>
<text text-anchor="middle" x="131" y="-89.3" font-family="Times,serif" font-size="14.00" fill="white">ID: 495</text>
<text text-anchor="middle" x="131" y="-74.3" font-family="Times,serif" font-size="14.00" fill="white">Nombre: Adkins</text>
<text text-anchor="middle" x="131" y="-59.3" font-family="Times,serif" font-size="14.00" fill="white">Cantidad: 12</text>
</g>
<!-- N5&#45;&gt;N6 -->
<g id="edge1" class="edge">
<title>N5:C0&#45;&gt;N6</title>
<path fill="none" stroke="black" d="M139.31,-168.46C138.43,-159.04 137.51,-149.11 136.61,-139.43"/>
<polygon fill="black" stroke="black" points="140.1,-139.1 135.69,-129.47 133.13,-139.75 140.1,-139.1"/>
</g>
<!-- N3 -->
<g id="node5" class="node">
<title>N3</title>
<polygon fill="black" stroke="black" points="435,-131 280,-78 435,-25 590,-78 435,-131"/>
<text text-anchor="middle" x="435" y="-89.3" font-family="Times,serif" font-size="14.00" fill="white">ID: 1444</text>
<text text-anchor="middle" x="435" y="-74.3" font-family="Times,serif" font-size="14.00" fill="white">Nombre: Contreras</text>
<text text-anchor="middle" x="435" y="-59.3" font-family="Times,serif" font-size="14.00" fill="white">Cantidad: 46</text>
</g>
<!-- N2&#45;&gt;N3 -->
<g id="edge3" class="edge">
<title>N2:C0&#45;&gt;N3</title>
<path fill="none" stroke="black" d="M435,-166.87C435,-158.58 435,-149.93 435,-141.43"/>
<polygon fill="black" stroke="black" points="438.5,-141.17 435,-131.17 431.5,-141.17 438.5,-141.17"/>
</g>
<!-- N1 -->
<g id="node6" class="node">
<title>N1</title>
<polygon fill="black" stroke="black" points="732,-131 608,-78 732,-25 856,-78 732,-131"/>
<text text-anchor="middle" x="732" y="-89.3" font-family="Times,serif" font-size="14.00" fill="white">ID: 1563</text>
<text text-anchor="middle" x="732" y="-74.3" font-family="Times,serif" font-size="14.00" fill="white">Nombre: Olson</text>
<text text-anchor="middle" x="732" y="-59.3" font-family="Times,serif" font-size="14.00" fill="white">Cantidad: 32</text>
</g>
<!-- N2&#45;&gt;N1 -->
<g id="edge4" class="edge">
<title>N2:C1&#45;&gt;N1</title>
<path fill="none" stroke="black" d="M492.62,-191.84C541.95,-168.59 613.02,-135.08 664.91,-110.63"/>
<polygon fill="black" stroke="black" points="666.48,-113.75 674.04,-106.32 663.5,-107.42 666.48,-113.75"/>
</g>
</g>
</svg>
