<?xml version="1.0" encoding="UTF-8" standalone="no"?>
<!DOCTYPE svg PUBLIC "-//W3C//DTD SVG 1.1//EN"
 "http://www.w3.org/Graphics/SVG/1.1/DTD/svg11.dtd">
<!-- Generated by graphviz version 2.43.0 (0)
 -->
<!-- Title: G Pages: 1 -->
<svg width="358pt" height="571pt"
 viewBox="0.00 0.00 357.50 571.00" xmlns="http://www.w3.org/2000/svg" xmlns:xlink="http://www.w3.org/1999/xlink">
<g id="graph0" class="graph" transform="scale(1 1) rotate(0) translate(4 567)">
<title>G</title>
<polygon fill="white" stroke="transparent" points="-4,4 -4,-567 353.5,-567 353.5,4 -4,4"/>
<text text-anchor="middle" x="174.75" y="-7.8" font-family="Times,serif" font-size="14.00">ListaListas</text>
<!-- n544 -->
<g id="node1" class="node">
<title>n544</title>
<polygon fill="none" stroke="black" points="76.5,-491 10.5,-491 10.5,-455 76.5,-455 76.5,-491"/>
<text text-anchor="middle" x="43.5" y="-469.3" font-family="Times,serif" font-size="14.00">Carroll</text>
</g>
<!-- n1008 -->
<g id="node2" class="node">
<title>n1008</title>
<polygon fill="none" stroke="black" points="69.5,-419 15.5,-419 15.5,-383 69.5,-383 69.5,-419"/>
<text text-anchor="middle" x="42.5" y="-397.3" font-family="Times,serif" font-size="14.00">Neal</text>
</g>
<!-- n544&#45;&gt;n1008 -->
<g id="edge1" class="edge">
<title>n544&#45;&gt;n1008</title>
<path fill="none" stroke="black" d="M43.25,-454.7C43.14,-446.98 43.01,-437.71 42.89,-429.11"/>
<polygon fill="black" stroke="black" points="46.39,-429.05 42.74,-419.1 39.39,-429.15 46.39,-429.05"/>
</g>
<!-- n1219 -->
<g id="node3" class="node">
<title>n1219</title>
<polygon fill="none" stroke="black" points="71,-347 12,-347 12,-311 71,-311 71,-347"/>
<text text-anchor="middle" x="41.5" y="-325.3" font-family="Times,serif" font-size="14.00">Sharp</text>
</g>
<!-- n1008&#45;&gt;n1219 -->
<g id="edge2" class="edge">
<title>n1008&#45;&gt;n1219</title>
<path fill="none" stroke="black" d="M42.25,-382.7C42.14,-374.98 42.01,-365.71 41.89,-357.11"/>
<polygon fill="black" stroke="black" points="45.39,-357.05 41.74,-347.1 38.39,-357.15 45.39,-357.05"/>
</g>
<!-- n1236 -->
<g id="node4" class="node">
<title>n1236</title>
<polygon fill="none" stroke="black" points="80,-275 3,-275 3,-239 80,-239 80,-275"/>
<text text-anchor="middle" x="41.5" y="-253.3" font-family="Times,serif" font-size="14.00">Hoffman</text>
</g>
<!-- n1219&#45;&gt;n1236 -->
<g id="edge3" class="edge">
<title>n1219&#45;&gt;n1236</title>
<path fill="none" stroke="black" d="M41.5,-310.7C41.5,-302.98 41.5,-293.71 41.5,-285.11"/>
<polygon fill="black" stroke="black" points="45,-285.1 41.5,-275.1 38,-285.1 45,-285.1"/>
</g>
<!-- n1370 -->
<g id="node5" class="node">
<title>n1370</title>
<polygon fill="none" stroke="black" points="83,-203 0,-203 0,-167 83,-167 83,-203"/>
<text text-anchor="middle" x="41.5" y="-181.3" font-family="Times,serif" font-size="14.00">Hamilton</text>
</g>
<!-- n1236&#45;&gt;n1370 -->
<g id="edge4" class="edge">
<title>n1236&#45;&gt;n1370</title>
<path fill="none" stroke="black" d="M41.5,-238.7C41.5,-230.98 41.5,-221.71 41.5,-213.11"/>
<polygon fill="black" stroke="black" points="45,-213.1 41.5,-203.1 38,-213.1 45,-213.1"/>
</g>
<!-- n1529 -->
<g id="node6" class="node">
<title>n1529</title>
<polygon fill="none" stroke="black" points="68.5,-131 14.5,-131 14.5,-95 68.5,-95 68.5,-131"/>
<text text-anchor="middle" x="41.5" y="-109.3" font-family="Times,serif" font-size="14.00">Rose</text>
</g>
<!-- n1370&#45;&gt;n1529 -->
<g id="edge5" class="edge">
<title>n1370&#45;&gt;n1529</title>
<path fill="none" stroke="black" d="M41.5,-166.7C41.5,-158.98 41.5,-149.71 41.5,-141.11"/>
<polygon fill="black" stroke="black" points="45,-141.1 41.5,-131.1 38,-141.1 45,-141.1"/>
</g>
<!-- n1667 -->
<g id="node7" class="node">
<title>n1667</title>
<polygon fill="none" stroke="black" points="68.5,-59 14.5,-59 14.5,-23 68.5,-23 68.5,-59"/>
<text text-anchor="middle" x="41.5" y="-37.3" font-family="Times,serif" font-size="14.00">Irwin</text>
</g>
<!-- n1529&#45;&gt;n1667 -->
<g id="edge6" class="edge">
<title>n1529&#45;&gt;n1667</title>
<path fill="none" stroke="black" d="M41.5,-94.7C41.5,-86.98 41.5,-77.71 41.5,-69.11"/>
<polygon fill="black" stroke="black" points="45,-69.1 41.5,-59.1 38,-69.1 45,-69.1"/>
</g>
<!-- Leve2 -->
<g id="node8" class="node">
<title>Leve2</title>
<polygon fill="none" stroke="black" points="75,-563 16,-563 16,-527 75,-527 75,-563"/>
<text text-anchor="middle" x="45.5" y="-541.3" font-family="Times,serif" font-size="14.00">Leve2</text>
</g>
<!-- Leve2&#45;&gt;n544 -->
<g id="edge7" class="edge">
<title>Leve2&#45;&gt;n544</title>
<path fill="none" stroke="black" d="M45.01,-526.7C44.79,-518.98 44.52,-509.71 44.27,-501.11"/>
<polygon fill="black" stroke="black" points="47.77,-501 43.99,-491.1 40.78,-501.2 47.77,-501"/>
</g>
<!-- Level1 -->
<g id="node16" class="node">
<title>Level1</title>
<polygon fill="none" stroke="black" points="159.5,-563 95.5,-563 95.5,-527 159.5,-527 159.5,-563"/>
<text text-anchor="middle" x="127.5" y="-541.3" font-family="Times,serif" font-size="14.00">Level1</text>
</g>
<!-- Leve2&#45;&gt;Level1 -->
<g id="edge22" class="edge">
<title>Leve2&#45;&gt;Level1</title>
<path fill="none" stroke="black" d="M75.29,-545C78.52,-545 81.74,-545 84.97,-545"/>
<polygon fill="black" stroke="black" points="85.28,-548.5 95.28,-545 85.28,-541.5 85.28,-548.5"/>
</g>
<!-- n495 -->
<g id="node9" class="node">
<title>n495</title>
<polygon fill="none" stroke="black" points="160,-491 95,-491 95,-455 160,-455 160,-491"/>
<text text-anchor="middle" x="127.5" y="-469.3" font-family="Times,serif" font-size="14.00">Adkins</text>
</g>
<!-- n850 -->
<g id="node10" class="node">
<title>n850</title>
<polygon fill="none" stroke="black" points="160,-419 95,-419 95,-383 160,-383 160,-419"/>
<text text-anchor="middle" x="127.5" y="-397.3" font-family="Times,serif" font-size="14.00">Downs</text>
</g>
<!-- n495&#45;&gt;n850 -->
<g id="edge8" class="edge">
<title>n495&#45;&gt;n850</title>
<path fill="none" stroke="black" d="M127.5,-454.7C127.5,-446.98 127.5,-437.71 127.5,-429.11"/>
<polygon fill="black" stroke="black" points="131,-429.1 127.5,-419.1 124,-429.1 131,-429.1"/>
</g>
<!-- n886 -->
<g id="node11" class="node">
<title>n886</title>
<polygon fill="none" stroke="black" points="158.5,-347 96.5,-347 96.5,-311 158.5,-311 158.5,-347"/>
<text text-anchor="middle" x="127.5" y="-325.3" font-family="Times,serif" font-size="14.00">Pierce</text>
</g>
<!-- n850&#45;&gt;n886 -->
<g id="edge9" class="edge">
<title>n850&#45;&gt;n886</title>
<path fill="none" stroke="black" d="M127.5,-382.7C127.5,-374.98 127.5,-365.71 127.5,-357.11"/>
<polygon fill="black" stroke="black" points="131,-357.1 127.5,-347.1 124,-357.1 131,-357.1"/>
</g>
<!-- n1330 -->
<g id="node12" class="node">
<title>n1330</title>
<polygon fill="none" stroke="black" points="154.5,-275 100.5,-275 100.5,-239 154.5,-239 154.5,-275"/>
<text text-anchor="middle" x="127.5" y="-253.3" font-family="Times,serif" font-size="14.00">Wall</text>
</g>
<!-- n886&#45;&gt;n1330 -->
<g id="edge10" class="edge">
<title>n886&#45;&gt;n1330</title>
<path fill="none" stroke="black" d="M127.5,-310.7C127.5,-302.98 127.5,-293.71 127.5,-285.11"/>
<polygon fill="black" stroke="black" points="131,-285.1 127.5,-275.1 124,-285.1 131,-285.1"/>
</g>
<!-- n1550 -->
<g id="node13" class="node">
<title>n1550</title>
<polygon fill="none" stroke="black" points="156,-203 101,-203 101,-167 156,-167 156,-203"/>
<text text-anchor="middle" x="128.5" y="-181.3" font-family="Times,serif" font-size="14.00">Salas</text>
</g>
<!-- n1330&#45;&gt;n1550 -->
<g id="edge11" class="edge">
<title>n1330&#45;&gt;n1550</title>
<path fill="none" stroke="black" d="M127.75,-238.7C127.86,-230.98 127.99,-221.71 128.11,-213.11"/>
<polygon fill="black" stroke="black" points="131.61,-213.15 128.26,-203.1 124.61,-213.05 131.61,-213.15"/>
</g>
<!-- n1563 -->
<g id="node14" class="node">
<title>n1563</title>
<polygon fill="none" stroke="black" points="157,-131 100,-131 100,-95 157,-95 157,-131"/>
<text text-anchor="middle" x="128.5" y="-109.3" font-family="Times,serif" font-size="14.00">Olson</text>
</g>
<!-- n1550&#45;&gt;n1563 -->
<g id="edge12" class="edge">
<title>n1550&#45;&gt;n1563</title>
<path fill="none" stroke="black" d="M128.5,-166.7C128.5,-158.98 128.5,-149.71 128.5,-141.11"/>
<polygon fill="black" stroke="black" points="132,-141.1 128.5,-131.1 125,-141.1 132,-141.1"/>
</g>
<!-- n1658 -->
<g id="node15" class="node">
<title>n1658</title>
<polygon fill="none" stroke="black" points="165,-59 92,-59 92,-23 165,-23 165,-59"/>
<text text-anchor="middle" x="128.5" y="-37.3" font-family="Times,serif" font-size="14.00">Winters</text>
</g>
<!-- n1563&#45;&gt;n1658 -->
<g id="edge13" class="edge">
<title>n1563&#45;&gt;n1658</title>
<path fill="none" stroke="black" d="M128.5,-94.7C128.5,-86.98 128.5,-77.71 128.5,-69.11"/>
<polygon fill="black" stroke="black" points="132,-69.1 128.5,-59.1 125,-69.1 132,-69.1"/>
</g>
<!-- Level1&#45;&gt;n495 -->
<g id="edge14" class="edge">
<title>Level1&#45;&gt;n495</title>
<path fill="none" stroke="black" d="M127.5,-526.7C127.5,-518.98 127.5,-509.71 127.5,-501.11"/>
<polygon fill="black" stroke="black" points="131,-501.1 127.5,-491.1 124,-501.1 131,-501.1"/>
</g>
<!-- Level3 -->
<g id="node21" class="node">
<title>Level3</title>
<polygon fill="none" stroke="black" points="246.5,-563 182.5,-563 182.5,-527 246.5,-527 246.5,-563"/>
<text text-anchor="middle" x="214.5" y="-541.3" font-family="Times,serif" font-size="14.00">Level3</text>
</g>
<!-- Level1&#45;&gt;Level3 -->
<g id="edge23" class="edge">
<title>Level1&#45;&gt;Level3</title>
<path fill="none" stroke="black" d="M159.79,-545C163.92,-545 168.04,-545 172.17,-545"/>
<polygon fill="black" stroke="black" points="172.44,-548.5 182.44,-545 172.44,-541.5 172.44,-548.5"/>
</g>
<!-- n866 -->
<g id="node17" class="node">
<title>n866</title>
<polygon fill="none" stroke="black" points="242.5,-491 186.5,-491 186.5,-455 242.5,-455 242.5,-491"/>
<text text-anchor="middle" x="214.5" y="-469.3" font-family="Times,serif" font-size="14.00">Blake</text>
</g>
<!-- n1050 -->
<g id="node18" class="node">
<title>n1050</title>
<polygon fill="none" stroke="black" points="249.5,-419 179.5,-419 179.5,-383 249.5,-383 249.5,-419"/>
<text text-anchor="middle" x="214.5" y="-397.3" font-family="Times,serif" font-size="14.00">Alvarez</text>
</g>
<!-- n866&#45;&gt;n1050 -->
<g id="edge15" class="edge">
<title>n866&#45;&gt;n1050</title>
<path fill="none" stroke="black" d="M214.5,-454.7C214.5,-446.98 214.5,-437.71 214.5,-429.11"/>
<polygon fill="black" stroke="black" points="218,-429.1 214.5,-419.1 211,-429.1 218,-429.1"/>
</g>
<!-- n1254 -->
<g id="node19" class="node">
<title>n1254</title>
<polygon fill="none" stroke="black" points="247.5,-347 181.5,-347 181.5,-311 247.5,-311 247.5,-347"/>
<text text-anchor="middle" x="214.5" y="-325.3" font-family="Times,serif" font-size="14.00">Merrill</text>
</g>
<!-- n1050&#45;&gt;n1254 -->
<g id="edge16" class="edge">
<title>n1050&#45;&gt;n1254</title>
<path fill="none" stroke="black" d="M214.5,-382.7C214.5,-374.98 214.5,-365.71 214.5,-357.11"/>
<polygon fill="black" stroke="black" points="218,-357.1 214.5,-347.1 211,-357.1 218,-357.1"/>
</g>
<!-- n1444 -->
<g id="node20" class="node">
<title>n1444</title>
<polygon fill="none" stroke="black" points="260.5,-275 172.5,-275 172.5,-239 260.5,-239 260.5,-275"/>
<text text-anchor="middle" x="216.5" y="-253.3" font-family="Times,serif" font-size="14.00">Contreras</text>
</g>
<!-- n1254&#45;&gt;n1444 -->
<g id="edge17" class="edge">
<title>n1254&#45;&gt;n1444</title>
<path fill="none" stroke="black" d="M214.99,-310.7C215.21,-302.98 215.48,-293.71 215.73,-285.11"/>
<polygon fill="black" stroke="black" points="219.22,-285.2 216.01,-275.1 212.23,-285 219.22,-285.2"/>
</g>
<!-- Level3&#45;&gt;n866 -->
<g id="edge18" class="edge">
<title>Level3&#45;&gt;n866</title>
<path fill="none" stroke="black" d="M214.5,-526.7C214.5,-518.98 214.5,-509.71 214.5,-501.11"/>
<polygon fill="black" stroke="black" points="218,-501.1 214.5,-491.1 211,-501.1 218,-501.1"/>
</g>
<!-- Level4 -->
<g id="node25" class="node">
<title>Level4</title>
<polygon fill="none" stroke="black" points="333.5,-563 269.5,-563 269.5,-527 333.5,-527 333.5,-563"/>
<text text-anchor="middle" x="301.5" y="-541.3" font-family="Times,serif" font-size="14.00">Level4</text>
</g>
<!-- Level3&#45;&gt;Level4 -->
<g id="edge24" class="edge">
<title>Level3&#45;&gt;Level4</title>
<path fill="none" stroke="black" d="M246.79,-545C250.92,-545 255.04,-545 259.17,-545"/>
<polygon fill="black" stroke="black" points="259.44,-548.5 269.44,-545 259.44,-541.5 259.44,-548.5"/>
</g>
<!-- n618 -->
<g id="node22" class="node">
<title>n618</title>
<polygon fill="none" stroke="black" points="331.5,-491 275.5,-491 275.5,-455 331.5,-455 331.5,-491"/>
<text text-anchor="middle" x="303.5" y="-469.3" font-family="Times,serif" font-size="14.00">Baird</text>
</g>
<!-- n806 -->
<g id="node23" class="node">
<title>n806</title>
<polygon fill="none" stroke="black" points="344.5,-419 268.5,-419 268.5,-383 344.5,-383 344.5,-419"/>
<text text-anchor="middle" x="306.5" y="-397.3" font-family="Times,serif" font-size="14.00">Rodgers</text>
</g>
<!-- n618&#45;&gt;n806 -->
<g id="edge19" class="edge">
<title>n618&#45;&gt;n806</title>
<path fill="none" stroke="black" d="M304.24,-454.7C304.57,-446.98 304.97,-437.71 305.34,-429.11"/>
<polygon fill="black" stroke="black" points="308.84,-429.25 305.77,-419.1 301.84,-428.95 308.84,-429.25"/>
</g>
<!-- n1179 -->
<g id="node24" class="node">
<title>n1179</title>
<polygon fill="none" stroke="black" points="349.5,-347 265.5,-347 265.5,-311 349.5,-311 349.5,-347"/>
<text text-anchor="middle" x="307.5" y="-325.3" font-family="Times,serif" font-size="14.00">Randolph</text>
</g>
<!-- n806&#45;&gt;n1179 -->
<g id="edge20" class="edge">
<title>n806&#45;&gt;n1179</title>
<path fill="none" stroke="black" d="M306.75,-382.7C306.86,-374.98 306.99,-365.71 307.11,-357.11"/>
<polygon fill="black" stroke="black" points="310.61,-357.15 307.26,-347.1 303.61,-357.05 310.61,-357.15"/>
</g>
<!-- Level4&#45;&gt;n618 -->
<g id="edge21" class="edge">
<title>Level4&#45;&gt;n618</title>
<path fill="none" stroke="black" d="M301.99,-526.7C302.21,-518.98 302.48,-509.71 302.73,-501.11"/>
<polygon fill="black" stroke="black" points="306.22,-501.2 303.01,-491.1 299.23,-501 306.22,-501.2"/>
</g>
</g>
</svg>
