<?xml version="1.0" encoding="UTF-8" standalone="no"?>
<!DOCTYPE svg PUBLIC "-//W3C//DTD SVG 1.1//EN"
 "http://www.w3.org/Graphics/SVG/1.1/DTD/svg11.dtd">
<!-- Generated by graphviz version 2.43.0 (0)
 -->
<!-- Title: G Pages: 1 -->
<svg width="4876pt" height="332pt"
 viewBox="0.00 0.00 4876.00 332.00" xmlns="http://www.w3.org/2000/svg" xmlns:xlink="http://www.w3.org/1999/xlink">
<g id="graph0" class="graph" transform="scale(1 1) rotate(0) translate(4 328)">
<title>G</title>
<polygon fill="white" stroke="transparent" points="-4,4 -4,-328 4872,-328 4872,4 -4,4"/>
<!-- R0x55e2a0364fa0 -->
<g id="node1" class="node">
<title>R0x55e2a0364fa0</title>
<polygon fill="none" stroke="blue" points="2706.5,-240.5 2706.5,-323.5 3333.5,-323.5 3333.5,-240.5 2706.5,-240.5"/>
<text text-anchor="middle" x="2717" y="-278.3" font-family="Times,serif" font-size="14.00"> </text>
<polyline fill="none" stroke="blue" points="2727.5,-240.5 2727.5,-323.5 "/>
<text text-anchor="middle" x="3020" y="-308.3" font-family="Times,serif" font-size="14.00">ID: 102</text>
<text text-anchor="middle" x="3020" y="-293.3" font-family="Times,serif" font-size="14.00">Usr: usuario123</text>
<text text-anchor="middle" x="3020" y="-278.3" font-family="Times,serif" font-size="14.00">Pass: a665a45920422f9d417e4867efdc4fb8a04a1f3fff1fa07e998e86f7f7a27ae3</text>
<text text-anchor="middle" x="3020" y="-263.3" font-family="Times,serif" font-size="14.00">Edad: 55</text>
<text text-anchor="middle" x="3020" y="-248.3" font-family="Times,serif" font-size="14.00">Monedas: 56843</text>
<polyline fill="none" stroke="blue" points="3312.5,-240.5 3312.5,-323.5 "/>
<text text-anchor="middle" x="3323" y="-278.3" font-family="Times,serif" font-size="14.00"> </text>
</g>
<!-- R0x55e2a0364e00 -->
<g id="node2" class="node">
<title>R0x55e2a0364e00</title>
<polygon fill="none" stroke="blue" points="1315.5,-120.5 1315.5,-203.5 2568.5,-203.5 2568.5,-120.5 1315.5,-120.5"/>
<text text-anchor="middle" x="1326" y="-158.3" font-family="Times,serif" font-size="14.00"> </text>
<polyline fill="none" stroke="blue" points="1336.5,-120.5 1336.5,-203.5 "/>
<text text-anchor="middle" x="1639" y="-188.3" font-family="Times,serif" font-size="14.00">ID: 70</text>
<text text-anchor="middle" x="1639" y="-173.3" font-family="Times,serif" font-size="14.00">Usr: Lauren4488</text>
<text text-anchor="middle" x="1639" y="-158.3" font-family="Times,serif" font-size="14.00">Pass: 857aba7c59662e1c306cf59c0c2199ec1d2ce895a928fb62b54f034760ebe8a6</text>
<text text-anchor="middle" x="1639" y="-143.3" font-family="Times,serif" font-size="14.00">Edad: 11</text>
<text text-anchor="middle" x="1639" y="-128.3" font-family="Times,serif" font-size="14.00">Monedas: 7632</text>
<polyline fill="none" stroke="blue" points="1941.5,-120.5 1941.5,-203.5 "/>
<text text-anchor="middle" x="1952" y="-158.3" font-family="Times,serif" font-size="14.00"> </text>
<polyline fill="none" stroke="blue" points="1962.5,-120.5 1962.5,-203.5 "/>
<text text-anchor="middle" x="2255" y="-188.3" font-family="Times,serif" font-size="14.00">ID: 92</text>
<text text-anchor="middle" x="2255" y="-173.3" font-family="Times,serif" font-size="14.00">Usr: Twila8587</text>
<text text-anchor="middle" x="2255" y="-158.3" font-family="Times,serif" font-size="14.00">Pass: a665a45920422f9d417e4867efdc4fb8a04a1f3fff1fa07e998e86f7f7a27ae3</text>
<text text-anchor="middle" x="2255" y="-143.3" font-family="Times,serif" font-size="14.00">Edad: 16</text>
<text text-anchor="middle" x="2255" y="-128.3" font-family="Times,serif" font-size="14.00">Monedas: 4190</text>
<polyline fill="none" stroke="blue" points="2547.5,-120.5 2547.5,-203.5 "/>
<text text-anchor="middle" x="2558" y="-158.3" font-family="Times,serif" font-size="14.00"> </text>
</g>
<!-- R0x55e2a0364fa0&#45;&gt;R0x55e2a0364e00 -->
<g id="edge1" class="edge">
<title>R0x55e2a0364fa0:C1&#45;&gt;R0x55e2a0364e00</title>
<path fill="none" stroke="red" d="M2705,-282C2500.84,-282 2269.59,-239.89 2115.71,-205.77"/>
<polygon fill="red" stroke="red" points="2116.21,-202.3 2105.69,-203.54 2114.69,-209.13 2116.21,-202.3"/>
</g>
<!-- R0x55e2a0365070 -->
<g id="node6" class="node">
<title>R0x55e2a0365070</title>
<polygon fill="none" stroke="blue" points="3626.5,-120.5 3626.5,-203.5 4253.5,-203.5 4253.5,-120.5 3626.5,-120.5"/>
<text text-anchor="middle" x="3637" y="-158.3" font-family="Times,serif" font-size="14.00"> </text>
<polyline fill="none" stroke="blue" points="3647.5,-120.5 3647.5,-203.5 "/>
<text text-anchor="middle" x="3940" y="-188.3" font-family="Times,serif" font-size="14.00">ID: 117</text>
<text text-anchor="middle" x="3940" y="-173.3" font-family="Times,serif" font-size="14.00">Usr: Liz7870</text>
<text text-anchor="middle" x="3940" y="-158.3" font-family="Times,serif" font-size="14.00">Pass: a665a45920422f9d417e4867efdc4fb8a04a1f3fff1fa07e998e86f7f7a27ae3</text>
<text text-anchor="middle" x="3940" y="-143.3" font-family="Times,serif" font-size="14.00">Edad: 59</text>
<text text-anchor="middle" x="3940" y="-128.3" font-family="Times,serif" font-size="14.00">Monedas: 7674</text>
<polyline fill="none" stroke="blue" points="4232.5,-120.5 4232.5,-203.5 "/>
<text text-anchor="middle" x="4243" y="-158.3" font-family="Times,serif" font-size="14.00"> </text>
</g>
<!-- R0x55e2a0364fa0&#45;&gt;R0x55e2a0365070 -->
<g id="edge5" class="edge">
<title>R0x55e2a0364fa0:C2&#45;&gt;R0x55e2a0365070</title>
<path fill="none" stroke="red" d="M3335,-282C3497.2,-282 3679.34,-240.31 3800.99,-206.28"/>
<polygon fill="red" stroke="red" points="3802.06,-209.62 3810.74,-203.54 3800.17,-202.88 3802.06,-209.62"/>
</g>
<!-- R0x55e2a0363a80 -->
<g id="node3" class="node">
<title>R0x55e2a0363a80</title>
<polygon fill="none" stroke="blue" points="0,-0.5 0,-83.5 1170,-83.5 1170,-0.5 0,-0.5"/>
<text text-anchor="middle" x="292.5" y="-68.3" font-family="Times,serif" font-size="14.00">ID: 1</text>
<text text-anchor="middle" x="292.5" y="-53.3" font-family="Times,serif" font-size="14.00">Usr: PacoSilva</text>
<text text-anchor="middle" x="292.5" y="-38.3" font-family="Times,serif" font-size="14.00">Pass: a665a45920422f9d417e4867efdc4fb8a04a1f3fff1fa07e998e86f7f7a27ae3</text>
<text text-anchor="middle" x="292.5" y="-23.3" font-family="Times,serif" font-size="14.00">Edad: 22</text>
<text text-anchor="middle" x="292.5" y="-8.3" font-family="Times,serif" font-size="14.00">Monedas: 10256</text>
<polyline fill="none" stroke="blue" points="585,-0.5 585,-83.5 "/>
<text text-anchor="middle" x="877.5" y="-68.3" font-family="Times,serif" font-size="14.00">ID: 34</text>
<text text-anchor="middle" x="877.5" y="-53.3" font-family="Times,serif" font-size="14.00">Usr: ultimo</text>
<text text-anchor="middle" x="877.5" y="-38.3" font-family="Times,serif" font-size="14.00">Pass: a665a45920422f9d417e4867efdc4fb8a04a1f3fff1fa07e998e86f7f7a27ae3</text>
<text text-anchor="middle" x="877.5" y="-23.3" font-family="Times,serif" font-size="14.00">Edad: 25</text>
<text text-anchor="middle" x="877.5" y="-8.3" font-family="Times,serif" font-size="14.00">Monedas: 5258</text>
</g>
<!-- R0x55e2a0364e00&#45;&gt;R0x55e2a0363a80 -->
<g id="edge2" class="edge">
<title>R0x55e2a0364e00:C1&#45;&gt;R0x55e2a0363a80</title>
<path fill="none" stroke="red" d="M1314,-162C1118.91,-162 898.25,-119.98 751.3,-85.87"/>
<polygon fill="red" stroke="red" points="751.82,-82.4 741.29,-83.54 750.23,-89.22 751.82,-82.4"/>
</g>
<!-- R0x55e2a0364510 -->
<g id="node4" class="node">
<title>R0x55e2a0364510</title>
<polygon fill="none" stroke="blue" points="1188.5,-0.5 1188.5,-83.5 2397.5,-83.5 2397.5,-0.5 1188.5,-0.5"/>
<text text-anchor="middle" x="1489" y="-68.3" font-family="Times,serif" font-size="14.00">ID: 73</text>
<text text-anchor="middle" x="1489" y="-53.3" font-family="Times,serif" font-size="14.00">Usr: Letitia8666</text>
<text text-anchor="middle" x="1489" y="-38.3" font-family="Times,serif" font-size="14.00">Pass: 36c3c5ad460e3bd658efa29a85dd0696d40a1fe836cfcf69aa4629ddef8778a2</text>
<text text-anchor="middle" x="1489" y="-23.3" font-family="Times,serif" font-size="14.00">Edad: 53</text>
<text text-anchor="middle" x="1489" y="-8.3" font-family="Times,serif" font-size="14.00">Monedas: 4440</text>
<polyline fill="none" stroke="blue" points="1789.5,-0.5 1789.5,-83.5 "/>
<text text-anchor="middle" x="2093.5" y="-68.3" font-family="Times,serif" font-size="14.00">ID: 79</text>
<text text-anchor="middle" x="2093.5" y="-53.3" font-family="Times,serif" font-size="14.00">Usr: Diane8189</text>
<text text-anchor="middle" x="2093.5" y="-38.3" font-family="Times,serif" font-size="14.00">Pass: f64d723543fb050bc0c2b3b7d4bfd3440d32a1456c17b8cdc9eb1a3303a0535f</text>
<text text-anchor="middle" x="2093.5" y="-23.3" font-family="Times,serif" font-size="14.00">Edad: 50</text>
<text text-anchor="middle" x="2093.5" y="-8.3" font-family="Times,serif" font-size="14.00">Monedas: 7572</text>
</g>
<!-- R0x55e2a0364e00&#45;&gt;R0x55e2a0364510 -->
<g id="edge3" class="edge">
<title>R0x55e2a0364e00:C2&#45;&gt;R0x55e2a0364510</title>
<path fill="none" stroke="red" d="M1952,-120C1952,-109.07 1948.92,-99.7 1943.62,-91.65"/>
<polygon fill="red" stroke="red" points="1946.29,-89.39 1937.33,-83.74 1940.81,-93.74 1946.29,-89.39"/>
</g>
<!-- R0x55e2a0364780 -->
<g id="node5" class="node">
<title>R0x55e2a0364780</title>
<polygon fill="none" stroke="blue" points="2415.5,-0.5 2415.5,-83.5 3020.5,-83.5 3020.5,-0.5 2415.5,-0.5"/>
<text text-anchor="middle" x="2718" y="-68.3" font-family="Times,serif" font-size="14.00">ID: 100</text>
<text text-anchor="middle" x="2718" y="-53.3" font-family="Times,serif" font-size="14.00">Usr: Dejesus2371</text>
<text text-anchor="middle" x="2718" y="-38.3" font-family="Times,serif" font-size="14.00">Pass: a4df5bbd8151160d9cdb32029ea406fcd03fcbbeb56ae7585c1ec6bbf795e550</text>
<text text-anchor="middle" x="2718" y="-23.3" font-family="Times,serif" font-size="14.00">Edad: 47</text>
<text text-anchor="middle" x="2718" y="-8.3" font-family="Times,serif" font-size="14.00">Monedas: 6928</text>
</g>
<!-- R0x55e2a0364e00&#45;&gt;R0x55e2a0364780 -->
<g id="edge4" class="edge">
<title>R0x55e2a0364e00:C3&#45;&gt;R0x55e2a0364780</title>
<path fill="none" stroke="red" d="M2558,-120C2558,-109.02 2561.1,-99.6 2566.43,-91.53"/>
<polygon fill="red" stroke="red" points="2569.27,-93.59 2572.77,-83.59 2563.79,-89.22 2569.27,-93.59"/>
</g>
<!-- R0x55e2a0364ac0 -->
<g id="node7" class="node">
<title>R0x55e2a0364ac0</title>
<polygon fill="none" stroke="blue" points="3038.5,-0.5 3038.5,-83.5 4235.5,-83.5 4235.5,-0.5 3038.5,-0.5"/>
<text text-anchor="middle" x="3331" y="-68.3" font-family="Times,serif" font-size="14.00">ID: 104</text>
<text text-anchor="middle" x="3331" y="-53.3" font-family="Times,serif" font-size="14.00">Usr: u4</text>
<text text-anchor="middle" x="3331" y="-38.3" font-family="Times,serif" font-size="14.00">Pass: a665a45920422f9d417e4867efdc4fb8a04a1f3fff1fa07e998e86f7f7a27ae3</text>
<text text-anchor="middle" x="3331" y="-23.3" font-family="Times,serif" font-size="14.00">Edad: 30</text>
<text text-anchor="middle" x="3331" y="-8.3" font-family="Times,serif" font-size="14.00">Monedas: 8616</text>
<polyline fill="none" stroke="blue" points="3623.5,-0.5 3623.5,-83.5 "/>
<text text-anchor="middle" x="3929.5" y="-68.3" font-family="Times,serif" font-size="14.00">ID: 112</text>
<text text-anchor="middle" x="3929.5" y="-53.3" font-family="Times,serif" font-size="14.00">Usr: Tabatha9866</text>
<text text-anchor="middle" x="3929.5" y="-38.3" font-family="Times,serif" font-size="14.00">Pass: 4fb135763766272d2512b797f00597f22b474b0bc7fc576dcb24816a0556cd48</text>
<text text-anchor="middle" x="3929.5" y="-23.3" font-family="Times,serif" font-size="14.00">Edad: 58</text>
<text text-anchor="middle" x="3929.5" y="-8.3" font-family="Times,serif" font-size="14.00">Monedas: 6676</text>
</g>
<!-- R0x55e2a0365070&#45;&gt;R0x55e2a0364ac0 -->
<g id="edge6" class="edge">
<title>R0x55e2a0365070:C1&#45;&gt;R0x55e2a0364ac0</title>
<path fill="none" stroke="red" d="M3637,-120C3637,-111.54 3637,-102.57 3637,-93.84"/>
<polygon fill="red" stroke="red" points="3640.5,-93.76 3637,-83.76 3633.5,-93.76 3640.5,-93.76"/>
</g>
<!-- R0x55e2a0364d30 -->
<g id="node8" class="node">
<title>R0x55e2a0364d30</title>
<polygon fill="none" stroke="blue" points="4254,-0.5 4254,-83.5 4868,-83.5 4868,-0.5 4254,-0.5"/>
<text text-anchor="middle" x="4561" y="-68.3" font-family="Times,serif" font-size="14.00">ID: 119</text>
<text text-anchor="middle" x="4561" y="-53.3" font-family="Times,serif" font-size="14.00">Usr: Young1259</text>
<text text-anchor="middle" x="4561" y="-38.3" font-family="Times,serif" font-size="14.00">Pass: 28287a8da537bca9d1d2acfa80a6777313195d86fe67a7bace5d4d01096126b8</text>
<text text-anchor="middle" x="4561" y="-23.3" font-family="Times,serif" font-size="14.00">Edad: 54</text>
<text text-anchor="middle" x="4561" y="-8.3" font-family="Times,serif" font-size="14.00">Monedas: 1076</text>
</g>
<!-- R0x55e2a0365070&#45;&gt;R0x55e2a0364d30 -->
<g id="edge7" class="edge">
<title>R0x55e2a0365070:C2&#45;&gt;R0x55e2a0364d30</title>
<path fill="none" stroke="red" d="M4243,-120C4243,-107.54 4252.34,-97.09 4267.82,-88.32"/>
<polygon fill="red" stroke="red" points="4269.71,-91.29 4277.03,-83.62 4266.53,-85.05 4269.71,-91.29"/>
</g>
</g>
</svg>
