<?xml version="1.0" encoding="UTF-8" standalone="no"?>
<!DOCTYPE svg PUBLIC "-//W3C//DTD SVG 1.1//EN"
 "http://www.w3.org/Graphics/SVG/1.1/DTD/svg11.dtd">
<!-- Generated by graphviz version 2.43.0 (0)
 -->
<!-- Title: G Pages: 1 -->
<svg width="510pt" height="281pt"
 viewBox="0.00 0.00 510.00 281.00" xmlns="http://www.w3.org/2000/svg" xmlns:xlink="http://www.w3.org/1999/xlink">
<g id="graph0" class="graph" transform="scale(1 1) rotate(0) translate(4 277)">
<title>G</title>
<polygon fill="white" stroke="transparent" points="-4,4 -4,-277 506,-277 506,4 -4,4"/>
<text text-anchor="middle" x="251" y="-9" font-family="Arial Black" font-size="15.00">Compras EDD</text>
<!-- N1 -->
<g id="node1" class="node">
<title>N1</title>
<polygon fill="black" stroke="black" points="246,-273 107,-220 246,-167 385,-220 246,-273"/>
<text text-anchor="middle" x="246" y="-231.3" font-family="Times,serif" font-size="14.00" fill="white">ID: 1791</text>
<text text-anchor="middle" x="246" y="-216.3" font-family="Times,serif" font-size="14.00" fill="white">Nombre: Leblanc</text>
<text text-anchor="middle" x="246" y="-201.3" font-family="Times,serif" font-size="14.00" fill="white">Cantidad: 55</text>
</g>
<!-- N3 -->
<g id="node2" class="node">
<title>N3</title>
<polygon fill="black" stroke="black" points="116,-131 0,-78 116,-25 232,-78 116,-131"/>
<text text-anchor="middle" x="116" y="-89.3" font-family="Times,serif" font-size="14.00" fill="white">ID: 1276</text>
<text text-anchor="middle" x="116" y="-74.3" font-family="Times,serif" font-size="14.00" fill="white">Nombre: Ford</text>
<text text-anchor="middle" x="116" y="-59.3" font-family="Times,serif" font-size="14.00" fill="white">Cantidad: 21</text>
</g>
<!-- N1&#45;&gt;N3 -->
<g id="edge1" class="edge">
<title>N1:C0&#45;&gt;N3</title>
<path fill="none" stroke="black" d="M210.13,-180.37C193.69,-162.67 174.12,-141.59 157.09,-123.25"/>
<polygon fill="black" stroke="black" points="159.33,-120.52 149.96,-115.57 154.2,-125.28 159.33,-120.52"/>
</g>
<!-- N2 -->
<g id="node3" class="node">
<title>N2</title>
<polygon fill="black" stroke="black" points="376,-131 250,-78 376,-25 502,-78 376,-131"/>
<text text-anchor="middle" x="376" y="-89.3" font-family="Times,serif" font-size="14.00" fill="white">ID: 1839</text>
<text text-anchor="middle" x="376" y="-74.3" font-family="Times,serif" font-size="14.00" fill="white">Nombre: Wyatt</text>
<text text-anchor="middle" x="376" y="-59.3" font-family="Times,serif" font-size="14.00" fill="white">Cantidad: 21</text>
</g>
<!-- N1&#45;&gt;N2 -->
<g id="edge2" class="edge">
<title>N1:C1&#45;&gt;N2</title>
<path fill="none" stroke="black" d="M281.87,-180.37C298.04,-162.95 317.26,-142.26 334.09,-124.13"/>
<polygon fill="black" stroke="black" points="336.91,-126.24 341.15,-116.53 331.78,-121.48 336.91,-126.24"/>
</g>
</g>
</svg>
