<?xml version="1.0" encoding="UTF-8" standalone="no"?>
<!DOCTYPE svg PUBLIC "-//W3C//DTD SVG 1.1//EN"
 "http://www.w3.org/Graphics/SVG/1.1/DTD/svg11.dtd">
<!-- Generated by graphviz version 2.50.0 (20211204.2007)
 -->
<!-- Title: G Pages: 1 -->
<svg width="337pt" height="819pt"
 viewBox="0.00 0.00 336.50 818.90" xmlns="http://www.w3.org/2000/svg" xmlns:xlink="http://www.w3.org/1999/xlink">
<g id="graph0" class="graph" transform="scale(1 1) rotate(0) translate(4 814.9)">
<title>G</title>
<polygon fill="white" stroke="transparent" points="-4,4 -4,-814.9 332.5,-814.9 332.5,4 -4,4"/>
<text text-anchor="middle" x="164.25" y="-7.8" font-family="Times New Roman,serif" font-size="14.00">ListaListas</text>
<!-- n347344 -->
<g id="node1" class="node">
<title>n347344</title>
<polygon fill="none" stroke="black" points="69.5,-707 15.5,-707 15.5,-671 69.5,-671 69.5,-707"/>
<text text-anchor="middle" x="42.5" y="-685.3" font-family="Times New Roman,serif" font-size="14.00">Atkins</text>
</g>
<!-- n743696 -->
<g id="node2" class="node">
<title>n743696</title>
<polygon fill="none" stroke="black" points="67.5,-635 13.5,-635 13.5,-599 67.5,-599 67.5,-635"/>
<text text-anchor="middle" x="40.5" y="-613.3" font-family="Times New Roman,serif" font-size="14.00">Haley</text>
</g>
<!-- n347344&#45;&gt;n743696 -->
<g id="edge1" class="edge">
<title>n347344&#45;&gt;n743696</title>
<path fill="none" stroke="black" d="M41.72,-660.67C41.57,-655.55 41.42,-650.21 41.27,-645.1"/>
<polygon fill="black" stroke="black" points="38.22,-660.8 42.01,-670.7 45.22,-660.6 38.22,-660.8"/>
<polygon fill="black" stroke="black" points="44.77,-645 40.99,-635.1 37.78,-645.2 44.77,-645"/>
</g>
<!-- n601509 -->
<g id="node3" class="node">
<title>n601509</title>
<polygon fill="none" stroke="black" points="77,-563 0,-563 0,-527 77,-527 77,-563"/>
<text text-anchor="middle" x="38.5" y="-541.3" font-family="Times New Roman,serif" font-size="14.00">Cummings</text>
</g>
<!-- n743696&#45;&gt;n601509 -->
<g id="edge2" class="edge">
<title>n743696&#45;&gt;n601509</title>
<path fill="none" stroke="black" d="M39.72,-588.67C39.57,-583.55 39.42,-578.21 39.27,-573.1"/>
<polygon fill="black" stroke="black" points="36.22,-588.8 40.01,-598.7 43.22,-588.6 36.22,-588.8"/>
<polygon fill="black" stroke="black" points="42.77,-573 38.99,-563.1 35.78,-573.2 42.77,-573"/>
</g>
<!-- n312003 -->
<g id="node4" class="node">
<title>n312003</title>
<polygon fill="none" stroke="black" points="68.5,-491 8.5,-491 8.5,-455 68.5,-455 68.5,-491"/>
<text text-anchor="middle" x="38.5" y="-469.3" font-family="Times New Roman,serif" font-size="14.00">Winters</text>
</g>
<!-- n601509&#45;&gt;n312003 -->
<g id="edge3" class="edge">
<title>n601509&#45;&gt;n312003</title>
<path fill="none" stroke="black" d="M38.5,-516.67C38.5,-511.69 38.5,-506.49 38.5,-501.51"/>
<polygon fill="black" stroke="black" points="35,-516.7 38.5,-526.7 42,-516.7 35,-516.7"/>
<polygon fill="black" stroke="black" points="42,-501.1 38.5,-491.1 35,-501.1 42,-501.1"/>
</g>
<!-- n84869 -->
<g id="node5" class="node">
<title>n84869</title>
<polygon fill="none" stroke="black" points="71.5,-419 5.5,-419 5.5,-383 71.5,-383 71.5,-419"/>
<text text-anchor="middle" x="38.5" y="-397.3" font-family="Times New Roman,serif" font-size="14.00">Mcintyre</text>
</g>
<!-- n312003&#45;&gt;n84869 -->
<g id="edge4" class="edge">
<title>n312003&#45;&gt;n84869</title>
<path fill="none" stroke="black" d="M38.5,-444.67C38.5,-439.69 38.5,-434.49 38.5,-429.51"/>
<polygon fill="black" stroke="black" points="35,-444.7 38.5,-454.7 42,-444.7 35,-444.7"/>
<polygon fill="black" stroke="black" points="42,-429.1 38.5,-419.1 35,-429.1 42,-429.1"/>
</g>
<!-- n105126 -->
<g id="node6" class="node">
<title>n105126</title>
<polygon fill="none" stroke="black" points="67.5,-347 9.5,-347 9.5,-311 67.5,-311 67.5,-347"/>
<text text-anchor="middle" x="38.5" y="-325.3" font-family="Times New Roman,serif" font-size="14.00">Warner</text>
</g>
<!-- n84869&#45;&gt;n105126 -->
<g id="edge5" class="edge">
<title>n84869&#45;&gt;n105126</title>
<path fill="none" stroke="black" d="M38.5,-372.67C38.5,-367.69 38.5,-362.49 38.5,-357.51"/>
<polygon fill="black" stroke="black" points="35,-372.7 38.5,-382.7 42,-372.7 35,-372.7"/>
<polygon fill="black" stroke="black" points="42,-357.1 38.5,-347.1 35,-357.1 42,-357.1"/>
</g>
<!-- Leve2 -->
<g id="node7" class="node">
<title>Leve2</title>
<polygon fill="none" stroke="black" points="85.5,-779 31.5,-779 31.5,-743 85.5,-743 85.5,-779"/>
<text text-anchor="middle" x="58.5" y="-757.3" font-family="Times New Roman,serif" font-size="14.00">Leve2</text>
</g>
<!-- Leve2&#45;&gt;n347344 -->
<g id="edge6" class="edge">
<title>Leve2&#45;&gt;n347344</title>
<path fill="none" stroke="black" d="M52.25,-732.67C51.08,-727.55 49.86,-722.21 48.7,-717.1"/>
<polygon fill="black" stroke="black" points="48.9,-733.73 54.54,-742.7 55.73,-732.17 48.9,-733.73"/>
<polygon fill="black" stroke="black" points="52.05,-716.07 46.41,-707.1 45.23,-717.63 52.05,-716.07"/>
</g>
<!-- Level1 -->
<g id="node17" class="node">
<title>Level1</title>
<polygon fill="none" stroke="black" points="157.5,-779 103.5,-779 103.5,-743 157.5,-743 157.5,-779"/>
<text text-anchor="middle" x="130.5" y="-757.3" font-family="Times New Roman,serif" font-size="14.00">Level1</text>
</g>
<!-- Leve2&#45;&gt;Level1 -->
<g id="edge31" class="edge">
<title>Leve2&#45;&gt;Level1</title>
<path fill="none" stroke="black" d="M95.88,-747.52C96.03,-747.52 96.19,-747.53 96.34,-747.54"/>
<polygon fill="black" stroke="black" points="95.49,-744.04 85.78,-748.29 96.02,-751.02 95.49,-744.04"/>
<polygon fill="black" stroke="black" points="92.93,-750.68 103.25,-748.3 93.69,-743.72 92.93,-750.68"/>
</g>
<!-- Leve2&#45;&gt;Level1 -->
<g id="edge35" class="edge">
<title>Leve2&#45;&gt;Level1</title>
<path fill="none" stroke="black" d="M95.88,-774.48C96.03,-774.48 96.19,-774.47 96.34,-774.46"/>
<polygon fill="black" stroke="black" points="96.02,-770.98 85.78,-773.71 95.49,-777.96 96.02,-770.98"/>
<polygon fill="black" stroke="black" points="93.69,-778.28 103.25,-773.7 92.93,-771.32 93.69,-778.28"/>
</g>
<!-- n774736 -->
<g id="node8" class="node">
<title>n774736</title>
<polygon fill="none" stroke="black" points="161.5,-707 89.5,-707 89.5,-671 161.5,-671 161.5,-707"/>
<text text-anchor="middle" x="125.5" y="-685.3" font-family="Times New Roman,serif" font-size="14.00">Workman</text>
</g>
<!-- n381079 -->
<g id="node9" class="node">
<title>n381079</title>
<polygon fill="none" stroke="black" points="155.5,-635 87.5,-635 87.5,-599 155.5,-599 155.5,-635"/>
<text text-anchor="middle" x="121.5" y="-613.3" font-family="Times New Roman,serif" font-size="14.00">Valentine</text>
</g>
<!-- n774736&#45;&gt;n381079 -->
<g id="edge7" class="edge">
<title>n774736&#45;&gt;n381079</title>
<path fill="none" stroke="black" d="M123.94,-660.67C123.65,-655.55 123.34,-650.21 123.05,-645.1"/>
<polygon fill="black" stroke="black" points="120.45,-660.91 124.51,-670.7 127.43,-660.51 120.45,-660.91"/>
<polygon fill="black" stroke="black" points="126.54,-644.89 122.48,-635.1 119.55,-645.29 126.54,-644.89"/>
</g>
<!-- n211536 -->
<g id="node10" class="node">
<title>n211536</title>
<polygon fill="none" stroke="black" points="155.5,-563 95.5,-563 95.5,-527 155.5,-527 155.5,-563"/>
<text text-anchor="middle" x="125.5" y="-541.3" font-family="Times New Roman,serif" font-size="14.00">Hodges</text>
</g>
<!-- n381079&#45;&gt;n211536 -->
<g id="edge8" class="edge">
<title>n381079&#45;&gt;n211536</title>
<path fill="none" stroke="black" d="M123.06,-588.67C123.35,-583.55 123.66,-578.21 123.95,-573.1"/>
<polygon fill="black" stroke="black" points="119.57,-588.51 122.49,-598.7 126.55,-588.91 119.57,-588.51"/>
<polygon fill="black" stroke="black" points="127.45,-573.29 124.52,-563.1 120.46,-572.89 127.45,-573.29"/>
</g>
<!-- n354855 -->
<g id="node11" class="node">
<title>n354855</title>
<polygon fill="none" stroke="black" points="152.5,-491 98.5,-491 98.5,-455 152.5,-455 152.5,-491"/>
<text text-anchor="middle" x="125.5" y="-469.3" font-family="Times New Roman,serif" font-size="14.00">Rios</text>
</g>
<!-- n211536&#45;&gt;n354855 -->
<g id="edge9" class="edge">
<title>n211536&#45;&gt;n354855</title>
<path fill="none" stroke="black" d="M125.5,-516.67C125.5,-511.69 125.5,-506.49 125.5,-501.51"/>
<polygon fill="black" stroke="black" points="122,-516.7 125.5,-526.7 129,-516.7 122,-516.7"/>
<polygon fill="black" stroke="black" points="129,-501.1 125.5,-491.1 122,-501.1 129,-501.1"/>
</g>
<!-- n414241 -->
<g id="node12" class="node">
<title>n414241</title>
<polygon fill="none" stroke="black" points="152.5,-419 98.5,-419 98.5,-383 152.5,-383 152.5,-419"/>
<text text-anchor="middle" x="125.5" y="-397.3" font-family="Times New Roman,serif" font-size="14.00">Todd</text>
</g>
<!-- n354855&#45;&gt;n414241 -->
<g id="edge10" class="edge">
<title>n354855&#45;&gt;n414241</title>
<path fill="none" stroke="black" d="M125.5,-444.67C125.5,-439.69 125.5,-434.49 125.5,-429.51"/>
<polygon fill="black" stroke="black" points="122,-444.7 125.5,-454.7 129,-444.7 122,-444.7"/>
<polygon fill="black" stroke="black" points="129,-429.1 125.5,-419.1 122,-429.1 129,-429.1"/>
</g>
<!-- n187799 -->
<g id="node13" class="node">
<title>n187799</title>
<polygon fill="none" stroke="black" points="153.5,-347 97.5,-347 97.5,-311 153.5,-311 153.5,-347"/>
<text text-anchor="middle" x="125.5" y="-325.3" font-family="Times New Roman,serif" font-size="14.00">Graves</text>
</g>
<!-- n414241&#45;&gt;n187799 -->
<g id="edge11" class="edge">
<title>n414241&#45;&gt;n187799</title>
<path fill="none" stroke="black" d="M125.5,-372.67C125.5,-367.69 125.5,-362.49 125.5,-357.51"/>
<polygon fill="black" stroke="black" points="122,-372.7 125.5,-382.7 129,-372.7 122,-372.7"/>
<polygon fill="black" stroke="black" points="129,-357.1 125.5,-347.1 122,-357.1 129,-357.1"/>
</g>
<!-- n911376 -->
<g id="node14" class="node">
<title>n911376</title>
<polygon fill="none" stroke="black" points="158,-275 93,-275 93,-239 158,-239 158,-275"/>
<text text-anchor="middle" x="125.5" y="-253.3" font-family="Times New Roman,serif" font-size="14.00">Hawkins</text>
</g>
<!-- n187799&#45;&gt;n911376 -->
<g id="edge12" class="edge">
<title>n187799&#45;&gt;n911376</title>
<path fill="none" stroke="black" d="M125.5,-300.67C125.5,-295.69 125.5,-290.49 125.5,-285.51"/>
<polygon fill="black" stroke="black" points="122,-300.7 125.5,-310.7 129,-300.7 122,-300.7"/>
<polygon fill="black" stroke="black" points="129,-285.1 125.5,-275.1 122,-285.1 129,-285.1"/>
</g>
<!-- n710602 -->
<g id="node15" class="node">
<title>n710602</title>
<polygon fill="none" stroke="black" points="158,-203 93,-203 93,-167 158,-167 158,-203"/>
<text text-anchor="middle" x="125.5" y="-181.3" font-family="Times New Roman,serif" font-size="14.00">Faulkner</text>
</g>
<!-- n911376&#45;&gt;n710602 -->
<g id="edge13" class="edge">
<title>n911376&#45;&gt;n710602</title>
<path fill="none" stroke="black" d="M125.5,-228.67C125.5,-223.69 125.5,-218.49 125.5,-213.51"/>
<polygon fill="black" stroke="black" points="122,-228.7 125.5,-238.7 129,-228.7 122,-228.7"/>
<polygon fill="black" stroke="black" points="129,-213.1 125.5,-203.1 122,-213.1 129,-213.1"/>
</g>
<!-- n365652 -->
<g id="node16" class="node">
<title>n365652</title>
<polygon fill="none" stroke="black" points="152.5,-131 98.5,-131 98.5,-95 152.5,-95 152.5,-131"/>
<text text-anchor="middle" x="125.5" y="-109.3" font-family="Times New Roman,serif" font-size="14.00">Huber</text>
</g>
<!-- n710602&#45;&gt;n365652 -->
<g id="edge14" class="edge">
<title>n710602&#45;&gt;n365652</title>
<path fill="none" stroke="black" d="M125.5,-156.67C125.5,-151.69 125.5,-146.49 125.5,-141.51"/>
<polygon fill="black" stroke="black" points="122,-156.7 125.5,-166.7 129,-156.7 122,-156.7"/>
<polygon fill="black" stroke="black" points="129,-141.1 125.5,-131.1 122,-141.1 129,-141.1"/>
</g>
<!-- Level1&#45;&gt;n774736 -->
<g id="edge15" class="edge">
<title>Level1&#45;&gt;n774736</title>
<path fill="none" stroke="black" d="M128.55,-732.67C128.18,-727.55 127.8,-722.21 127.44,-717.1"/>
<polygon fill="black" stroke="black" points="125.06,-732.97 129.26,-742.7 132.04,-732.47 125.06,-732.97"/>
<polygon fill="black" stroke="black" points="130.93,-716.83 126.72,-707.1 123.94,-717.33 130.93,-716.83"/>
</g>
<!-- Level3 -->
<g id="node23" class="node">
<title>Level3</title>
<polygon fill="none" stroke="black" points="229.5,-779 175.5,-779 175.5,-743 229.5,-743 229.5,-779"/>
<text text-anchor="middle" x="202.5" y="-757.3" font-family="Times New Roman,serif" font-size="14.00">Level3</text>
</g>
<!-- Level1&#45;&gt;Level3 -->
<g id="edge32" class="edge">
<title>Level1&#45;&gt;Level3</title>
<path fill="none" stroke="black" d="M167.88,-747.52C168.03,-747.52 168.19,-747.53 168.34,-747.54"/>
<polygon fill="black" stroke="black" points="167.49,-744.04 157.78,-748.29 168.02,-751.02 167.49,-744.04"/>
<polygon fill="black" stroke="black" points="164.93,-750.68 175.25,-748.3 165.69,-743.72 164.93,-750.68"/>
</g>
<!-- Level1&#45;&gt;Level3 -->
<g id="edge36" class="edge">
<title>Level1&#45;&gt;Level3</title>
<path fill="none" stroke="black" d="M167.88,-774.48C168.03,-774.48 168.19,-774.47 168.34,-774.46"/>
<polygon fill="black" stroke="black" points="168.02,-770.98 157.78,-773.71 167.49,-777.96 168.02,-770.98"/>
<polygon fill="black" stroke="black" points="165.69,-778.28 175.25,-773.7 164.93,-771.32 165.69,-778.28"/>
</g>
<!-- n370623 -->
<g id="node18" class="node">
<title>n370623</title>
<polygon fill="none" stroke="black" points="234.5,-707 180.5,-707 180.5,-671 234.5,-671 234.5,-707"/>
<text text-anchor="middle" x="207.5" y="-685.3" font-family="Times New Roman,serif" font-size="14.00">Byers</text>
</g>
<!-- n960268 -->
<g id="node19" class="node">
<title>n960268</title>
<polygon fill="none" stroke="black" points="245,-635 174,-635 174,-599 245,-599 245,-635"/>
<text text-anchor="middle" x="209.5" y="-613.3" font-family="Times New Roman,serif" font-size="14.00">Robinson</text>
</g>
<!-- n370623&#45;&gt;n960268 -->
<g id="edge16" class="edge">
<title>n370623&#45;&gt;n960268</title>
<path fill="none" stroke="black" d="M208.28,-660.67C208.43,-655.55 208.58,-650.21 208.73,-645.1"/>
<polygon fill="black" stroke="black" points="204.78,-660.6 207.99,-670.7 211.78,-660.8 204.78,-660.6"/>
<polygon fill="black" stroke="black" points="212.22,-645.2 209.01,-635.1 205.23,-645 212.22,-645.2"/>
</g>
<!-- n188166 -->
<g id="node20" class="node">
<title>n188166</title>
<polygon fill="none" stroke="black" points="242.5,-563 176.5,-563 176.5,-527 242.5,-527 242.5,-563"/>
<text text-anchor="middle" x="209.5" y="-541.3" font-family="Times New Roman,serif" font-size="14.00">Erickson</text>
</g>
<!-- n960268&#45;&gt;n188166 -->
<g id="edge17" class="edge">
<title>n960268&#45;&gt;n188166</title>
<path fill="none" stroke="black" d="M209.5,-588.67C209.5,-583.69 209.5,-578.49 209.5,-573.51"/>
<polygon fill="black" stroke="black" points="206,-588.7 209.5,-598.7 213,-588.7 206,-588.7"/>
<polygon fill="black" stroke="black" points="213,-573.1 209.5,-563.1 206,-573.1 213,-573.1"/>
</g>
<!-- n870215 -->
<g id="node21" class="node">
<title>n870215</title>
<polygon fill="none" stroke="black" points="239.5,-491 179.5,-491 179.5,-455 239.5,-455 239.5,-491"/>
<text text-anchor="middle" x="209.5" y="-469.3" font-family="Times New Roman,serif" font-size="14.00">Michael</text>
</g>
<!-- n188166&#45;&gt;n870215 -->
<g id="edge18" class="edge">
<title>n188166&#45;&gt;n870215</title>
<path fill="none" stroke="black" d="M209.5,-516.67C209.5,-511.69 209.5,-506.49 209.5,-501.51"/>
<polygon fill="black" stroke="black" points="206,-516.7 209.5,-526.7 213,-516.7 206,-516.7"/>
<polygon fill="black" stroke="black" points="213,-501.1 209.5,-491.1 206,-501.1 213,-501.1"/>
</g>
<!-- n53922 -->
<g id="node22" class="node">
<title>n53922</title>
<polygon fill="none" stroke="black" points="236.5,-419 182.5,-419 182.5,-383 236.5,-383 236.5,-419"/>
<text text-anchor="middle" x="209.5" y="-397.3" font-family="Times New Roman,serif" font-size="14.00">Hebert</text>
</g>
<!-- n870215&#45;&gt;n53922 -->
<g id="edge19" class="edge">
<title>n870215&#45;&gt;n53922</title>
<path fill="none" stroke="black" d="M209.5,-444.67C209.5,-439.69 209.5,-434.49 209.5,-429.51"/>
<polygon fill="black" stroke="black" points="206,-444.7 209.5,-454.7 213,-444.7 206,-444.7"/>
<polygon fill="black" stroke="black" points="213,-429.1 209.5,-419.1 206,-429.1 213,-429.1"/>
</g>
<!-- Level3&#45;&gt;n370623 -->
<g id="edge20" class="edge">
<title>Level3&#45;&gt;n370623</title>
<path fill="none" stroke="black" d="M204.45,-732.67C204.82,-727.55 205.2,-722.21 205.56,-717.1"/>
<polygon fill="black" stroke="black" points="200.96,-732.47 203.74,-742.7 207.94,-732.97 200.96,-732.47"/>
<polygon fill="black" stroke="black" points="209.06,-717.33 206.28,-707.1 202.07,-716.83 209.06,-717.33"/>
</g>
<!-- Level4 -->
<g id="node34" class="node">
<title>Level4</title>
<polygon fill="none" stroke="black" points="301.5,-779 247.5,-779 247.5,-743 301.5,-743 301.5,-779"/>
<text text-anchor="middle" x="274.5" y="-757.3" font-family="Times New Roman,serif" font-size="14.00">Level4</text>
</g>
<!-- Level3&#45;&gt;Level4 -->
<g id="edge33" class="edge">
<title>Level3&#45;&gt;Level4</title>
<path fill="none" stroke="black" d="M239.88,-747.52C240.03,-747.52 240.19,-747.53 240.34,-747.54"/>
<polygon fill="black" stroke="black" points="239.49,-744.04 229.78,-748.29 240.02,-751.02 239.49,-744.04"/>
<polygon fill="black" stroke="black" points="236.93,-750.68 247.25,-748.3 237.69,-743.72 236.93,-750.68"/>
</g>
<!-- Level3&#45;&gt;Level4 -->
<g id="edge37" class="edge">
<title>Level3&#45;&gt;Level4</title>
<path fill="none" stroke="black" d="M239.88,-774.48C240.03,-774.48 240.19,-774.47 240.34,-774.46"/>
<polygon fill="black" stroke="black" points="240.02,-770.98 229.78,-773.71 239.49,-777.96 240.02,-770.98"/>
<polygon fill="black" stroke="black" points="237.69,-778.28 247.25,-773.7 236.93,-771.32 237.69,-778.28"/>
</g>
<!-- n80861 -->
<g id="node24" class="node">
<title>n80861</title>
<polygon fill="none" stroke="black" points="312.5,-707 258.5,-707 258.5,-671 312.5,-671 312.5,-707"/>
<text text-anchor="middle" x="285.5" y="-685.3" font-family="Times New Roman,serif" font-size="14.00">Fisher</text>
</g>
<!-- n263406 -->
<g id="node25" class="node">
<title>n263406</title>
<polygon fill="none" stroke="black" points="319.5,-635 263.5,-635 263.5,-599 319.5,-599 319.5,-635"/>
<text text-anchor="middle" x="291.5" y="-613.3" font-family="Times New Roman,serif" font-size="14.00">Brewer</text>
</g>
<!-- n80861&#45;&gt;n263406 -->
<g id="edge21" class="edge">
<title>n80861&#45;&gt;n263406</title>
<path fill="none" stroke="black" d="M287.84,-660.67C288.28,-655.55 288.74,-650.21 289.18,-645.1"/>
<polygon fill="black" stroke="black" points="284.35,-660.43 286.98,-670.7 291.32,-661.03 284.35,-660.43"/>
<polygon fill="black" stroke="black" points="292.67,-645.37 290.03,-635.1 285.69,-644.77 292.67,-645.37"/>
</g>
<!-- n650184 -->
<g id="node26" class="node">
<title>n650184</title>
<polygon fill="none" stroke="black" points="319.5,-563 263.5,-563 263.5,-527 319.5,-527 319.5,-563"/>
<text text-anchor="middle" x="291.5" y="-541.3" font-family="Times New Roman,serif" font-size="14.00">Howell</text>
</g>
<!-- n263406&#45;&gt;n650184 -->
<g id="edge22" class="edge">
<title>n263406&#45;&gt;n650184</title>
<path fill="none" stroke="black" d="M291.5,-588.67C291.5,-583.69 291.5,-578.49 291.5,-573.51"/>
<polygon fill="black" stroke="black" points="288,-588.7 291.5,-598.7 295,-588.7 288,-588.7"/>
<polygon fill="black" stroke="black" points="295,-573.1 291.5,-563.1 288,-573.1 295,-573.1"/>
</g>
<!-- n42628 -->
<g id="node27" class="node">
<title>n42628</title>
<polygon fill="none" stroke="black" points="321,-491 262,-491 262,-455 321,-455 321,-491"/>
<text text-anchor="middle" x="291.5" y="-469.3" font-family="Times New Roman,serif" font-size="14.00">Stewart</text>
</g>
<!-- n650184&#45;&gt;n42628 -->
<g id="edge23" class="edge">
<title>n650184&#45;&gt;n42628</title>
<path fill="none" stroke="black" d="M291.5,-516.67C291.5,-511.69 291.5,-506.49 291.5,-501.51"/>
<polygon fill="black" stroke="black" points="288,-516.7 291.5,-526.7 295,-516.7 288,-516.7"/>
<polygon fill="black" stroke="black" points="295,-501.1 291.5,-491.1 288,-501.1 295,-501.1"/>
</g>
<!-- n952836 -->
<g id="node28" class="node">
<title>n952836</title>
<polygon fill="none" stroke="black" points="318.5,-419 264.5,-419 264.5,-383 318.5,-383 318.5,-419"/>
<text text-anchor="middle" x="291.5" y="-397.3" font-family="Times New Roman,serif" font-size="14.00">Castro</text>
</g>
<!-- n42628&#45;&gt;n952836 -->
<g id="edge24" class="edge">
<title>n42628&#45;&gt;n952836</title>
<path fill="none" stroke="black" d="M291.5,-444.67C291.5,-439.69 291.5,-434.49 291.5,-429.51"/>
<polygon fill="black" stroke="black" points="288,-444.7 291.5,-454.7 295,-444.7 288,-444.7"/>
<polygon fill="black" stroke="black" points="295,-429.1 291.5,-419.1 288,-429.1 295,-429.1"/>
</g>
<!-- n878168 -->
<g id="node29" class="node">
<title>n878168</title>
<polygon fill="none" stroke="black" points="328.5,-347 254.5,-347 254.5,-311 328.5,-311 328.5,-347"/>
<text text-anchor="middle" x="291.5" y="-325.3" font-family="Times New Roman,serif" font-size="14.00">Mcdonald</text>
</g>
<!-- n952836&#45;&gt;n878168 -->
<g id="edge25" class="edge">
<title>n952836&#45;&gt;n878168</title>
<path fill="none" stroke="black" d="M291.5,-372.67C291.5,-367.69 291.5,-362.49 291.5,-357.51"/>
<polygon fill="black" stroke="black" points="288,-372.7 291.5,-382.7 295,-372.7 288,-372.7"/>
<polygon fill="black" stroke="black" points="295,-357.1 291.5,-347.1 288,-357.1 295,-357.1"/>
</g>
<!-- n536096 -->
<g id="node30" class="node">
<title>n536096</title>
<polygon fill="none" stroke="black" points="328.5,-275 254.5,-275 254.5,-239 328.5,-239 328.5,-275"/>
<text text-anchor="middle" x="291.5" y="-253.3" font-family="Times New Roman,serif" font-size="14.00">Hendricks</text>
</g>
<!-- n878168&#45;&gt;n536096 -->
<g id="edge26" class="edge">
<title>n878168&#45;&gt;n536096</title>
<path fill="none" stroke="black" d="M291.5,-300.67C291.5,-295.69 291.5,-290.49 291.5,-285.51"/>
<polygon fill="black" stroke="black" points="288,-300.7 291.5,-310.7 295,-300.7 288,-300.7"/>
<polygon fill="black" stroke="black" points="295,-285.1 291.5,-275.1 288,-285.1 295,-285.1"/>
</g>
<!-- n67554 -->
<g id="node31" class="node">
<title>n67554</title>
<polygon fill="none" stroke="black" points="318.5,-203 264.5,-203 264.5,-167 318.5,-167 318.5,-203"/>
<text text-anchor="middle" x="291.5" y="-181.3" font-family="Times New Roman,serif" font-size="14.00">Sellers</text>
</g>
<!-- n536096&#45;&gt;n67554 -->
<g id="edge27" class="edge">
<title>n536096&#45;&gt;n67554</title>
<path fill="none" stroke="black" d="M291.5,-228.67C291.5,-223.69 291.5,-218.49 291.5,-213.51"/>
<polygon fill="black" stroke="black" points="288,-228.7 291.5,-238.7 295,-228.7 288,-228.7"/>
<polygon fill="black" stroke="black" points="295,-213.1 291.5,-203.1 288,-213.1 295,-213.1"/>
</g>
<!-- n112113 -->
<g id="node32" class="node">
<title>n112113</title>
<polygon fill="none" stroke="black" points="322.5,-131 260.5,-131 260.5,-95 322.5,-95 322.5,-131"/>
<text text-anchor="middle" x="291.5" y="-109.3" font-family="Times New Roman,serif" font-size="14.00">Buckley</text>
</g>
<!-- n67554&#45;&gt;n112113 -->
<g id="edge28" class="edge">
<title>n67554&#45;&gt;n112113</title>
<path fill="none" stroke="black" d="M291.5,-156.67C291.5,-151.69 291.5,-146.49 291.5,-141.51"/>
<polygon fill="black" stroke="black" points="288,-156.7 291.5,-166.7 295,-156.7 288,-156.7"/>
<polygon fill="black" stroke="black" points="295,-141.1 291.5,-131.1 288,-141.1 295,-141.1"/>
</g>
<!-- n189761 -->
<g id="node33" class="node">
<title>n189761</title>
<polygon fill="none" stroke="black" points="324.5,-59 258.5,-59 258.5,-23 324.5,-23 324.5,-59"/>
<text text-anchor="middle" x="291.5" y="-37.3" font-family="Times New Roman,serif" font-size="14.00">Emerson</text>
</g>
<!-- n112113&#45;&gt;n189761 -->
<g id="edge29" class="edge">
<title>n112113&#45;&gt;n189761</title>
<path fill="none" stroke="black" d="M291.5,-84.67C291.5,-79.69 291.5,-74.49 291.5,-69.51"/>
<polygon fill="black" stroke="black" points="288,-84.7 291.5,-94.7 295,-84.7 288,-84.7"/>
<polygon fill="black" stroke="black" points="295,-69.1 291.5,-59.1 288,-69.1 295,-69.1"/>
</g>
<!-- Level4&#45;&gt;Leve2 -->
<g id="edge34" class="edge">
<title>Level4&#45;&gt;Leve2</title>
<path fill="none" stroke="black" d="M249.59,-785.7C243.49,-790.33 236.64,-794.5 229.5,-797 176.66,-815.54 156.34,-815.54 103.5,-797 96.36,-794.5 89.51,-790.33 83.41,-785.7"/>
<polygon fill="black" stroke="black" points="251.95,-788.29 257.42,-779.22 247.49,-782.9 251.95,-788.29"/>
<polygon fill="black" stroke="black" points="85.51,-782.9 75.58,-779.22 81.05,-788.29 85.51,-782.9"/>
</g>
<!-- Level4&#45;&gt;n80861 -->
<g id="edge30" class="edge">
<title>Level4&#45;&gt;n80861</title>
<path fill="none" stroke="black" d="M278.8,-732.67C279.6,-727.55 280.44,-722.21 281.24,-717.1"/>
<polygon fill="black" stroke="black" points="275.31,-732.27 277.22,-742.7 282.23,-733.36 275.31,-732.27"/>
<polygon fill="black" stroke="black" points="284.72,-717.53 282.81,-707.1 277.8,-716.44 284.72,-717.53"/>
</g>
</g>
</svg>
