<?xml version="1.0" encoding="UTF-8" standalone="no"?>
<!DOCTYPE svg PUBLIC "-//W3C//DTD SVG 1.1//EN"
 "http://www.w3.org/Graphics/SVG/1.1/DTD/svg11.dtd">
<!-- Generated by graphviz version 2.50.0 (20211204.2007)
 -->
<!-- Title: G Pages: 1 -->
<svg width="1090pt" height="657pt"
 viewBox="0.00 0.00 1090.00 657.00" xmlns="http://www.w3.org/2000/svg" xmlns:xlink="http://www.w3.org/1999/xlink">
<g id="graph0" class="graph" transform="scale(1 1) rotate(0) translate(4 653)">
<title>G</title>
<polygon fill="white" stroke="transparent" points="-4,4 -4,-653 1086,-653 1086,4 -4,4"/>
<text text-anchor="middle" x="541" y="-7.8" font-family="Times New Roman,serif" font-size="14.00">Lista de Pilas</text>
<!-- n11 -->
<g id="node1" class="node">
<title>n11</title>
<polygon fill="none" stroke="black" points="82,-649 28,-649 28,-613 82,-613 82,-649"/>
<text text-anchor="middle" x="55" y="-627.3" font-family="Times New Roman,serif" font-size="14.00">lista11</text>
</g>
<!-- n11_sub -->
<g id="node2" class="node">
<title>n11_sub</title>
<polygon fill="gray" stroke="transparent" points="8,-415 8,-436 74,-436 74,-415 8,-415"/>
<polygon fill="none" stroke="black" points="8,-415 8,-436 74,-436 74,-415 8,-415"/>
<text text-anchor="start" x="11" y="-421.8" font-family="Times New Roman,serif" font-size="14.00">Movement</text>
<polygon fill="none" stroke="black" points="8,-394 8,-415 74,-415 74,-394 8,-394"/>
<text text-anchor="start" x="22.5" y="-400.8" font-family="Times New Roman,serif" font-size="14.00">(9, 13)</text>
<polygon fill="none" stroke="black" points="8,-373 8,-394 74,-394 74,-373 8,-373"/>
<text text-anchor="start" x="25.5" y="-379.8" font-family="Times New Roman,serif" font-size="14.00">(5, 2)</text>
<polygon fill="none" stroke="black" points="8,-352 8,-373 74,-373 74,-352 8,-352"/>
<text text-anchor="start" x="19" y="-358.8" font-family="Times New Roman,serif" font-size="14.00">(10, 12)</text>
<polygon fill="none" stroke="black" points="8,-331 8,-352 74,-352 74,-331 8,-331"/>
<text text-anchor="start" x="25.5" y="-337.8" font-family="Times New Roman,serif" font-size="14.00">(9, 8)</text>
<polygon fill="none" stroke="black" points="8,-310 8,-331 74,-331 74,-310 8,-310"/>
<text text-anchor="start" x="25.5" y="-316.8" font-family="Times New Roman,serif" font-size="14.00">(6, 4)</text>
<polygon fill="none" stroke="black" points="8,-289 8,-310 74,-310 74,-289 8,-289"/>
<text text-anchor="start" x="25.5" y="-295.8" font-family="Times New Roman,serif" font-size="14.00">(0, 1)</text>
<polygon fill="none" stroke="black" points="8,-268 8,-289 74,-289 74,-268 8,-268"/>
<text text-anchor="start" x="25.5" y="-274.8" font-family="Times New Roman,serif" font-size="14.00">(2, 0)</text>
<polygon fill="none" stroke="black" points="8,-247 8,-268 74,-268 74,-247 8,-247"/>
<text text-anchor="start" x="25.5" y="-253.8" font-family="Times New Roman,serif" font-size="14.00">(5, 0)</text>
<polygon fill="none" stroke="black" points="8,-226 8,-247 74,-247 74,-226 8,-226"/>
<text text-anchor="start" x="25.5" y="-232.8" font-family="Times New Roman,serif" font-size="14.00">(3, 1)</text>
<polygon fill="none" stroke="black" points="8,-205 8,-226 74,-226 74,-205 8,-205"/>
<text text-anchor="start" x="25.5" y="-211.8" font-family="Times New Roman,serif" font-size="14.00">(7, 2)</text>
<polygon fill="none" stroke="black" points="8,-184 8,-205 74,-205 74,-184 8,-184"/>
<text text-anchor="start" x="25.5" y="-190.8" font-family="Times New Roman,serif" font-size="14.00">(4, 9)</text>
<polygon fill="none" stroke="black" points="8,-163 8,-184 74,-184 74,-163 8,-163"/>
<text text-anchor="start" x="25.5" y="-169.8" font-family="Times New Roman,serif" font-size="14.00">(5, 6)</text>
</g>
<!-- n11&#45;&gt;n11_sub -->
<g id="edge1" class="edge">
<title>n11&#45;&gt;n11_sub</title>
<path fill="none" stroke="black" d="M54.27,-612.77C52.96,-582.03 50.1,-514.89 47.37,-450.76"/>
<polygon fill="black" stroke="black" points="50.86,-450.34 46.94,-440.5 43.86,-450.64 50.86,-450.34"/>
</g>
<!-- n10 -->
<g id="node3" class="node">
<title>n10</title>
<polygon fill="none" stroke="black" points="168,-649 114,-649 114,-613 168,-613 168,-649"/>
<text text-anchor="middle" x="141" y="-627.3" font-family="Times New Roman,serif" font-size="14.00">lista10</text>
</g>
<!-- n11&#45;&gt;n10 -->
<g id="edge12" class="edge">
<title>n11&#45;&gt;n10</title>
<path fill="none" stroke="black" d="M82.21,-631C89.31,-631 96.41,-631 103.5,-631"/>
<polygon fill="black" stroke="black" points="103.9,-634.5 113.9,-631 103.9,-627.5 103.9,-634.5"/>
</g>
<!-- n10_sub -->
<g id="node4" class="node">
<title>n10_sub</title>
<polygon fill="gray" stroke="transparent" points="108,-300 108,-321 174,-321 174,-300 108,-300"/>
<polygon fill="none" stroke="black" points="108,-300 108,-321 174,-321 174,-300 108,-300"/>
<text text-anchor="start" x="111" y="-306.8" font-family="Times New Roman,serif" font-size="14.00">Movement</text>
<polygon fill="none" stroke="black" points="108,-279 108,-300 174,-300 174,-279 108,-279"/>
<text text-anchor="start" x="125.5" y="-285.8" font-family="Times New Roman,serif" font-size="14.00">(5, 2)</text>
</g>
<!-- n10&#45;&gt;n10_sub -->
<g id="edge2" class="edge">
<title>n10&#45;&gt;n10_sub</title>
<path fill="none" stroke="black" d="M141,-612.77C141,-560.84 141,-405.06 141,-335.36"/>
<polygon fill="black" stroke="black" points="144.5,-335.34 141,-325.34 137.5,-335.34 144.5,-335.34"/>
</g>
<!-- n9 -->
<g id="node5" class="node">
<title>n9</title>
<polygon fill="none" stroke="black" points="268,-649 214,-649 214,-613 268,-613 268,-649"/>
<text text-anchor="middle" x="241" y="-627.3" font-family="Times New Roman,serif" font-size="14.00">lista9</text>
</g>
<!-- n10&#45;&gt;n9 -->
<g id="edge13" class="edge">
<title>n10&#45;&gt;n9</title>
<path fill="none" stroke="black" d="M168.34,-631C180.05,-631 191.76,-631 203.47,-631"/>
<polygon fill="black" stroke="black" points="203.75,-634.5 213.75,-631 203.75,-627.5 203.75,-634.5"/>
</g>
<!-- n9_sub -->
<g id="node6" class="node">
<title>n9_sub</title>
<polygon fill="gray" stroke="transparent" points="208,-310 208,-331 274,-331 274,-310 208,-310"/>
<polygon fill="none" stroke="black" points="208,-310 208,-331 274,-331 274,-310 208,-310"/>
<text text-anchor="start" x="211" y="-316.8" font-family="Times New Roman,serif" font-size="14.00">Movement</text>
<polygon fill="none" stroke="black" points="208,-289 208,-310 274,-310 274,-289 208,-289"/>
<text text-anchor="start" x="225.5" y="-295.8" font-family="Times New Roman,serif" font-size="14.00">(1, 6)</text>
<polygon fill="none" stroke="black" points="208,-268 208,-289 274,-289 274,-268 208,-268"/>
<text text-anchor="start" x="225.5" y="-274.8" font-family="Times New Roman,serif" font-size="14.00">(3, 4)</text>
</g>
<!-- n9&#45;&gt;n9_sub -->
<g id="edge3" class="edge">
<title>n9&#45;&gt;n9_sub</title>
<path fill="none" stroke="black" d="M241,-612.77C241,-563.31 241,-419.68 241,-345.9"/>
<polygon fill="black" stroke="black" points="244.5,-345.54 241,-335.54 237.5,-345.54 244.5,-345.54"/>
</g>
<!-- n8 -->
<g id="node7" class="node">
<title>n8</title>
<polygon fill="none" stroke="black" points="368,-649 314,-649 314,-613 368,-613 368,-649"/>
<text text-anchor="middle" x="341" y="-627.3" font-family="Times New Roman,serif" font-size="14.00">lista8</text>
</g>
<!-- n9&#45;&gt;n8 -->
<g id="edge14" class="edge">
<title>n9&#45;&gt;n8</title>
<path fill="none" stroke="black" d="M268.34,-631C280.05,-631 291.76,-631 303.47,-631"/>
<polygon fill="black" stroke="black" points="303.75,-634.5 313.75,-631 303.75,-627.5 303.75,-634.5"/>
</g>
<!-- n8_sub -->
<g id="node8" class="node">
<title>n8_sub</title>
<polygon fill="gray" stroke="transparent" points="308,-352 308,-373 374,-373 374,-352 308,-352"/>
<polygon fill="none" stroke="black" points="308,-352 308,-373 374,-373 374,-352 308,-352"/>
<text text-anchor="start" x="311" y="-358.8" font-family="Times New Roman,serif" font-size="14.00">Movement</text>
<polygon fill="none" stroke="black" points="308,-331 308,-352 374,-352 374,-331 308,-331"/>
<text text-anchor="start" x="325.5" y="-337.8" font-family="Times New Roman,serif" font-size="14.00">(5, 0)</text>
<polygon fill="none" stroke="black" points="308,-310 308,-331 374,-331 374,-310 308,-310"/>
<text text-anchor="start" x="325.5" y="-316.8" font-family="Times New Roman,serif" font-size="14.00">(4, 8)</text>
<polygon fill="none" stroke="black" points="308,-289 308,-310 374,-310 374,-289 308,-289"/>
<text text-anchor="start" x="325.5" y="-295.8" font-family="Times New Roman,serif" font-size="14.00">(2, 6)</text>
<polygon fill="none" stroke="black" points="308,-268 308,-289 374,-289 374,-268 308,-268"/>
<text text-anchor="start" x="325.5" y="-274.8" font-family="Times New Roman,serif" font-size="14.00">(7, 9)</text>
<polygon fill="none" stroke="black" points="308,-247 308,-268 374,-268 374,-247 308,-247"/>
<text text-anchor="start" x="325.5" y="-253.8" font-family="Times New Roman,serif" font-size="14.00">(5, 4)</text>
<polygon fill="none" stroke="black" points="308,-226 308,-247 374,-247 374,-226 308,-226"/>
<text text-anchor="start" x="325.5" y="-232.8" font-family="Times New Roman,serif" font-size="14.00">(1, 3)</text>
</g>
<!-- n8&#45;&gt;n8_sub -->
<g id="edge4" class="edge">
<title>n8&#45;&gt;n8_sub</title>
<path fill="none" stroke="black" d="M341,-612.77C341,-571.59 341,-465.11 341,-388.03"/>
<polygon fill="black" stroke="black" points="344.5,-387.83 341,-377.83 337.5,-387.83 344.5,-387.83"/>
</g>
<!-- n7 -->
<g id="node9" class="node">
<title>n7</title>
<polygon fill="none" stroke="black" points="468,-649 414,-649 414,-613 468,-613 468,-649"/>
<text text-anchor="middle" x="441" y="-627.3" font-family="Times New Roman,serif" font-size="14.00">lista7</text>
</g>
<!-- n8&#45;&gt;n7 -->
<g id="edge15" class="edge">
<title>n8&#45;&gt;n7</title>
<path fill="none" stroke="black" d="M368.34,-631C380.05,-631 391.76,-631 403.47,-631"/>
<polygon fill="black" stroke="black" points="403.75,-634.5 413.75,-631 403.75,-627.5 403.75,-634.5"/>
</g>
<!-- n7_sub -->
<g id="node10" class="node">
<title>n7_sub</title>
<polygon fill="gray" stroke="transparent" points="408,-321 408,-342 474,-342 474,-321 408,-321"/>
<polygon fill="none" stroke="black" points="408,-321 408,-342 474,-342 474,-321 408,-321"/>
<text text-anchor="start" x="411" y="-327.8" font-family="Times New Roman,serif" font-size="14.00">Movement</text>
<polygon fill="none" stroke="black" points="408,-300 408,-321 474,-321 474,-300 408,-300"/>
<text text-anchor="start" x="425.5" y="-306.8" font-family="Times New Roman,serif" font-size="14.00">(0, 1)</text>
<polygon fill="none" stroke="black" points="408,-279 408,-300 474,-300 474,-279 408,-279"/>
<text text-anchor="start" x="425.5" y="-285.8" font-family="Times New Roman,serif" font-size="14.00">(4, 8)</text>
<polygon fill="none" stroke="black" points="408,-258 408,-279 474,-279 474,-258 408,-258"/>
<text text-anchor="start" x="425.5" y="-264.8" font-family="Times New Roman,serif" font-size="14.00">(2, 6)</text>
</g>
<!-- n7&#45;&gt;n7_sub -->
<g id="edge5" class="edge">
<title>n7&#45;&gt;n7_sub</title>
<path fill="none" stroke="black" d="M441,-612.77C441,-565.61 441,-432.82 441,-356.62"/>
<polygon fill="black" stroke="black" points="444.5,-356.26 441,-346.26 437.5,-356.26 444.5,-356.26"/>
</g>
<!-- n6 -->
<g id="node11" class="node">
<title>n6</title>
<polygon fill="none" stroke="black" points="568,-649 514,-649 514,-613 568,-613 568,-649"/>
<text text-anchor="middle" x="541" y="-627.3" font-family="Times New Roman,serif" font-size="14.00">lista6</text>
</g>
<!-- n7&#45;&gt;n6 -->
<g id="edge16" class="edge">
<title>n7&#45;&gt;n6</title>
<path fill="none" stroke="black" d="M468.34,-631C480.05,-631 491.76,-631 503.47,-631"/>
<polygon fill="black" stroke="black" points="503.75,-634.5 513.75,-631 503.75,-627.5 503.75,-634.5"/>
</g>
<!-- n6_sub -->
<g id="node12" class="node">
<title>n6_sub</title>
<polygon fill="gray" stroke="transparent" points="508,-300 508,-321 574,-321 574,-300 508,-300"/>
<polygon fill="none" stroke="black" points="508,-300 508,-321 574,-321 574,-300 508,-300"/>
<text text-anchor="start" x="511" y="-306.8" font-family="Times New Roman,serif" font-size="14.00">Movement</text>
<polygon fill="none" stroke="black" points="508,-279 508,-300 574,-300 574,-279 508,-279"/>
<text text-anchor="start" x="525.5" y="-285.8" font-family="Times New Roman,serif" font-size="14.00">(3, 5)</text>
</g>
<!-- n6&#45;&gt;n6_sub -->
<g id="edge6" class="edge">
<title>n6&#45;&gt;n6_sub</title>
<path fill="none" stroke="black" d="M541,-612.77C541,-560.84 541,-405.06 541,-335.36"/>
<polygon fill="black" stroke="black" points="544.5,-335.34 541,-325.34 537.5,-335.34 544.5,-335.34"/>
</g>
<!-- n5 -->
<g id="node13" class="node">
<title>n5</title>
<polygon fill="none" stroke="black" points="668,-649 614,-649 614,-613 668,-613 668,-649"/>
<text text-anchor="middle" x="641" y="-627.3" font-family="Times New Roman,serif" font-size="14.00">lista5</text>
</g>
<!-- n6&#45;&gt;n5 -->
<g id="edge17" class="edge">
<title>n6&#45;&gt;n5</title>
<path fill="none" stroke="black" d="M568.34,-631C580.05,-631 591.76,-631 603.47,-631"/>
<polygon fill="black" stroke="black" points="603.75,-634.5 613.75,-631 603.75,-627.5 603.75,-634.5"/>
</g>
<!-- n5_sub -->
<g id="node14" class="node">
<title>n5_sub</title>
<polygon fill="gray" stroke="transparent" points="608,-552 608,-573 674,-573 674,-552 608,-552"/>
<polygon fill="none" stroke="black" points="608,-552 608,-573 674,-573 674,-552 608,-552"/>
<text text-anchor="start" x="611" y="-558.8" font-family="Times New Roman,serif" font-size="14.00">Movement</text>
<polygon fill="none" stroke="black" points="608,-531 608,-552 674,-552 674,-531 608,-531"/>
<text text-anchor="start" x="625.5" y="-537.8" font-family="Times New Roman,serif" font-size="14.00">(5, 5)</text>
<polygon fill="none" stroke="black" points="608,-510 608,-531 674,-531 674,-510 608,-510"/>
<text text-anchor="start" x="625.5" y="-516.8" font-family="Times New Roman,serif" font-size="14.00">(6, 6)</text>
<polygon fill="none" stroke="black" points="608,-489 608,-510 674,-510 674,-489 608,-489"/>
<text text-anchor="start" x="625.5" y="-495.8" font-family="Times New Roman,serif" font-size="14.00">(4, 4)</text>
<polygon fill="none" stroke="black" points="608,-468 608,-489 674,-489 674,-468 608,-468"/>
<text text-anchor="start" x="625.5" y="-474.8" font-family="Times New Roman,serif" font-size="14.00">(5, 5)</text>
<polygon fill="none" stroke="black" points="608,-447 608,-468 674,-468 674,-447 608,-447"/>
<text text-anchor="start" x="625.5" y="-453.8" font-family="Times New Roman,serif" font-size="14.00">(3, 3)</text>
<polygon fill="none" stroke="black" points="608,-426 608,-447 674,-447 674,-426 608,-426"/>
<text text-anchor="start" x="625.5" y="-432.8" font-family="Times New Roman,serif" font-size="14.00">(1, 1)</text>
<polygon fill="none" stroke="black" points="608,-405 608,-426 674,-426 674,-405 608,-405"/>
<text text-anchor="start" x="625.5" y="-411.8" font-family="Times New Roman,serif" font-size="14.00">(0, 0)</text>
<polygon fill="none" stroke="black" points="608,-384 608,-405 674,-405 674,-384 608,-384"/>
<text text-anchor="start" x="625.5" y="-390.8" font-family="Times New Roman,serif" font-size="14.00">(1, 2)</text>
<polygon fill="none" stroke="black" points="608,-363 608,-384 674,-384 674,-363 608,-363"/>
<text text-anchor="start" x="625.5" y="-369.8" font-family="Times New Roman,serif" font-size="14.00">(6, 0)</text>
<polygon fill="none" stroke="black" points="608,-342 608,-363 674,-363 674,-342 608,-342"/>
<text text-anchor="start" x="625.5" y="-348.8" font-family="Times New Roman,serif" font-size="14.00">(3, 5)</text>
<polygon fill="none" stroke="black" points="608,-321 608,-342 674,-342 674,-321 608,-321"/>
<text text-anchor="start" x="625.5" y="-327.8" font-family="Times New Roman,serif" font-size="14.00">(0, 1)</text>
<polygon fill="none" stroke="black" points="608,-300 608,-321 674,-321 674,-300 608,-300"/>
<text text-anchor="start" x="625.5" y="-306.8" font-family="Times New Roman,serif" font-size="14.00">(6, 2)</text>
<polygon fill="none" stroke="black" points="608,-279 608,-300 674,-300 674,-279 608,-279"/>
<text text-anchor="start" x="625.5" y="-285.8" font-family="Times New Roman,serif" font-size="14.00">(5, 4)</text>
<polygon fill="none" stroke="black" points="608,-258 608,-279 674,-279 674,-258 608,-258"/>
<text text-anchor="start" x="625.5" y="-264.8" font-family="Times New Roman,serif" font-size="14.00">(0, 7)</text>
<polygon fill="none" stroke="black" points="608,-237 608,-258 674,-258 674,-237 608,-237"/>
<text text-anchor="start" x="625.5" y="-243.8" font-family="Times New Roman,serif" font-size="14.00">(0, 8)</text>
<polygon fill="none" stroke="black" points="608,-216 608,-237 674,-237 674,-216 608,-216"/>
<text text-anchor="start" x="625.5" y="-222.8" font-family="Times New Roman,serif" font-size="14.00">(4, 9)</text>
<polygon fill="none" stroke="black" points="608,-195 608,-216 674,-216 674,-195 608,-195"/>
<text text-anchor="start" x="625.5" y="-201.8" font-family="Times New Roman,serif" font-size="14.00">(5, 6)</text>
<polygon fill="none" stroke="black" points="608,-174 608,-195 674,-195 674,-174 608,-174"/>
<text text-anchor="start" x="625.5" y="-180.8" font-family="Times New Roman,serif" font-size="14.00">(3, 0)</text>
<polygon fill="none" stroke="black" points="608,-153 608,-174 674,-174 674,-153 608,-153"/>
<text text-anchor="start" x="625.5" y="-159.8" font-family="Times New Roman,serif" font-size="14.00">(0, 5)</text>
<polygon fill="none" stroke="black" points="608,-132 608,-153 674,-153 674,-132 608,-132"/>
<text text-anchor="start" x="625.5" y="-138.8" font-family="Times New Roman,serif" font-size="14.00">(0, 1)</text>
<polygon fill="none" stroke="black" points="608,-111 608,-132 674,-132 674,-111 608,-111"/>
<text text-anchor="start" x="625.5" y="-117.8" font-family="Times New Roman,serif" font-size="14.00">(1, 2)</text>
<polygon fill="none" stroke="black" points="608,-90 608,-111 674,-111 674,-90 608,-90"/>
<text text-anchor="start" x="625.5" y="-96.8" font-family="Times New Roman,serif" font-size="14.00">(0, 0)</text>
<polygon fill="none" stroke="black" points="608,-69 608,-90 674,-90 674,-69 608,-69"/>
<text text-anchor="start" x="625.5" y="-75.8" font-family="Times New Roman,serif" font-size="14.00">(5, 9)</text>
<polygon fill="none" stroke="black" points="608,-48 608,-69 674,-69 674,-48 608,-48"/>
<text text-anchor="start" x="625.5" y="-54.8" font-family="Times New Roman,serif" font-size="14.00">(4, 6)</text>
<polygon fill="none" stroke="black" points="608,-27 608,-48 674,-48 674,-27 608,-27"/>
<text text-anchor="start" x="625.5" y="-33.8" font-family="Times New Roman,serif" font-size="14.00">(2, 3)</text>
</g>
<!-- n5&#45;&gt;n5_sub -->
<g id="edge7" class="edge">
<title>n5&#45;&gt;n5_sub</title>
<path fill="none" stroke="black" d="M641,-612.77C641,-605.91 641,-597.23 641,-587.18"/>
<polygon fill="black" stroke="black" points="644.5,-587.14 641,-577.14 637.5,-587.14 644.5,-587.14"/>
</g>
<!-- n4 -->
<g id="node15" class="node">
<title>n4</title>
<polygon fill="none" stroke="black" points="768,-649 714,-649 714,-613 768,-613 768,-649"/>
<text text-anchor="middle" x="741" y="-627.3" font-family="Times New Roman,serif" font-size="14.00">lista4</text>
</g>
<!-- n5&#45;&gt;n4 -->
<g id="edge18" class="edge">
<title>n5&#45;&gt;n4</title>
<path fill="none" stroke="black" d="M668.34,-631C680.05,-631 691.76,-631 703.47,-631"/>
<polygon fill="black" stroke="black" points="703.75,-634.5 713.75,-631 703.75,-627.5 703.75,-634.5"/>
</g>
<!-- n4_sub -->
<g id="node16" class="node">
<title>n4_sub</title>
<polygon fill="gray" stroke="transparent" points="708,-331 708,-352 774,-352 774,-331 708,-331"/>
<polygon fill="none" stroke="black" points="708,-331 708,-352 774,-352 774,-331 708,-331"/>
<text text-anchor="start" x="711" y="-337.8" font-family="Times New Roman,serif" font-size="14.00">Movement</text>
<polygon fill="none" stroke="black" points="708,-310 708,-331 774,-331 774,-310 708,-310"/>
<text text-anchor="start" x="725.5" y="-316.8" font-family="Times New Roman,serif" font-size="14.00">(3, 4)</text>
<polygon fill="none" stroke="black" points="708,-289 708,-310 774,-310 774,-289 708,-289"/>
<text text-anchor="start" x="725.5" y="-295.8" font-family="Times New Roman,serif" font-size="14.00">(0, 1)</text>
<polygon fill="none" stroke="black" points="708,-268 708,-289 774,-289 774,-268 708,-268"/>
<text text-anchor="start" x="725.5" y="-274.8" font-family="Times New Roman,serif" font-size="14.00">(5, 0)</text>
<polygon fill="none" stroke="black" points="708,-247 708,-268 774,-268 774,-247 708,-247"/>
<text text-anchor="start" x="725.5" y="-253.8" font-family="Times New Roman,serif" font-size="14.00">(1, 2)</text>
</g>
<!-- n4&#45;&gt;n4_sub -->
<g id="edge8" class="edge">
<title>n4&#45;&gt;n4_sub</title>
<path fill="none" stroke="black" d="M741,-612.77C741,-567.67 741,-444.23 741,-366.89"/>
<polygon fill="black" stroke="black" points="744.5,-366.76 741,-356.76 737.5,-366.76 744.5,-366.76"/>
</g>
<!-- n3 -->
<g id="node17" class="node">
<title>n3</title>
<polygon fill="none" stroke="black" points="868,-649 814,-649 814,-613 868,-613 868,-649"/>
<text text-anchor="middle" x="841" y="-627.3" font-family="Times New Roman,serif" font-size="14.00">lista3</text>
</g>
<!-- n4&#45;&gt;n3 -->
<g id="edge19" class="edge">
<title>n4&#45;&gt;n3</title>
<path fill="none" stroke="black" d="M768.34,-631C780.05,-631 791.76,-631 803.47,-631"/>
<polygon fill="black" stroke="black" points="803.75,-634.5 813.75,-631 803.75,-627.5 803.75,-634.5"/>
</g>
<!-- n3_sub -->
<g id="node18" class="node">
<title>n3_sub</title>
<polygon fill="gray" stroke="transparent" points="808,-300 808,-321 874,-321 874,-300 808,-300"/>
<polygon fill="none" stroke="black" points="808,-300 808,-321 874,-321 874,-300 808,-300"/>
<text text-anchor="start" x="811" y="-306.8" font-family="Times New Roman,serif" font-size="14.00">Movement</text>
<polygon fill="none" stroke="black" points="808,-279 808,-300 874,-300 874,-279 808,-279"/>
<text text-anchor="start" x="825.5" y="-285.8" font-family="Times New Roman,serif" font-size="14.00">(2, 3)</text>
</g>
<!-- n3&#45;&gt;n3_sub -->
<g id="edge9" class="edge">
<title>n3&#45;&gt;n3_sub</title>
<path fill="none" stroke="black" d="M841,-612.77C841,-560.84 841,-405.06 841,-335.36"/>
<polygon fill="black" stroke="black" points="844.5,-335.34 841,-325.34 837.5,-335.34 844.5,-335.34"/>
</g>
<!-- n2 -->
<g id="node19" class="node">
<title>n2</title>
<polygon fill="none" stroke="black" points="968,-649 914,-649 914,-613 968,-613 968,-649"/>
<text text-anchor="middle" x="941" y="-627.3" font-family="Times New Roman,serif" font-size="14.00">lista2</text>
</g>
<!-- n3&#45;&gt;n2 -->
<g id="edge20" class="edge">
<title>n3&#45;&gt;n2</title>
<path fill="none" stroke="black" d="M868.34,-631C880.05,-631 891.76,-631 903.47,-631"/>
<polygon fill="black" stroke="black" points="903.75,-634.5 913.75,-631 903.75,-627.5 903.75,-634.5"/>
</g>
<!-- n2_sub -->
<g id="node20" class="node">
<title>n2_sub</title>
<polygon fill="gray" stroke="transparent" points="908,-310 908,-331 974,-331 974,-310 908,-310"/>
<polygon fill="none" stroke="black" points="908,-310 908,-331 974,-331 974,-310 908,-310"/>
<text text-anchor="start" x="911" y="-316.8" font-family="Times New Roman,serif" font-size="14.00">Movement</text>
<polygon fill="none" stroke="black" points="908,-289 908,-310 974,-310 974,-289 908,-289"/>
<text text-anchor="start" x="925.5" y="-295.8" font-family="Times New Roman,serif" font-size="14.00">(3, 4)</text>
<polygon fill="none" stroke="black" points="908,-268 908,-289 974,-289 974,-268 908,-268"/>
<text text-anchor="start" x="925.5" y="-274.8" font-family="Times New Roman,serif" font-size="14.00">(1, 2)</text>
</g>
<!-- n2&#45;&gt;n2_sub -->
<g id="edge10" class="edge">
<title>n2&#45;&gt;n2_sub</title>
<path fill="none" stroke="black" d="M941,-612.77C941,-563.31 941,-419.68 941,-345.9"/>
<polygon fill="black" stroke="black" points="944.5,-345.54 941,-335.54 937.5,-345.54 944.5,-345.54"/>
</g>
<!-- n1 -->
<g id="node21" class="node">
<title>n1</title>
<polygon fill="none" stroke="black" points="1054,-649 1000,-649 1000,-613 1054,-613 1054,-649"/>
<text text-anchor="middle" x="1027" y="-627.3" font-family="Times New Roman,serif" font-size="14.00">lista1</text>
</g>
<!-- n2&#45;&gt;n1 -->
<g id="edge21" class="edge">
<title>n2&#45;&gt;n1</title>
<path fill="none" stroke="black" d="M968.21,-631C975.31,-631 982.41,-631 989.5,-631"/>
<polygon fill="black" stroke="black" points="989.9,-634.5 999.9,-631 989.9,-627.5 989.9,-634.5"/>
</g>
<!-- n1_sub -->
<g id="node22" class="node">
<title>n1_sub</title>
<polygon fill="gray" stroke="transparent" points="1008,-300 1008,-321 1074,-321 1074,-300 1008,-300"/>
<polygon fill="none" stroke="black" points="1008,-300 1008,-321 1074,-321 1074,-300 1008,-300"/>
<text text-anchor="start" x="1011" y="-306.8" font-family="Times New Roman,serif" font-size="14.00">Movement</text>
<polygon fill="none" stroke="black" points="1008,-279 1008,-300 1074,-300 1074,-279 1008,-279"/>
<text text-anchor="start" x="1025.5" y="-285.8" font-family="Times New Roman,serif" font-size="14.00">(2, 3)</text>
</g>
<!-- n1&#45;&gt;n1_sub -->
<g id="edge11" class="edge">
<title>n1&#45;&gt;n1_sub</title>
<path fill="none" stroke="black" d="M1027.73,-612.77C1029.94,-560.84 1036.57,-405.06 1039.54,-335.36"/>
<polygon fill="black" stroke="black" points="1043.04,-335.48 1039.96,-325.34 1036.04,-335.18 1043.04,-335.48"/>
</g>
</g>
</svg>
