<?xml version="1.0" encoding="UTF-8" standalone="no"?>
<!DOCTYPE svg PUBLIC "-//W3C//DTD SVG 1.1//EN"
 "http://www.w3.org/Graphics/SVG/1.1/DTD/svg11.dtd">
<!-- Generated by graphviz version 2.50.0 (20211204.2007)
 -->
<!-- Title: G Pages: 1 -->
<svg width="2593pt" height="70pt"
 viewBox="0.00 0.00 2593.00 70.00" xmlns="http://www.w3.org/2000/svg" xmlns:xlink="http://www.w3.org/1999/xlink">
<g id="graph0" class="graph" transform="scale(1 1) rotate(0) translate(4 66)">
<title>G</title>
<polygon fill="white" stroke="transparent" points="-4,4 -4,-66 2589,-66 2589,4 -4,4"/>
<text text-anchor="middle" x="1292.5" y="-7.8" font-family="Times New Roman,serif" font-size="14.00">Tutorial (Cola de Movimientos)</text>
<!-- struct -->
<g id="node1" class="node">
<title>struct</title>
<polygon fill="none" stroke="black" points="0,-23.5 0,-61.5 2585,-61.5 2585,-23.5 0,-23.5"/>
<text text-anchor="middle" x="23.5" y="-46.3" font-family="Times New Roman,serif" font-size="14.00">X: 35</text>
<text text-anchor="middle" x="23.5" y="-31.3" font-family="Times New Roman,serif" font-size="14.00">Y: 33</text>
<polyline fill="none" stroke="black" points="47,-23.5 47,-61.5 "/>
<text text-anchor="middle" x="70.5" y="-46.3" font-family="Times New Roman,serif" font-size="14.00">X: 38</text>
<text text-anchor="middle" x="70.5" y="-31.3" font-family="Times New Roman,serif" font-size="14.00">Y: 20</text>
<polyline fill="none" stroke="black" points="94,-23.5 94,-61.5 "/>
<text text-anchor="middle" x="117.5" y="-46.3" font-family="Times New Roman,serif" font-size="14.00">X: 29</text>
<text text-anchor="middle" x="117.5" y="-31.3" font-family="Times New Roman,serif" font-size="14.00">Y: 36</text>
<polyline fill="none" stroke="black" points="141,-23.5 141,-61.5 "/>
<text text-anchor="middle" x="164.5" y="-46.3" font-family="Times New Roman,serif" font-size="14.00">X: 34</text>
<text text-anchor="middle" x="164.5" y="-31.3" font-family="Times New Roman,serif" font-size="14.00">Y: 32</text>
<polyline fill="none" stroke="black" points="188,-23.5 188,-61.5 "/>
<text text-anchor="middle" x="211.5" y="-46.3" font-family="Times New Roman,serif" font-size="14.00">X: 21</text>
<text text-anchor="middle" x="211.5" y="-31.3" font-family="Times New Roman,serif" font-size="14.00">Y: 25</text>
<polyline fill="none" stroke="black" points="235,-23.5 235,-61.5 "/>
<text text-anchor="middle" x="258.5" y="-46.3" font-family="Times New Roman,serif" font-size="14.00">X: 21</text>
<text text-anchor="middle" x="258.5" y="-31.3" font-family="Times New Roman,serif" font-size="14.00">Y: 28</text>
<polyline fill="none" stroke="black" points="282,-23.5 282,-61.5 "/>
<text text-anchor="middle" x="305.5" y="-46.3" font-family="Times New Roman,serif" font-size="14.00">X: 30</text>
<text text-anchor="middle" x="305.5" y="-31.3" font-family="Times New Roman,serif" font-size="14.00">Y: 39</text>
<polyline fill="none" stroke="black" points="329,-23.5 329,-61.5 "/>
<text text-anchor="middle" x="352.5" y="-46.3" font-family="Times New Roman,serif" font-size="14.00">X: 36</text>
<text text-anchor="middle" x="352.5" y="-31.3" font-family="Times New Roman,serif" font-size="14.00">Y: 22</text>
<polyline fill="none" stroke="black" points="376,-23.5 376,-61.5 "/>
<text text-anchor="middle" x="399.5" y="-46.3" font-family="Times New Roman,serif" font-size="14.00">X: 37</text>
<text text-anchor="middle" x="399.5" y="-31.3" font-family="Times New Roman,serif" font-size="14.00">Y: 40</text>
<polyline fill="none" stroke="black" points="423,-23.5 423,-61.5 "/>
<text text-anchor="middle" x="446.5" y="-46.3" font-family="Times New Roman,serif" font-size="14.00">X: 35</text>
<text text-anchor="middle" x="446.5" y="-31.3" font-family="Times New Roman,serif" font-size="14.00">Y: 36</text>
<polyline fill="none" stroke="black" points="470,-23.5 470,-61.5 "/>
<text text-anchor="middle" x="493.5" y="-46.3" font-family="Times New Roman,serif" font-size="14.00">X: 29</text>
<text text-anchor="middle" x="493.5" y="-31.3" font-family="Times New Roman,serif" font-size="14.00">Y: 29</text>
<polyline fill="none" stroke="black" points="517,-23.5 517,-61.5 "/>
<text text-anchor="middle" x="540.5" y="-46.3" font-family="Times New Roman,serif" font-size="14.00">X: 33</text>
<text text-anchor="middle" x="540.5" y="-31.3" font-family="Times New Roman,serif" font-size="14.00">Y: 23</text>
<polyline fill="none" stroke="black" points="564,-23.5 564,-61.5 "/>
<text text-anchor="middle" x="587.5" y="-46.3" font-family="Times New Roman,serif" font-size="14.00">X: 30</text>
<text text-anchor="middle" x="587.5" y="-31.3" font-family="Times New Roman,serif" font-size="14.00">Y: 35</text>
<polyline fill="none" stroke="black" points="611,-23.5 611,-61.5 "/>
<text text-anchor="middle" x="634.5" y="-46.3" font-family="Times New Roman,serif" font-size="14.00">X: 37</text>
<text text-anchor="middle" x="634.5" y="-31.3" font-family="Times New Roman,serif" font-size="14.00">Y: 20</text>
<polyline fill="none" stroke="black" points="658,-23.5 658,-61.5 "/>
<text text-anchor="middle" x="681.5" y="-46.3" font-family="Times New Roman,serif" font-size="14.00">X: 37</text>
<text text-anchor="middle" x="681.5" y="-31.3" font-family="Times New Roman,serif" font-size="14.00">Y: 20</text>
<polyline fill="none" stroke="black" points="705,-23.5 705,-61.5 "/>
<text text-anchor="middle" x="728.5" y="-46.3" font-family="Times New Roman,serif" font-size="14.00">X: 37</text>
<text text-anchor="middle" x="728.5" y="-31.3" font-family="Times New Roman,serif" font-size="14.00">Y: 20</text>
<polyline fill="none" stroke="black" points="752,-23.5 752,-61.5 "/>
<text text-anchor="middle" x="775.5" y="-46.3" font-family="Times New Roman,serif" font-size="14.00">X: 37</text>
<text text-anchor="middle" x="775.5" y="-31.3" font-family="Times New Roman,serif" font-size="14.00">Y: 20</text>
<polyline fill="none" stroke="black" points="799,-23.5 799,-61.5 "/>
<text text-anchor="middle" x="822.5" y="-46.3" font-family="Times New Roman,serif" font-size="14.00">X: 34</text>
<text text-anchor="middle" x="822.5" y="-31.3" font-family="Times New Roman,serif" font-size="14.00">Y: 28</text>
<polyline fill="none" stroke="black" points="846,-23.5 846,-61.5 "/>
<text text-anchor="middle" x="869.5" y="-46.3" font-family="Times New Roman,serif" font-size="14.00">X: 39</text>
<text text-anchor="middle" x="869.5" y="-31.3" font-family="Times New Roman,serif" font-size="14.00">Y: 28</text>
<polyline fill="none" stroke="black" points="893,-23.5 893,-61.5 "/>
<text text-anchor="middle" x="916.5" y="-46.3" font-family="Times New Roman,serif" font-size="14.00">X: 26</text>
<text text-anchor="middle" x="916.5" y="-31.3" font-family="Times New Roman,serif" font-size="14.00">Y: 29</text>
<polyline fill="none" stroke="black" points="940,-23.5 940,-61.5 "/>
<text text-anchor="middle" x="963.5" y="-46.3" font-family="Times New Roman,serif" font-size="14.00">X: 25</text>
<text text-anchor="middle" x="963.5" y="-31.3" font-family="Times New Roman,serif" font-size="14.00">Y: 23</text>
<polyline fill="none" stroke="black" points="987,-23.5 987,-61.5 "/>
<text text-anchor="middle" x="1010.5" y="-46.3" font-family="Times New Roman,serif" font-size="14.00">X: 40</text>
<text text-anchor="middle" x="1010.5" y="-31.3" font-family="Times New Roman,serif" font-size="14.00">Y: 29</text>
<polyline fill="none" stroke="black" points="1034,-23.5 1034,-61.5 "/>
<text text-anchor="middle" x="1057.5" y="-46.3" font-family="Times New Roman,serif" font-size="14.00">X: 31</text>
<text text-anchor="middle" x="1057.5" y="-31.3" font-family="Times New Roman,serif" font-size="14.00">Y: 31</text>
<polyline fill="none" stroke="black" points="1081,-23.5 1081,-61.5 "/>
<text text-anchor="middle" x="1104.5" y="-46.3" font-family="Times New Roman,serif" font-size="14.00">X: 24</text>
<text text-anchor="middle" x="1104.5" y="-31.3" font-family="Times New Roman,serif" font-size="14.00">Y: 26</text>
<polyline fill="none" stroke="black" points="1128,-23.5 1128,-61.5 "/>
<text text-anchor="middle" x="1151.5" y="-46.3" font-family="Times New Roman,serif" font-size="14.00">X: 37</text>
<text text-anchor="middle" x="1151.5" y="-31.3" font-family="Times New Roman,serif" font-size="14.00">Y: 37</text>
<polyline fill="none" stroke="black" points="1175,-23.5 1175,-61.5 "/>
<text text-anchor="middle" x="1198.5" y="-46.3" font-family="Times New Roman,serif" font-size="14.00">X: 26</text>
<text text-anchor="middle" x="1198.5" y="-31.3" font-family="Times New Roman,serif" font-size="14.00">Y: 23</text>
<polyline fill="none" stroke="black" points="1222,-23.5 1222,-61.5 "/>
<text text-anchor="middle" x="1245.5" y="-46.3" font-family="Times New Roman,serif" font-size="14.00">X: 29</text>
<text text-anchor="middle" x="1245.5" y="-31.3" font-family="Times New Roman,serif" font-size="14.00">Y: 30</text>
<polyline fill="none" stroke="black" points="1269,-23.5 1269,-61.5 "/>
<text text-anchor="middle" x="1292.5" y="-46.3" font-family="Times New Roman,serif" font-size="14.00">X: 20</text>
<text text-anchor="middle" x="1292.5" y="-31.3" font-family="Times New Roman,serif" font-size="14.00">Y: 34</text>
<polyline fill="none" stroke="black" points="1316,-23.5 1316,-61.5 "/>
<text text-anchor="middle" x="1339.5" y="-46.3" font-family="Times New Roman,serif" font-size="14.00">X: 27</text>
<text text-anchor="middle" x="1339.5" y="-31.3" font-family="Times New Roman,serif" font-size="14.00">Y: 34</text>
<polyline fill="none" stroke="black" points="1363,-23.5 1363,-61.5 "/>
<text text-anchor="middle" x="1386.5" y="-46.3" font-family="Times New Roman,serif" font-size="14.00">X: 34</text>
<text text-anchor="middle" x="1386.5" y="-31.3" font-family="Times New Roman,serif" font-size="14.00">Y: 20</text>
<polyline fill="none" stroke="black" points="1410,-23.5 1410,-61.5 "/>
<text text-anchor="middle" x="1433.5" y="-46.3" font-family="Times New Roman,serif" font-size="14.00">X: 38</text>
<text text-anchor="middle" x="1433.5" y="-31.3" font-family="Times New Roman,serif" font-size="14.00">Y: 31</text>
<polyline fill="none" stroke="black" points="1457,-23.5 1457,-61.5 "/>
<text text-anchor="middle" x="1480.5" y="-46.3" font-family="Times New Roman,serif" font-size="14.00">X: 22</text>
<text text-anchor="middle" x="1480.5" y="-31.3" font-family="Times New Roman,serif" font-size="14.00">Y: 39</text>
<polyline fill="none" stroke="black" points="1504,-23.5 1504,-61.5 "/>
<text text-anchor="middle" x="1527.5" y="-46.3" font-family="Times New Roman,serif" font-size="14.00">X: 20</text>
<text text-anchor="middle" x="1527.5" y="-31.3" font-family="Times New Roman,serif" font-size="14.00">Y: 24</text>
<polyline fill="none" stroke="black" points="1551,-23.5 1551,-61.5 "/>
<text text-anchor="middle" x="1574.5" y="-46.3" font-family="Times New Roman,serif" font-size="14.00">X: 34</text>
<text text-anchor="middle" x="1574.5" y="-31.3" font-family="Times New Roman,serif" font-size="14.00">Y: 40</text>
<polyline fill="none" stroke="black" points="1598,-23.5 1598,-61.5 "/>
<text text-anchor="middle" x="1621.5" y="-46.3" font-family="Times New Roman,serif" font-size="14.00">X: 39</text>
<text text-anchor="middle" x="1621.5" y="-31.3" font-family="Times New Roman,serif" font-size="14.00">Y: 38</text>
<polyline fill="none" stroke="black" points="1645,-23.5 1645,-61.5 "/>
<text text-anchor="middle" x="1668.5" y="-46.3" font-family="Times New Roman,serif" font-size="14.00">X: 23</text>
<text text-anchor="middle" x="1668.5" y="-31.3" font-family="Times New Roman,serif" font-size="14.00">Y: 36</text>
<polyline fill="none" stroke="black" points="1692,-23.5 1692,-61.5 "/>
<text text-anchor="middle" x="1715.5" y="-46.3" font-family="Times New Roman,serif" font-size="14.00">X: 32</text>
<text text-anchor="middle" x="1715.5" y="-31.3" font-family="Times New Roman,serif" font-size="14.00">Y: 31</text>
<polyline fill="none" stroke="black" points="1739,-23.5 1739,-61.5 "/>
<text text-anchor="middle" x="1762.5" y="-46.3" font-family="Times New Roman,serif" font-size="14.00">X: 28</text>
<text text-anchor="middle" x="1762.5" y="-31.3" font-family="Times New Roman,serif" font-size="14.00">Y: 27</text>
<polyline fill="none" stroke="black" points="1786,-23.5 1786,-61.5 "/>
<text text-anchor="middle" x="1809.5" y="-46.3" font-family="Times New Roman,serif" font-size="14.00">X: 22</text>
<text text-anchor="middle" x="1809.5" y="-31.3" font-family="Times New Roman,serif" font-size="14.00">Y: 35</text>
<polyline fill="none" stroke="black" points="1833,-23.5 1833,-61.5 "/>
<text text-anchor="middle" x="1856.5" y="-46.3" font-family="Times New Roman,serif" font-size="14.00">X: 22</text>
<text text-anchor="middle" x="1856.5" y="-31.3" font-family="Times New Roman,serif" font-size="14.00">Y: 23</text>
<polyline fill="none" stroke="black" points="1880,-23.5 1880,-61.5 "/>
<text text-anchor="middle" x="1903.5" y="-46.3" font-family="Times New Roman,serif" font-size="14.00">X: 36</text>
<text text-anchor="middle" x="1903.5" y="-31.3" font-family="Times New Roman,serif" font-size="14.00">Y: 34</text>
<polyline fill="none" stroke="black" points="1927,-23.5 1927,-61.5 "/>
<text text-anchor="middle" x="1950.5" y="-46.3" font-family="Times New Roman,serif" font-size="14.00">X: 30</text>
<text text-anchor="middle" x="1950.5" y="-31.3" font-family="Times New Roman,serif" font-size="14.00">Y: 32</text>
<polyline fill="none" stroke="black" points="1974,-23.5 1974,-61.5 "/>
<text text-anchor="middle" x="1997.5" y="-46.3" font-family="Times New Roman,serif" font-size="14.00">X: 33</text>
<text text-anchor="middle" x="1997.5" y="-31.3" font-family="Times New Roman,serif" font-size="14.00">Y: 38</text>
<polyline fill="none" stroke="black" points="2021,-23.5 2021,-61.5 "/>
<text text-anchor="middle" x="2044.5" y="-46.3" font-family="Times New Roman,serif" font-size="14.00">X: 22</text>
<text text-anchor="middle" x="2044.5" y="-31.3" font-family="Times New Roman,serif" font-size="14.00">Y: 23</text>
<polyline fill="none" stroke="black" points="2068,-23.5 2068,-61.5 "/>
<text text-anchor="middle" x="2091.5" y="-46.3" font-family="Times New Roman,serif" font-size="14.00">X: 32</text>
<text text-anchor="middle" x="2091.5" y="-31.3" font-family="Times New Roman,serif" font-size="14.00">Y: 39</text>
<polyline fill="none" stroke="black" points="2115,-23.5 2115,-61.5 "/>
<text text-anchor="middle" x="2138.5" y="-46.3" font-family="Times New Roman,serif" font-size="14.00">X: 27</text>
<text text-anchor="middle" x="2138.5" y="-31.3" font-family="Times New Roman,serif" font-size="14.00">Y: 31</text>
<polyline fill="none" stroke="black" points="2162,-23.5 2162,-61.5 "/>
<text text-anchor="middle" x="2185.5" y="-46.3" font-family="Times New Roman,serif" font-size="14.00">X: 32</text>
<text text-anchor="middle" x="2185.5" y="-31.3" font-family="Times New Roman,serif" font-size="14.00">Y: 40</text>
<polyline fill="none" stroke="black" points="2209,-23.5 2209,-61.5 "/>
<text text-anchor="middle" x="2232.5" y="-46.3" font-family="Times New Roman,serif" font-size="14.00">X: 31</text>
<text text-anchor="middle" x="2232.5" y="-31.3" font-family="Times New Roman,serif" font-size="14.00">Y: 21</text>
<polyline fill="none" stroke="black" points="2256,-23.5 2256,-61.5 "/>
<text text-anchor="middle" x="2279.5" y="-46.3" font-family="Times New Roman,serif" font-size="14.00">X: 38</text>
<text text-anchor="middle" x="2279.5" y="-31.3" font-family="Times New Roman,serif" font-size="14.00">Y: 20</text>
<polyline fill="none" stroke="black" points="2303,-23.5 2303,-61.5 "/>
<text text-anchor="middle" x="2326.5" y="-46.3" font-family="Times New Roman,serif" font-size="14.00">X: 31</text>
<text text-anchor="middle" x="2326.5" y="-31.3" font-family="Times New Roman,serif" font-size="14.00">Y: 21</text>
<polyline fill="none" stroke="black" points="2350,-23.5 2350,-61.5 "/>
<text text-anchor="middle" x="2373.5" y="-46.3" font-family="Times New Roman,serif" font-size="14.00">X: 23</text>
<text text-anchor="middle" x="2373.5" y="-31.3" font-family="Times New Roman,serif" font-size="14.00">Y: 21</text>
<polyline fill="none" stroke="black" points="2397,-23.5 2397,-61.5 "/>
<text text-anchor="middle" x="2420.5" y="-46.3" font-family="Times New Roman,serif" font-size="14.00">X: 35</text>
<text text-anchor="middle" x="2420.5" y="-31.3" font-family="Times New Roman,serif" font-size="14.00">Y: 22</text>
<polyline fill="none" stroke="black" points="2444,-23.5 2444,-61.5 "/>
<text text-anchor="middle" x="2467.5" y="-46.3" font-family="Times New Roman,serif" font-size="14.00">X: 34</text>
<text text-anchor="middle" x="2467.5" y="-31.3" font-family="Times New Roman,serif" font-size="14.00">Y: 24</text>
<polyline fill="none" stroke="black" points="2491,-23.5 2491,-61.5 "/>
<text text-anchor="middle" x="2514.5" y="-46.3" font-family="Times New Roman,serif" font-size="14.00">X: 33</text>
<text text-anchor="middle" x="2514.5" y="-31.3" font-family="Times New Roman,serif" font-size="14.00">Y: 29</text>
<polyline fill="none" stroke="black" points="2538,-23.5 2538,-61.5 "/>
<text text-anchor="middle" x="2561.5" y="-46.3" font-family="Times New Roman,serif" font-size="14.00">X: 39</text>
<text text-anchor="middle" x="2561.5" y="-31.3" font-family="Times New Roman,serif" font-size="14.00">Y: 34</text>
</g>
</g>
</svg>
