<?xml version="1.0" encoding="UTF-8" standalone="no"?>
<!DOCTYPE svg PUBLIC "-//W3C//DTD SVG 1.1//EN"
 "http://www.w3.org/Graphics/SVG/1.1/DTD/svg11.dtd">
<!-- Generated by graphviz version 2.50.0 (20211204.2007)
 -->
<!-- Title: G Pages: 1 -->
<svg width="18368pt" height="134pt"
 viewBox="0.00 0.00 18368.00 134.32" xmlns="http://www.w3.org/2000/svg" xmlns:xlink="http://www.w3.org/1999/xlink">
<g id="graph0" class="graph" transform="scale(1 1) rotate(0) translate(4 130.32)">
<title>G</title>
<polygon fill="white" stroke="transparent" points="-4,4 -4,-130.32 18364,-130.32 18364,4 -4,4"/>
<text text-anchor="middle" x="9180" y="-7.8" font-family="Times New Roman,serif" font-size="14.00">Lista de Usuarios</text>
<!-- Alvarez4391FRENEX -->
<g id="node1" class="node">
<title>Alvarez4391FRENEX</title>
<polygon fill="none" stroke="black" points="489,-91 0,-91 0,-23 489,-23 489,-91"/>
<text text-anchor="middle" x="244.5" y="-75.8" font-family="Times New Roman,serif" font-size="14.00">Nombre: Alvarez4391 </text>
<text text-anchor="middle" x="244.5" y="-60.8" font-family="Times New Roman,serif" font-size="14.00"> Password: a665a45920422f9d417e4867efdc4fb8a04a1f3fff1fa07e998e86f7f7a27ae3 </text>
<text text-anchor="middle" x="244.5" y="-45.8" font-family="Times New Roman,serif" font-size="14.00"> Edad: 10 </text>
<text text-anchor="middle" x="244.5" y="-30.8" font-family="Times New Roman,serif" font-size="14.00"> Monedas: 1836</text>
</g>
<!-- Lacey4551VERBUS -->
<g id="node2" class="node">
<title>Lacey4551VERBUS</title>
<polygon fill="none" stroke="black" points="996,-91 507,-91 507,-23 996,-23 996,-91"/>
<text text-anchor="middle" x="751.5" y="-75.8" font-family="Times New Roman,serif" font-size="14.00">Nombre: Lacey4551 </text>
<text text-anchor="middle" x="751.5" y="-60.8" font-family="Times New Roman,serif" font-size="14.00"> Password: a665a45920422f9d417e4867efdc4fb8a04a1f3fff1fa07e998e86f7f7a27ae3 </text>
<text text-anchor="middle" x="751.5" y="-45.8" font-family="Times New Roman,serif" font-size="14.00"> Edad: 10 </text>
<text text-anchor="middle" x="751.5" y="-30.8" font-family="Times New Roman,serif" font-size="14.00"> Monedas: 7248</text>
</g>
<!-- Alvarez4391FRENEX&#45;&gt;Lacey4551VERBUS -->
<g id="edge1" class="edge">
<title>Alvarez4391FRENEX&#45;&gt;Lacey4551VERBUS</title>
<path fill="none" stroke="black" d="M499.31,-57C499.47,-57 499.62,-57 499.78,-57"/>
<polygon fill="black" stroke="black" points="499.09,-53.5 489.09,-57 499.09,-60.5 499.09,-53.5"/>
<polygon fill="black" stroke="black" points="496.77,-60.5 506.77,-57 496.77,-53.5 496.77,-60.5"/>
</g>
<!-- Mindy9278PATHWAYS -->
<g id="node35" class="node">
<title>Mindy9278PATHWAYS</title>
<polygon fill="none" stroke="black" points="18360,-91 17849,-91 17849,-23 18360,-23 18360,-91"/>
<text text-anchor="middle" x="18104.5" y="-75.8" font-family="Times New Roman,serif" font-size="14.00">Nombre: Mindy9278 </text>
<text text-anchor="middle" x="18104.5" y="-60.8" font-family="Times New Roman,serif" font-size="14.00"> Password: a85f84769c0fa35e00b3270b6ab9d0696dfe582a9d7368029b963e49a1ac99d4 </text>
<text text-anchor="middle" x="18104.5" y="-45.8" font-family="Times New Roman,serif" font-size="14.00"> Edad: 60 </text>
<text text-anchor="middle" x="18104.5" y="-30.8" font-family="Times New Roman,serif" font-size="14.00"> Monedas: 4441</text>
</g>
<!-- Alvarez4391FRENEX&#45;&gt;Mindy9278PATHWAYS -->
<g id="edge35" class="edge">
<title>Alvarez4391FRENEX&#45;&gt;Mindy9278PATHWAYS</title>
<path fill="none" stroke="black" d="M400.01,-92.96C435.17,-99.63 472.46,-105.57 507.5,-109 746.97,-132.45 17591.95,-131.61 17831.5,-109 17867.83,-105.57 17906.53,-99.63 17943.02,-92.96"/>
<polygon fill="black" stroke="black" points="400.64,-89.51 390.16,-91.06 399.32,-96.39 400.64,-89.51"/>
<polygon fill="black" stroke="black" points="17944.05,-96.32 17953.25,-91.06 17942.78,-89.44 17944.05,-96.32"/>
</g>
<!-- Frank5793PLASTO -->
<g id="node3" class="node">
<title>Frank5793PLASTO</title>
<polygon fill="none" stroke="black" points="1503,-91 1014,-91 1014,-23 1503,-23 1503,-91"/>
<text text-anchor="middle" x="1258.5" y="-75.8" font-family="Times New Roman,serif" font-size="14.00">Nombre: Frank5793 </text>
<text text-anchor="middle" x="1258.5" y="-60.8" font-family="Times New Roman,serif" font-size="14.00"> Password: a665a45920422f9d417e4867efdc4fb8a04a1f3fff1fa07e998e86f7f7a27ae3 </text>
<text text-anchor="middle" x="1258.5" y="-45.8" font-family="Times New Roman,serif" font-size="14.00"> Edad: 10 </text>
<text text-anchor="middle" x="1258.5" y="-30.8" font-family="Times New Roman,serif" font-size="14.00"> Monedas: 9517</text>
</g>
<!-- Lacey4551VERBUS&#45;&gt;Frank5793PLASTO -->
<g id="edge2" class="edge">
<title>Lacey4551VERBUS&#45;&gt;Frank5793PLASTO</title>
<path fill="none" stroke="black" d="M1006.31,-57C1006.47,-57 1006.62,-57 1006.78,-57"/>
<polygon fill="black" stroke="black" points="1006.09,-53.5 996.09,-57 1006.09,-60.5 1006.09,-53.5"/>
<polygon fill="black" stroke="black" points="1003.77,-60.5 1013.77,-57 1003.77,-53.5 1003.77,-60.5"/>
</g>
<!-- Luella8576RODEOLOGY -->
<g id="node4" class="node">
<title>Luella8576RODEOLOGY</title>
<polygon fill="none" stroke="black" points="2010,-91 1521,-91 1521,-23 2010,-23 2010,-91"/>
<text text-anchor="middle" x="1765.5" y="-75.8" font-family="Times New Roman,serif" font-size="14.00">Nombre: Luella8576 </text>
<text text-anchor="middle" x="1765.5" y="-60.8" font-family="Times New Roman,serif" font-size="14.00"> Password: a665a45920422f9d417e4867efdc4fb8a04a1f3fff1fa07e998e86f7f7a27ae3 </text>
<text text-anchor="middle" x="1765.5" y="-45.8" font-family="Times New Roman,serif" font-size="14.00"> Edad: 14 </text>
<text text-anchor="middle" x="1765.5" y="-30.8" font-family="Times New Roman,serif" font-size="14.00"> Monedas: 3811</text>
</g>
<!-- Frank5793PLASTO&#45;&gt;Luella8576RODEOLOGY -->
<g id="edge3" class="edge">
<title>Frank5793PLASTO&#45;&gt;Luella8576RODEOLOGY</title>
<path fill="none" stroke="black" d="M1513.31,-57C1513.47,-57 1513.62,-57 1513.78,-57"/>
<polygon fill="black" stroke="black" points="1513.09,-53.5 1503.09,-57 1513.09,-60.5 1513.09,-53.5"/>
<polygon fill="black" stroke="black" points="1510.77,-60.5 1520.77,-57 1510.77,-53.5 1510.77,-60.5"/>
</g>
<!-- Wallace8960XOGGLE -->
<g id="node5" class="node">
<title>Wallace8960XOGGLE</title>
<polygon fill="none" stroke="black" points="2517,-91 2028,-91 2028,-23 2517,-23 2517,-91"/>
<text text-anchor="middle" x="2272.5" y="-75.8" font-family="Times New Roman,serif" font-size="14.00">Nombre: Wallace8960 </text>
<text text-anchor="middle" x="2272.5" y="-60.8" font-family="Times New Roman,serif" font-size="14.00"> Password: a665a45920422f9d417e4867efdc4fb8a04a1f3fff1fa07e998e86f7f7a27ae3 </text>
<text text-anchor="middle" x="2272.5" y="-45.8" font-family="Times New Roman,serif" font-size="14.00"> Edad: 15 </text>
<text text-anchor="middle" x="2272.5" y="-30.8" font-family="Times New Roman,serif" font-size="14.00"> Monedas: 7662</text>
</g>
<!-- Luella8576RODEOLOGY&#45;&gt;Wallace8960XOGGLE -->
<g id="edge4" class="edge">
<title>Luella8576RODEOLOGY&#45;&gt;Wallace8960XOGGLE</title>
<path fill="none" stroke="black" d="M2020.31,-57C2020.47,-57 2020.62,-57 2020.78,-57"/>
<polygon fill="black" stroke="black" points="2020.09,-53.5 2010.09,-57 2020.09,-60.5 2020.09,-53.5"/>
<polygon fill="black" stroke="black" points="2017.77,-60.5 2027.77,-57 2017.77,-53.5 2017.77,-60.5"/>
</g>
<!-- Shelby1151PROSURE -->
<g id="node6" class="node">
<title>Shelby1151PROSURE</title>
<polygon fill="none" stroke="black" points="3050,-91 2535,-91 2535,-23 3050,-23 3050,-91"/>
<text text-anchor="middle" x="2792.5" y="-75.8" font-family="Times New Roman,serif" font-size="14.00">Nombre: Shelby1151 </text>
<text text-anchor="middle" x="2792.5" y="-60.8" font-family="Times New Roman,serif" font-size="14.00"> Password: 60d9329f7c65b3e5e32b5d63b35549f03d2280b910e76a756b494cec11a24293 </text>
<text text-anchor="middle" x="2792.5" y="-45.8" font-family="Times New Roman,serif" font-size="14.00"> Edad: 19 </text>
<text text-anchor="middle" x="2792.5" y="-30.8" font-family="Times New Roman,serif" font-size="14.00"> Monedas: 9522</text>
</g>
<!-- Wallace8960XOGGLE&#45;&gt;Shelby1151PROSURE -->
<g id="edge5" class="edge">
<title>Wallace8960XOGGLE&#45;&gt;Shelby1151PROSURE</title>
<path fill="none" stroke="black" d="M2527.28,-57C2527.43,-57 2527.59,-57 2527.75,-57"/>
<polygon fill="black" stroke="black" points="2527.01,-53.5 2517.01,-57 2527.01,-60.5 2527.01,-53.5"/>
<polygon fill="black" stroke="black" points="2524.77,-60.5 2534.77,-57 2524.77,-53.5 2524.77,-60.5"/>
</g>
<!-- Tanisha6978EDECINE -->
<g id="node7" class="node">
<title>Tanisha6978EDECINE</title>
<polygon fill="none" stroke="black" points="3580.5,-91 3068.5,-91 3068.5,-23 3580.5,-23 3580.5,-91"/>
<text text-anchor="middle" x="3324.5" y="-75.8" font-family="Times New Roman,serif" font-size="14.00">Nombre: Tanisha6978 </text>
<text text-anchor="middle" x="3324.5" y="-60.8" font-family="Times New Roman,serif" font-size="14.00"> Password: c696d6a440af5de3640f6691f6c5ba2d096cec908e47daab4b5b4256c18c990b </text>
<text text-anchor="middle" x="3324.5" y="-45.8" font-family="Times New Roman,serif" font-size="14.00"> Edad: 20 </text>
<text text-anchor="middle" x="3324.5" y="-30.8" font-family="Times New Roman,serif" font-size="14.00"> Monedas: 4255</text>
</g>
<!-- Shelby1151PROSURE&#45;&gt;Tanisha6978EDECINE -->
<g id="edge6" class="edge">
<title>Shelby1151PROSURE&#45;&gt;Tanisha6978EDECINE</title>
<path fill="none" stroke="black" d="M3060.43,-57C3060.6,-57 3060.77,-57 3060.93,-57"/>
<polygon fill="black" stroke="black" points="3060.19,-53.5 3050.19,-57 3060.19,-60.5 3060.19,-53.5"/>
<polygon fill="black" stroke="black" points="3058.4,-60.5 3068.4,-57 3058.4,-53.5 3058.4,-60.5"/>
</g>
<!-- Joan5187ZENTIA -->
<g id="node8" class="node">
<title>Joan5187ZENTIA</title>
<polygon fill="none" stroke="black" points="4098.5,-91 3598.5,-91 3598.5,-23 4098.5,-23 4098.5,-91"/>
<text text-anchor="middle" x="3848.5" y="-75.8" font-family="Times New Roman,serif" font-size="14.00">Nombre: Joan5187 </text>
<text text-anchor="middle" x="3848.5" y="-60.8" font-family="Times New Roman,serif" font-size="14.00"> Password: b7b18fa1f8ef56fe6a493d7931b32aff634deaa5888762ca5858e439475e2151 </text>
<text text-anchor="middle" x="3848.5" y="-45.8" font-family="Times New Roman,serif" font-size="14.00"> Edad: 22 </text>
<text text-anchor="middle" x="3848.5" y="-30.8" font-family="Times New Roman,serif" font-size="14.00"> Monedas: 4259</text>
</g>
<!-- Tanisha6978EDECINE&#45;&gt;Joan5187ZENTIA -->
<g id="edge7" class="edge">
<title>Tanisha6978EDECINE&#45;&gt;Joan5187ZENTIA</title>
<path fill="none" stroke="black" d="M3590.62,-57C3590.78,-57 3590.95,-57 3591.11,-57"/>
<polygon fill="black" stroke="black" points="3590.62,-53.5 3580.62,-57 3590.62,-60.5 3590.62,-53.5"/>
<polygon fill="black" stroke="black" points="3588.4,-60.5 3598.4,-57 3588.4,-53.5 3588.4,-60.5"/>
</g>
<!-- juanfrajuanfra -->
<g id="node9" class="node">
<title>juanfrajuanfra</title>
<polygon fill="none" stroke="black" points="4628.5,-91 4116.5,-91 4116.5,-23 4628.5,-23 4628.5,-91"/>
<text text-anchor="middle" x="4372.5" y="-75.8" font-family="Times New Roman,serif" font-size="14.00">Nombre: juanfra </text>
<text text-anchor="middle" x="4372.5" y="-60.8" font-family="Times New Roman,serif" font-size="14.00"> Password: e6dbffae5f7abdb308884d48cb92b68bbf4c583370c24838041a81ccbbabd4af </text>
<text text-anchor="middle" x="4372.5" y="-45.8" font-family="Times New Roman,serif" font-size="14.00"> Edad: 22 </text>
<text text-anchor="middle" x="4372.5" y="-30.8" font-family="Times New Roman,serif" font-size="14.00"> Monedas: 256</text>
</g>
<!-- Joan5187ZENTIA&#45;&gt;juanfrajuanfra -->
<g id="edge8" class="edge">
<title>Joan5187ZENTIA&#45;&gt;juanfrajuanfra</title>
<path fill="none" stroke="black" d="M4108.93,-57C4109.09,-57 4109.24,-57 4109.4,-57"/>
<polygon fill="black" stroke="black" points="4108.73,-53.5 4098.73,-57 4108.73,-60.5 4108.73,-53.5"/>
<polygon fill="black" stroke="black" points="4106.38,-60.5 4116.38,-57 4106.38,-53.5 4106.38,-60.5"/>
</g>
<!-- Morgan2695ANARCO -->
<g id="node10" class="node">
<title>Morgan2695ANARCO</title>
<polygon fill="none" stroke="black" points="5158,-91 4647,-91 4647,-23 5158,-23 5158,-91"/>
<text text-anchor="middle" x="4902.5" y="-75.8" font-family="Times New Roman,serif" font-size="14.00">Nombre: Morgan2695 </text>
<text text-anchor="middle" x="4902.5" y="-60.8" font-family="Times New Roman,serif" font-size="14.00"> Password: 05559acb8c0162d5e764ee58880f3aac49fd8364ee9d25a8adba045c17427b22 </text>
<text text-anchor="middle" x="4902.5" y="-45.8" font-family="Times New Roman,serif" font-size="14.00"> Edad: 23 </text>
<text text-anchor="middle" x="4902.5" y="-30.8" font-family="Times New Roman,serif" font-size="14.00"> Monedas: 9153</text>
</g>
<!-- juanfrajuanfra&#45;&gt;Morgan2695ANARCO -->
<g id="edge9" class="edge">
<title>juanfrajuanfra&#45;&gt;Morgan2695ANARCO</title>
<path fill="none" stroke="black" d="M4638.93,-57C4639.09,-57 4639.26,-57 4639.43,-57"/>
<polygon fill="black" stroke="black" points="4638.7,-53.5 4628.7,-57 4638.7,-60.5 4638.7,-53.5"/>
<polygon fill="black" stroke="black" points="4636.88,-60.5 4646.88,-57 4636.88,-53.5 4636.88,-60.5"/>
</g>
<!-- usuario3123 -->
<g id="node11" class="node">
<title>usuario3123</title>
<polygon fill="none" stroke="black" points="5688.5,-91 5176.5,-91 5176.5,-23 5688.5,-23 5688.5,-91"/>
<text text-anchor="middle" x="5432.5" y="-75.8" font-family="Times New Roman,serif" font-size="14.00">Nombre: usuario3 </text>
<text text-anchor="middle" x="5432.5" y="-60.8" font-family="Times New Roman,serif" font-size="14.00"> Password: 9128b1503824132af3984366860cc65e221c2b273b08637d2294fc00ffd96d97 </text>
<text text-anchor="middle" x="5432.5" y="-45.8" font-family="Times New Roman,serif" font-size="14.00"> Edad: 24 </text>
<text text-anchor="middle" x="5432.5" y="-30.8" font-family="Times New Roman,serif" font-size="14.00"> Monedas: 10000</text>
</g>
<!-- Morgan2695ANARCO&#45;&gt;usuario3123 -->
<g id="edge10" class="edge">
<title>Morgan2695ANARCO&#45;&gt;usuario3123</title>
<path fill="none" stroke="black" d="M5168.43,-57C5168.6,-57 5168.76,-57 5168.93,-57"/>
<polygon fill="black" stroke="black" points="5168.18,-53.5 5158.18,-57 5168.18,-60.5 5168.18,-53.5"/>
<polygon fill="black" stroke="black" points="5166.4,-60.5 5176.4,-57 5166.4,-53.5 5166.4,-60.5"/>
</g>
<!-- Henrietta8661GOLISTIC -->
<g id="node12" class="node">
<title>Henrietta8661GOLISTIC</title>
<polygon fill="none" stroke="black" points="6218.5,-91 5706.5,-91 5706.5,-23 6218.5,-23 6218.5,-91"/>
<text text-anchor="middle" x="5962.5" y="-75.8" font-family="Times New Roman,serif" font-size="14.00">Nombre: Henrietta8661 </text>
<text text-anchor="middle" x="5962.5" y="-60.8" font-family="Times New Roman,serif" font-size="14.00"> Password: d41b0438e7ed050282bcda33fbf33f84bcc59c9eb7935257b63ccc0a0e7bca8f </text>
<text text-anchor="middle" x="5962.5" y="-45.8" font-family="Times New Roman,serif" font-size="14.00"> Edad: 24 </text>
<text text-anchor="middle" x="5962.5" y="-30.8" font-family="Times New Roman,serif" font-size="14.00"> Monedas: 4421</text>
</g>
<!-- usuario3123&#45;&gt;Henrietta8661GOLISTIC -->
<g id="edge11" class="edge">
<title>usuario3123&#45;&gt;Henrietta8661GOLISTIC</title>
<path fill="none" stroke="black" d="M5698.9,-57C5699.06,-57 5699.21,-57 5699.37,-57"/>
<polygon fill="black" stroke="black" points="5698.7,-53.5 5688.7,-57 5698.7,-60.5 5698.7,-53.5"/>
<polygon fill="black" stroke="black" points="5696.35,-60.5 5706.35,-57 5696.35,-53.5 5696.35,-60.5"/>
</g>
<!-- Rosemary8594BALOOBA -->
<g id="node13" class="node">
<title>Rosemary8594BALOOBA</title>
<polygon fill="none" stroke="black" points="6746,-91 6237,-91 6237,-23 6746,-23 6746,-91"/>
<text text-anchor="middle" x="6491.5" y="-75.8" font-family="Times New Roman,serif" font-size="14.00">Nombre: Rosemary8594 </text>
<text text-anchor="middle" x="6491.5" y="-60.8" font-family="Times New Roman,serif" font-size="14.00"> Password: 1ab6be72f034f9548423279cbd529e5d4f628c4496bc82fa8b02a77c11d6e7f5 </text>
<text text-anchor="middle" x="6491.5" y="-45.8" font-family="Times New Roman,serif" font-size="14.00"> Edad: 25 </text>
<text text-anchor="middle" x="6491.5" y="-30.8" font-family="Times New Roman,serif" font-size="14.00"> Monedas: 3882</text>
</g>
<!-- Henrietta8661GOLISTIC&#45;&gt;Rosemary8594BALOOBA -->
<g id="edge12" class="edge">
<title>Henrietta8661GOLISTIC&#45;&gt;Rosemary8594BALOOBA</title>
<path fill="none" stroke="black" d="M6228.92,-57C6229.09,-57 6229.25,-57 6229.42,-57"/>
<polygon fill="black" stroke="black" points="6228.73,-53.5 6218.73,-57 6228.73,-60.5 6228.73,-53.5"/>
<polygon fill="black" stroke="black" points="6226.85,-60.5 6236.85,-57 6226.85,-53.5 6226.85,-60.5"/>
</g>
<!-- Matthews41100TERRASYS -->
<g id="node14" class="node">
<title>Matthews41100TERRASYS</title>
<polygon fill="none" stroke="black" points="7270.5,-91 6764.5,-91 6764.5,-23 7270.5,-23 7270.5,-91"/>
<text text-anchor="middle" x="7017.5" y="-75.8" font-family="Times New Roman,serif" font-size="14.00">Nombre: Matthews41100 </text>
<text text-anchor="middle" x="7017.5" y="-60.8" font-family="Times New Roman,serif" font-size="14.00"> Password: 0de2e12e47a442290a485463096c4974c3f89530ecde696a50cf8042bf4dcf0e </text>
<text text-anchor="middle" x="7017.5" y="-45.8" font-family="Times New Roman,serif" font-size="14.00"> Edad: 26 </text>
<text text-anchor="middle" x="7017.5" y="-30.8" font-family="Times New Roman,serif" font-size="14.00"> Monedas: 6304</text>
</g>
<!-- Rosemary8594BALOOBA&#45;&gt;Matthews41100TERRASYS -->
<g id="edge13" class="edge">
<title>Rosemary8594BALOOBA&#45;&gt;Matthews41100TERRASYS</title>
<path fill="none" stroke="black" d="M6756.03,-57C6756.11,-57 6756.2,-57 6756.29,-57"/>
<polygon fill="black" stroke="black" points="6756.02,-53.5 6746.02,-57 6756.02,-60.5 6756.02,-53.5"/>
<polygon fill="black" stroke="black" points="6754.32,-60.5 6764.32,-57 6754.32,-53.5 6754.32,-60.5"/>
</g>
<!-- Conner1583COMVEYER -->
<g id="node15" class="node">
<title>Conner1583COMVEYER</title>
<polygon fill="none" stroke="black" points="7804,-91 7289,-91 7289,-23 7804,-23 7804,-91"/>
<text text-anchor="middle" x="7546.5" y="-75.8" font-family="Times New Roman,serif" font-size="14.00">Nombre: Conner1583 </text>
<text text-anchor="middle" x="7546.5" y="-60.8" font-family="Times New Roman,serif" font-size="14.00"> Password: d36f80d4fce32c296ec7838dc57b89fbe6bebd647e7d98cd09e02371025c6796 </text>
<text text-anchor="middle" x="7546.5" y="-45.8" font-family="Times New Roman,serif" font-size="14.00"> Edad: 31 </text>
<text text-anchor="middle" x="7546.5" y="-30.8" font-family="Times New Roman,serif" font-size="14.00"> Monedas: 8054</text>
</g>
<!-- Matthews41100TERRASYS&#45;&gt;Conner1583COMVEYER -->
<g id="edge14" class="edge">
<title>Matthews41100TERRASYS&#45;&gt;Conner1583COMVEYER</title>
<path fill="none" stroke="black" d="M7280.65,-57C7280.74,-57 7280.83,-57 7280.91,-57"/>
<polygon fill="black" stroke="black" points="7280.63,-53.5 7270.63,-57 7280.63,-60.5 7280.63,-53.5"/>
<polygon fill="black" stroke="black" points="7278.95,-60.5 7288.95,-57 7278.95,-53.5 7278.95,-60.5"/>
</g>
<!-- Singleton1087UNIA -->
<g id="node16" class="node">
<title>Singleton1087UNIA</title>
<polygon fill="none" stroke="black" points="8333,-91 7822,-91 7822,-23 8333,-23 8333,-91"/>
<text text-anchor="middle" x="8077.5" y="-75.8" font-family="Times New Roman,serif" font-size="14.00">Nombre: Singleton1087 </text>
<text text-anchor="middle" x="8077.5" y="-60.8" font-family="Times New Roman,serif" font-size="14.00"> Password: ee50b286478f79b053a8158aaed98f9fddf079198d8727c91b8da1cda349782d </text>
<text text-anchor="middle" x="8077.5" y="-45.8" font-family="Times New Roman,serif" font-size="14.00"> Edad: 32 </text>
<text text-anchor="middle" x="8077.5" y="-30.8" font-family="Times New Roman,serif" font-size="14.00"> Monedas: 3855</text>
</g>
<!-- Conner1583COMVEYER&#45;&gt;Singleton1087UNIA -->
<g id="edge15" class="edge">
<title>Conner1583COMVEYER&#45;&gt;Singleton1087UNIA</title>
<path fill="none" stroke="black" d="M7814.4,-57C7814.56,-57 7814.71,-57 7814.87,-57"/>
<polygon fill="black" stroke="black" points="7814.22,-53.5 7804.22,-57 7814.22,-60.5 7814.22,-53.5"/>
<polygon fill="black" stroke="black" points="7811.84,-60.5 7821.84,-57 7811.84,-53.5 7811.84,-60.5"/>
</g>
<!-- usuario5123 -->
<g id="node17" class="node">
<title>usuario5123</title>
<polygon fill="none" stroke="black" points="8870,-91 8351,-91 8351,-23 8870,-23 8870,-91"/>
<text text-anchor="middle" x="8610.5" y="-75.8" font-family="Times New Roman,serif" font-size="14.00">Nombre: usuario5 </text>
<text text-anchor="middle" x="8610.5" y="-60.8" font-family="Times New Roman,serif" font-size="14.00"> Password: d44c52728c2721d00399be4883c796c1320e41a368e4aa6babdc77699130db38 </text>
<text text-anchor="middle" x="8610.5" y="-45.8" font-family="Times New Roman,serif" font-size="14.00"> Edad: 34 </text>
<text text-anchor="middle" x="8610.5" y="-30.8" font-family="Times New Roman,serif" font-size="14.00"> Monedas: 539</text>
</g>
<!-- Singleton1087UNIA&#45;&gt;usuario5123 -->
<g id="edge16" class="edge">
<title>Singleton1087UNIA&#45;&gt;usuario5123</title>
<path fill="none" stroke="black" d="M8343.13,-57C8343.29,-57 8343.45,-57 8343.62,-57"/>
<polygon fill="black" stroke="black" points="8343.07,-53.5 8333.07,-57 8343.07,-60.5 8343.07,-53.5"/>
<polygon fill="black" stroke="black" points="8340.95,-60.5 8350.95,-57 8340.95,-53.5 8340.95,-60.5"/>
</g>
<!-- Harriett2599INTERGEEK -->
<g id="node18" class="node">
<title>Harriett2599INTERGEEK</title>
<polygon fill="none" stroke="black" points="9391,-91 8888,-91 8888,-23 9391,-23 9391,-91"/>
<text text-anchor="middle" x="9139.5" y="-75.8" font-family="Times New Roman,serif" font-size="14.00">Nombre: Harriett2599 </text>
<text text-anchor="middle" x="9139.5" y="-60.8" font-family="Times New Roman,serif" font-size="14.00"> Password: 98a16fb7103abf8984065ca34dce6205fabb5c4e4beacf0ff2c80f7830dd4c53 </text>
<text text-anchor="middle" x="9139.5" y="-45.8" font-family="Times New Roman,serif" font-size="14.00"> Edad: 34 </text>
<text text-anchor="middle" x="9139.5" y="-30.8" font-family="Times New Roman,serif" font-size="14.00"> Monedas: 9196</text>
</g>
<!-- usuario5123&#45;&gt;Harriett2599INTERGEEK -->
<g id="edge17" class="edge">
<title>usuario5123&#45;&gt;Harriett2599INTERGEEK</title>
<path fill="none" stroke="black" d="M8880.16,-57C8880.32,-57 8880.48,-57 8880.64,-57"/>
<polygon fill="black" stroke="black" points="8880.09,-53.5 8870.09,-57 8880.09,-60.5 8880.09,-53.5"/>
<polygon fill="black" stroke="black" points="8877.98,-60.5 8887.98,-57 8877.98,-53.5 8877.98,-60.5"/>
</g>
<!-- Hopkins9664FLUM -->
<g id="node19" class="node">
<title>Hopkins9664FLUM</title>
<polygon fill="none" stroke="black" points="9918,-91 9409,-91 9409,-23 9918,-23 9918,-91"/>
<text text-anchor="middle" x="9663.5" y="-75.8" font-family="Times New Roman,serif" font-size="14.00">Nombre: Hopkins9664 </text>
<text text-anchor="middle" x="9663.5" y="-60.8" font-family="Times New Roman,serif" font-size="14.00"> Password: e424d91f9922a0050681523052196b9e754f0d1eb8a141565f2033f9d6714631 </text>
<text text-anchor="middle" x="9663.5" y="-45.8" font-family="Times New Roman,serif" font-size="14.00"> Edad: 34 </text>
<text text-anchor="middle" x="9663.5" y="-30.8" font-family="Times New Roman,serif" font-size="14.00"> Monedas: 6771</text>
</g>
<!-- Harriett2599INTERGEEK&#45;&gt;Hopkins9664FLUM -->
<g id="edge18" class="edge">
<title>Harriett2599INTERGEEK&#45;&gt;Hopkins9664FLUM</title>
<path fill="none" stroke="black" d="M9401.04,-57C9401.2,-57 9401.36,-57 9401.53,-57"/>
<polygon fill="black" stroke="black" points="9401.01,-53.5 9391.01,-57 9401.01,-60.5 9401.01,-53.5"/>
<polygon fill="black" stroke="black" points="9398.84,-60.5 9408.84,-57 9398.84,-53.5 9398.84,-60.5"/>
</g>
<!-- ultimo123 -->
<g id="node20" class="node">
<title>ultimo123</title>
<polygon fill="none" stroke="black" points="10445,-91 9936,-91 9936,-23 10445,-23 10445,-91"/>
<text text-anchor="middle" x="10190.5" y="-75.8" font-family="Times New Roman,serif" font-size="14.00">Nombre: ultimo </text>
<text text-anchor="middle" x="10190.5" y="-60.8" font-family="Times New Roman,serif" font-size="14.00"> Password: 2bd54c2fcd0c48083275faa36620a58f82ae08c699c9dd5f1d681be9e040fd4d </text>
<text text-anchor="middle" x="10190.5" y="-45.8" font-family="Times New Roman,serif" font-size="14.00"> Edad: 38 </text>
<text text-anchor="middle" x="10190.5" y="-30.8" font-family="Times New Roman,serif" font-size="14.00"> Monedas: 4339</text>
</g>
<!-- Hopkins9664FLUM&#45;&gt;ultimo123 -->
<g id="edge19" class="edge">
<title>Hopkins9664FLUM&#45;&gt;ultimo123</title>
<path fill="none" stroke="black" d="M9928.4,-57C9928.55,-57 9928.7,-57 9928.86,-57"/>
<polygon fill="black" stroke="black" points="9928.25,-53.5 9918.25,-57 9928.25,-60.5 9928.25,-53.5"/>
<polygon fill="black" stroke="black" points="9925.8,-60.5 9935.8,-57 9925.8,-53.5 9925.8,-60.5"/>
</g>
<!-- Rowena5264PODUNK -->
<g id="node21" class="node">
<title>Rowena5264PODUNK</title>
<polygon fill="none" stroke="black" points="10969.5,-91 10463.5,-91 10463.5,-23 10969.5,-23 10969.5,-91"/>
<text text-anchor="middle" x="10716.5" y="-75.8" font-family="Times New Roman,serif" font-size="14.00">Nombre: Rowena5264 </text>
<text text-anchor="middle" x="10716.5" y="-60.8" font-family="Times New Roman,serif" font-size="14.00"> Password: ee919438162a14f248054d5fb82e6c4c4bc1a7f70899918e9536a20de64a787f </text>
<text text-anchor="middle" x="10716.5" y="-45.8" font-family="Times New Roman,serif" font-size="14.00"> Edad: 39 </text>
<text text-anchor="middle" x="10716.5" y="-30.8" font-family="Times New Roman,serif" font-size="14.00"> Monedas: 7773</text>
</g>
<!-- ultimo123&#45;&gt;Rowena5264PODUNK -->
<g id="edge20" class="edge">
<title>ultimo123&#45;&gt;Rowena5264PODUNK</title>
<path fill="none" stroke="black" d="M10455.03,-57C10455.11,-57 10455.2,-57 10455.29,-57"/>
<polygon fill="black" stroke="black" points="10455.02,-53.5 10445.02,-57 10455.02,-60.5 10455.02,-53.5"/>
<polygon fill="black" stroke="black" points="10453.32,-60.5 10463.32,-57 10453.32,-53.5 10453.32,-60.5"/>
</g>
<!-- Debora7899PAWNAGRA -->
<g id="node22" class="node">
<title>Debora7899PAWNAGRA</title>
<polygon fill="none" stroke="black" points="11493.5,-91 10987.5,-91 10987.5,-23 11493.5,-23 11493.5,-91"/>
<text text-anchor="middle" x="11240.5" y="-75.8" font-family="Times New Roman,serif" font-size="14.00">Nombre: Debora7899 </text>
<text text-anchor="middle" x="11240.5" y="-60.8" font-family="Times New Roman,serif" font-size="14.00"> Password: 393909d845c7c5cc6e855efb786aa37f9e727382398bcc4f341cde744d80ff66 </text>
<text text-anchor="middle" x="11240.5" y="-45.8" font-family="Times New Roman,serif" font-size="14.00"> Edad: 40 </text>
<text text-anchor="middle" x="11240.5" y="-30.8" font-family="Times New Roman,serif" font-size="14.00"> Monedas: 6737</text>
</g>
<!-- Rowena5264PODUNK&#45;&gt;Debora7899PAWNAGRA -->
<g id="edge21" class="edge">
<title>Rowena5264PODUNK&#45;&gt;Debora7899PAWNAGRA</title>
<path fill="none" stroke="black" d="M10979.79,-57C10979.95,-57 10980.11,-57 10980.26,-57"/>
<polygon fill="black" stroke="black" points="10979.54,-53.5 10969.54,-57 10979.54,-60.5 10979.54,-53.5"/>
<polygon fill="black" stroke="black" points="10977.27,-60.5 10987.27,-57 10977.27,-53.5 10977.27,-60.5"/>
</g>
<!-- Angie5589SUPREMIA -->
<g id="node23" class="node">
<title>Angie5589SUPREMIA</title>
<polygon fill="none" stroke="black" points="12017.5,-91 11511.5,-91 11511.5,-23 12017.5,-23 12017.5,-91"/>
<text text-anchor="middle" x="11764.5" y="-75.8" font-family="Times New Roman,serif" font-size="14.00">Nombre: Angie5589 </text>
<text text-anchor="middle" x="11764.5" y="-60.8" font-family="Times New Roman,serif" font-size="14.00"> Password: 389720fb79f99ce51096ad703025c266817c1b9f01379f2515a521e4ea5bf35c </text>
<text text-anchor="middle" x="11764.5" y="-45.8" font-family="Times New Roman,serif" font-size="14.00"> Edad: 42 </text>
<text text-anchor="middle" x="11764.5" y="-30.8" font-family="Times New Roman,serif" font-size="14.00"> Monedas: 6109</text>
</g>
<!-- Debora7899PAWNAGRA&#45;&gt;Angie5589SUPREMIA -->
<g id="edge22" class="edge">
<title>Debora7899PAWNAGRA&#45;&gt;Angie5589SUPREMIA</title>
<path fill="none" stroke="black" d="M11503.79,-57C11503.95,-57 11504.11,-57 11504.26,-57"/>
<polygon fill="black" stroke="black" points="11503.54,-53.5 11493.54,-57 11503.54,-60.5 11503.54,-53.5"/>
<polygon fill="black" stroke="black" points="11501.27,-60.5 11511.27,-57 11501.27,-53.5 11501.27,-60.5"/>
</g>
<!-- Michael8699SPEEDBOLT -->
<g id="node24" class="node">
<title>Michael8699SPEEDBOLT</title>
<polygon fill="none" stroke="black" points="12551.5,-91 12035.5,-91 12035.5,-23 12551.5,-23 12551.5,-91"/>
<text text-anchor="middle" x="12293.5" y="-75.8" font-family="Times New Roman,serif" font-size="14.00">Nombre: Michael8699 </text>
<text text-anchor="middle" x="12293.5" y="-60.8" font-family="Times New Roman,serif" font-size="14.00"> Password: f47dd761d9ba562e0b19754d9417a68d587b7bf064c6907668b2aa34e4c38e68 </text>
<text text-anchor="middle" x="12293.5" y="-45.8" font-family="Times New Roman,serif" font-size="14.00"> Edad: 44 </text>
<text text-anchor="middle" x="12293.5" y="-30.8" font-family="Times New Roman,serif" font-size="14.00"> Monedas: 7465</text>
</g>
<!-- Angie5589SUPREMIA&#45;&gt;Michael8699SPEEDBOLT -->
<g id="edge23" class="edge">
<title>Angie5589SUPREMIA&#45;&gt;Michael8699SPEEDBOLT</title>
<path fill="none" stroke="black" d="M12027.64,-57C12027.8,-57 12027.96,-57 12028.12,-57"/>
<polygon fill="black" stroke="black" points="12027.63,-53.5 12017.63,-57 12027.63,-60.5 12027.63,-53.5"/>
<polygon fill="black" stroke="black" points="12025.42,-60.5 12035.42,-57 12025.42,-53.5 12025.42,-60.5"/>
</g>
<!-- Knox8788COMVEY -->
<g id="node25" class="node">
<title>Knox8788COMVEY</title>
<polygon fill="none" stroke="black" points="13073,-91 12570,-91 12570,-23 13073,-23 13073,-91"/>
<text text-anchor="middle" x="12821.5" y="-75.8" font-family="Times New Roman,serif" font-size="14.00">Nombre: Knox8788 </text>
<text text-anchor="middle" x="12821.5" y="-60.8" font-family="Times New Roman,serif" font-size="14.00"> Password: fdc72bdea36aae9aed2f5791272a74275d30676e1d3025c31cef3ffe1366c2a2 </text>
<text text-anchor="middle" x="12821.5" y="-45.8" font-family="Times New Roman,serif" font-size="14.00"> Edad: 44 </text>
<text text-anchor="middle" x="12821.5" y="-30.8" font-family="Times New Roman,serif" font-size="14.00"> Monedas: 9964</text>
</g>
<!-- Michael8699SPEEDBOLT&#45;&gt;Knox8788COMVEY -->
<g id="edge24" class="edge">
<title>Michael8699SPEEDBOLT&#45;&gt;Knox8788COMVEY</title>
<path fill="none" stroke="black" d="M12561.8,-57C12561.97,-57 12562.13,-57 12562.3,-57"/>
<polygon fill="black" stroke="black" points="12561.57,-53.5 12551.57,-57 12561.57,-60.5 12561.57,-53.5"/>
<polygon fill="black" stroke="black" points="12559.76,-60.5 12569.76,-57 12559.76,-53.5 12559.76,-60.5"/>
</g>
<!-- usuario1123 -->
<g id="node26" class="node">
<title>usuario1123</title>
<polygon fill="none" stroke="black" points="13602,-91 13091,-91 13091,-23 13602,-23 13602,-91"/>
<text text-anchor="middle" x="13346.5" y="-75.8" font-family="Times New Roman,serif" font-size="14.00">Nombre: usuario1 </text>
<text text-anchor="middle" x="13346.5" y="-60.8" font-family="Times New Roman,serif" font-size="14.00"> Password: f083edc51b64438b7b22f7d44616d928513e3c775b8e6a4f568c0f4aacb96140 </text>
<text text-anchor="middle" x="13346.5" y="-45.8" font-family="Times New Roman,serif" font-size="14.00"> Edad: 48 </text>
<text text-anchor="middle" x="13346.5" y="-30.8" font-family="Times New Roman,serif" font-size="14.00"> Monedas: 208</text>
</g>
<!-- Knox8788COMVEY&#45;&gt;usuario1123 -->
<g id="edge25" class="edge">
<title>Knox8788COMVEY&#45;&gt;usuario1123</title>
<path fill="none" stroke="black" d="M13083.42,-57C13083.57,-57 13083.73,-57 13083.88,-57"/>
<polygon fill="black" stroke="black" points="13083.23,-53.5 13073.23,-57 13083.23,-60.5 13083.23,-53.5"/>
<polygon fill="black" stroke="black" points="13080.85,-60.5 13090.85,-57 13080.85,-53.5 13080.85,-60.5"/>
</g>
<!-- Ingrid9763SIGNIDYNE -->
<g id="node27" class="node">
<title>Ingrid9763SIGNIDYNE</title>
<polygon fill="none" stroke="black" points="14135,-91 13620,-91 13620,-23 14135,-23 14135,-91"/>
<text text-anchor="middle" x="13877.5" y="-75.8" font-family="Times New Roman,serif" font-size="14.00">Nombre: Ingrid9763 </text>
<text text-anchor="middle" x="13877.5" y="-60.8" font-family="Times New Roman,serif" font-size="14.00"> Password: fa394cb52c9e1b24258e152df6f7a49bd9d5e86e810da8c007d589bab4d4773b </text>
<text text-anchor="middle" x="13877.5" y="-45.8" font-family="Times New Roman,serif" font-size="14.00"> Edad: 50 </text>
<text text-anchor="middle" x="13877.5" y="-30.8" font-family="Times New Roman,serif" font-size="14.00"> Monedas: 5320</text>
</g>
<!-- usuario1123&#45;&gt;Ingrid9763SIGNIDYNE -->
<g id="edge26" class="edge">
<title>usuario1123&#45;&gt;Ingrid9763SIGNIDYNE</title>
<path fill="none" stroke="black" d="M13612.41,-57C13612.56,-57 13612.72,-57 13612.88,-57"/>
<polygon fill="black" stroke="black" points="13612.15,-53.5 13602.15,-57 13612.15,-60.5 13612.15,-53.5"/>
<polygon fill="black" stroke="black" points="13609.89,-60.5 13619.89,-57 13609.89,-53.5 13609.89,-60.5"/>
</g>
<!-- Kerry4754COMVOY -->
<g id="node28" class="node">
<title>Kerry4754COMVOY</title>
<polygon fill="none" stroke="black" points="14659.5,-91 14153.5,-91 14153.5,-23 14659.5,-23 14659.5,-91"/>
<text text-anchor="middle" x="14406.5" y="-75.8" font-family="Times New Roman,serif" font-size="14.00">Nombre: Kerry4754 </text>
<text text-anchor="middle" x="14406.5" y="-60.8" font-family="Times New Roman,serif" font-size="14.00"> Password: ce0e9582230e331478ce037e3d141fe7c11af84f06ac57485cc89d277b52d92f </text>
<text text-anchor="middle" x="14406.5" y="-45.8" font-family="Times New Roman,serif" font-size="14.00"> Edad: 51 </text>
<text text-anchor="middle" x="14406.5" y="-30.8" font-family="Times New Roman,serif" font-size="14.00"> Monedas: 9946</text>
</g>
<!-- Ingrid9763SIGNIDYNE&#45;&gt;Kerry4754COMVOY -->
<g id="edge27" class="edge">
<title>Ingrid9763SIGNIDYNE&#45;&gt;Kerry4754COMVOY</title>
<path fill="none" stroke="black" d="M14145.03,-57C14145.12,-57 14145.2,-57 14145.29,-57"/>
<polygon fill="black" stroke="black" points="14145.03,-53.5 14135.03,-57 14145.03,-60.5 14145.03,-53.5"/>
<polygon fill="black" stroke="black" points="14143.32,-60.5 14153.32,-57 14143.32,-53.5 14143.32,-60.5"/>
</g>
<!-- Lena6979GENMOM -->
<g id="node29" class="node">
<title>Lena6979GENMOM</title>
<polygon fill="none" stroke="black" points="15193,-91 14678,-91 14678,-23 15193,-23 15193,-91"/>
<text text-anchor="middle" x="14935.5" y="-75.8" font-family="Times New Roman,serif" font-size="14.00">Nombre: Lena6979 </text>
<text text-anchor="middle" x="14935.5" y="-60.8" font-family="Times New Roman,serif" font-size="14.00"> Password: 376e654e3f9a72588b383d67a30b3b5235f13ba09dda82c313c5e3155d49dc49 </text>
<text text-anchor="middle" x="14935.5" y="-45.8" font-family="Times New Roman,serif" font-size="14.00"> Edad: 52 </text>
<text text-anchor="middle" x="14935.5" y="-30.8" font-family="Times New Roman,serif" font-size="14.00"> Monedas: 1669</text>
</g>
<!-- Kerry4754COMVOY&#45;&gt;Lena6979GENMOM -->
<g id="edge28" class="edge">
<title>Kerry4754COMVOY&#45;&gt;Lena6979GENMOM</title>
<path fill="none" stroke="black" d="M14669.65,-57C14669.74,-57 14669.83,-57 14669.91,-57"/>
<polygon fill="black" stroke="black" points="14669.63,-53.5 14659.63,-57 14669.63,-60.5 14669.63,-53.5"/>
<polygon fill="black" stroke="black" points="14667.95,-60.5 14677.95,-57 14667.95,-53.5 14667.95,-60.5"/>
</g>
<!-- Wood9988KIDSTOCK -->
<g id="node30" class="node">
<title>Wood9988KIDSTOCK</title>
<polygon fill="none" stroke="black" points="15730,-91 15211,-91 15211,-23 15730,-23 15730,-91"/>
<text text-anchor="middle" x="15470.5" y="-75.8" font-family="Times New Roman,serif" font-size="14.00">Nombre: Wood9988 </text>
<text text-anchor="middle" x="15470.5" y="-60.8" font-family="Times New Roman,serif" font-size="14.00"> Password: a00eedbb4a6d443474b7543620e949b9564e345d0d8e7b400b25f664003763cd </text>
<text text-anchor="middle" x="15470.5" y="-45.8" font-family="Times New Roman,serif" font-size="14.00"> Edad: 53 </text>
<text text-anchor="middle" x="15470.5" y="-30.8" font-family="Times New Roman,serif" font-size="14.00"> Monedas: 3823</text>
</g>
<!-- Lena6979GENMOM&#45;&gt;Wood9988KIDSTOCK -->
<g id="edge29" class="edge">
<title>Lena6979GENMOM&#45;&gt;Wood9988KIDSTOCK</title>
<path fill="none" stroke="black" d="M15203.13,-57C15203.29,-57 15203.46,-57 15203.62,-57"/>
<polygon fill="black" stroke="black" points="15203.07,-53.5 15193.07,-57 15203.07,-60.5 15203.07,-53.5"/>
<polygon fill="black" stroke="black" points="15200.95,-60.5 15210.95,-57 15200.95,-53.5 15200.95,-60.5"/>
</g>
<!-- Lindsay4861CALCULA -->
<g id="node31" class="node">
<title>Lindsay4861CALCULA</title>
<polygon fill="none" stroke="black" points="16265,-91 15748,-91 15748,-23 16265,-23 16265,-91"/>
<text text-anchor="middle" x="16006.5" y="-75.8" font-family="Times New Roman,serif" font-size="14.00">Nombre: Lindsay4861 </text>
<text text-anchor="middle" x="16006.5" y="-60.8" font-family="Times New Roman,serif" font-size="14.00"> Password: 71bb73e865a65dea1fe1e50de25ba7557c3d45ab928dd36652b70b76e6685742 </text>
<text text-anchor="middle" x="16006.5" y="-45.8" font-family="Times New Roman,serif" font-size="14.00"> Edad: 54 </text>
<text text-anchor="middle" x="16006.5" y="-30.8" font-family="Times New Roman,serif" font-size="14.00"> Monedas: 9123</text>
</g>
<!-- Wood9988KIDSTOCK&#45;&gt;Lindsay4861CALCULA -->
<g id="edge30" class="edge">
<title>Wood9988KIDSTOCK&#45;&gt;Lindsay4861CALCULA</title>
<path fill="none" stroke="black" d="M15740.14,-57C15740.31,-57 15740.47,-57 15740.63,-57"/>
<polygon fill="black" stroke="black" points="15740.13,-53.5 15730.12,-57 15740.12,-60.5 15740.13,-53.5"/>
<polygon fill="black" stroke="black" points="15737.94,-60.5 15747.94,-57 15737.94,-53.5 15737.94,-60.5"/>
</g>
<!-- usuario4123 -->
<g id="node32" class="node">
<title>usuario4123</title>
<polygon fill="none" stroke="black" points="16795.5,-91 16283.5,-91 16283.5,-23 16795.5,-23 16795.5,-91"/>
<text text-anchor="middle" x="16539.5" y="-75.8" font-family="Times New Roman,serif" font-size="14.00">Nombre: usuario4 </text>
<text text-anchor="middle" x="16539.5" y="-60.8" font-family="Times New Roman,serif" font-size="14.00"> Password: 6aa5c3dc75e6fd6c3f83d59332118c5e7c5178cf1f882b927d26d2931d563d40 </text>
<text text-anchor="middle" x="16539.5" y="-45.8" font-family="Times New Roman,serif" font-size="14.00"> Edad: 57 </text>
<text text-anchor="middle" x="16539.5" y="-30.8" font-family="Times New Roman,serif" font-size="14.00"> Monedas: 0</text>
</g>
<!-- Lindsay4861CALCULA&#45;&gt;usuario4123 -->
<g id="edge31" class="edge">
<title>Lindsay4861CALCULA&#45;&gt;usuario4123</title>
<path fill="none" stroke="black" d="M16275.44,-57C16275.6,-57 16275.77,-57 16275.94,-57"/>
<polygon fill="black" stroke="black" points="16275.19,-53.5 16265.19,-57 16275.19,-60.5 16275.19,-53.5"/>
<polygon fill="black" stroke="black" points="16273.41,-60.5 16283.41,-57 16273.41,-53.5 16273.41,-60.5"/>
</g>
<!-- Francis7792MEDALERT -->
<g id="node33" class="node">
<title>Francis7792MEDALERT</title>
<polygon fill="none" stroke="black" points="17323.5,-91 16813.5,-91 16813.5,-23 17323.5,-23 17323.5,-91"/>
<text text-anchor="middle" x="17068.5" y="-75.8" font-family="Times New Roman,serif" font-size="14.00">Nombre: Francis7792 </text>
<text text-anchor="middle" x="17068.5" y="-60.8" font-family="Times New Roman,serif" font-size="14.00"> Password: 5e7ad09a014342182d1b38e2140d4eb95c5cae0124d515fcfe77588b2fe8e6d2 </text>
<text text-anchor="middle" x="17068.5" y="-45.8" font-family="Times New Roman,serif" font-size="14.00"> Edad: 57 </text>
<text text-anchor="middle" x="17068.5" y="-30.8" font-family="Times New Roman,serif" font-size="14.00"> Monedas: 6543</text>
</g>
<!-- usuario4123&#45;&gt;Francis7792MEDALERT -->
<g id="edge32" class="edge">
<title>usuario4123&#45;&gt;Francis7792MEDALERT</title>
<path fill="none" stroke="black" d="M16805.9,-57C16806.05,-57 16806.21,-57 16806.36,-57"/>
<polygon fill="black" stroke="black" points="16805.73,-53.5 16795.73,-57 16805.73,-60.5 16805.73,-53.5"/>
<polygon fill="black" stroke="black" points="16803.32,-60.5 16813.31,-57 16803.31,-53.5 16803.32,-60.5"/>
</g>
<!-- usuario2123 -->
<g id="node34" class="node">
<title>usuario2123</title>
<polygon fill="none" stroke="black" points="17831,-91 17342,-91 17342,-23 17831,-23 17831,-91"/>
<text text-anchor="middle" x="17586.5" y="-75.8" font-family="Times New Roman,serif" font-size="14.00">Nombre: usuario2 </text>
<text text-anchor="middle" x="17586.5" y="-60.8" font-family="Times New Roman,serif" font-size="14.00"> Password: a665a45920422f9d417e4867efdc4fb8a04a1f3fff1fa07e998e86f7f7a27ae3 </text>
<text text-anchor="middle" x="17586.5" y="-45.8" font-family="Times New Roman,serif" font-size="14.00"> Edad: 60 </text>
<text text-anchor="middle" x="17586.5" y="-30.8" font-family="Times New Roman,serif" font-size="14.00"> Monedas: 1000</text>
</g>
<!-- Francis7792MEDALERT&#45;&gt;usuario2123 -->
<g id="edge33" class="edge">
<title>Francis7792MEDALERT&#45;&gt;usuario2123</title>
<path fill="none" stroke="black" d="M17333.96,-57C17334.12,-57 17334.29,-57 17334.45,-57"/>
<polygon fill="black" stroke="black" points="17333.71,-53.5 17323.71,-57 17333.71,-60.5 17333.71,-53.5"/>
<polygon fill="black" stroke="black" points="17331.93,-60.5 17341.93,-57 17331.93,-53.5 17331.93,-60.5"/>
</g>
<!-- usuario2123&#45;&gt;Mindy9278PATHWAYS -->
<g id="edge34" class="edge">
<title>usuario2123&#45;&gt;Mindy9278PATHWAYS</title>
<path fill="none" stroke="black" d="M17841.15,-57C17841.31,-57 17841.47,-57 17841.64,-57"/>
<polygon fill="black" stroke="black" points="17841.08,-53.5 17831.08,-57 17841.08,-60.5 17841.08,-53.5"/>
<polygon fill="black" stroke="black" points="17838.97,-60.5 17848.97,-57 17838.97,-53.5 17838.97,-60.5"/>
</g>
</g>
</svg>
