<?xml version="1.0" encoding="UTF-8" standalone="no"?>
<!DOCTYPE svg PUBLIC "-//W3C//DTD SVG 1.1//EN"
 "http://www.w3.org/Graphics/SVG/1.1/DTD/svg11.dtd">
<!-- Generated by graphviz version 2.50.0 (20211204.2007)
 -->
<!-- Title: G Pages: 1 -->
<svg width="310pt" height="715pt"
 viewBox="0.00 0.00 309.50 715.00" xmlns="http://www.w3.org/2000/svg" xmlns:xlink="http://www.w3.org/1999/xlink">
<g id="graph0" class="graph" transform="scale(1 1) rotate(0) translate(4 711)">
<title>G</title>
<polygon fill="white" stroke="transparent" points="-4,4 -4,-711 305.5,-711 305.5,4 -4,4"/>
<text text-anchor="middle" x="150.75" y="-7.8" font-family="Times New Roman,serif" font-size="14.00">ListaListas</text>
<!-- n450093 -->
<g id="node1" class="node">
<title>n450093</title>
<polygon fill="none" stroke="black" points="56,-635 0,-635 0,-599 56,-599 56,-635"/>
<text text-anchor="middle" x="28" y="-613.3" font-family="Times New Roman,serif" font-size="14.00">Waters</text>
</g>
<!-- n424677 -->
<g id="node2" class="node">
<title>n424677</title>
<polygon fill="none" stroke="black" points="55,-563 1,-563 1,-527 55,-527 55,-563"/>
<text text-anchor="middle" x="28" y="-541.3" font-family="Times New Roman,serif" font-size="14.00">Flores</text>
</g>
<!-- n450093&#45;&gt;n424677 -->
<g id="edge1" class="edge">
<title>n450093&#45;&gt;n424677</title>
<path fill="none" stroke="black" d="M28,-598.7C28,-590.98 28,-581.71 28,-573.11"/>
<polygon fill="black" stroke="black" points="31.5,-573.1 28,-563.1 24.5,-573.1 31.5,-573.1"/>
</g>
<!-- Leve2 -->
<g id="node3" class="node">
<title>Leve2</title>
<polygon fill="none" stroke="black" points="56,-707 2,-707 2,-671 56,-671 56,-707"/>
<text text-anchor="middle" x="29" y="-685.3" font-family="Times New Roman,serif" font-size="14.00">Leve2</text>
</g>
<!-- Leve2&#45;&gt;n450093 -->
<g id="edge2" class="edge">
<title>Leve2&#45;&gt;n450093</title>
<path fill="none" stroke="black" d="M28.75,-670.7C28.64,-662.98 28.51,-653.71 28.39,-645.11"/>
<polygon fill="black" stroke="black" points="31.89,-645.05 28.24,-635.1 24.89,-645.15 31.89,-645.05"/>
</g>
<!-- Level4 -->
<g id="node10" class="node">
<title>Level4</title>
<polygon fill="none" stroke="black" points="128,-707 74,-707 74,-671 128,-671 128,-707"/>
<text text-anchor="middle" x="101" y="-685.3" font-family="Times New Roman,serif" font-size="14.00">Level4</text>
</g>
<!-- Leve2&#45;&gt;Level4 -->
<g id="edge26" class="edge">
<title>Leve2&#45;&gt;Level4</title>
<path fill="none" stroke="black" d="M56.28,-689C58.74,-689 61.19,-689 63.65,-689"/>
<polygon fill="black" stroke="black" points="63.75,-692.5 73.75,-689 63.75,-685.5 63.75,-692.5"/>
</g>
<!-- n187765 -->
<g id="node4" class="node">
<title>n187765</title>
<polygon fill="none" stroke="black" points="128,-635 74,-635 74,-599 128,-599 128,-635"/>
<text text-anchor="middle" x="101" y="-613.3" font-family="Times New Roman,serif" font-size="14.00">Sosa</text>
</g>
<!-- n801663 -->
<g id="node5" class="node">
<title>n801663</title>
<polygon fill="none" stroke="black" points="127,-563 73,-563 73,-527 127,-527 127,-563"/>
<text text-anchor="middle" x="100" y="-541.3" font-family="Times New Roman,serif" font-size="14.00">Wolf</text>
</g>
<!-- n187765&#45;&gt;n801663 -->
<g id="edge3" class="edge">
<title>n187765&#45;&gt;n801663</title>
<path fill="none" stroke="black" d="M100.75,-598.7C100.64,-590.98 100.51,-581.71 100.39,-573.11"/>
<polygon fill="black" stroke="black" points="103.89,-573.05 100.24,-563.1 96.89,-573.15 103.89,-573.05"/>
</g>
<!-- n507715 -->
<g id="node6" class="node">
<title>n507715</title>
<polygon fill="none" stroke="black" points="133,-491 63,-491 63,-455 133,-455 133,-491"/>
<text text-anchor="middle" x="98" y="-469.3" font-family="Times New Roman,serif" font-size="14.00">Camacho</text>
</g>
<!-- n801663&#45;&gt;n507715 -->
<g id="edge4" class="edge">
<title>n801663&#45;&gt;n507715</title>
<path fill="none" stroke="black" d="M99.51,-526.7C99.29,-518.98 99.02,-509.71 98.77,-501.11"/>
<polygon fill="black" stroke="black" points="102.27,-501 98.49,-491.1 95.28,-501.2 102.27,-501"/>
</g>
<!-- n74913 -->
<g id="node7" class="node">
<title>n74913</title>
<polygon fill="none" stroke="black" points="121,-419 67,-419 67,-383 121,-383 121,-419"/>
<text text-anchor="middle" x="94" y="-397.3" font-family="Times New Roman,serif" font-size="14.00">Albert</text>
</g>
<!-- n507715&#45;&gt;n74913 -->
<g id="edge5" class="edge">
<title>n507715&#45;&gt;n74913</title>
<path fill="none" stroke="black" d="M97.01,-454.7C96.57,-446.98 96.04,-437.71 95.55,-429.11"/>
<polygon fill="black" stroke="black" points="99.04,-428.89 94.98,-419.1 92.05,-429.29 99.04,-428.89"/>
</g>
<!-- n99647 -->
<g id="node8" class="node">
<title>n99647</title>
<polygon fill="none" stroke="black" points="123.5,-347 64.5,-347 64.5,-311 123.5,-311 123.5,-347"/>
<text text-anchor="middle" x="94" y="-325.3" font-family="Times New Roman,serif" font-size="14.00">Henson</text>
</g>
<!-- n74913&#45;&gt;n99647 -->
<g id="edge6" class="edge">
<title>n74913&#45;&gt;n99647</title>
<path fill="none" stroke="black" d="M94,-382.7C94,-374.98 94,-365.71 94,-357.11"/>
<polygon fill="black" stroke="black" points="97.5,-357.1 94,-347.1 90.5,-357.1 97.5,-357.1"/>
</g>
<!-- n868070 -->
<g id="node9" class="node">
<title>n868070</title>
<polygon fill="none" stroke="black" points="121,-275 67,-275 67,-239 121,-239 121,-275"/>
<text text-anchor="middle" x="94" y="-253.3" font-family="Times New Roman,serif" font-size="14.00">Snow</text>
</g>
<!-- n99647&#45;&gt;n868070 -->
<g id="edge7" class="edge">
<title>n99647&#45;&gt;n868070</title>
<path fill="none" stroke="black" d="M94,-310.7C94,-302.98 94,-293.71 94,-285.11"/>
<polygon fill="black" stroke="black" points="97.5,-285.1 94,-275.1 90.5,-285.1 97.5,-285.1"/>
</g>
<!-- Level4&#45;&gt;n187765 -->
<g id="edge8" class="edge">
<title>Level4&#45;&gt;n187765</title>
<path fill="none" stroke="black" d="M101,-670.7C101,-662.98 101,-653.71 101,-645.11"/>
<polygon fill="black" stroke="black" points="104.5,-645.1 101,-635.1 97.5,-645.1 104.5,-645.1"/>
</g>
<!-- Level3 -->
<g id="node20" class="node">
<title>Level3</title>
<polygon fill="none" stroke="black" points="208,-707 154,-707 154,-671 208,-671 208,-707"/>
<text text-anchor="middle" x="181" y="-685.3" font-family="Times New Roman,serif" font-size="14.00">Level3</text>
</g>
<!-- Level4&#45;&gt;Level3 -->
<g id="edge27" class="edge">
<title>Level4&#45;&gt;Level3</title>
<path fill="none" stroke="black" d="M128.19,-689C133.25,-689 138.31,-689 143.38,-689"/>
<polygon fill="black" stroke="black" points="143.77,-692.5 153.77,-689 143.77,-685.5 143.77,-692.5"/>
</g>
<!-- n613161 -->
<g id="node11" class="node">
<title>n613161</title>
<polygon fill="none" stroke="black" points="208,-635 154,-635 154,-599 208,-599 208,-635"/>
<text text-anchor="middle" x="181" y="-613.3" font-family="Times New Roman,serif" font-size="14.00">Kirk</text>
</g>
<!-- n110138 -->
<g id="node12" class="node">
<title>n110138</title>
<polygon fill="none" stroke="black" points="213.5,-563 148.5,-563 148.5,-527 213.5,-527 213.5,-563"/>
<text text-anchor="middle" x="181" y="-541.3" font-family="Times New Roman,serif" font-size="14.00">Delacruz</text>
</g>
<!-- n613161&#45;&gt;n110138 -->
<g id="edge9" class="edge">
<title>n613161&#45;&gt;n110138</title>
<path fill="none" stroke="black" d="M181,-598.7C181,-590.98 181,-581.71 181,-573.11"/>
<polygon fill="black" stroke="black" points="184.5,-573.1 181,-563.1 177.5,-573.1 184.5,-573.1"/>
</g>
<!-- n770027 -->
<g id="node13" class="node">
<title>n770027</title>
<polygon fill="none" stroke="black" points="208,-491 154,-491 154,-455 208,-455 208,-491"/>
<text text-anchor="middle" x="181" y="-469.3" font-family="Times New Roman,serif" font-size="14.00">Petty</text>
</g>
<!-- n110138&#45;&gt;n770027 -->
<g id="edge10" class="edge">
<title>n110138&#45;&gt;n770027</title>
<path fill="none" stroke="black" d="M181,-526.7C181,-518.98 181,-509.71 181,-501.11"/>
<polygon fill="black" stroke="black" points="184.5,-501.1 181,-491.1 177.5,-501.1 184.5,-501.1"/>
</g>
<!-- n990648 -->
<g id="node14" class="node">
<title>n990648</title>
<polygon fill="none" stroke="black" points="222.5,-419 139.5,-419 139.5,-383 222.5,-383 222.5,-419"/>
<text text-anchor="middle" x="181" y="-397.3" font-family="Times New Roman,serif" font-size="14.00">Washington</text>
</g>
<!-- n770027&#45;&gt;n990648 -->
<g id="edge11" class="edge">
<title>n770027&#45;&gt;n990648</title>
<path fill="none" stroke="black" d="M181,-454.7C181,-446.98 181,-437.71 181,-429.11"/>
<polygon fill="black" stroke="black" points="184.5,-429.1 181,-419.1 177.5,-429.1 184.5,-429.1"/>
</g>
<!-- n200459 -->
<g id="node15" class="node">
<title>n200459</title>
<polygon fill="none" stroke="black" points="208,-347 154,-347 154,-311 208,-311 208,-347"/>
<text text-anchor="middle" x="181" y="-325.3" font-family="Times New Roman,serif" font-size="14.00">Justice</text>
</g>
<!-- n990648&#45;&gt;n200459 -->
<g id="edge12" class="edge">
<title>n990648&#45;&gt;n200459</title>
<path fill="none" stroke="black" d="M181,-382.7C181,-374.98 181,-365.71 181,-357.11"/>
<polygon fill="black" stroke="black" points="184.5,-357.1 181,-347.1 177.5,-357.1 184.5,-357.1"/>
</g>
<!-- n577947 -->
<g id="node16" class="node">
<title>n577947</title>
<polygon fill="none" stroke="black" points="208,-275 154,-275 154,-239 208,-239 208,-275"/>
<text text-anchor="middle" x="181" y="-253.3" font-family="Times New Roman,serif" font-size="14.00">Noel</text>
</g>
<!-- n200459&#45;&gt;n577947 -->
<g id="edge13" class="edge">
<title>n200459&#45;&gt;n577947</title>
<path fill="none" stroke="black" d="M181,-310.7C181,-302.98 181,-293.71 181,-285.11"/>
<polygon fill="black" stroke="black" points="184.5,-285.1 181,-275.1 177.5,-285.1 184.5,-285.1"/>
</g>
<!-- n372284 -->
<g id="node17" class="node">
<title>n372284</title>
<polygon fill="none" stroke="black" points="208,-203 154,-203 154,-167 208,-167 208,-203"/>
<text text-anchor="middle" x="181" y="-181.3" font-family="Times New Roman,serif" font-size="14.00">Blair</text>
</g>
<!-- n577947&#45;&gt;n372284 -->
<g id="edge14" class="edge">
<title>n577947&#45;&gt;n372284</title>
<path fill="none" stroke="black" d="M181,-238.7C181,-230.98 181,-221.71 181,-213.11"/>
<polygon fill="black" stroke="black" points="184.5,-213.1 181,-203.1 177.5,-213.1 184.5,-213.1"/>
</g>
<!-- n666202 -->
<g id="node18" class="node">
<title>n666202</title>
<polygon fill="none" stroke="black" points="208,-131 154,-131 154,-95 208,-95 208,-131"/>
<text text-anchor="middle" x="181" y="-109.3" font-family="Times New Roman,serif" font-size="14.00">Farrell</text>
</g>
<!-- n372284&#45;&gt;n666202 -->
<g id="edge15" class="edge">
<title>n372284&#45;&gt;n666202</title>
<path fill="none" stroke="black" d="M181,-166.7C181,-158.98 181,-149.71 181,-141.11"/>
<polygon fill="black" stroke="black" points="184.5,-141.1 181,-131.1 177.5,-141.1 184.5,-141.1"/>
</g>
<!-- n633321 -->
<g id="node19" class="node">
<title>n633321</title>
<polygon fill="none" stroke="black" points="208,-59 154,-59 154,-23 208,-23 208,-59"/>
<text text-anchor="middle" x="181" y="-37.3" font-family="Times New Roman,serif" font-size="14.00">Sykes</text>
</g>
<!-- n666202&#45;&gt;n633321 -->
<g id="edge16" class="edge">
<title>n666202&#45;&gt;n633321</title>
<path fill="none" stroke="black" d="M181,-94.7C181,-86.98 181,-77.71 181,-69.11"/>
<polygon fill="black" stroke="black" points="184.5,-69.1 181,-59.1 177.5,-69.1 184.5,-69.1"/>
</g>
<!-- Level3&#45;&gt;n613161 -->
<g id="edge17" class="edge">
<title>Level3&#45;&gt;n613161</title>
<path fill="none" stroke="black" d="M181,-670.7C181,-662.98 181,-653.71 181,-645.11"/>
<polygon fill="black" stroke="black" points="184.5,-645.1 181,-635.1 177.5,-645.1 184.5,-645.1"/>
</g>
<!-- Level1 -->
<g id="node29" class="node">
<title>Level1</title>
<polygon fill="none" stroke="black" points="281,-707 227,-707 227,-671 281,-671 281,-707"/>
<text text-anchor="middle" x="254" y="-685.3" font-family="Times New Roman,serif" font-size="14.00">Level1</text>
</g>
<!-- Level3&#45;&gt;Level1 -->
<g id="edge28" class="edge">
<title>Level3&#45;&gt;Level1</title>
<path fill="none" stroke="black" d="M208.09,-689C210.91,-689 213.72,-689 216.54,-689"/>
<polygon fill="black" stroke="black" points="216.74,-692.5 226.74,-689 216.74,-685.5 216.74,-692.5"/>
</g>
<!-- n566031 -->
<g id="node21" class="node">
<title>n566031</title>
<polygon fill="none" stroke="black" points="288.5,-635 229.5,-635 229.5,-599 288.5,-599 288.5,-635"/>
<text text-anchor="middle" x="259" y="-613.3" font-family="Times New Roman,serif" font-size="14.00">Osborn</text>
</g>
<!-- n495406 -->
<g id="node22" class="node">
<title>n495406</title>
<polygon fill="none" stroke="black" points="290.5,-563 235.5,-563 235.5,-527 290.5,-527 290.5,-563"/>
<text text-anchor="middle" x="263" y="-541.3" font-family="Times New Roman,serif" font-size="14.00">Guerra</text>
</g>
<!-- n566031&#45;&gt;n495406 -->
<g id="edge18" class="edge">
<title>n566031&#45;&gt;n495406</title>
<path fill="none" stroke="black" d="M259.99,-598.7C260.43,-590.98 260.96,-581.71 261.45,-573.11"/>
<polygon fill="black" stroke="black" points="264.95,-573.29 262.02,-563.1 257.96,-572.89 264.95,-573.29"/>
</g>
<!-- n447311 -->
<g id="node23" class="node">
<title>n447311</title>
<polygon fill="none" stroke="black" points="293,-491 237,-491 237,-455 293,-455 293,-491"/>
<text text-anchor="middle" x="265" y="-469.3" font-family="Times New Roman,serif" font-size="14.00">Branch</text>
</g>
<!-- n495406&#45;&gt;n447311 -->
<g id="edge19" class="edge">
<title>n495406&#45;&gt;n447311</title>
<path fill="none" stroke="black" d="M263.49,-526.7C263.71,-518.98 263.98,-509.71 264.23,-501.11"/>
<polygon fill="black" stroke="black" points="267.72,-501.2 264.51,-491.1 260.73,-501 267.72,-501.2"/>
</g>
<!-- n705737 -->
<g id="node24" class="node">
<title>n705737</title>
<polygon fill="none" stroke="black" points="295,-419 241,-419 241,-383 295,-383 295,-419"/>
<text text-anchor="middle" x="268" y="-397.3" font-family="Times New Roman,serif" font-size="14.00">Giles</text>
</g>
<!-- n447311&#45;&gt;n705737 -->
<g id="edge20" class="edge">
<title>n447311&#45;&gt;n705737</title>
<path fill="none" stroke="black" d="M265.74,-454.7C266.07,-446.98 266.47,-437.71 266.84,-429.11"/>
<polygon fill="black" stroke="black" points="270.34,-429.25 267.27,-419.1 263.34,-428.95 270.34,-429.25"/>
</g>
<!-- n20104 -->
<g id="node25" class="node">
<title>n20104</title>
<polygon fill="none" stroke="black" points="301.5,-347 234.5,-347 234.5,-311 301.5,-311 301.5,-347"/>
<text text-anchor="middle" x="268" y="-325.3" font-family="Times New Roman,serif" font-size="14.00">Montoya</text>
</g>
<!-- n705737&#45;&gt;n20104 -->
<g id="edge21" class="edge">
<title>n705737&#45;&gt;n20104</title>
<path fill="none" stroke="black" d="M268,-382.7C268,-374.98 268,-365.71 268,-357.11"/>
<polygon fill="black" stroke="black" points="271.5,-357.1 268,-347.1 264.5,-357.1 271.5,-357.1"/>
</g>
<!-- n758133 -->
<g id="node26" class="node">
<title>n758133</title>
<polygon fill="none" stroke="black" points="295.5,-275 240.5,-275 240.5,-239 295.5,-239 295.5,-275"/>
<text text-anchor="middle" x="268" y="-253.3" font-family="Times New Roman,serif" font-size="14.00">Garner</text>
</g>
<!-- n20104&#45;&gt;n758133 -->
<g id="edge22" class="edge">
<title>n20104&#45;&gt;n758133</title>
<path fill="none" stroke="black" d="M268,-310.7C268,-302.98 268,-293.71 268,-285.11"/>
<polygon fill="black" stroke="black" points="271.5,-285.1 268,-275.1 264.5,-285.1 271.5,-285.1"/>
</g>
<!-- n637785 -->
<g id="node27" class="node">
<title>n637785</title>
<polygon fill="none" stroke="black" points="296.5,-203 239.5,-203 239.5,-167 296.5,-167 296.5,-203"/>
<text text-anchor="middle" x="268" y="-181.3" font-family="Times New Roman,serif" font-size="14.00">Holden</text>
</g>
<!-- n758133&#45;&gt;n637785 -->
<g id="edge23" class="edge">
<title>n758133&#45;&gt;n637785</title>
<path fill="none" stroke="black" d="M268,-238.7C268,-230.98 268,-221.71 268,-213.11"/>
<polygon fill="black" stroke="black" points="271.5,-213.1 268,-203.1 264.5,-213.1 271.5,-213.1"/>
</g>
<!-- n861972 -->
<g id="node28" class="node">
<title>n861972</title>
<polygon fill="none" stroke="black" points="298,-131 238,-131 238,-95 298,-95 298,-131"/>
<text text-anchor="middle" x="268" y="-109.3" font-family="Times New Roman,serif" font-size="14.00">Trevino</text>
</g>
<!-- n637785&#45;&gt;n861972 -->
<g id="edge24" class="edge">
<title>n637785&#45;&gt;n861972</title>
<path fill="none" stroke="black" d="M268,-166.7C268,-158.98 268,-149.71 268,-141.11"/>
<polygon fill="black" stroke="black" points="271.5,-141.1 268,-131.1 264.5,-141.1 271.5,-141.1"/>
</g>
<!-- Level1&#45;&gt;n566031 -->
<g id="edge25" class="edge">
<title>Level1&#45;&gt;n566031</title>
<path fill="none" stroke="black" d="M255.24,-670.7C255.79,-662.98 256.45,-653.71 257.06,-645.11"/>
<polygon fill="black" stroke="black" points="260.56,-645.33 257.78,-635.1 253.57,-644.83 260.56,-645.33"/>
</g>
</g>
</svg>
