<?xml version="1.0" encoding="UTF-8" standalone="no"?>
<!DOCTYPE svg PUBLIC "-//W3C//DTD SVG 1.1//EN"
 "http://www.w3.org/Graphics/SVG/1.1/DTD/svg11.dtd">
<!-- Generated by graphviz version 2.50.0 (20211204.2007)
 -->
<!-- Title: G Pages: 1 -->
<svg width="1465pt" height="47pt"
 viewBox="0.00 0.00 1465.00 47.00" xmlns="http://www.w3.org/2000/svg" xmlns:xlink="http://www.w3.org/1999/xlink">
<g id="graph0" class="graph" transform="scale(1 1) rotate(0) translate(4 43)">
<title>G</title>
<polygon fill="white" stroke="transparent" points="-4,4 -4,-43 1461,-43 1461,4 -4,4"/>
<!-- struct -->
<g id="node1" class="node">
<title>struct</title>
<polygon fill="none" stroke="black" points="0,-0.5 0,-38.5 1457,-38.5 1457,-0.5 0,-0.5"/>
<text text-anchor="middle" x="23.5" y="-23.3" font-family="Times New Roman,serif" font-size="14.00">X: 22</text>
<text text-anchor="middle" x="23.5" y="-8.3" font-family="Times New Roman,serif" font-size="14.00">Y: 22</text>
<polyline fill="none" stroke="black" points="47,-0.5 47,-38.5 "/>
<text text-anchor="middle" x="70.5" y="-23.3" font-family="Times New Roman,serif" font-size="14.00">X: 26</text>
<text text-anchor="middle" x="70.5" y="-8.3" font-family="Times New Roman,serif" font-size="14.00">Y: 26</text>
<polyline fill="none" stroke="black" points="94,-0.5 94,-38.5 "/>
<text text-anchor="middle" x="117.5" y="-23.3" font-family="Times New Roman,serif" font-size="14.00">X: 33</text>
<text text-anchor="middle" x="117.5" y="-8.3" font-family="Times New Roman,serif" font-size="14.00">Y: 33</text>
<polyline fill="none" stroke="black" points="141,-0.5 141,-38.5 "/>
<text text-anchor="middle" x="164.5" y="-23.3" font-family="Times New Roman,serif" font-size="14.00">X: 31</text>
<text text-anchor="middle" x="164.5" y="-8.3" font-family="Times New Roman,serif" font-size="14.00">Y: 31</text>
<polyline fill="none" stroke="black" points="188,-0.5 188,-38.5 "/>
<text text-anchor="middle" x="211.5" y="-23.3" font-family="Times New Roman,serif" font-size="14.00">X: 28</text>
<text text-anchor="middle" x="211.5" y="-8.3" font-family="Times New Roman,serif" font-size="14.00">Y: 28</text>
<polyline fill="none" stroke="black" points="235,-0.5 235,-38.5 "/>
<text text-anchor="middle" x="258.5" y="-23.3" font-family="Times New Roman,serif" font-size="14.00">X: 31</text>
<text text-anchor="middle" x="258.5" y="-8.3" font-family="Times New Roman,serif" font-size="14.00">Y: 31</text>
<polyline fill="none" stroke="black" points="282,-0.5 282,-38.5 "/>
<text text-anchor="middle" x="305.5" y="-23.3" font-family="Times New Roman,serif" font-size="14.00">X: 23</text>
<text text-anchor="middle" x="305.5" y="-8.3" font-family="Times New Roman,serif" font-size="14.00">Y: 23</text>
<polyline fill="none" stroke="black" points="329,-0.5 329,-38.5 "/>
<text text-anchor="middle" x="352.5" y="-23.3" font-family="Times New Roman,serif" font-size="14.00">X: 21</text>
<text text-anchor="middle" x="352.5" y="-8.3" font-family="Times New Roman,serif" font-size="14.00">Y: 21</text>
<polyline fill="none" stroke="black" points="376,-0.5 376,-38.5 "/>
<text text-anchor="middle" x="399.5" y="-23.3" font-family="Times New Roman,serif" font-size="14.00">X: 30</text>
<text text-anchor="middle" x="399.5" y="-8.3" font-family="Times New Roman,serif" font-size="14.00">Y: 30</text>
<polyline fill="none" stroke="black" points="423,-0.5 423,-38.5 "/>
<text text-anchor="middle" x="446.5" y="-23.3" font-family="Times New Roman,serif" font-size="14.00">X: 38</text>
<text text-anchor="middle" x="446.5" y="-8.3" font-family="Times New Roman,serif" font-size="14.00">Y: 38</text>
<polyline fill="none" stroke="black" points="470,-0.5 470,-38.5 "/>
<text text-anchor="middle" x="493.5" y="-23.3" font-family="Times New Roman,serif" font-size="14.00">X: 24</text>
<text text-anchor="middle" x="493.5" y="-8.3" font-family="Times New Roman,serif" font-size="14.00">Y: 24</text>
<polyline fill="none" stroke="black" points="517,-0.5 517,-38.5 "/>
<text text-anchor="middle" x="540.5" y="-23.3" font-family="Times New Roman,serif" font-size="14.00">X: 38</text>
<text text-anchor="middle" x="540.5" y="-8.3" font-family="Times New Roman,serif" font-size="14.00">Y: 38</text>
<polyline fill="none" stroke="black" points="564,-0.5 564,-38.5 "/>
<text text-anchor="middle" x="587.5" y="-23.3" font-family="Times New Roman,serif" font-size="14.00">X: 25</text>
<text text-anchor="middle" x="587.5" y="-8.3" font-family="Times New Roman,serif" font-size="14.00">Y: 25</text>
<polyline fill="none" stroke="black" points="611,-0.5 611,-38.5 "/>
<text text-anchor="middle" x="634.5" y="-23.3" font-family="Times New Roman,serif" font-size="14.00">X: 38</text>
<text text-anchor="middle" x="634.5" y="-8.3" font-family="Times New Roman,serif" font-size="14.00">Y: 38</text>
<polyline fill="none" stroke="black" points="658,-0.5 658,-38.5 "/>
<text text-anchor="middle" x="681.5" y="-23.3" font-family="Times New Roman,serif" font-size="14.00">X: 24</text>
<text text-anchor="middle" x="681.5" y="-8.3" font-family="Times New Roman,serif" font-size="14.00">Y: 24</text>
<polyline fill="none" stroke="black" points="705,-0.5 705,-38.5 "/>
<text text-anchor="middle" x="728.5" y="-23.3" font-family="Times New Roman,serif" font-size="14.00">X: 22</text>
<text text-anchor="middle" x="728.5" y="-8.3" font-family="Times New Roman,serif" font-size="14.00">Y: 22</text>
<polyline fill="none" stroke="black" points="752,-0.5 752,-38.5 "/>
<text text-anchor="middle" x="775.5" y="-23.3" font-family="Times New Roman,serif" font-size="14.00">X: 40</text>
<text text-anchor="middle" x="775.5" y="-8.3" font-family="Times New Roman,serif" font-size="14.00">Y: 40</text>
<polyline fill="none" stroke="black" points="799,-0.5 799,-38.5 "/>
<text text-anchor="middle" x="822.5" y="-23.3" font-family="Times New Roman,serif" font-size="14.00">X: 36</text>
<text text-anchor="middle" x="822.5" y="-8.3" font-family="Times New Roman,serif" font-size="14.00">Y: 36</text>
<polyline fill="none" stroke="black" points="846,-0.5 846,-38.5 "/>
<text text-anchor="middle" x="869.5" y="-23.3" font-family="Times New Roman,serif" font-size="14.00">X: 40</text>
<text text-anchor="middle" x="869.5" y="-8.3" font-family="Times New Roman,serif" font-size="14.00">Y: 40</text>
<polyline fill="none" stroke="black" points="893,-0.5 893,-38.5 "/>
<text text-anchor="middle" x="916.5" y="-23.3" font-family="Times New Roman,serif" font-size="14.00">X: 33</text>
<text text-anchor="middle" x="916.5" y="-8.3" font-family="Times New Roman,serif" font-size="14.00">Y: 33</text>
<polyline fill="none" stroke="black" points="940,-0.5 940,-38.5 "/>
<text text-anchor="middle" x="963.5" y="-23.3" font-family="Times New Roman,serif" font-size="14.00">X: 31</text>
<text text-anchor="middle" x="963.5" y="-8.3" font-family="Times New Roman,serif" font-size="14.00">Y: 31</text>
<polyline fill="none" stroke="black" points="987,-0.5 987,-38.5 "/>
<text text-anchor="middle" x="1010.5" y="-23.3" font-family="Times New Roman,serif" font-size="14.00">X: 30</text>
<text text-anchor="middle" x="1010.5" y="-8.3" font-family="Times New Roman,serif" font-size="14.00">Y: 30</text>
<polyline fill="none" stroke="black" points="1034,-0.5 1034,-38.5 "/>
<text text-anchor="middle" x="1057.5" y="-23.3" font-family="Times New Roman,serif" font-size="14.00">X: 40</text>
<text text-anchor="middle" x="1057.5" y="-8.3" font-family="Times New Roman,serif" font-size="14.00">Y: 40</text>
<polyline fill="none" stroke="black" points="1081,-0.5 1081,-38.5 "/>
<text text-anchor="middle" x="1104.5" y="-23.3" font-family="Times New Roman,serif" font-size="14.00">X: 27</text>
<text text-anchor="middle" x="1104.5" y="-8.3" font-family="Times New Roman,serif" font-size="14.00">Y: 27</text>
<polyline fill="none" stroke="black" points="1128,-0.5 1128,-38.5 "/>
<text text-anchor="middle" x="1151.5" y="-23.3" font-family="Times New Roman,serif" font-size="14.00">X: 31</text>
<text text-anchor="middle" x="1151.5" y="-8.3" font-family="Times New Roman,serif" font-size="14.00">Y: 31</text>
<polyline fill="none" stroke="black" points="1175,-0.5 1175,-38.5 "/>
<text text-anchor="middle" x="1198.5" y="-23.3" font-family="Times New Roman,serif" font-size="14.00">X: 27</text>
<text text-anchor="middle" x="1198.5" y="-8.3" font-family="Times New Roman,serif" font-size="14.00">Y: 27</text>
<polyline fill="none" stroke="black" points="1222,-0.5 1222,-38.5 "/>
<text text-anchor="middle" x="1245.5" y="-23.3" font-family="Times New Roman,serif" font-size="14.00">X: 33</text>
<text text-anchor="middle" x="1245.5" y="-8.3" font-family="Times New Roman,serif" font-size="14.00">Y: 33</text>
<polyline fill="none" stroke="black" points="1269,-0.5 1269,-38.5 "/>
<text text-anchor="middle" x="1292.5" y="-23.3" font-family="Times New Roman,serif" font-size="14.00">X: 32</text>
<text text-anchor="middle" x="1292.5" y="-8.3" font-family="Times New Roman,serif" font-size="14.00">Y: 32</text>
<polyline fill="none" stroke="black" points="1316,-0.5 1316,-38.5 "/>
<text text-anchor="middle" x="1339.5" y="-23.3" font-family="Times New Roman,serif" font-size="14.00">X: 22</text>
<text text-anchor="middle" x="1339.5" y="-8.3" font-family="Times New Roman,serif" font-size="14.00">Y: 22</text>
<polyline fill="none" stroke="black" points="1363,-0.5 1363,-38.5 "/>
<text text-anchor="middle" x="1386.5" y="-23.3" font-family="Times New Roman,serif" font-size="14.00">X: 21</text>
<text text-anchor="middle" x="1386.5" y="-8.3" font-family="Times New Roman,serif" font-size="14.00">Y: 21</text>
<polyline fill="none" stroke="black" points="1410,-0.5 1410,-38.5 "/>
<text text-anchor="middle" x="1433.5" y="-23.3" font-family="Times New Roman,serif" font-size="14.00">X: 28</text>
<text text-anchor="middle" x="1433.5" y="-8.3" font-family="Times New Roman,serif" font-size="14.00">Y: 28</text>
</g>
</g>
</svg>
