<?xml version="1.0" encoding="UTF-8" standalone="no"?>
<!DOCTYPE svg PUBLIC "-//W3C//DTD SVG 1.1//EN"
 "http://www.w3.org/Graphics/SVG/1.1/DTD/svg11.dtd">
<!-- Generated by graphviz version 2.50.0 (20211204.2007)
 -->
<!-- Title: G Pages: 1 -->
<svg width="290pt" height="258pt"
 viewBox="0.00 0.00 290.00 258.00" xmlns="http://www.w3.org/2000/svg" xmlns:xlink="http://www.w3.org/1999/xlink">
<g id="graph0" class="graph" transform="scale(1 1) rotate(0) translate(4 254)">
<title>G</title>
<polygon fill="white" stroke="transparent" points="-4,4 -4,-254 286,-254 286,4 -4,4"/>
<text text-anchor="middle" x="141" y="-7.8" font-family="Times New Roman,serif" font-size="14.00">Lista de Pilas</text>
<!-- n3 -->
<g id="node1" class="node">
<title>n3</title>
<polygon fill="none" stroke="black" points="82,-250 28,-250 28,-214 82,-214 82,-250"/>
<text text-anchor="middle" x="55" y="-228.3" font-family="Times New Roman,serif" font-size="14.00">asdfg</text>
</g>
<!-- n3_sub -->
<g id="node2" class="node">
<title>n3_sub</title>
<polygon fill="gray" stroke="transparent" points="8,-100.5 8,-121.5 74,-121.5 74,-100.5 8,-100.5"/>
<polygon fill="none" stroke="black" points="8,-100.5 8,-121.5 74,-121.5 74,-100.5 8,-100.5"/>
<text text-anchor="start" x="11" y="-107.3" font-family="Times New Roman,serif" font-size="14.00">Movement</text>
<polygon fill="none" stroke="black" points="8,-79.5 8,-100.5 74,-100.5 74,-79.5 8,-79.5"/>
<text text-anchor="start" x="25.5" y="-86.3" font-family="Times New Roman,serif" font-size="14.00">(3, 5)</text>
</g>
<!-- n3&#45;&gt;n3_sub -->
<g id="edge1" class="edge">
<title>n3&#45;&gt;n3_sub</title>
<path fill="none" stroke="black" d="M53.14,-213.8C51.01,-194.06 47.45,-161.16 44.74,-136.06"/>
<polygon fill="black" stroke="black" points="48.19,-135.41 43.63,-125.84 41.23,-136.16 48.19,-135.41"/>
</g>
<!-- n2 -->
<g id="node3" class="node">
<title>n2</title>
<polygon fill="none" stroke="black" points="168,-250 114,-250 114,-214 168,-214 168,-250"/>
<text text-anchor="middle" x="141" y="-228.3" font-family="Times New Roman,serif" font-size="14.00">sefff</text>
</g>
<!-- n3&#45;&gt;n2 -->
<g id="edge4" class="edge">
<title>n3&#45;&gt;n2</title>
<path fill="none" stroke="black" d="M82.21,-232C89.31,-232 96.41,-232 103.5,-232"/>
<polygon fill="black" stroke="black" points="103.9,-235.5 113.9,-232 103.9,-228.5 103.9,-235.5"/>
</g>
<!-- n2_sub -->
<g id="node4" class="node">
<title>n2_sub</title>
<polygon fill="gray" stroke="transparent" points="108,-110.5 108,-131.5 174,-131.5 174,-110.5 108,-110.5"/>
<polygon fill="none" stroke="black" points="108,-110.5 108,-131.5 174,-131.5 174,-110.5 108,-110.5"/>
<text text-anchor="start" x="111" y="-117.3" font-family="Times New Roman,serif" font-size="14.00">Movement</text>
<polygon fill="none" stroke="black" points="108,-89.5 108,-110.5 174,-110.5 174,-89.5 108,-89.5"/>
<text text-anchor="start" x="125.5" y="-96.3" font-family="Times New Roman,serif" font-size="14.00">(5, 6)</text>
<polygon fill="none" stroke="black" points="108,-68.5 108,-89.5 174,-89.5 174,-68.5 108,-68.5"/>
<text text-anchor="start" x="125.5" y="-75.3" font-family="Times New Roman,serif" font-size="14.00">(1, 3)</text>
</g>
<!-- n2&#45;&gt;n2_sub -->
<g id="edge2" class="edge">
<title>n2&#45;&gt;n2_sub</title>
<path fill="none" stroke="black" d="M141,-213.8C141,-196.6 141,-169.42 141,-146.11"/>
<polygon fill="black" stroke="black" points="144.5,-146.06 141,-136.06 137.5,-146.06 144.5,-146.06"/>
</g>
<!-- n1 -->
<g id="node5" class="node">
<title>n1</title>
<polygon fill="none" stroke="black" points="254,-250 200,-250 200,-214 254,-214 254,-250"/>
<text text-anchor="middle" x="227" y="-228.3" font-family="Times New Roman,serif" font-size="14.00">super</text>
</g>
<!-- n2&#45;&gt;n1 -->
<g id="edge5" class="edge">
<title>n2&#45;&gt;n1</title>
<path fill="none" stroke="black" d="M168.21,-232C175.31,-232 182.41,-232 189.5,-232"/>
<polygon fill="black" stroke="black" points="189.9,-235.5 199.9,-232 189.9,-228.5 189.9,-235.5"/>
</g>
<!-- n1_sub -->
<g id="node6" class="node">
<title>n1_sub</title>
<polygon fill="gray" stroke="transparent" points="208,-152.5 208,-173.5 274,-173.5 274,-152.5 208,-152.5"/>
<polygon fill="none" stroke="black" points="208,-152.5 208,-173.5 274,-173.5 274,-152.5 208,-152.5"/>
<text text-anchor="start" x="211" y="-159.3" font-family="Times New Roman,serif" font-size="14.00">Movement</text>
<polygon fill="none" stroke="black" points="208,-131.5 208,-152.5 274,-152.5 274,-131.5 208,-131.5"/>
<text text-anchor="start" x="225.5" y="-138.3" font-family="Times New Roman,serif" font-size="14.00">(4, 2)</text>
<polygon fill="none" stroke="black" points="208,-110.5 208,-131.5 274,-131.5 274,-110.5 208,-110.5"/>
<text text-anchor="start" x="225.5" y="-117.3" font-family="Times New Roman,serif" font-size="14.00">(9, 6)</text>
<polygon fill="none" stroke="black" points="208,-89.5 208,-110.5 274,-110.5 274,-89.5 208,-89.5"/>
<text text-anchor="start" x="225.5" y="-96.3" font-family="Times New Roman,serif" font-size="14.00">(7, 8)</text>
<polygon fill="none" stroke="black" points="208,-68.5 208,-89.5 274,-89.5 274,-68.5 208,-68.5"/>
<text text-anchor="start" x="225.5" y="-75.3" font-family="Times New Roman,serif" font-size="14.00">(5, 6)</text>
<polygon fill="none" stroke="black" points="208,-47.5 208,-68.5 274,-68.5 274,-47.5 208,-47.5"/>
<text text-anchor="start" x="225.5" y="-54.3" font-family="Times New Roman,serif" font-size="14.00">(3, 4)</text>
<polygon fill="none" stroke="black" points="208,-26.5 208,-47.5 274,-47.5 274,-26.5 208,-26.5"/>
<text text-anchor="start" x="225.5" y="-33.3" font-family="Times New Roman,serif" font-size="14.00">(1, 2)</text>
</g>
<!-- n1&#45;&gt;n1_sub -->
<g id="edge3" class="edge">
<title>n1&#45;&gt;n1_sub</title>
<path fill="none" stroke="black" d="M228.86,-213.8C229.63,-206.71 230.58,-197.91 231.61,-188.39"/>
<polygon fill="black" stroke="black" points="235.11,-188.56 232.7,-178.24 228.15,-187.8 235.11,-188.56"/>
</g>
</g>
</svg>
