<?xml version="1.0" encoding="UTF-8" standalone="no"?>
<!DOCTYPE svg PUBLIC "-//W3C//DTD SVG 1.1//EN"
 "http://www.w3.org/Graphics/SVG/1.1/DTD/svg11.dtd">
<!-- Generated by graphviz version 2.50.0 (20211204.2007)
 -->
<!-- Title: G Pages: 1 -->
<svg width="632pt" height="186pt"
 viewBox="0.00 0.00 632.00 186.00" xmlns="http://www.w3.org/2000/svg" xmlns:xlink="http://www.w3.org/1999/xlink">
<g id="graph0" class="graph" transform="scale(1 1) rotate(0) translate(4 182)">
<title>G</title>
<polygon fill="white" stroke="transparent" points="-4,4 -4,-182 628,-182 628,4 -4,4"/>
<text text-anchor="middle" x="312" y="-7.8" font-family="Times New Roman,serif" font-size="14.00">super Pila Regresion</text>
<!-- n0_sub -->
<g id="node1" class="node">
<title>n0_sub</title>
<polygon fill="gray" stroke="transparent" points="8.5,-152.5 8.5,-173.5 81.5,-173.5 81.5,-152.5 8.5,-152.5"/>
<polygon fill="none" stroke="black" points="8.5,-152.5 8.5,-173.5 81.5,-173.5 81.5,-152.5 8.5,-152.5"/>
<text text-anchor="start" x="11.5" y="-159.3" font-family="Times New Roman,serif" font-size="14.00">Regresion 0</text>
<polygon fill="none" stroke="black" points="8.5,-131.5 8.5,-152.5 81.5,-152.5 81.5,-131.5 8.5,-131.5"/>
<text text-anchor="start" x="29.5" y="-138.3" font-family="Times New Roman,serif" font-size="14.00">(4, 2)</text>
<polygon fill="none" stroke="black" points="8.5,-110.5 8.5,-131.5 81.5,-131.5 81.5,-110.5 8.5,-110.5"/>
<text text-anchor="start" x="29.5" y="-117.3" font-family="Times New Roman,serif" font-size="14.00">(9, 6)</text>
<polygon fill="none" stroke="black" points="8.5,-89.5 8.5,-110.5 81.5,-110.5 81.5,-89.5 8.5,-89.5"/>
<text text-anchor="start" x="29.5" y="-96.3" font-family="Times New Roman,serif" font-size="14.00">(7, 8)</text>
<polygon fill="none" stroke="black" points="8.5,-68.5 8.5,-89.5 81.5,-89.5 81.5,-68.5 8.5,-68.5"/>
<text text-anchor="start" x="29.5" y="-75.3" font-family="Times New Roman,serif" font-size="14.00">(5, 6)</text>
<polygon fill="none" stroke="black" points="8.5,-47.5 8.5,-68.5 81.5,-68.5 81.5,-47.5 8.5,-47.5"/>
<text text-anchor="start" x="29.5" y="-54.3" font-family="Times New Roman,serif" font-size="14.00">(3, 4)</text>
<polygon fill="none" stroke="black" points="8.5,-26.5 8.5,-47.5 81.5,-47.5 81.5,-26.5 8.5,-26.5"/>
<text text-anchor="start" x="29.5" y="-33.3" font-family="Times New Roman,serif" font-size="14.00">(1, 2)</text>
</g>
<!-- n1_sub -->
<g id="node2" class="node">
<title>n1_sub</title>
<polygon fill="gray" stroke="transparent" points="115.5,-142.5 115.5,-163.5 188.5,-163.5 188.5,-142.5 115.5,-142.5"/>
<polygon fill="none" stroke="black" points="115.5,-142.5 115.5,-163.5 188.5,-163.5 188.5,-142.5 115.5,-142.5"/>
<text text-anchor="start" x="118.5" y="-149.3" font-family="Times New Roman,serif" font-size="14.00">Regresion 1</text>
<polygon fill="none" stroke="black" points="115.5,-121.5 115.5,-142.5 188.5,-142.5 188.5,-121.5 115.5,-121.5"/>
<text text-anchor="start" x="136.5" y="-128.3" font-family="Times New Roman,serif" font-size="14.00">(9, 6)</text>
<polygon fill="none" stroke="black" points="115.5,-100.5 115.5,-121.5 188.5,-121.5 188.5,-100.5 115.5,-100.5"/>
<text text-anchor="start" x="136.5" y="-107.3" font-family="Times New Roman,serif" font-size="14.00">(7, 8)</text>
<polygon fill="none" stroke="black" points="115.5,-79.5 115.5,-100.5 188.5,-100.5 188.5,-79.5 115.5,-79.5"/>
<text text-anchor="start" x="136.5" y="-86.3" font-family="Times New Roman,serif" font-size="14.00">(5, 6)</text>
<polygon fill="none" stroke="black" points="115.5,-58.5 115.5,-79.5 188.5,-79.5 188.5,-58.5 115.5,-58.5"/>
<text text-anchor="start" x="136.5" y="-65.3" font-family="Times New Roman,serif" font-size="14.00">(3, 4)</text>
<polygon fill="none" stroke="black" points="115.5,-37.5 115.5,-58.5 188.5,-58.5 188.5,-37.5 115.5,-37.5"/>
<text text-anchor="start" x="136.5" y="-44.3" font-family="Times New Roman,serif" font-size="14.00">(1, 2)</text>
</g>
<!-- n0_sub&#45;&gt;n1_sub -->
<g id="edge1" class="edge">
<title>n0_sub&#45;&gt;n1_sub</title>
<path fill="none" stroke="black" d="M89.22,-100.5C91.69,-100.5 94.15,-100.5 96.61,-100.5"/>
<polygon fill="black" stroke="black" points="96.74,-104 106.74,-100.5 96.74,-97 96.74,-104"/>
</g>
<!-- n2_sub -->
<g id="node3" class="node">
<title>n2_sub</title>
<polygon fill="gray" stroke="transparent" points="222.5,-131.5 222.5,-152.5 295.5,-152.5 295.5,-131.5 222.5,-131.5"/>
<polygon fill="none" stroke="black" points="222.5,-131.5 222.5,-152.5 295.5,-152.5 295.5,-131.5 222.5,-131.5"/>
<text text-anchor="start" x="225.5" y="-138.3" font-family="Times New Roman,serif" font-size="14.00">Regresion 2</text>
<polygon fill="none" stroke="black" points="222.5,-110.5 222.5,-131.5 295.5,-131.5 295.5,-110.5 222.5,-110.5"/>
<text text-anchor="start" x="243.5" y="-117.3" font-family="Times New Roman,serif" font-size="14.00">(7, 8)</text>
<polygon fill="none" stroke="black" points="222.5,-89.5 222.5,-110.5 295.5,-110.5 295.5,-89.5 222.5,-89.5"/>
<text text-anchor="start" x="243.5" y="-96.3" font-family="Times New Roman,serif" font-size="14.00">(5, 6)</text>
<polygon fill="none" stroke="black" points="222.5,-68.5 222.5,-89.5 295.5,-89.5 295.5,-68.5 222.5,-68.5"/>
<text text-anchor="start" x="243.5" y="-75.3" font-family="Times New Roman,serif" font-size="14.00">(3, 4)</text>
<polygon fill="none" stroke="black" points="222.5,-47.5 222.5,-68.5 295.5,-68.5 295.5,-47.5 222.5,-47.5"/>
<text text-anchor="start" x="243.5" y="-54.3" font-family="Times New Roman,serif" font-size="14.00">(1, 2)</text>
</g>
<!-- n1_sub&#45;&gt;n2_sub -->
<g id="edge2" class="edge">
<title>n1_sub&#45;&gt;n2_sub</title>
<path fill="none" stroke="black" d="M196.22,-100.5C198.69,-100.5 201.15,-100.5 203.61,-100.5"/>
<polygon fill="black" stroke="black" points="203.74,-104 213.74,-100.5 203.74,-97 203.74,-104"/>
</g>
<!-- n3_sub -->
<g id="node4" class="node">
<title>n3_sub</title>
<polygon fill="gray" stroke="transparent" points="329.5,-121.5 329.5,-142.5 402.5,-142.5 402.5,-121.5 329.5,-121.5"/>
<polygon fill="none" stroke="black" points="329.5,-121.5 329.5,-142.5 402.5,-142.5 402.5,-121.5 329.5,-121.5"/>
<text text-anchor="start" x="332.5" y="-128.3" font-family="Times New Roman,serif" font-size="14.00">Regresion 3</text>
<polygon fill="none" stroke="black" points="329.5,-100.5 329.5,-121.5 402.5,-121.5 402.5,-100.5 329.5,-100.5"/>
<text text-anchor="start" x="350.5" y="-107.3" font-family="Times New Roman,serif" font-size="14.00">(5, 6)</text>
<polygon fill="none" stroke="black" points="329.5,-79.5 329.5,-100.5 402.5,-100.5 402.5,-79.5 329.5,-79.5"/>
<text text-anchor="start" x="350.5" y="-86.3" font-family="Times New Roman,serif" font-size="14.00">(3, 4)</text>
<polygon fill="none" stroke="black" points="329.5,-58.5 329.5,-79.5 402.5,-79.5 402.5,-58.5 329.5,-58.5"/>
<text text-anchor="start" x="350.5" y="-65.3" font-family="Times New Roman,serif" font-size="14.00">(1, 2)</text>
</g>
<!-- n2_sub&#45;&gt;n3_sub -->
<g id="edge3" class="edge">
<title>n2_sub&#45;&gt;n3_sub</title>
<path fill="none" stroke="black" d="M303.22,-100.5C305.69,-100.5 308.15,-100.5 310.61,-100.5"/>
<polygon fill="black" stroke="black" points="310.74,-104 320.74,-100.5 310.74,-97 310.74,-104"/>
</g>
<!-- n4_sub -->
<g id="node5" class="node">
<title>n4_sub</title>
<polygon fill="gray" stroke="transparent" points="436.5,-110.5 436.5,-131.5 509.5,-131.5 509.5,-110.5 436.5,-110.5"/>
<polygon fill="none" stroke="black" points="436.5,-110.5 436.5,-131.5 509.5,-131.5 509.5,-110.5 436.5,-110.5"/>
<text text-anchor="start" x="439.5" y="-117.3" font-family="Times New Roman,serif" font-size="14.00">Regresion 4</text>
<polygon fill="none" stroke="black" points="436.5,-89.5 436.5,-110.5 509.5,-110.5 509.5,-89.5 436.5,-89.5"/>
<text text-anchor="start" x="457.5" y="-96.3" font-family="Times New Roman,serif" font-size="14.00">(3, 4)</text>
<polygon fill="none" stroke="black" points="436.5,-68.5 436.5,-89.5 509.5,-89.5 509.5,-68.5 436.5,-68.5"/>
<text text-anchor="start" x="457.5" y="-75.3" font-family="Times New Roman,serif" font-size="14.00">(1, 2)</text>
</g>
<!-- n3_sub&#45;&gt;n4_sub -->
<g id="edge4" class="edge">
<title>n3_sub&#45;&gt;n4_sub</title>
<path fill="none" stroke="black" d="M410.22,-100.5C412.69,-100.5 415.15,-100.5 417.61,-100.5"/>
<polygon fill="black" stroke="black" points="417.74,-104 427.74,-100.5 417.74,-97 417.74,-104"/>
</g>
<!-- n5_sub -->
<g id="node6" class="node">
<title>n5_sub</title>
<polygon fill="gray" stroke="transparent" points="543.5,-100.5 543.5,-121.5 616.5,-121.5 616.5,-100.5 543.5,-100.5"/>
<polygon fill="none" stroke="black" points="543.5,-100.5 543.5,-121.5 616.5,-121.5 616.5,-100.5 543.5,-100.5"/>
<text text-anchor="start" x="546.5" y="-107.3" font-family="Times New Roman,serif" font-size="14.00">Regresion 5</text>
<polygon fill="none" stroke="black" points="543.5,-79.5 543.5,-100.5 616.5,-100.5 616.5,-79.5 543.5,-79.5"/>
<text text-anchor="start" x="564.5" y="-86.3" font-family="Times New Roman,serif" font-size="14.00">(1, 2)</text>
</g>
<!-- n4_sub&#45;&gt;n5_sub -->
<g id="edge5" class="edge">
<title>n4_sub&#45;&gt;n5_sub</title>
<path fill="none" stroke="black" d="M517.22,-100.5C519.69,-100.5 522.15,-100.5 524.61,-100.5"/>
<polygon fill="black" stroke="black" points="524.74,-104 534.74,-100.5 524.74,-97 524.74,-104"/>
</g>
</g>
</svg>
