<?xml version="1.0" encoding="UTF-8" standalone="no"?>
<!DOCTYPE svg PUBLIC "-//W3C//DTD SVG 1.1//EN"
 "http://www.w3.org/Graphics/SVG/1.1/DTD/svg11.dtd">
<!-- Generated by graphviz version 2.50.0 (20211204.2007)
 -->
<!-- Title: G Pages: 1 -->
<svg width="13141pt" height="89pt"
 viewBox="0.00 0.00 13140.50 89.19" xmlns="http://www.w3.org/2000/svg" xmlns:xlink="http://www.w3.org/1999/xlink">
<g id="graph0" class="graph" transform="scale(1 1) rotate(0) translate(4 85.19)">
<title>G</title>
<polygon fill="white" stroke="transparent" points="-4,4 -4,-85.19 13136.5,-85.19 13136.5,4 -4,4"/>
<!-- VORATAK -->
<g id="node1" class="node">
<title>VORATAK</title>
<polygon fill="none" stroke="black" points="503,-53 0,-53 0,0 503,0 503,-53"/>
<text text-anchor="middle" x="251.5" y="-37.8" font-family="Times New Roman,serif" font-size="14.00">Nombre: alberto </text>
<text text-anchor="middle" x="251.5" y="-22.8" font-family="Times New Roman,serif" font-size="14.00"> Password: 5b777fec68a74c8c6ca8eab329e49205237f0fc8a26f2aa1763cbeeb373a79c8 </text>
<text text-anchor="middle" x="251.5" y="-7.8" font-family="Times New Roman,serif" font-size="14.00"> Edad: 20</text>
</g>
<!-- AMTAP -->
<g id="node2" class="node">
<title>AMTAP</title>
<polygon fill="none" stroke="black" points="1034,-53 521,-53 521,0 1034,0 1034,-53"/>
<text text-anchor="middle" x="777.5" y="-37.8" font-family="Times New Roman,serif" font-size="14.00">Nombre: estuardo </text>
<text text-anchor="middle" x="777.5" y="-22.8" font-family="Times New Roman,serif" font-size="14.00"> Password: bd2701d75da331ea6aa012b6db2da29006e3a5eb6aec2025e30b7a467e3037f7 </text>
<text text-anchor="middle" x="777.5" y="-7.8" font-family="Times New Roman,serif" font-size="14.00"> Edad: 22</text>
</g>
<!-- VORATAK&#45;&gt;AMTAP -->
<g id="edge1" class="edge">
<title>VORATAK&#45;&gt;AMTAP</title>
<path fill="none" stroke="black" d="M513.42,-26.5C513.58,-26.5 513.73,-26.5 513.89,-26.5"/>
<polygon fill="black" stroke="black" points="513.2,-23 503.2,-26.5 513.2,-30 513.2,-23"/>
<polygon fill="black" stroke="black" points="510.88,-30 520.88,-26.5 510.88,-23 510.88,-30"/>
</g>
<!-- gustafar -->
<g id="node25" class="node">
<title>gustafar</title>
<polygon fill="none" stroke="black" points="13132.5,-53 12618.5,-53 12618.5,0 13132.5,0 13132.5,-53"/>
<text text-anchor="middle" x="12875.5" y="-37.8" font-family="Times New Roman,serif" font-size="14.00">Nombre: gustafar </text>
<text text-anchor="middle" x="12875.5" y="-22.8" font-family="Times New Roman,serif" font-size="14.00"> Password: 20700407e7b61953d737df5fb8de5fb15a646fe406878c1070103b23cbb880d4 </text>
<text text-anchor="middle" x="12875.5" y="-7.8" font-family="Times New Roman,serif" font-size="14.00"> Edad: 55</text>
</g>
<!-- VORATAK&#45;&gt;gustafar -->
<g id="edge25" class="edge">
<title>VORATAK&#45;&gt;gustafar</title>
<path fill="none" stroke="black" d="M395.51,-54.7C436.09,-61.43 480.38,-67.63 521.5,-71 688.7,-84.69 12433.28,-84.44 12600.5,-71 12642.45,-67.63 12687.66,-61.41 12729.06,-54.66"/>
<polygon fill="black" stroke="black" points="396,-51.24 385.55,-53.03 394.84,-58.14 396,-51.24"/>
<polygon fill="black" stroke="black" points="12729.65,-58.11 12738.94,-53.03 12728.51,-51.21 12729.65,-58.11"/>
</g>
<!-- REVERSUS -->
<g id="node3" class="node">
<title>REVERSUS</title>
<polygon fill="none" stroke="black" points="1566.5,-53 1052.5,-53 1052.5,0 1566.5,0 1566.5,-53"/>
<text text-anchor="middle" x="1309.5" y="-37.8" font-family="Times New Roman,serif" font-size="14.00">Nombre: merry </text>
<text text-anchor="middle" x="1309.5" y="-22.8" font-family="Times New Roman,serif" font-size="14.00"> Password: 2b46fb363bac0617643be3a724eda60283a5003e1e916a36bb98244d7fbc0c31 </text>
<text text-anchor="middle" x="1309.5" y="-7.8" font-family="Times New Roman,serif" font-size="14.00"> Edad: 23</text>
</g>
<!-- AMTAP&#45;&gt;REVERSUS -->
<g id="edge2" class="edge">
<title>AMTAP&#45;&gt;REVERSUS</title>
<path fill="none" stroke="black" d="M1044.43,-26.5C1044.6,-26.5 1044.77,-26.5 1044.93,-26.5"/>
<polygon fill="black" stroke="black" points="1044.15,-23 1034.15,-26.5 1044.15,-30 1044.15,-23"/>
<polygon fill="black" stroke="black" points="1042.43,-30 1052.43,-26.5 1042.43,-23 1042.43,-30"/>
</g>
<!-- SLUMBERIA -->
<g id="node4" class="node">
<title>SLUMBERIA</title>
<polygon fill="none" stroke="black" points="2088.5,-53 1584.5,-53 1584.5,0 2088.5,0 2088.5,-53"/>
<text text-anchor="middle" x="1836.5" y="-37.8" font-family="Times New Roman,serif" font-size="14.00">Nombre: vella </text>
<text text-anchor="middle" x="1836.5" y="-22.8" font-family="Times New Roman,serif" font-size="14.00"> Password: d2b241ce197e714cd8ee7cddeee7308fe6a277f74a57148fad21375e906fc51e </text>
<text text-anchor="middle" x="1836.5" y="-7.8" font-family="Times New Roman,serif" font-size="14.00"> Edad: 24</text>
</g>
<!-- REVERSUS&#45;&gt;SLUMBERIA -->
<g id="edge3" class="edge">
<title>REVERSUS&#45;&gt;SLUMBERIA</title>
<path fill="none" stroke="black" d="M1576.65,-26.5C1576.81,-26.5 1576.98,-26.5 1577.14,-26.5"/>
<polygon fill="black" stroke="black" points="1576.57,-23 1566.57,-26.5 1576.57,-30 1576.57,-23"/>
<polygon fill="black" stroke="black" points="1574.49,-30 1584.49,-26.5 1574.49,-23 1574.49,-30"/>
</g>
<!-- RECOGNIA -->
<g id="node5" class="node">
<title>RECOGNIA</title>
<polygon fill="none" stroke="black" points="2612,-53 2107,-53 2107,0 2612,0 2612,-53"/>
<text text-anchor="middle" x="2359.5" y="-37.8" font-family="Times New Roman,serif" font-size="14.00">Nombre: edmison </text>
<text text-anchor="middle" x="2359.5" y="-22.8" font-family="Times New Roman,serif" font-size="14.00"> Password: c7d01eafdd47256bcda857e076584e7a55afbe4787183ff5efb2b84e124e9559 </text>
<text text-anchor="middle" x="2359.5" y="-7.8" font-family="Times New Roman,serif" font-size="14.00"> Edad: 24</text>
</g>
<!-- SLUMBERIA&#45;&gt;RECOGNIA -->
<g id="edge4" class="edge">
<title>SLUMBERIA&#45;&gt;RECOGNIA</title>
<path fill="none" stroke="black" d="M2098.82,-26.5C2098.99,-26.5 2099.15,-26.5 2099.32,-26.5"/>
<polygon fill="black" stroke="black" points="2098.55,-23 2088.55,-26.5 2098.55,-30 2098.55,-23"/>
<polygon fill="black" stroke="black" points="2096.81,-30 2106.81,-26.5 2096.81,-23 2096.81,-30"/>
</g>
<!-- ERSUM -->
<g id="node6" class="node">
<title>ERSUM</title>
<polygon fill="none" stroke="black" points="3136.5,-53 2630.5,-53 2630.5,0 3136.5,0 3136.5,-53"/>
<text text-anchor="middle" x="2883.5" y="-37.8" font-family="Times New Roman,serif" font-size="14.00">Nombre: jose </text>
<text text-anchor="middle" x="2883.5" y="-22.8" font-family="Times New Roman,serif" font-size="14.00"> Password: f8420a52101df6b512cf7a429073c1a427eab0dd2123e06fc6c21f531de2e829 </text>
<text text-anchor="middle" x="2883.5" y="-7.8" font-family="Times New Roman,serif" font-size="14.00"> Edad: 25</text>
</g>
<!-- RECOGNIA&#45;&gt;ERSUM -->
<g id="edge5" class="edge">
<title>RECOGNIA&#45;&gt;ERSUM</title>
<path fill="none" stroke="black" d="M2622.04,-26.5C2622.12,-26.5 2622.21,-26.5 2622.3,-26.5"/>
<polygon fill="black" stroke="black" points="2622.03,-23 2612.03,-26.5 2622.03,-30 2622.03,-23"/>
<polygon fill="black" stroke="black" points="2620.33,-30 2630.33,-26.5 2620.33,-23 2620.33,-30"/>
</g>
<!-- PODUNK -->
<g id="node7" class="node">
<title>PODUNK</title>
<polygon fill="none" stroke="black" points="3666.5,-53 3154.5,-53 3154.5,0 3666.5,0 3666.5,-53"/>
<text text-anchor="middle" x="3410.5" y="-37.8" font-family="Times New Roman,serif" font-size="14.00">Nombre: wilbert </text>
<text text-anchor="middle" x="3410.5" y="-22.8" font-family="Times New Roman,serif" font-size="14.00"> Password: a72adf72253485d502ab5e09605e9e0231fc1b9b92ec4c6e8945b84ae7538d87 </text>
<text text-anchor="middle" x="3410.5" y="-7.8" font-family="Times New Roman,serif" font-size="14.00"> Edad: 25</text>
</g>
<!-- ERSUM&#45;&gt;PODUNK -->
<g id="edge6" class="edge">
<title>ERSUM&#45;&gt;PODUNK</title>
<path fill="none" stroke="black" d="M3146.91,-26.5C3147.06,-26.5 3147.22,-26.5 3147.37,-26.5"/>
<polygon fill="black" stroke="black" points="3146.71,-23 3136.71,-26.5 3146.71,-30 3146.71,-23"/>
<polygon fill="black" stroke="black" points="3144.35,-30 3154.35,-26.5 3144.35,-23 3144.35,-30"/>
</g>
<!-- TELEQUIET -->
<g id="node8" class="node">
<title>TELEQUIET</title>
<polygon fill="none" stroke="black" points="4202.5,-53 3684.5,-53 3684.5,0 4202.5,0 4202.5,-53"/>
<text text-anchor="middle" x="3943.5" y="-37.8" font-family="Times New Roman,serif" font-size="14.00">Nombre: diana </text>
<text text-anchor="middle" x="3943.5" y="-22.8" font-family="Times New Roman,serif" font-size="14.00"> Password: bb4bd8cfca55eb56f6c237c40075cc0a9b945b91834da98d0d71224727695372 </text>
<text text-anchor="middle" x="3943.5" y="-7.8" font-family="Times New Roman,serif" font-size="14.00"> Edad: 26</text>
</g>
<!-- PODUNK&#45;&gt;TELEQUIET -->
<g id="edge7" class="edge">
<title>PODUNK&#45;&gt;TELEQUIET</title>
<path fill="none" stroke="black" d="M3676.63,-26.5C3676.79,-26.5 3676.95,-26.5 3677.12,-26.5"/>
<polygon fill="black" stroke="black" points="3676.59,-23 3666.59,-26.5 3676.59,-30 3676.59,-23"/>
<polygon fill="black" stroke="black" points="3674.44,-30 3684.44,-26.5 3674.44,-23 3674.44,-30"/>
</g>
<!-- TELLIFLY -->
<g id="node9" class="node">
<title>TELLIFLY</title>
<polygon fill="none" stroke="black" points="4726.5,-53 4220.5,-53 4220.5,0 4726.5,0 4726.5,-53"/>
<text text-anchor="middle" x="4473.5" y="-37.8" font-family="Times New Roman,serif" font-size="14.00">Nombre: fernando </text>
<text text-anchor="middle" x="4473.5" y="-22.8" font-family="Times New Roman,serif" font-size="14.00"> Password: 88dfad7d4207e612f9500588cfce9d89a40e91f10104586d0e75409fc1855597 </text>
<text text-anchor="middle" x="4473.5" y="-7.8" font-family="Times New Roman,serif" font-size="14.00"> Edad: 26</text>
</g>
<!-- TELEQUIET&#45;&gt;TELLIFLY -->
<g id="edge8" class="edge">
<title>TELEQUIET&#45;&gt;TELLIFLY</title>
<path fill="none" stroke="black" d="M4212.8,-26.5C4212.95,-26.5 4213.11,-26.5 4213.26,-26.5"/>
<polygon fill="black" stroke="black" points="4212.55,-23 4202.55,-26.5 4212.55,-30 4212.55,-23"/>
<polygon fill="black" stroke="black" points="4210.28,-30 4220.28,-26.5 4210.28,-23 4210.28,-30"/>
</g>
<!-- PANZENT -->
<g id="node10" class="node">
<title>PANZENT</title>
<polygon fill="none" stroke="black" points="5256,-53 4745,-53 4745,0 5256,0 5256,-53"/>
<text text-anchor="middle" x="5000.5" y="-37.8" font-family="Times New Roman,serif" font-size="14.00">Nombre: maria </text>
<text text-anchor="middle" x="5000.5" y="-22.8" font-family="Times New Roman,serif" font-size="14.00"> Password: 14543240c3db24e32a3bfec7f95222410db955a29ca12956194a5b1ea9e83a93 </text>
<text text-anchor="middle" x="5000.5" y="-7.8" font-family="Times New Roman,serif" font-size="14.00"> Edad: 31</text>
</g>
<!-- TELLIFLY&#45;&gt;PANZENT -->
<g id="edge9" class="edge">
<title>TELLIFLY&#45;&gt;PANZENT</title>
<path fill="none" stroke="black" d="M4736.93,-26.5C4737.1,-26.5 4737.27,-26.5 4737.43,-26.5"/>
<polygon fill="black" stroke="black" points="4736.71,-23 4726.71,-26.5 4736.71,-30 4736.71,-23"/>
<polygon fill="black" stroke="black" points="4734.89,-30 4744.89,-26.5 4734.89,-23 4734.89,-30"/>
</g>
<!-- FLUMBO -->
<g id="node11" class="node">
<title>FLUMBO</title>
<polygon fill="none" stroke="black" points="5778.5,-53 5274.5,-53 5274.5,0 5778.5,0 5778.5,-53"/>
<text text-anchor="middle" x="5526.5" y="-37.8" font-family="Times New Roman,serif" font-size="14.00">Nombre: josefina </text>
<text text-anchor="middle" x="5526.5" y="-22.8" font-family="Times New Roman,serif" font-size="14.00"> Password: e5edf27338de3c2d5134ca7e1caf14036543abdcf4381fadb0a1417d7e6cf5ee </text>
<text text-anchor="middle" x="5526.5" y="-7.8" font-family="Times New Roman,serif" font-size="14.00"> Edad: 31</text>
</g>
<!-- PANZENT&#45;&gt;FLUMBO -->
<g id="edge10" class="edge">
<title>PANZENT&#45;&gt;FLUMBO</title>
<path fill="none" stroke="black" d="M5266.3,-26.5C5266.47,-26.5 5266.63,-26.5 5266.8,-26.5"/>
<polygon fill="black" stroke="black" points="5266.05,-23 5256.05,-26.5 5266.05,-30 5266.05,-23"/>
<polygon fill="black" stroke="black" points="5264.28,-30 5274.28,-26.5 5264.28,-23 5264.28,-30"/>
</g>
<!-- CUIZINE -->
<g id="node12" class="node">
<title>CUIZINE</title>
<polygon fill="none" stroke="black" points="6308.5,-53 5796.5,-53 5796.5,0 6308.5,0 6308.5,-53"/>
<text text-anchor="middle" x="6052.5" y="-37.8" font-family="Times New Roman,serif" font-size="14.00">Nombre: cristina </text>
<text text-anchor="middle" x="6052.5" y="-22.8" font-family="Times New Roman,serif" font-size="14.00"> Password: 2e1d75b7f30d71076384c8a403e6c09a061441b1797a167c41cebcc856ef4a01 </text>
<text text-anchor="middle" x="6052.5" y="-7.8" font-family="Times New Roman,serif" font-size="14.00"> Edad: 32</text>
</g>
<!-- FLUMBO&#45;&gt;CUIZINE -->
<g id="edge11" class="edge">
<title>FLUMBO&#45;&gt;CUIZINE</title>
<path fill="none" stroke="black" d="M5788.91,-26.5C5789.07,-26.5 5789.22,-26.5 5789.38,-26.5"/>
<polygon fill="black" stroke="black" points="5788.71,-23 5778.71,-26.5 5788.71,-30 5788.71,-23"/>
<polygon fill="black" stroke="black" points="5786.36,-30 5796.36,-26.5 5786.36,-23 5786.36,-30"/>
</g>
<!-- INSOURCE -->
<g id="node13" class="node">
<title>INSOURCE</title>
<polygon fill="none" stroke="black" points="6826.5,-53 6326.5,-53 6326.5,0 6826.5,0 6826.5,-53"/>
<text text-anchor="middle" x="6576.5" y="-37.8" font-family="Times New Roman,serif" font-size="14.00">Nombre: khepaso </text>
<text text-anchor="middle" x="6576.5" y="-22.8" font-family="Times New Roman,serif" font-size="14.00"> Password: b669e02aaa788107e47f841ecec7a4ffcfac0c8b9aef19d994607ae45823dc1a </text>
<text text-anchor="middle" x="6576.5" y="-7.8" font-family="Times New Roman,serif" font-size="14.00"> Edad: 34</text>
</g>
<!-- CUIZINE&#45;&gt;INSOURCE -->
<g id="edge12" class="edge">
<title>CUIZINE&#45;&gt;INSOURCE</title>
<path fill="none" stroke="black" d="M6318.62,-26.5C6318.78,-26.5 6318.95,-26.5 6319.11,-26.5"/>
<polygon fill="black" stroke="black" points="6318.62,-23 6308.62,-26.5 6318.62,-30 6318.62,-23"/>
<polygon fill="black" stroke="black" points="6316.4,-30 6326.4,-26.5 6316.4,-23 6316.4,-30"/>
</g>
<!-- ZILIDIUM -->
<g id="node14" class="node">
<title>ZILIDIUM</title>
<polygon fill="none" stroke="black" points="7354.5,-53 6844.5,-53 6844.5,0 7354.5,0 7354.5,-53"/>
<text text-anchor="middle" x="7099.5" y="-37.8" font-family="Times New Roman,serif" font-size="14.00">Nombre: pablo </text>
<text text-anchor="middle" x="7099.5" y="-22.8" font-family="Times New Roman,serif" font-size="14.00"> Password: 5fcdc24bd3696be1f847e6c75009f8671832de926ed56c182f850d6e234060e4 </text>
<text text-anchor="middle" x="7099.5" y="-7.8" font-family="Times New Roman,serif" font-size="14.00"> Edad: 35</text>
</g>
<!-- INSOURCE&#45;&gt;ZILIDIUM -->
<g id="edge13" class="edge">
<title>INSOURCE&#45;&gt;ZILIDIUM</title>
<path fill="none" stroke="black" d="M6836.56,-26.5C6836.72,-26.5 6836.88,-26.5 6837.04,-26.5"/>
<polygon fill="black" stroke="black" points="6836.51,-23 6826.51,-26.5 6836.51,-30 6836.51,-23"/>
<polygon fill="black" stroke="black" points="6834.37,-30 6844.37,-26.5 6834.37,-23 6834.37,-30"/>
</g>
<!-- EXTRO -->
<g id="node15" class="node">
<title>EXTRO</title>
<polygon fill="none" stroke="black" points="7884.5,-53 7372.5,-53 7372.5,0 7884.5,0 7884.5,-53"/>
<text text-anchor="middle" x="7628.5" y="-37.8" font-family="Times New Roman,serif" font-size="14.00">Nombre: kimira </text>
<text text-anchor="middle" x="7628.5" y="-22.8" font-family="Times New Roman,serif" font-size="14.00"> Password: 2bc1144fe6f2d63bdfcc79a9ac593cb67152b4b3c6fdd53bf8fc2dc9d21c6408 </text>
<text text-anchor="middle" x="7628.5" y="-7.8" font-family="Times New Roman,serif" font-size="14.00"> Edad: 35</text>
</g>
<!-- ZILIDIUM&#45;&gt;EXTRO -->
<g id="edge14" class="edge">
<title>ZILIDIUM&#45;&gt;EXTRO</title>
<path fill="none" stroke="black" d="M7364.9,-26.5C7365.06,-26.5 7365.21,-26.5 7365.37,-26.5"/>
<polygon fill="black" stroke="black" points="7364.7,-23 7354.7,-26.5 7364.7,-30 7364.7,-23"/>
<polygon fill="black" stroke="black" points="7362.35,-30 7372.35,-26.5 7362.35,-23 7362.35,-30"/>
</g>
<!-- ZANITY -->
<g id="node16" class="node">
<title>ZANITY</title>
<polygon fill="none" stroke="black" points="8402.5,-53 7902.5,-53 7902.5,0 8402.5,0 8402.5,-53"/>
<text text-anchor="middle" x="8152.5" y="-37.8" font-family="Times New Roman,serif" font-size="14.00">Nombre: josefo </text>
<text text-anchor="middle" x="8152.5" y="-22.8" font-family="Times New Roman,serif" font-size="14.00"> Password: 749d3e5d49f5a8df2f03b1a2be6232128f62e97bbcafff1497389691fc7ad6a7 </text>
<text text-anchor="middle" x="8152.5" y="-7.8" font-family="Times New Roman,serif" font-size="14.00"> Edad: 35</text>
</g>
<!-- EXTRO&#45;&gt;ZANITY -->
<g id="edge15" class="edge">
<title>EXTRO&#45;&gt;ZANITY</title>
<path fill="none" stroke="black" d="M7894.62,-26.5C7894.78,-26.5 7894.95,-26.5 7895.11,-26.5"/>
<polygon fill="black" stroke="black" points="7894.62,-23 7884.62,-26.5 7894.62,-30 7894.62,-23"/>
<polygon fill="black" stroke="black" points="7892.4,-30 7902.4,-26.5 7892.4,-23 7892.4,-30"/>
</g>
<!-- INSURETY -->
<g id="node17" class="node">
<title>INSURETY</title>
<polygon fill="none" stroke="black" points="8920.5,-53 8420.5,-53 8420.5,0 8920.5,0 8920.5,-53"/>
<text text-anchor="middle" x="8670.5" y="-37.8" font-family="Times New Roman,serif" font-size="14.00">Nombre: arlert </text>
<text text-anchor="middle" x="8670.5" y="-22.8" font-family="Times New Roman,serif" font-size="14.00"> Password: 998d9b005f2e0928525a0748a1a2a7abff1a087a901e03f619f0320fa01b5e76 </text>
<text text-anchor="middle" x="8670.5" y="-7.8" font-family="Times New Roman,serif" font-size="14.00"> Edad: 35</text>
</g>
<!-- ZANITY&#45;&gt;INSURETY -->
<g id="edge16" class="edge">
<title>ZANITY&#45;&gt;INSURETY</title>
<path fill="none" stroke="black" d="M8412.65,-26.5C8412.81,-26.5 8412.98,-26.5 8413.14,-26.5"/>
<polygon fill="black" stroke="black" points="8412.65,-23 8402.65,-26.5 8412.65,-30 8412.65,-23"/>
<polygon fill="black" stroke="black" points="8410.43,-30 8420.43,-26.5 8410.43,-23 8410.43,-30"/>
</g>
<!-- ZILLACTIC -->
<g id="node18" class="node">
<title>ZILLACTIC</title>
<polygon fill="none" stroke="black" points="9448,-53 8939,-53 8939,0 9448,0 9448,-53"/>
<text text-anchor="middle" x="9193.5" y="-37.8" font-family="Times New Roman,serif" font-size="14.00">Nombre: juan </text>
<text text-anchor="middle" x="9193.5" y="-22.8" font-family="Times New Roman,serif" font-size="14.00"> Password: 144ea22ae502ede0972a523c9be239588c823c3e547a97992b374ddf3fbb6a5f </text>
<text text-anchor="middle" x="9193.5" y="-7.8" font-family="Times New Roman,serif" font-size="14.00"> Edad: 35</text>
</g>
<!-- INSURETY&#45;&gt;ZILLACTIC -->
<g id="edge17" class="edge">
<title>INSURETY&#45;&gt;ZILLACTIC</title>
<path fill="none" stroke="black" d="M8930.57,-26.5C8930.65,-26.5 8930.74,-26.5 8930.83,-26.5"/>
<polygon fill="black" stroke="black" points="8930.51,-23 8920.51,-26.5 8930.51,-30 8930.51,-23"/>
<polygon fill="black" stroke="black" points="8928.9,-30 8938.9,-26.5 8928.9,-23 8928.9,-30"/>
</g>
<!-- GRACKER -->
<g id="node19" class="node">
<title>GRACKER</title>
<polygon fill="none" stroke="black" points="9969,-53 9466,-53 9466,0 9969,0 9969,-53"/>
<text text-anchor="middle" x="9717.5" y="-37.8" font-family="Times New Roman,serif" font-size="14.00">Nombre: mikasa </text>
<text text-anchor="middle" x="9717.5" y="-22.8" font-family="Times New Roman,serif" font-size="14.00"> Password: e137139ae258aa349238fbad2659fea3a5f044abbf30961954966acf7904dda0 </text>
<text text-anchor="middle" x="9717.5" y="-7.8" font-family="Times New Roman,serif" font-size="14.00"> Edad: 37</text>
</g>
<!-- ZILLACTIC&#45;&gt;GRACKER -->
<g id="edge18" class="edge">
<title>ZILLACTIC&#45;&gt;GRACKER</title>
<path fill="none" stroke="black" d="M9458.14,-26.5C9458.31,-26.5 9458.47,-26.5 9458.63,-26.5"/>
<polygon fill="black" stroke="black" points="9458.08,-23 9448.08,-26.5 9458.08,-30 9458.08,-23"/>
<polygon fill="black" stroke="black" points="9455.97,-30 9465.97,-26.5 9455.97,-23 9455.97,-30"/>
</g>
<!-- DECRATEX -->
<g id="node20" class="node">
<title>DECRATEX</title>
<polygon fill="none" stroke="black" points="10493.5,-53 9987.5,-53 9987.5,0 10493.5,0 10493.5,-53"/>
<text text-anchor="middle" x="10240.5" y="-37.8" font-family="Times New Roman,serif" font-size="14.00">Nombre: fernanda </text>
<text text-anchor="middle" x="10240.5" y="-22.8" font-family="Times New Roman,serif" font-size="14.00"> Password: 06eec1ec097e0a7820b8f31769d1d61ece672a4a44d90fb3eaaa799beaa1d53a </text>
<text text-anchor="middle" x="10240.5" y="-7.8" font-family="Times New Roman,serif" font-size="14.00"> Edad: 37</text>
</g>
<!-- GRACKER&#45;&gt;DECRATEX -->
<g id="edge19" class="edge">
<title>GRACKER&#45;&gt;DECRATEX</title>
<path fill="none" stroke="black" d="M9979.04,-26.5C9979.13,-26.5 9979.22,-26.5 9979.3,-26.5"/>
<polygon fill="black" stroke="black" points="9979.04,-23 9969.04,-26.5 9979.04,-30 9979.04,-23"/>
<polygon fill="black" stroke="black" points="9977.33,-30 9987.33,-26.5 9977.33,-23 9977.33,-30"/>
</g>
<!-- QUIZMO -->
<g id="node21" class="node">
<title>QUIZMO</title>
<polygon fill="none" stroke="black" points="11021,-53 10512,-53 10512,0 11021,0 11021,-53"/>
<text text-anchor="middle" x="10766.5" y="-37.8" font-family="Times New Roman,serif" font-size="14.00">Nombre: pablito </text>
<text text-anchor="middle" x="10766.5" y="-22.8" font-family="Times New Roman,serif" font-size="14.00"> Password: 5319b44c70f756e3ab5d9c8847755ca7afc2229bd7df06001a9a3ff6b6543d81 </text>
<text text-anchor="middle" x="10766.5" y="-7.8" font-family="Times New Roman,serif" font-size="14.00"> Edad: 37</text>
</g>
<!-- DECRATEX&#45;&gt;QUIZMO -->
<g id="edge20" class="edge">
<title>DECRATEX&#45;&gt;QUIZMO</title>
<path fill="none" stroke="black" d="M10503.93,-26.5C10504.09,-26.5 10504.26,-26.5 10504.42,-26.5"/>
<polygon fill="black" stroke="black" points="10503.74,-23 10493.74,-26.5 10503.74,-30 10503.74,-23"/>
<polygon fill="black" stroke="black" points="10501.85,-30 10511.85,-26.5 10501.85,-23 10501.85,-30"/>
</g>
<!-- LETPRO -->
<g id="node22" class="node">
<title>LETPRO</title>
<polygon fill="none" stroke="black" points="11542,-53 11039,-53 11039,0 11542,0 11542,-53"/>
<text text-anchor="middle" x="11290.5" y="-37.8" font-family="Times New Roman,serif" font-size="14.00">Nombre: jose </text>
<text text-anchor="middle" x="11290.5" y="-22.8" font-family="Times New Roman,serif" font-size="14.00"> Password: fdc72bdea36aae9aed2f5791272a74275d30676e1d3025c31cef3ffe1366c2a2 </text>
<text text-anchor="middle" x="11290.5" y="-7.8" font-family="Times New Roman,serif" font-size="14.00"> Edad: 38</text>
</g>
<!-- QUIZMO&#45;&gt;LETPRO -->
<g id="edge21" class="edge">
<title>QUIZMO&#45;&gt;LETPRO</title>
<path fill="none" stroke="black" d="M11031.14,-26.5C11031.31,-26.5 11031.47,-26.5 11031.63,-26.5"/>
<polygon fill="black" stroke="black" points="11031.08,-23 11021.08,-26.5 11031.08,-30 11031.08,-23"/>
<polygon fill="black" stroke="black" points="11028.97,-30 11038.97,-26.5 11028.97,-23 11028.97,-30"/>
</g>
<!-- ARTIQ -->
<g id="node23" class="node">
<title>ARTIQ</title>
<polygon fill="none" stroke="black" points="12064.5,-53 11560.5,-53 11560.5,0 12064.5,0 12064.5,-53"/>
<text text-anchor="middle" x="11812.5" y="-37.8" font-family="Times New Roman,serif" font-size="14.00">Nombre: kenneth </text>
<text text-anchor="middle" x="11812.5" y="-22.8" font-family="Times New Roman,serif" font-size="14.00"> Password: ac212c795e398d93ef595a384412c209fa71587eba9d9ee932014fa44e71df35 </text>
<text text-anchor="middle" x="11812.5" y="-7.8" font-family="Times New Roman,serif" font-size="14.00"> Edad: 38</text>
</g>
<!-- LETPRO&#45;&gt;ARTIQ -->
<g id="edge22" class="edge">
<title>LETPRO&#45;&gt;ARTIQ</title>
<path fill="none" stroke="black" d="M11552.32,-26.5C11552.49,-26.5 11552.65,-26.5 11552.82,-26.5"/>
<polygon fill="black" stroke="black" points="11552.07,-23 11542.07,-26.5 11552.07,-30 11552.07,-23"/>
<polygon fill="black" stroke="black" points="11550.29,-30 11560.29,-26.5 11550.29,-23 11550.29,-30"/>
</g>
<!-- EQUICOM -->
<g id="node24" class="node">
<title>EQUICOM</title>
<polygon fill="none" stroke="black" points="12600,-53 12083,-53 12083,0 12600,0 12600,-53"/>
<text text-anchor="middle" x="12341.5" y="-37.8" font-family="Times New Roman,serif" font-size="14.00">Nombre: nostradamus </text>
<text text-anchor="middle" x="12341.5" y="-22.8" font-family="Times New Roman,serif" font-size="14.00"> Password: d54f57991b303d75d96d5f638eaab18c0d4a0b84d411eab2b07a21943086d88a </text>
<text text-anchor="middle" x="12341.5" y="-7.8" font-family="Times New Roman,serif" font-size="14.00"> Edad: 38</text>
</g>
<!-- ARTIQ&#45;&gt;EQUICOM -->
<g id="edge23" class="edge">
<title>ARTIQ&#45;&gt;EQUICOM</title>
<path fill="none" stroke="black" d="M12074.66,-26.5C12074.74,-26.5 12074.83,-26.5 12074.92,-26.5"/>
<polygon fill="black" stroke="black" points="12074.6,-23 12064.6,-26.5 12074.6,-30 12074.6,-23"/>
<polygon fill="black" stroke="black" points="12072.99,-30 12082.99,-26.5 12072.99,-23 12072.99,-30"/>
</g>
<!-- EQUICOM&#45;&gt;gustafar -->
<g id="edge24" class="edge">
<title>EQUICOM&#45;&gt;gustafar</title>
<path fill="none" stroke="black" d="M12610.44,-26.5C12610.61,-26.5 12610.77,-26.5 12610.94,-26.5"/>
<polygon fill="black" stroke="black" points="12610.16,-23 12600.16,-26.5 12610.16,-30 12610.16,-23"/>
<polygon fill="black" stroke="black" points="12608.44,-30 12618.44,-26.5 12608.44,-23 12608.44,-30"/>
</g>
</g>
</svg>
