<?xml version="1.0" encoding="UTF-8" standalone="no"?>
<!DOCTYPE svg PUBLIC "-//W3C//DTD SVG 1.1//EN"
 "http://www.w3.org/Graphics/SVG/1.1/DTD/svg11.dtd">
<!-- Generated by graphviz version 2.43.0 (0)
 -->
<!-- Title: G Pages: 1 -->
<svg width="1836pt" height="212pt"
 viewBox="0.00 0.00 1835.50 212.00" xmlns="http://www.w3.org/2000/svg" xmlns:xlink="http://www.w3.org/1999/xlink">
<g id="graph0" class="graph" transform="scale(1 1) rotate(0) translate(4 208)">
<title>G</title>
<polygon fill="white" stroke="transparent" points="-4,4 -4,-208 1831.5,-208 1831.5,4 -4,4"/>
<!-- R0x5555555ced00 -->
<g id="node1" class="node">
<title>R0x5555555ced00</title>
<polygon fill="none" stroke="blue" points="738.5,-120.5 738.5,-203.5 1389.5,-203.5 1389.5,-120.5 738.5,-120.5"/>
<text text-anchor="middle" x="749" y="-158.3" font-family="Times,serif" font-size="14.00"> </text>
<polyline fill="none" stroke="blue" points="759.5,-120.5 759.5,-203.5 "/>
<text text-anchor="middle" x="1064" y="-188.3" font-family="Times,serif" font-size="14.00">ID: 5</text>
<text text-anchor="middle" x="1064" y="-173.3" font-family="Times,serif" font-size="14.00">Usr: JOSE</text>
<text text-anchor="middle" x="1064" y="-158.3" font-family="Times,serif" font-size="14.00">Pass: a2c6e27ee7a55bfe1719408288e99cbc1bd50f4310e87592493ec3f2b01e1186</text>
<text text-anchor="middle" x="1064" y="-143.3" font-family="Times,serif" font-size="14.00">Edad: 4</text>
<text text-anchor="middle" x="1064" y="-128.3" font-family="Times,serif" font-size="14.00">Monedas: 45</text>
<polyline fill="none" stroke="blue" points="1368.5,-120.5 1368.5,-203.5 "/>
<text text-anchor="middle" x="1379" y="-158.3" font-family="Times,serif" font-size="14.00"> </text>
</g>
<!-- R0x5555555ceb60 -->
<g id="node2" class="node">
<title>R0x5555555ceb60</title>
<polygon fill="none" stroke="blue" points="0,-0.5 0,-83.5 1206,-83.5 1206,-0.5 0,-0.5"/>
<text text-anchor="middle" x="301.5" y="-68.3" font-family="Times,serif" font-size="14.00">ID: 1</text>
<text text-anchor="middle" x="301.5" y="-53.3" font-family="Times,serif" font-size="14.00">Usr: sew</text>
<text text-anchor="middle" x="301.5" y="-38.3" font-family="Times,serif" font-size="14.00">Pass: 99b3bcf690e653a177c602dd9999093b9eb29e50a3af9a059af3fcbfab476a16</text>
<text text-anchor="middle" x="301.5" y="-23.3" font-family="Times,serif" font-size="14.00">Edad: 2</text>
<text text-anchor="middle" x="301.5" y="-8.3" font-family="Times,serif" font-size="14.00">Monedas: 5</text>
<polyline fill="none" stroke="blue" points="603,-0.5 603,-83.5 "/>
<text text-anchor="middle" x="904.5" y="-68.3" font-family="Times,serif" font-size="14.00">ID: 2</text>
<text text-anchor="middle" x="904.5" y="-53.3" font-family="Times,serif" font-size="14.00">Usr: SDFAS</text>
<text text-anchor="middle" x="904.5" y="-38.3" font-family="Times,serif" font-size="14.00">Pass: 99b3bcf690e653a177c602dd9999093b9eb29e50a3af9a059af3fcbfab476a16</text>
<text text-anchor="middle" x="904.5" y="-23.3" font-family="Times,serif" font-size="14.00">Edad: 2</text>
<text text-anchor="middle" x="904.5" y="-8.3" font-family="Times,serif" font-size="14.00">Monedas: 5</text>
</g>
<!-- R0x5555555ced00&#45;&gt;R0x5555555ceb60 -->
<g id="edge1" class="edge">
<title>R0x5555555ced00:C1&#45;&gt;R0x5555555ceb60</title>
<path fill="none" stroke="red" d="M749,-120C749,-109.05 745.75,-99.65 740.21,-91.58"/>
<polygon fill="red" stroke="red" points="742.72,-89.13 733.65,-83.65 737.33,-93.59 742.72,-89.13"/>
</g>
<!-- R0x5555555cedd0 -->
<g id="node3" class="node">
<title>R0x5555555cedd0</title>
<polygon fill="none" stroke="blue" points="1224.5,-0.5 1224.5,-83.5 1827.5,-83.5 1827.5,-0.5 1224.5,-0.5"/>
<text text-anchor="middle" x="1526" y="-68.3" font-family="Times,serif" font-size="14.00">ID: 6</text>
<text text-anchor="middle" x="1526" y="-53.3" font-family="Times,serif" font-size="14.00">Usr: asdf</text>
<text text-anchor="middle" x="1526" y="-38.3" font-family="Times,serif" font-size="14.00">Pass: 99b3bcf690e653a177c602dd9999093b9eb29e50a3af9a059af3fcbfab476a16</text>
<text text-anchor="middle" x="1526" y="-23.3" font-family="Times,serif" font-size="14.00">Edad: 2</text>
<text text-anchor="middle" x="1526" y="-8.3" font-family="Times,serif" font-size="14.00">Monedas: 5</text>
</g>
<!-- R0x5555555ced00&#45;&gt;R0x5555555cedd0 -->
<g id="edge2" class="edge">
<title>R0x5555555ced00:C2&#45;&gt;R0x5555555cedd0</title>
<path fill="none" stroke="red" d="M1379,-120C1379,-108.87 1382.35,-99.35 1388.03,-91.2"/>
<polygon fill="red" stroke="red" points="1390.73,-93.42 1394.45,-83.5 1385.36,-88.94 1390.73,-93.42"/>
</g>
</g>
</svg>
