<?xml version="1.0" encoding="UTF-8" standalone="no"?>
<!DOCTYPE svg PUBLIC "-//W3C//DTD SVG 1.1//EN"
 "http://www.w3.org/Graphics/SVG/1.1/DTD/svg11.dtd">
<!-- Generated by graphviz version 2.43.0 (0)
 -->
<!-- Title: G Pages: 1 -->
<svg width="746pt" height="565pt"
 viewBox="0.00 0.00 746.00 565.00" xmlns="http://www.w3.org/2000/svg" xmlns:xlink="http://www.w3.org/1999/xlink">
<g id="graph0" class="graph" transform="scale(1 1) rotate(0) translate(4 561)">
<title>G</title>
<polygon fill="white" stroke="transparent" points="-4,4 -4,-561 742,-561 742,4 -4,4"/>
<text text-anchor="middle" x="369" y="-9" font-family="Arial Black" font-size="15.00">Compras SDFAS</text>
<!-- N3 -->
<g id="node1" class="node">
<title>N3</title>
<polygon fill="black" stroke="black" points="253,-557 137,-504 253,-451 369,-504 253,-557"/>
<text text-anchor="middle" x="253" y="-515.3" font-family="Times,serif" font-size="14.00" fill="white">ID: 13</text>
<text text-anchor="middle" x="253" y="-500.3" font-family="Times,serif" font-size="14.00" fill="white">Nombre: 549f</text>
<text text-anchor="middle" x="253" y="-485.3" font-family="Times,serif" font-size="14.00" fill="white">Cantidad: 5</text>
</g>
<!-- N1 -->
<g id="node2" class="node">
<title>N1</title>
<polygon fill="black" stroke="black" points="129,-415 24,-362 129,-309 234,-362 129,-415"/>
<text text-anchor="middle" x="129" y="-373.3" font-family="Times,serif" font-size="14.00" fill="white">ID: 2</text>
<text text-anchor="middle" x="129" y="-358.3" font-family="Times,serif" font-size="14.00" fill="white">Nombre: sdf</text>
<text text-anchor="middle" x="129" y="-343.3" font-family="Times,serif" font-size="14.00" fill="white">Cantidad: 5</text>
</g>
<!-- N3&#45;&gt;N1 -->
<g id="edge2" class="edge">
<title>N3:C0&#45;&gt;N1</title>
<path fill="none" stroke="black" d="M220.1,-465.85C204.08,-447.77 184.71,-425.9 167.96,-406.99"/>
<polygon fill="black" stroke="black" points="170.45,-404.52 161.2,-399.35 165.21,-409.16 170.45,-404.52"/>
</g>
<!-- N6 -->
<g id="node4" class="node">
<title>N6</title>
<polygon fill="black" stroke="black" points="371,-415 259,-362 371,-309 483,-362 371,-415"/>
<text text-anchor="middle" x="371" y="-373.3" font-family="Times,serif" font-size="14.00" fill="white">ID: 99</text>
<text text-anchor="middle" x="371" y="-358.3" font-family="Times,serif" font-size="14.00" fill="white">Nombre: sfas</text>
<text text-anchor="middle" x="371" y="-343.3" font-family="Times,serif" font-size="14.00" fill="white">Cantidad: 5</text>
</g>
<!-- N3&#45;&gt;N6 -->
<g id="edge6" class="edge">
<title>N3:C1&#45;&gt;N6</title>
<path fill="none" stroke="black" d="M284.93,-465.11C299.74,-447.54 317.46,-426.52 332.96,-408.13"/>
<polygon fill="black" stroke="black" points="335.68,-410.33 339.45,-400.43 330.33,-405.82 335.68,-410.33"/>
</g>
<!-- N5 -->
<g id="node3" class="node">
<title>N5</title>
<polygon fill="black" stroke="black" points="123,-273 0,-220 123,-167 246,-220 123,-273"/>
<text text-anchor="middle" x="123" y="-231.3" font-family="Times,serif" font-size="14.00" fill="white">ID: 1</text>
<text text-anchor="middle" x="123" y="-216.3" font-family="Times,serif" font-size="14.00" fill="white">Nombre: df12s</text>
<text text-anchor="middle" x="123" y="-201.3" font-family="Times,serif" font-size="14.00" fill="white">Cantidad: 5</text>
</g>
<!-- N1&#45;&gt;N5 -->
<g id="edge1" class="edge">
<title>N1:C0&#45;&gt;N5</title>
<path fill="none" stroke="black" d="M126.82,-310.06C126.43,-300.99 126.02,-291.46 125.62,-282.13"/>
<polygon fill="black" stroke="black" points="129.12,-281.98 125.19,-272.14 122.12,-282.28 129.12,-281.98"/>
</g>
<!-- N2 -->
<g id="node5" class="node">
<title>N2</title>
<polygon fill="black" stroke="black" points="371,-273 264,-220 371,-167 478,-220 371,-273"/>
<text text-anchor="middle" x="371" y="-231.3" font-family="Times,serif" font-size="14.00" fill="white">ID: 15</text>
<text text-anchor="middle" x="371" y="-216.3" font-family="Times,serif" font-size="14.00" fill="white">Nombre: 2df</text>
<text text-anchor="middle" x="371" y="-201.3" font-family="Times,serif" font-size="14.00" fill="white">Cantidad: 5</text>
</g>
<!-- N6&#45;&gt;N2 -->
<g id="edge4" class="edge">
<title>N6:C0&#45;&gt;N2</title>
<path fill="none" stroke="black" d="M371,-308.87C371,-300.58 371,-291.93 371,-283.43"/>
<polygon fill="black" stroke="black" points="374.5,-283.17 371,-273.17 367.5,-283.17 374.5,-283.17"/>
</g>
<!-- N4 -->
<g id="node7" class="node">
<title>N4</title>
<polygon fill="black" stroke="black" points="617,-273 496,-220 617,-167 738,-220 617,-273"/>
<text text-anchor="middle" x="617" y="-231.3" font-family="Times,serif" font-size="14.00" fill="white">ID: 1313</text>
<text text-anchor="middle" x="617" y="-216.3" font-family="Times,serif" font-size="14.00" fill="white">Nombre: sasdf</text>
<text text-anchor="middle" x="617" y="-201.3" font-family="Times,serif" font-size="14.00" fill="white">Cantidad: 5</text>
</g>
<!-- N6&#45;&gt;N4 -->
<g id="edge5" class="edge">
<title>N6:C1&#45;&gt;N4</title>
<path fill="none" stroke="black" d="M421.08,-332.5C460.21,-310.23 514.76,-279.19 556.36,-255.51"/>
<polygon fill="black" stroke="black" points="558.34,-258.41 565.3,-250.42 554.88,-252.33 558.34,-258.41"/>
</g>
<!-- N7 -->
<g id="node6" class="node">
<title>N7</title>
<polygon fill="black" stroke="black" points="371,-131 272,-78 371,-25 470,-78 371,-131"/>
<text text-anchor="middle" x="371" y="-89.3" font-family="Times,serif" font-size="14.00" fill="white">ID: 31</text>
<text text-anchor="middle" x="371" y="-74.3" font-family="Times,serif" font-size="14.00" fill="white">Nombre: sf</text>
<text text-anchor="middle" x="371" y="-59.3" font-family="Times,serif" font-size="14.00" fill="white">Cantidad: 5</text>
</g>
<!-- N2&#45;&gt;N7 -->
<g id="edge3" class="edge">
<title>N2:C1&#45;&gt;N7</title>
<path fill="none" stroke="black" d="M371,-166.87C371,-158.58 371,-149.93 371,-141.43"/>
<polygon fill="black" stroke="black" points="374.5,-141.17 371,-131.17 367.5,-141.17 374.5,-141.17"/>
</g>
</g>
</svg>
