<?xml version="1.0" encoding="UTF-8" standalone="no"?>
<!DOCTYPE svg PUBLIC "-//W3C//DTD SVG 1.1//EN"
 "http://www.w3.org/Graphics/SVG/1.1/DTD/svg11.dtd">
<!-- Generated by graphviz version 2.43.0 (0)
 -->
<!-- Title: G Pages: 1 -->
<svg width="351pt" height="283pt"
 viewBox="0.00 0.00 351.00 283.00" xmlns="http://www.w3.org/2000/svg" xmlns:xlink="http://www.w3.org/1999/xlink">
<g id="graph0" class="graph" transform="scale(1 1) rotate(0) translate(4 279)">
<title>G</title>
<polygon fill="white" stroke="transparent" points="-4,4 -4,-279 347,-279 347,4 -4,4"/>
<text text-anchor="middle" x="171.5" y="-7.8" font-family="Times,serif" font-size="14.00">ListaListas</text>
<!-- n1 -->
<g id="node1" class="node">
<title>n1</title>
<polygon fill="none" stroke="black" points="198,-203 142,-203 142,-167 198,-167 198,-203"/>
<text text-anchor="middle" x="170" y="-181.3" font-family="Times,serif" font-size="14.00">4asdf</text>
</g>
<!-- n4 -->
<g id="node2" class="node">
<title>n4</title>
<polygon fill="none" stroke="black" points="197,-131 143,-131 143,-95 197,-95 197,-131"/>
<text text-anchor="middle" x="170" y="-109.3" font-family="Times,serif" font-size="14.00">asdf</text>
</g>
<!-- n1&#45;&gt;n4 -->
<g id="edge1" class="edge">
<title>n1&#45;&gt;n4</title>
<path fill="none" stroke="black" d="M170,-166.7C170,-158.98 170,-149.71 170,-141.11"/>
<polygon fill="black" stroke="black" points="173.5,-141.1 170,-131.1 166.5,-141.1 173.5,-141.1"/>
</g>
<!-- n12 -->
<g id="node3" class="node">
<title>n12</title>
<polygon fill="none" stroke="black" points="197,-59 143,-59 143,-23 197,-23 197,-59"/>
<text text-anchor="middle" x="170" y="-37.3" font-family="Times,serif" font-size="14.00">fdsa</text>
</g>
<!-- n4&#45;&gt;n12 -->
<g id="edge2" class="edge">
<title>n4&#45;&gt;n12</title>
<path fill="none" stroke="black" d="M170,-94.7C170,-86.98 170,-77.71 170,-69.11"/>
<polygon fill="black" stroke="black" points="173.5,-69.1 170,-59.1 166.5,-69.1 173.5,-69.1"/>
</g>
<!-- cos -->
<g id="node4" class="node">
<title>cos</title>
<polygon fill="none" stroke="black" points="198,-275 144,-275 144,-239 198,-239 198,-275"/>
<text text-anchor="middle" x="171" y="-253.3" font-family="Times,serif" font-size="14.00">cos</text>
</g>
<!-- cos&#45;&gt;n1 -->
<g id="edge3" class="edge">
<title>cos&#45;&gt;n1</title>
<path fill="none" stroke="black" d="M170.75,-238.7C170.64,-230.98 170.51,-221.71 170.39,-213.11"/>
<polygon fill="black" stroke="black" points="173.89,-213.05 170.24,-203.1 166.89,-213.15 173.89,-213.05"/>
</g>
<!-- sed -->
<g id="node6" class="node">
<title>sed</title>
<polygon fill="none" stroke="black" points="271,-275 217,-275 217,-239 271,-239 271,-275"/>
<text text-anchor="middle" x="244" y="-253.3" font-family="Times,serif" font-size="14.00">sed</text>
</g>
<!-- cos&#45;&gt;sed -->
<g id="edge7" class="edge">
<title>cos&#45;&gt;sed</title>
<path fill="none" stroke="black" d="M198.09,-257C200.91,-257 203.72,-257 206.54,-257"/>
<polygon fill="black" stroke="black" points="206.74,-260.5 216.74,-257 206.74,-253.5 206.74,-260.5"/>
</g>
<!-- n15 -->
<g id="node5" class="node">
<title>n15</title>
<polygon fill="none" stroke="black" points="273.5,-203 216.5,-203 216.5,-167 273.5,-167 273.5,-203"/>
<text text-anchor="middle" x="245" y="-181.3" font-family="Times,serif" font-size="14.00">adf45</text>
</g>
<!-- sed&#45;&gt;n15 -->
<g id="edge4" class="edge">
<title>sed&#45;&gt;n15</title>
<path fill="none" stroke="black" d="M244.25,-238.7C244.36,-230.98 244.49,-221.71 244.61,-213.11"/>
<polygon fill="black" stroke="black" points="248.11,-213.15 244.76,-203.1 241.11,-213.05 248.11,-213.15"/>
</g>
<!-- sin -->
<g id="node9" class="node">
<title>sin</title>
<polygon fill="none" stroke="black" points="343,-275 289,-275 289,-239 343,-239 343,-275"/>
<text text-anchor="middle" x="316" y="-253.3" font-family="Times,serif" font-size="14.00">sin</text>
</g>
<!-- sed&#45;&gt;sin -->
<g id="edge8" class="edge">
<title>sed&#45;&gt;sin</title>
<path fill="none" stroke="black" d="M271.28,-257C273.74,-257 276.19,-257 278.65,-257"/>
<polygon fill="black" stroke="black" points="278.75,-260.5 288.75,-257 278.75,-253.5 278.75,-260.5"/>
</g>
<!-- cod -->
<g id="node7" class="node">
<title>cod</title>
<polygon fill="none" stroke="black" points="54,-275 0,-275 0,-239 54,-239 54,-275"/>
<text text-anchor="middle" x="27" y="-253.3" font-family="Times,serif" font-size="14.00">cod</text>
</g>
<!-- col -->
<g id="node8" class="node">
<title>col</title>
<polygon fill="none" stroke="black" points="126,-275 72,-275 72,-239 126,-239 126,-275"/>
<text text-anchor="middle" x="99" y="-253.3" font-family="Times,serif" font-size="14.00">col</text>
</g>
<!-- cod&#45;&gt;col -->
<g id="edge5" class="edge">
<title>cod&#45;&gt;col</title>
<path fill="none" stroke="black" d="M54.28,-257C56.74,-257 59.19,-257 61.65,-257"/>
<polygon fill="black" stroke="black" points="61.75,-260.5 71.75,-257 61.75,-253.5 61.75,-260.5"/>
</g>
<!-- col&#45;&gt;cos -->
<g id="edge6" class="edge">
<title>col&#45;&gt;cos</title>
<path fill="none" stroke="black" d="M126.28,-257C128.74,-257 131.19,-257 133.65,-257"/>
<polygon fill="black" stroke="black" points="133.75,-260.5 143.75,-257 133.75,-253.5 133.75,-260.5"/>
</g>
</g>
</svg>
