<?xml version="1.0" encoding="UTF-8" standalone="no"?>
<!DOCTYPE svg PUBLIC "-//W3C//DTD SVG 1.1//EN"
 "http://www.w3.org/Graphics/SVG/1.1/DTD/svg11.dtd">
<!-- Generated by graphviz version 2.43.0 (0)
 -->
<!-- Title: G Pages: 1 -->
<svg width="1240pt" height="724pt"
 viewBox="0.00 0.00 1240.00 724.00" xmlns="http://www.w3.org/2000/svg" xmlns:xlink="http://www.w3.org/1999/xlink">
<g id="graph0" class="graph" transform="scale(1 1) rotate(0) translate(4 720)">
<title>G</title>
<polygon fill="white" stroke="transparent" points="-4,4 -4,-720 1236,-720 1236,4 -4,4"/>
<g id="clust1" class="cluster">
<title>cluster_0</title>
<polygon fill="none" stroke="transparent" points="8,-8 8,-708 798,-708 798,-8 8,-8"/>
</g>
<g id="clust13" class="cluster">
<title>cluster_1</title>
<polygon fill="none" stroke="transparent" points="806,-296 806,-708 1224,-708 1224,-296 806,-296"/>
</g>
<!-- y1 -->
<g id="node1" class="node">
<title>y1</title>
<polygon fill="none" stroke="#ff4500" points="70,-700 16,-700 16,-664 70,-664 70,-700"/>
<text text-anchor="middle" x="43" y="-678.3" font-family="Times,serif" font-size="14.00" fill="#ff4500">1</text>
</g>
<!-- y2 -->
<g id="node2" class="node">
<title>y2</title>
<polygon fill="none" stroke="#ff4500" points="70,-628 16,-628 16,-592 70,-592 70,-628"/>
<text text-anchor="middle" x="43" y="-606.3" font-family="Times,serif" font-size="14.00" fill="#ff4500">2</text>
</g>
<!-- y1&#45;&gt;y2 -->
<g id="edge1" class="edge">
<title>y1&#45;&gt;y2</title>
<path fill="none" stroke="#616161" d="M43,-663.7C43,-655.98 43,-646.71 43,-638.11"/>
<polygon fill="#616161" stroke="#616161" points="46.5,-638.1 43,-628.1 39.5,-638.1 46.5,-638.1"/>
</g>
<!-- i1_1 -->
<g id="node11" class="node">
<title>i1_1</title>
<polygon fill="none" stroke="darkslateblue" points="142,-700 88,-700 88,-664 142,-664 142,-700"/>
<text text-anchor="middle" x="115" y="-678.3" font-family="Times,serif" font-size="14.00" fill="darkslateblue">X1</text>
</g>
<!-- y1&#45;&gt;i1_1 -->
<g id="edge19" class="edge">
<title>y1&#45;&gt;i1_1</title>
<path fill="none" stroke="#616161" d="M70.28,-682C72.74,-682 75.19,-682 77.65,-682"/>
<polygon fill="#616161" stroke="#616161" points="77.75,-685.5 87.75,-682 77.75,-678.5 77.75,-685.5"/>
</g>
<!-- y3 -->
<g id="node3" class="node">
<title>y3</title>
<polygon fill="none" stroke="#ff4500" points="70,-556 16,-556 16,-520 70,-520 70,-556"/>
<text text-anchor="middle" x="43" y="-534.3" font-family="Times,serif" font-size="14.00" fill="#ff4500">3</text>
</g>
<!-- y2&#45;&gt;y3 -->
<g id="edge2" class="edge">
<title>y2&#45;&gt;y3</title>
<path fill="none" stroke="#616161" d="M43,-591.7C43,-583.98 43,-574.71 43,-566.11"/>
<polygon fill="#616161" stroke="#616161" points="46.5,-566.1 43,-556.1 39.5,-566.1 46.5,-566.1"/>
</g>
<!-- i2_1 -->
<g id="node21" class="node">
<title>i2_1</title>
<polygon fill="none" stroke="darkslateblue" points="142,-628 88,-628 88,-592 142,-592 142,-628"/>
<text text-anchor="middle" x="115" y="-606.3" font-family="Times,serif" font-size="14.00" fill="darkslateblue">X1</text>
</g>
<!-- y2&#45;&gt;i2_1 -->
<g id="edge29" class="edge">
<title>y2&#45;&gt;i2_1</title>
<path fill="none" stroke="#616161" d="M70.28,-610C72.74,-610 75.19,-610 77.65,-610"/>
<polygon fill="#616161" stroke="#616161" points="77.75,-613.5 87.75,-610 77.75,-606.5 77.75,-613.5"/>
</g>
<!-- y4 -->
<g id="node4" class="node">
<title>y4</title>
<polygon fill="none" stroke="#ff4500" points="70,-484 16,-484 16,-448 70,-448 70,-484"/>
<text text-anchor="middle" x="43" y="-462.3" font-family="Times,serif" font-size="14.00" fill="#ff4500">4</text>
</g>
<!-- y3&#45;&gt;y4 -->
<g id="edge3" class="edge">
<title>y3&#45;&gt;y4</title>
<path fill="none" stroke="#616161" d="M43,-519.7C43,-511.98 43,-502.71 43,-494.11"/>
<polygon fill="#616161" stroke="#616161" points="46.5,-494.1 43,-484.1 39.5,-494.1 46.5,-494.1"/>
</g>
<!-- i3_1 -->
<g id="node31" class="node">
<title>i3_1</title>
<polygon fill="none" stroke="darkslateblue" points="142,-556 88,-556 88,-520 142,-520 142,-556"/>
<text text-anchor="middle" x="115" y="-534.3" font-family="Times,serif" font-size="14.00" fill="darkslateblue">X1</text>
</g>
<!-- y3&#45;&gt;i3_1 -->
<g id="edge37" class="edge">
<title>y3&#45;&gt;i3_1</title>
<path fill="none" stroke="#616161" d="M70.28,-538C72.74,-538 75.19,-538 77.65,-538"/>
<polygon fill="#616161" stroke="#616161" points="77.75,-541.5 87.75,-538 77.75,-534.5 77.75,-541.5"/>
</g>
<!-- y5 -->
<g id="node5" class="node">
<title>y5</title>
<polygon fill="none" stroke="#ff4500" points="70,-412 16,-412 16,-376 70,-376 70,-412"/>
<text text-anchor="middle" x="43" y="-390.3" font-family="Times,serif" font-size="14.00" fill="#ff4500">5</text>
</g>
<!-- y4&#45;&gt;y5 -->
<g id="edge4" class="edge">
<title>y4&#45;&gt;y5</title>
<path fill="none" stroke="#616161" d="M43,-447.7C43,-439.98 43,-430.71 43,-422.11"/>
<polygon fill="#616161" stroke="#616161" points="46.5,-422.1 43,-412.1 39.5,-422.1 46.5,-422.1"/>
</g>
<!-- y6 -->
<g id="node6" class="node">
<title>y6</title>
<polygon fill="none" stroke="#ff4500" points="70,-340 16,-340 16,-304 70,-304 70,-340"/>
<text text-anchor="middle" x="43" y="-318.3" font-family="Times,serif" font-size="14.00" fill="#ff4500">6</text>
</g>
<!-- y5&#45;&gt;y6 -->
<g id="edge5" class="edge">
<title>y5&#45;&gt;y6</title>
<path fill="none" stroke="#616161" d="M43,-375.7C43,-367.98 43,-358.71 43,-350.11"/>
<polygon fill="#616161" stroke="#616161" points="46.5,-350.1 43,-340.1 39.5,-350.1 46.5,-350.1"/>
</g>
<!-- i5_6 -->
<g id="node39" class="node">
<title>i5_6</title>
<polygon fill="none" stroke="darkslateblue" points="142,-412 88,-412 88,-376 142,-376 142,-412"/>
<text text-anchor="middle" x="115" y="-390.3" font-family="Times,serif" font-size="14.00" fill="darkslateblue">X6</text>
</g>
<!-- y5&#45;&gt;i5_6 -->
<g id="edge39" class="edge">
<title>y5&#45;&gt;i5_6</title>
<path fill="none" stroke="#616161" d="M70.28,-394C72.74,-394 75.19,-394 77.65,-394"/>
<polygon fill="#616161" stroke="#616161" points="77.75,-397.5 87.75,-394 77.75,-390.5 77.75,-397.5"/>
</g>
<!-- y7 -->
<g id="node7" class="node">
<title>y7</title>
<polygon fill="none" stroke="#ff4500" points="70,-268 16,-268 16,-232 70,-232 70,-268"/>
<text text-anchor="middle" x="43" y="-246.3" font-family="Times,serif" font-size="14.00" fill="#ff4500">7</text>
</g>
<!-- y6&#45;&gt;y7 -->
<g id="edge6" class="edge">
<title>y6&#45;&gt;y7</title>
<path fill="none" stroke="#616161" d="M43,-303.7C43,-295.98 43,-286.71 43,-278.11"/>
<polygon fill="#616161" stroke="#616161" points="46.5,-278.1 43,-268.1 39.5,-278.1 46.5,-278.1"/>
</g>
<!-- i6_4 -->
<g id="node41" class="node">
<title>i6_4</title>
<polygon fill="none" stroke="darkslateblue" points="142,-340 88,-340 88,-304 142,-304 142,-340"/>
<text text-anchor="middle" x="115" y="-318.3" font-family="Times,serif" font-size="14.00" fill="darkslateblue">X4</text>
</g>
<!-- y6&#45;&gt;i6_4 -->
<g id="edge41" class="edge">
<title>y6&#45;&gt;i6_4</title>
<path fill="none" stroke="#616161" d="M70.28,-322C72.74,-322 75.19,-322 77.65,-322"/>
<polygon fill="#616161" stroke="#616161" points="77.75,-325.5 87.75,-322 77.75,-318.5 77.75,-325.5"/>
</g>
<!-- y8 -->
<g id="node8" class="node">
<title>y8</title>
<polygon fill="none" stroke="#ff4500" points="70,-196 16,-196 16,-160 70,-160 70,-196"/>
<text text-anchor="middle" x="43" y="-174.3" font-family="Times,serif" font-size="14.00" fill="#ff4500">8</text>
</g>
<!-- y7&#45;&gt;y8 -->
<g id="edge7" class="edge">
<title>y7&#45;&gt;y8</title>
<path fill="none" stroke="#616161" d="M43,-231.7C43,-223.98 43,-214.71 43,-206.11"/>
<polygon fill="#616161" stroke="#616161" points="46.5,-206.1 43,-196.1 39.5,-206.1 46.5,-206.1"/>
</g>
<!-- i7_4 -->
<g id="node43" class="node">
<title>i7_4</title>
<polygon fill="none" stroke="darkslateblue" points="142,-268 88,-268 88,-232 142,-232 142,-268"/>
<text text-anchor="middle" x="115" y="-246.3" font-family="Times,serif" font-size="14.00" fill="darkslateblue">X4</text>
</g>
<!-- y7&#45;&gt;i7_4 -->
<g id="edge43" class="edge">
<title>y7&#45;&gt;i7_4</title>
<path fill="none" stroke="#616161" d="M70.28,-250C72.74,-250 75.19,-250 77.65,-250"/>
<polygon fill="#616161" stroke="#616161" points="77.75,-253.5 87.75,-250 77.75,-246.5 77.75,-253.5"/>
</g>
<!-- y9 -->
<g id="node9" class="node">
<title>y9</title>
<polygon fill="none" stroke="#ff4500" points="70,-124 16,-124 16,-88 70,-88 70,-124"/>
<text text-anchor="middle" x="43" y="-102.3" font-family="Times,serif" font-size="14.00" fill="#ff4500">9</text>
</g>
<!-- y8&#45;&gt;y9 -->
<g id="edge8" class="edge">
<title>y8&#45;&gt;y9</title>
<path fill="none" stroke="#616161" d="M43,-159.7C43,-151.98 43,-142.71 43,-134.11"/>
<polygon fill="#616161" stroke="#616161" points="46.5,-134.1 43,-124.1 39.5,-134.1 46.5,-134.1"/>
</g>
<!-- y10 -->
<g id="node10" class="node">
<title>y10</title>
<polygon fill="none" stroke="#ff4500" points="70,-52 16,-52 16,-16 70,-16 70,-52"/>
<text text-anchor="middle" x="43" y="-30.3" font-family="Times,serif" font-size="14.00" fill="#ff4500">10</text>
</g>
<!-- y9&#45;&gt;y10 -->
<g id="edge9" class="edge">
<title>y9&#45;&gt;y10</title>
<path fill="none" stroke="#616161" d="M43,-87.7C43,-79.98 43,-70.71 43,-62.11"/>
<polygon fill="#616161" stroke="#616161" points="46.5,-62.1 43,-52.1 39.5,-62.1 46.5,-62.1"/>
</g>
<!-- i9_9 -->
<g id="node45" class="node">
<title>i9_9</title>
<polygon fill="none" stroke="darkslateblue" points="142,-124 88,-124 88,-88 142,-88 142,-124"/>
<text text-anchor="middle" x="115" y="-102.3" font-family="Times,serif" font-size="14.00" fill="darkslateblue">X9</text>
</g>
<!-- y9&#45;&gt;i9_9 -->
<g id="edge44" class="edge">
<title>y9&#45;&gt;i9_9</title>
<path fill="none" stroke="#616161" d="M70.28,-106C72.74,-106 75.19,-106 77.65,-106"/>
<polygon fill="#616161" stroke="#616161" points="77.75,-109.5 87.75,-106 77.75,-102.5 77.75,-109.5"/>
</g>
<!-- i10_10 -->
<g id="node46" class="node">
<title>i10_10</title>
<polygon fill="none" stroke="darkslateblue" points="142,-52 88,-52 88,-16 142,-16 142,-52"/>
<text text-anchor="middle" x="115" y="-30.3" font-family="Times,serif" font-size="14.00" fill="darkslateblue">X10</text>
</g>
<!-- y10&#45;&gt;i10_10 -->
<g id="edge45" class="edge">
<title>y10&#45;&gt;i10_10</title>
<path fill="none" stroke="#616161" d="M70.28,-34C72.74,-34 75.19,-34 77.65,-34"/>
<polygon fill="#616161" stroke="#616161" points="77.75,-37.5 87.75,-34 77.75,-30.5 77.75,-37.5"/>
</g>
<!-- i1_2 -->
<g id="node12" class="node">
<title>i1_2</title>
<polygon fill="none" stroke="darkslateblue" points="214,-700 160,-700 160,-664 214,-664 214,-700"/>
<text text-anchor="middle" x="187" y="-678.3" font-family="Times,serif" font-size="14.00" fill="darkslateblue">X2</text>
</g>
<!-- i1_1&#45;&gt;i1_2 -->
<g id="edge10" class="edge">
<title>i1_1&#45;&gt;i1_2</title>
<path fill="none" stroke="#616161" d="M142.28,-682C144.74,-682 147.19,-682 149.65,-682"/>
<polygon fill="#616161" stroke="#616161" points="149.75,-685.5 159.75,-682 149.75,-678.5 149.75,-685.5"/>
</g>
<!-- i1_3 -->
<g id="node13" class="node">
<title>i1_3</title>
<polygon fill="none" stroke="darkslateblue" points="286,-700 232,-700 232,-664 286,-664 286,-700"/>
<text text-anchor="middle" x="259" y="-678.3" font-family="Times,serif" font-size="14.00" fill="darkslateblue">X3</text>
</g>
<!-- i1_2&#45;&gt;i1_3 -->
<g id="edge11" class="edge">
<title>i1_2&#45;&gt;i1_3</title>
<path fill="none" stroke="#616161" d="M214.28,-682C216.74,-682 219.19,-682 221.65,-682"/>
<polygon fill="#616161" stroke="#616161" points="221.75,-685.5 231.75,-682 221.75,-678.5 221.75,-685.5"/>
</g>
<!-- i1_4 -->
<g id="node14" class="node">
<title>i1_4</title>
<polygon fill="none" stroke="darkslateblue" points="358,-700 304,-700 304,-664 358,-664 358,-700"/>
<text text-anchor="middle" x="331" y="-678.3" font-family="Times,serif" font-size="14.00" fill="darkslateblue">X4</text>
</g>
<!-- i1_3&#45;&gt;i1_4 -->
<g id="edge12" class="edge">
<title>i1_3&#45;&gt;i1_4</title>
<path fill="none" stroke="#616161" d="M286.28,-682C288.74,-682 291.19,-682 293.65,-682"/>
<polygon fill="#616161" stroke="#616161" points="293.75,-685.5 303.75,-682 293.75,-678.5 293.75,-685.5"/>
</g>
<!-- i1_5 -->
<g id="node15" class="node">
<title>i1_5</title>
<polygon fill="none" stroke="darkslateblue" points="430,-700 376,-700 376,-664 430,-664 430,-700"/>
<text text-anchor="middle" x="403" y="-678.3" font-family="Times,serif" font-size="14.00" fill="darkslateblue">X5</text>
</g>
<!-- i1_4&#45;&gt;i1_5 -->
<g id="edge13" class="edge">
<title>i1_4&#45;&gt;i1_5</title>
<path fill="none" stroke="#616161" d="M358.28,-682C360.74,-682 363.19,-682 365.65,-682"/>
<polygon fill="#616161" stroke="#616161" points="365.75,-685.5 375.75,-682 365.75,-678.5 365.75,-685.5"/>
</g>
<!-- i1_6 -->
<g id="node16" class="node">
<title>i1_6</title>
<polygon fill="none" stroke="darkslateblue" points="502,-700 448,-700 448,-664 502,-664 502,-700"/>
<text text-anchor="middle" x="475" y="-678.3" font-family="Times,serif" font-size="14.00" fill="darkslateblue">X6</text>
</g>
<!-- i1_5&#45;&gt;i1_6 -->
<g id="edge14" class="edge">
<title>i1_5&#45;&gt;i1_6</title>
<path fill="none" stroke="#616161" d="M430.28,-682C432.74,-682 435.19,-682 437.65,-682"/>
<polygon fill="#616161" stroke="#616161" points="437.75,-685.5 447.75,-682 437.75,-678.5 437.75,-685.5"/>
</g>
<!-- i1_7 -->
<g id="node17" class="node">
<title>i1_7</title>
<polygon fill="none" stroke="darkslateblue" points="574,-700 520,-700 520,-664 574,-664 574,-700"/>
<text text-anchor="middle" x="547" y="-678.3" font-family="Times,serif" font-size="14.00" fill="darkslateblue">X7</text>
</g>
<!-- i1_6&#45;&gt;i1_7 -->
<g id="edge15" class="edge">
<title>i1_6&#45;&gt;i1_7</title>
<path fill="none" stroke="#616161" d="M502.28,-682C504.74,-682 507.19,-682 509.65,-682"/>
<polygon fill="#616161" stroke="#616161" points="509.75,-685.5 519.75,-682 509.75,-678.5 509.75,-685.5"/>
</g>
<!-- i1_8 -->
<g id="node18" class="node">
<title>i1_8</title>
<polygon fill="none" stroke="darkslateblue" points="646,-700 592,-700 592,-664 646,-664 646,-700"/>
<text text-anchor="middle" x="619" y="-678.3" font-family="Times,serif" font-size="14.00" fill="darkslateblue">X8</text>
</g>
<!-- i1_7&#45;&gt;i1_8 -->
<g id="edge16" class="edge">
<title>i1_7&#45;&gt;i1_8</title>
<path fill="none" stroke="#616161" d="M574.28,-682C576.74,-682 579.19,-682 581.65,-682"/>
<polygon fill="#616161" stroke="#616161" points="581.75,-685.5 591.75,-682 581.75,-678.5 581.75,-685.5"/>
</g>
<!-- i1_9 -->
<g id="node19" class="node">
<title>i1_9</title>
<polygon fill="none" stroke="darkslateblue" points="718,-700 664,-700 664,-664 718,-664 718,-700"/>
<text text-anchor="middle" x="691" y="-678.3" font-family="Times,serif" font-size="14.00" fill="darkslateblue">X9</text>
</g>
<!-- i1_8&#45;&gt;i1_9 -->
<g id="edge17" class="edge">
<title>i1_8&#45;&gt;i1_9</title>
<path fill="none" stroke="#616161" d="M646.28,-682C648.74,-682 651.19,-682 653.65,-682"/>
<polygon fill="#616161" stroke="#616161" points="653.75,-685.5 663.75,-682 653.75,-678.5 653.75,-685.5"/>
</g>
<!-- i1_10 -->
<g id="node20" class="node">
<title>i1_10</title>
<polygon fill="none" stroke="darkslateblue" points="790,-700 736,-700 736,-664 790,-664 790,-700"/>
<text text-anchor="middle" x="763" y="-678.3" font-family="Times,serif" font-size="14.00" fill="darkslateblue">X10</text>
</g>
<!-- i1_9&#45;&gt;i1_10 -->
<g id="edge18" class="edge">
<title>i1_9&#45;&gt;i1_10</title>
<path fill="none" stroke="#616161" d="M718.28,-682C720.74,-682 723.19,-682 725.65,-682"/>
<polygon fill="#616161" stroke="#616161" points="725.75,-685.5 735.75,-682 725.75,-678.5 725.75,-685.5"/>
</g>
<!-- i2_2 -->
<g id="node22" class="node">
<title>i2_2</title>
<polygon fill="none" stroke="darkslateblue" points="214,-628 160,-628 160,-592 214,-592 214,-628"/>
<text text-anchor="middle" x="187" y="-606.3" font-family="Times,serif" font-size="14.00" fill="darkslateblue">X2</text>
</g>
<!-- i2_1&#45;&gt;i2_2 -->
<g id="edge20" class="edge">
<title>i2_1&#45;&gt;i2_2</title>
<path fill="none" stroke="#616161" d="M142.28,-610C144.74,-610 147.19,-610 149.65,-610"/>
<polygon fill="#616161" stroke="#616161" points="149.75,-613.5 159.75,-610 149.75,-606.5 149.75,-613.5"/>
</g>
<!-- i2_3 -->
<g id="node23" class="node">
<title>i2_3</title>
<polygon fill="none" stroke="darkslateblue" points="286,-628 232,-628 232,-592 286,-592 286,-628"/>
<text text-anchor="middle" x="259" y="-606.3" font-family="Times,serif" font-size="14.00" fill="darkslateblue">X3</text>
</g>
<!-- i2_2&#45;&gt;i2_3 -->
<g id="edge21" class="edge">
<title>i2_2&#45;&gt;i2_3</title>
<path fill="none" stroke="#616161" d="M214.28,-610C216.74,-610 219.19,-610 221.65,-610"/>
<polygon fill="#616161" stroke="#616161" points="221.75,-613.5 231.75,-610 221.75,-606.5 221.75,-613.5"/>
</g>
<!-- i2_4 -->
<g id="node24" class="node">
<title>i2_4</title>
<polygon fill="none" stroke="darkslateblue" points="358,-628 304,-628 304,-592 358,-592 358,-628"/>
<text text-anchor="middle" x="331" y="-606.3" font-family="Times,serif" font-size="14.00" fill="darkslateblue">X4</text>
</g>
<!-- i2_3&#45;&gt;i2_4 -->
<g id="edge22" class="edge">
<title>i2_3&#45;&gt;i2_4</title>
<path fill="none" stroke="#616161" d="M286.28,-610C288.74,-610 291.19,-610 293.65,-610"/>
<polygon fill="#616161" stroke="#616161" points="293.75,-613.5 303.75,-610 293.75,-606.5 293.75,-613.5"/>
</g>
<!-- i2_5 -->
<g id="node25" class="node">
<title>i2_5</title>
<polygon fill="none" stroke="darkslateblue" points="430,-628 376,-628 376,-592 430,-592 430,-628"/>
<text text-anchor="middle" x="403" y="-606.3" font-family="Times,serif" font-size="14.00" fill="darkslateblue">X5</text>
</g>
<!-- i2_4&#45;&gt;i2_5 -->
<g id="edge23" class="edge">
<title>i2_4&#45;&gt;i2_5</title>
<path fill="none" stroke="#616161" d="M358.28,-610C360.74,-610 363.19,-610 365.65,-610"/>
<polygon fill="#616161" stroke="#616161" points="365.75,-613.5 375.75,-610 365.75,-606.5 365.75,-613.5"/>
</g>
<!-- i2_6 -->
<g id="node26" class="node">
<title>i2_6</title>
<polygon fill="none" stroke="darkslateblue" points="502,-628 448,-628 448,-592 502,-592 502,-628"/>
<text text-anchor="middle" x="475" y="-606.3" font-family="Times,serif" font-size="14.00" fill="darkslateblue">X6</text>
</g>
<!-- i2_5&#45;&gt;i2_6 -->
<g id="edge24" class="edge">
<title>i2_5&#45;&gt;i2_6</title>
<path fill="none" stroke="#616161" d="M430.28,-610C432.74,-610 435.19,-610 437.65,-610"/>
<polygon fill="#616161" stroke="#616161" points="437.75,-613.5 447.75,-610 437.75,-606.5 437.75,-613.5"/>
</g>
<!-- i2_7 -->
<g id="node27" class="node">
<title>i2_7</title>
<polygon fill="none" stroke="darkslateblue" points="574,-628 520,-628 520,-592 574,-592 574,-628"/>
<text text-anchor="middle" x="547" y="-606.3" font-family="Times,serif" font-size="14.00" fill="darkslateblue">X7</text>
</g>
<!-- i2_6&#45;&gt;i2_7 -->
<g id="edge25" class="edge">
<title>i2_6&#45;&gt;i2_7</title>
<path fill="none" stroke="#616161" d="M502.28,-610C504.74,-610 507.19,-610 509.65,-610"/>
<polygon fill="#616161" stroke="#616161" points="509.75,-613.5 519.75,-610 509.75,-606.5 509.75,-613.5"/>
</g>
<!-- i2_8 -->
<g id="node28" class="node">
<title>i2_8</title>
<polygon fill="none" stroke="darkslateblue" points="646,-628 592,-628 592,-592 646,-592 646,-628"/>
<text text-anchor="middle" x="619" y="-606.3" font-family="Times,serif" font-size="14.00" fill="darkslateblue">X8</text>
</g>
<!-- i2_7&#45;&gt;i2_8 -->
<g id="edge26" class="edge">
<title>i2_7&#45;&gt;i2_8</title>
<path fill="none" stroke="#616161" d="M574.28,-610C576.74,-610 579.19,-610 581.65,-610"/>
<polygon fill="#616161" stroke="#616161" points="581.75,-613.5 591.75,-610 581.75,-606.5 581.75,-613.5"/>
</g>
<!-- i2_9 -->
<g id="node29" class="node">
<title>i2_9</title>
<polygon fill="none" stroke="darkslateblue" points="718,-628 664,-628 664,-592 718,-592 718,-628"/>
<text text-anchor="middle" x="691" y="-606.3" font-family="Times,serif" font-size="14.00" fill="darkslateblue">X9</text>
</g>
<!-- i2_8&#45;&gt;i2_9 -->
<g id="edge27" class="edge">
<title>i2_8&#45;&gt;i2_9</title>
<path fill="none" stroke="#616161" d="M646.28,-610C648.74,-610 651.19,-610 653.65,-610"/>
<polygon fill="#616161" stroke="#616161" points="653.75,-613.5 663.75,-610 653.75,-606.5 653.75,-613.5"/>
</g>
<!-- i2_10 -->
<g id="node30" class="node">
<title>i2_10</title>
<polygon fill="none" stroke="darkslateblue" points="790,-628 736,-628 736,-592 790,-592 790,-628"/>
<text text-anchor="middle" x="763" y="-606.3" font-family="Times,serif" font-size="14.00" fill="darkslateblue">X10</text>
</g>
<!-- i2_9&#45;&gt;i2_10 -->
<g id="edge28" class="edge">
<title>i2_9&#45;&gt;i2_10</title>
<path fill="none" stroke="#616161" d="M718.28,-610C720.74,-610 723.19,-610 725.65,-610"/>
<polygon fill="#616161" stroke="#616161" points="725.75,-613.5 735.75,-610 725.75,-606.5 725.75,-613.5"/>
</g>
<!-- i3_2 -->
<g id="node32" class="node">
<title>i3_2</title>
<polygon fill="none" stroke="darkslateblue" points="214,-556 160,-556 160,-520 214,-520 214,-556"/>
<text text-anchor="middle" x="187" y="-534.3" font-family="Times,serif" font-size="14.00" fill="darkslateblue">X2</text>
</g>
<!-- i3_1&#45;&gt;i3_2 -->
<g id="edge30" class="edge">
<title>i3_1&#45;&gt;i3_2</title>
<path fill="none" stroke="#616161" d="M142.28,-538C144.74,-538 147.19,-538 149.65,-538"/>
<polygon fill="#616161" stroke="#616161" points="149.75,-541.5 159.75,-538 149.75,-534.5 149.75,-541.5"/>
</g>
<!-- i3_3 -->
<g id="node33" class="node">
<title>i3_3</title>
<polygon fill="none" stroke="darkslateblue" points="286,-556 232,-556 232,-520 286,-520 286,-556"/>
<text text-anchor="middle" x="259" y="-534.3" font-family="Times,serif" font-size="14.00" fill="darkslateblue">X3</text>
</g>
<!-- i3_2&#45;&gt;i3_3 -->
<g id="edge31" class="edge">
<title>i3_2&#45;&gt;i3_3</title>
<path fill="none" stroke="#616161" d="M214.28,-538C216.74,-538 219.19,-538 221.65,-538"/>
<polygon fill="#616161" stroke="#616161" points="221.75,-541.5 231.75,-538 221.75,-534.5 221.75,-541.5"/>
</g>
<!-- i3_4 -->
<g id="node34" class="node">
<title>i3_4</title>
<polygon fill="none" stroke="darkslateblue" points="358,-556 304,-556 304,-520 358,-520 358,-556"/>
<text text-anchor="middle" x="331" y="-534.3" font-family="Times,serif" font-size="14.00" fill="darkslateblue">X4</text>
</g>
<!-- i3_3&#45;&gt;i3_4 -->
<g id="edge32" class="edge">
<title>i3_3&#45;&gt;i3_4</title>
<path fill="none" stroke="#616161" d="M286.28,-538C288.74,-538 291.19,-538 293.65,-538"/>
<polygon fill="#616161" stroke="#616161" points="293.75,-541.5 303.75,-538 293.75,-534.5 293.75,-541.5"/>
</g>
<!-- i3_5 -->
<g id="node35" class="node">
<title>i3_5</title>
<polygon fill="none" stroke="darkslateblue" points="430,-556 376,-556 376,-520 430,-520 430,-556"/>
<text text-anchor="middle" x="403" y="-534.3" font-family="Times,serif" font-size="14.00" fill="darkslateblue">X5</text>
</g>
<!-- i3_4&#45;&gt;i3_5 -->
<g id="edge33" class="edge">
<title>i3_4&#45;&gt;i3_5</title>
<path fill="none" stroke="#616161" d="M358.28,-538C360.74,-538 363.19,-538 365.65,-538"/>
<polygon fill="#616161" stroke="#616161" points="365.75,-541.5 375.75,-538 365.75,-534.5 365.75,-541.5"/>
</g>
<!-- i3_6 -->
<g id="node36" class="node">
<title>i3_6</title>
<polygon fill="none" stroke="darkslateblue" points="502,-556 448,-556 448,-520 502,-520 502,-556"/>
<text text-anchor="middle" x="475" y="-534.3" font-family="Times,serif" font-size="14.00" fill="darkslateblue">X6</text>
</g>
<!-- i3_5&#45;&gt;i3_6 -->
<g id="edge34" class="edge">
<title>i3_5&#45;&gt;i3_6</title>
<path fill="none" stroke="#616161" d="M430.28,-538C432.74,-538 435.19,-538 437.65,-538"/>
<polygon fill="#616161" stroke="#616161" points="437.75,-541.5 447.75,-538 437.75,-534.5 437.75,-541.5"/>
</g>
<!-- i3_7 -->
<g id="node37" class="node">
<title>i3_7</title>
<polygon fill="none" stroke="darkslateblue" points="574,-556 520,-556 520,-520 574,-520 574,-556"/>
<text text-anchor="middle" x="547" y="-534.3" font-family="Times,serif" font-size="14.00" fill="darkslateblue">X7</text>
</g>
<!-- i3_6&#45;&gt;i3_7 -->
<g id="edge35" class="edge">
<title>i3_6&#45;&gt;i3_7</title>
<path fill="none" stroke="#616161" d="M502.28,-538C504.74,-538 507.19,-538 509.65,-538"/>
<polygon fill="#616161" stroke="#616161" points="509.75,-541.5 519.75,-538 509.75,-534.5 509.75,-541.5"/>
</g>
<!-- i3_8 -->
<g id="node38" class="node">
<title>i3_8</title>
<polygon fill="none" stroke="darkslateblue" points="646,-556 592,-556 592,-520 646,-520 646,-556"/>
<text text-anchor="middle" x="619" y="-534.3" font-family="Times,serif" font-size="14.00" fill="darkslateblue">X8</text>
</g>
<!-- i3_7&#45;&gt;i3_8 -->
<g id="edge36" class="edge">
<title>i3_7&#45;&gt;i3_8</title>
<path fill="none" stroke="#616161" d="M574.28,-538C576.74,-538 579.19,-538 581.65,-538"/>
<polygon fill="#616161" stroke="#616161" points="581.75,-541.5 591.75,-538 581.75,-534.5 581.75,-541.5"/>
</g>
<!-- i5_9 -->
<g id="node40" class="node">
<title>i5_9</title>
<polygon fill="none" stroke="darkslateblue" points="214,-412 160,-412 160,-376 214,-376 214,-412"/>
<text text-anchor="middle" x="187" y="-390.3" font-family="Times,serif" font-size="14.00" fill="darkslateblue">X9</text>
</g>
<!-- i5_6&#45;&gt;i5_9 -->
<g id="edge38" class="edge">
<title>i5_6&#45;&gt;i5_9</title>
<path fill="none" stroke="#616161" d="M142.28,-394C144.74,-394 147.19,-394 149.65,-394"/>
<polygon fill="#616161" stroke="#616161" points="149.75,-397.5 159.75,-394 149.75,-390.5 149.75,-397.5"/>
</g>
<!-- i6_6 -->
<g id="node42" class="node">
<title>i6_6</title>
<polygon fill="none" stroke="darkslateblue" points="214,-340 160,-340 160,-304 214,-304 214,-340"/>
<text text-anchor="middle" x="187" y="-318.3" font-family="Times,serif" font-size="14.00" fill="darkslateblue">X6</text>
</g>
<!-- i6_4&#45;&gt;i6_6 -->
<g id="edge40" class="edge">
<title>i6_4&#45;&gt;i6_6</title>
<path fill="none" stroke="#616161" d="M142.28,-322C144.74,-322 147.19,-322 149.65,-322"/>
<polygon fill="#616161" stroke="#616161" points="149.75,-325.5 159.75,-322 149.75,-318.5 149.75,-325.5"/>
</g>
<!-- i7_7 -->
<g id="node44" class="node">
<title>i7_7</title>
<polygon fill="none" stroke="darkslateblue" points="214,-268 160,-268 160,-232 214,-232 214,-268"/>
<text text-anchor="middle" x="187" y="-246.3" font-family="Times,serif" font-size="14.00" fill="darkslateblue">X7</text>
</g>
<!-- i7_4&#45;&gt;i7_7 -->
<g id="edge42" class="edge">
<title>i7_4&#45;&gt;i7_7</title>
<path fill="none" stroke="#616161" d="M142.28,-250C144.74,-250 147.19,-250 149.65,-250"/>
<polygon fill="#616161" stroke="#616161" points="149.75,-253.5 159.75,-250 149.75,-246.5 149.75,-253.5"/>
</g>
<!-- r1 -->
<g id="node47" class="node">
<title>r1</title>
<ellipse fill="none" stroke="firebrick" cx="995" cy="-682" rx="27" ry="18"/>
<text text-anchor="middle" x="995" y="-678.3" font-family="Times,serif" font-size="14.00" fill="firebrick">1</text>
</g>
<!-- r1&#45;&gt;r1 -->
<g id="edge46" class="edge">
<title>r1&#45;&gt;r1</title>
<path fill="none" stroke="dimgrey" d="M1014.9,-694.43C1027.69,-697.68 1040,-693.53 1040,-682 1040,-673.62 1033.5,-669.14 1025.04,-668.56"/>
<polygon fill="dimgrey" stroke="dimgrey" points="1024.5,-665.1 1014.9,-669.57 1025.19,-672.07 1024.5,-665.1"/>
</g>
<!-- r2 -->
<g id="node48" class="node">
<title>r2</title>
<ellipse fill="none" stroke="firebrick" cx="995" cy="-610" rx="27" ry="18"/>
<text text-anchor="middle" x="995" y="-606.3" font-family="Times,serif" font-size="14.00" fill="firebrick">2</text>
</g>
<!-- r1&#45;&gt;r2 -->
<g id="edge47" class="edge">
<title>r1&#45;&gt;r2</title>
<path fill="none" stroke="dimgrey" d="M989.16,-664.41C988.3,-656.51 988.05,-646.85 988.41,-637.94"/>
<polygon fill="dimgrey" stroke="dimgrey" points="991.9,-638.18 989.12,-627.96 984.92,-637.68 991.9,-638.18"/>
</g>
<!-- r3 -->
<g id="node49" class="node">
<title>r3</title>
<ellipse fill="none" stroke="firebrick" cx="921" cy="-538" rx="27" ry="18"/>
<text text-anchor="middle" x="921" y="-534.3" font-family="Times,serif" font-size="14.00" fill="firebrick">3</text>
</g>
<!-- r1&#45;&gt;r3 -->
<g id="edge48" class="edge">
<title>r1&#45;&gt;r3</title>
<path fill="none" stroke="dimgrey" d="M977.75,-667.95C968.4,-657.49 957.79,-642.25 950,-628 939.02,-607.91 928.97,-583.99 923.32,-566.01"/>
<polygon fill="dimgrey" stroke="dimgrey" points="926.62,-564.85 920.53,-556.19 919.89,-566.76 926.62,-564.85"/>
</g>
<!-- r4 -->
<g id="node50" class="node">
<title>r4</title>
<ellipse fill="none" stroke="firebrick" cx="971" cy="-322" rx="27" ry="18"/>
<text text-anchor="middle" x="971" y="-318.3" font-family="Times,serif" font-size="14.00" fill="firebrick">4</text>
</g>
<!-- r1&#45;&gt;r4 -->
<g id="edge49" class="edge">
<title>r1&#45;&gt;r4</title>
<path fill="none" stroke="dimgrey" d="M1021.1,-676.81C1079.38,-665.8 1215,-630.37 1215,-539 1215,-539 1215,-539 1215,-465 1215,-370.32 1076.08,-337.68 1007.88,-327.35"/>
<polygon fill="dimgrey" stroke="dimgrey" points="1007.97,-323.83 997.58,-325.88 1006.98,-330.76 1007.97,-323.83"/>
</g>
<!-- r5 -->
<g id="node51" class="node">
<title>r5</title>
<ellipse fill="none" stroke="firebrick" cx="991" cy="-466" rx="27" ry="18"/>
<text text-anchor="middle" x="991" y="-462.3" font-family="Times,serif" font-size="14.00" fill="firebrick">5</text>
</g>
<!-- r1&#45;&gt;r5 -->
<g id="edge50" class="edge">
<title>r1&#45;&gt;r5</title>
<path fill="none" stroke="dimgrey" d="M976.8,-668.25C949.96,-648.12 901.19,-606.06 885,-556 880.08,-540.78 876.59,-533.61 885,-520 900.31,-495.23 931.08,-481.65 955.54,-474.46"/>
<polygon fill="dimgrey" stroke="dimgrey" points="956.5,-477.83 965.24,-471.84 954.67,-471.07 956.5,-477.83"/>
</g>
<!-- r6 -->
<g id="node52" class="node">
<title>r6</title>
<ellipse fill="none" stroke="firebrick" cx="971" cy="-394" rx="27" ry="18"/>
<text text-anchor="middle" x="971" y="-390.3" font-family="Times,serif" font-size="14.00" fill="firebrick">6</text>
</g>
<!-- r1&#45;&gt;r6 -->
<g id="edge51" class="edge">
<title>r1&#45;&gt;r6</title>
<path fill="none" stroke="dimgrey" d="M969.02,-676.79C940.55,-670.84 895.41,-657.23 869,-628 824.14,-578.34 834.89,-550.19 825,-484 822.64,-468.18 815.82,-461.1 825,-448 849.4,-413.18 899.14,-401.15 933.74,-397.04"/>
<polygon fill="dimgrey" stroke="dimgrey" points="934.35,-400.5 943.95,-396 933.64,-393.53 934.35,-400.5"/>
</g>
<!-- r7 -->
<g id="node53" class="node">
<title>r7</title>
<ellipse fill="none" stroke="firebrick" cx="861" cy="-466" rx="27" ry="18"/>
<text text-anchor="middle" x="861" y="-462.3" font-family="Times,serif" font-size="14.00" fill="firebrick">7</text>
</g>
<!-- r1&#45;&gt;r7 -->
<g id="edge52" class="edge">
<title>r1&#45;&gt;r7</title>
<path fill="none" stroke="dimgrey" d="M971.51,-672.7C950.32,-664.23 919.44,-649.29 899,-628 874.22,-602.19 871.61,-590.73 863,-556 857.96,-535.66 857.69,-511.89 858.56,-494.03"/>
<polygon fill="dimgrey" stroke="dimgrey" points="862.06,-494.22 859.2,-484.02 855.07,-493.78 862.06,-494.22"/>
</g>
<!-- r8 -->
<g id="node54" class="node">
<title>r8</title>
<ellipse fill="none" stroke="firebrick" cx="1103" cy="-466" rx="27" ry="18"/>
<text text-anchor="middle" x="1103" y="-462.3" font-family="Times,serif" font-size="14.00" fill="firebrick">8</text>
</g>
<!-- r1&#45;&gt;r8 -->
<g id="edge53" class="edge">
<title>r1&#45;&gt;r8</title>
<path fill="none" stroke="dimgrey" d="M1018.03,-672.23C1056.8,-656.06 1133.91,-617.45 1165,-556 1172.22,-541.72 1171.7,-534.53 1165,-520 1158.07,-504.95 1144.52,-492.59 1131.85,-483.6"/>
<polygon fill="dimgrey" stroke="dimgrey" points="1133.58,-480.55 1123.32,-477.92 1129.71,-486.37 1133.58,-480.55"/>
</g>
<!-- r9 -->
<g id="node55" class="node">
<title>r9</title>
<ellipse fill="none" stroke="firebrick" cx="1061" cy="-394" rx="27" ry="18"/>
<text text-anchor="middle" x="1061" y="-390.3" font-family="Times,serif" font-size="14.00" fill="firebrick">9</text>
</g>
<!-- r1&#45;&gt;r9 -->
<g id="edge54" class="edge">
<title>r1&#45;&gt;r9</title>
<path fill="none" stroke="dimgrey" d="M1020.34,-675.33C1048.17,-668.1 1093,-653.39 1124,-628 1153.75,-603.63 1160.86,-592.81 1172,-556 1186.54,-507.96 1171.41,-486.33 1139,-448 1125.83,-432.43 1107.02,-419.46 1091.16,-410.25"/>
<polygon fill="dimgrey" stroke="dimgrey" points="1092.67,-407.09 1082.23,-405.27 1089.26,-413.2 1092.67,-407.09"/>
</g>
<!-- r10 -->
<g id="node56" class="node">
<title>r10</title>
<ellipse fill="none" stroke="firebrick" cx="1111" cy="-538" rx="27" ry="18"/>
<text text-anchor="middle" x="1111" y="-534.3" font-family="Times,serif" font-size="14.00" fill="firebrick">10</text>
</g>
<!-- r1&#45;&gt;r10 -->
<g id="edge55" class="edge">
<title>r1&#45;&gt;r10</title>
<path fill="none" stroke="dimgrey" d="M1010.9,-666.87C1022.09,-656.58 1037.13,-642.05 1049,-628 1066.36,-607.45 1083.66,-582.12 1095.55,-563.74"/>
<polygon fill="dimgrey" stroke="dimgrey" points="1098.65,-565.39 1101.09,-555.08 1092.75,-561.62 1098.65,-565.39"/>
</g>
<!-- r2&#45;&gt;r1 -->
<g id="edge56" class="edge">
<title>r2&#45;&gt;r1</title>
<path fill="none" stroke="dimgrey" d="M1000.88,-627.96C1001.71,-635.83 1001.95,-645.37 1001.58,-654.19"/>
<polygon fill="dimgrey" stroke="dimgrey" points="998.07,-654.18 1000.84,-664.41 1005.06,-654.69 998.07,-654.18"/>
</g>
<!-- r2&#45;&gt;r2 -->
<g id="edge57" class="edge">
<title>r2&#45;&gt;r2</title>
<path fill="none" stroke="dimgrey" d="M1014.9,-622.43C1027.69,-625.68 1040,-621.53 1040,-610 1040,-601.62 1033.5,-597.14 1025.04,-596.56"/>
<polygon fill="dimgrey" stroke="dimgrey" points="1024.5,-593.1 1014.9,-597.57 1025.19,-600.07 1024.5,-593.1"/>
</g>
<!-- r2&#45;&gt;r3 -->
<g id="edge58" class="edge">
<title>r2&#45;&gt;r3</title>
<path fill="none" stroke="dimgrey" d="M976.45,-596.49C964.85,-586.87 950.18,-573.33 938.74,-561.81"/>
<polygon fill="dimgrey" stroke="dimgrey" points="941.22,-559.34 931.76,-554.59 936.19,-564.21 941.22,-559.34"/>
</g>
<!-- r2&#45;&gt;r4 -->
<g id="edge59" class="edge">
<title>r2&#45;&gt;r4</title>
<path fill="none" stroke="dimgrey" d="M1011.53,-595.6C1023.52,-585.43 1039.71,-570.74 1052,-556 1064.16,-541.42 1061.2,-533.04 1075,-520 1098.72,-497.58 1122.52,-512.17 1139,-484 1147.08,-470.19 1141.56,-463.79 1139,-448 1133.6,-414.7 1138.48,-400.22 1115,-376 1086.39,-346.49 1039.95,-333.3 1007.57,-327.48"/>
<polygon fill="dimgrey" stroke="dimgrey" points="1008.03,-324 997.6,-325.83 1006.89,-330.91 1008.03,-324"/>
</g>
<!-- r2&#45;&gt;r5 -->
<g id="edge60" class="edge">
<title>r2&#45;&gt;r5</title>
<path fill="none" stroke="dimgrey" d="M994.52,-591.87C993.84,-567.67 992.58,-523.21 991.77,-494.39"/>
<polygon fill="dimgrey" stroke="dimgrey" points="995.26,-494.09 991.48,-484.19 988.27,-494.28 995.26,-494.09"/>
</g>
<!-- r2&#45;&gt;r6 -->
<g id="edge61" class="edge">
<title>r2&#45;&gt;r6</title>
<path fill="none" stroke="dimgrey" d="M999.88,-592.11C1008.17,-563.13 1024.35,-505 1027,-484 1029,-468.13 1033.33,-462.7 1027,-448 1021.05,-434.18 1009.54,-422.29 998.49,-413.28"/>
<polygon fill="dimgrey" stroke="dimgrey" points="1000.3,-410.27 990.23,-406.98 996.06,-415.83 1000.3,-410.27"/>
</g>
<!-- r2&#45;&gt;r7 -->
<g id="edge62" class="edge">
<title>r2&#45;&gt;r7</title>
<path fill="none" stroke="dimgrey" d="M969.8,-603.37C944.68,-596.46 906.79,-582.27 885,-556 870.67,-538.73 864.84,-513.67 862.49,-494.54"/>
<polygon fill="dimgrey" stroke="dimgrey" points="865.95,-493.95 861.5,-484.33 858.98,-494.63 865.95,-493.95"/>
</g>
<!-- r2&#45;&gt;r8 -->
<g id="edge63" class="edge">
<title>r2&#45;&gt;r8</title>
<path fill="none" stroke="dimgrey" d="M1006.04,-593.39C1018.78,-575.48 1040.51,-545.32 1060,-520 1067.64,-510.08 1076.3,-499.32 1083.83,-490.11"/>
<polygon fill="dimgrey" stroke="dimgrey" points="1086.73,-492.09 1090.37,-482.14 1081.32,-487.65 1086.73,-492.09"/>
</g>
<!-- r2&#45;&gt;r9 -->
<g id="edge64" class="edge">
<title>r2&#45;&gt;r9</title>
<path fill="none" stroke="dimgrey" d="M1003.31,-592.59C1008.31,-582.27 1014.55,-568.57 1019,-556 1027.72,-531.36 1045.1,-461.09 1054.54,-422.02"/>
<polygon fill="dimgrey" stroke="dimgrey" points="1058.04,-422.44 1056.98,-411.9 1051.24,-420.8 1058.04,-422.44"/>
</g>
<!-- r2&#45;&gt;r10 -->
<g id="edge65" class="edge">
<title>r2&#45;&gt;r10</title>
<path fill="none" stroke="dimgrey" d="M1014.42,-597.28C1033.15,-585.98 1061.72,-568.74 1082.93,-555.94"/>
<polygon fill="dimgrey" stroke="dimgrey" points="1084.77,-558.92 1091.52,-550.75 1081.15,-552.92 1084.77,-558.92"/>
</g>
<!-- r3&#45;&gt;r1 -->
<g id="edge66" class="edge">
<title>r3&#45;&gt;r1</title>
<path fill="none" stroke="dimgrey" d="M932.88,-554.22C942.19,-572.28 954.39,-603.08 968,-628 973.01,-637.18 979.2,-646.76 984.57,-655.21"/>
<polygon fill="dimgrey" stroke="dimgrey" points="981.72,-657.25 990,-663.87 987.66,-653.54 981.72,-657.25"/>
</g>
<!-- r3&#45;&gt;r2 -->
<g id="edge67" class="edge">
<title>r3&#45;&gt;r2</title>
<path fill="none" stroke="dimgrey" d="M939.48,-551.46C951.11,-561.09 965.83,-574.68 977.3,-586.23"/>
<polygon fill="dimgrey" stroke="dimgrey" points="974.83,-588.71 984.3,-593.46 979.86,-583.84 974.83,-588.71"/>
</g>
<!-- r3&#45;&gt;r3 -->
<g id="edge68" class="edge">
<title>r3&#45;&gt;r3</title>
<path fill="none" stroke="dimgrey" d="M940.9,-550.43C953.69,-553.68 966,-549.53 966,-538 966,-529.62 959.5,-525.14 951.04,-524.56"/>
<polygon fill="dimgrey" stroke="dimgrey" points="950.5,-521.1 940.9,-525.57 951.19,-528.07 950.5,-521.1"/>
</g>
<!-- r3&#45;&gt;r4 -->
<g id="edge69" class="edge">
<title>r3&#45;&gt;r4</title>
<path fill="none" stroke="dimgrey" d="M919.72,-519.96C918.07,-489.91 917.23,-425.96 935,-376 938.75,-365.47 945.1,-355.04 951.43,-346.25"/>
<polygon fill="dimgrey" stroke="dimgrey" points="954.39,-348.15 957.67,-338.07 948.82,-343.9 954.39,-348.15"/>
</g>
<!-- r3&#45;&gt;r5 -->
<g id="edge70" class="edge">
<title>r3&#45;&gt;r5</title>
<path fill="none" stroke="dimgrey" d="M935.5,-522.5C945.27,-512.73 958.31,-499.69 969.3,-488.7"/>
<polygon fill="dimgrey" stroke="dimgrey" points="971.92,-491.03 976.51,-481.49 966.97,-486.08 971.92,-491.03"/>
</g>
<!-- r3&#45;&gt;r6 -->
<g id="edge71" class="edge">
<title>r3&#45;&gt;r6</title>
<path fill="none" stroke="dimgrey" d="M926.93,-520.15C935.54,-495.71 951.57,-450.17 961.74,-421.29"/>
<polygon fill="dimgrey" stroke="dimgrey" points="965.06,-422.42 965.08,-411.82 958.45,-420.09 965.06,-422.42"/>
</g>
<!-- r3&#45;&gt;r7 -->
<g id="edge72" class="edge">
<title>r3&#45;&gt;r7</title>
<path fill="none" stroke="dimgrey" d="M907.98,-521.81C899.96,-512.45 889.53,-500.28 880.53,-489.79"/>
<polygon fill="dimgrey" stroke="dimgrey" points="883.16,-487.47 873.99,-482.16 877.84,-492.03 883.16,-487.47"/>
</g>
<!-- r3&#45;&gt;r8 -->
<g id="edge73" class="edge">
<title>r3&#45;&gt;r8</title>
<path fill="none" stroke="dimgrey" d="M944.05,-528.13C976.05,-515.83 1034.1,-493.5 1070.49,-479.51"/>
<polygon fill="dimgrey" stroke="dimgrey" points="1072.06,-482.65 1080.14,-475.79 1069.55,-476.12 1072.06,-482.65"/>
</g>
<!-- r5&#45;&gt;r6 -->
<g id="edge74" class="edge">
<title>r5&#45;&gt;r6</title>
<path fill="none" stroke="dimgrey" d="M986.16,-448.05C983.9,-440.14 981.15,-430.54 978.63,-421.69"/>
<polygon fill="dimgrey" stroke="dimgrey" points="981.91,-420.44 975.8,-411.79 975.18,-422.37 981.91,-420.44"/>
</g>
<!-- r5&#45;&gt;r9 -->
<g id="edge75" class="edge">
<title>r5&#45;&gt;r9</title>
<path fill="none" stroke="dimgrey" d="M1005.5,-450.5C1015.27,-440.73 1028.31,-427.69 1039.3,-416.7"/>
<polygon fill="dimgrey" stroke="dimgrey" points="1041.92,-419.03 1046.51,-409.49 1036.97,-414.08 1041.92,-419.03"/>
</g>
<!-- r6&#45;&gt;r4 -->
<g id="edge76" class="edge">
<title>r6&#45;&gt;r4</title>
<path fill="none" stroke="dimgrey" d="M971,-375.7C971,-367.98 971,-358.71 971,-350.11"/>
<polygon fill="dimgrey" stroke="dimgrey" points="974.5,-350.1 971,-340.1 967.5,-350.1 974.5,-350.1"/>
</g>
<!-- r6&#45;&gt;r6 -->
<g id="edge77" class="edge">
<title>r6&#45;&gt;r6</title>
<path fill="none" stroke="dimgrey" d="M990.9,-406.43C1003.69,-409.68 1016,-405.53 1016,-394 1016,-385.62 1009.5,-381.14 1001.04,-380.56"/>
<polygon fill="dimgrey" stroke="dimgrey" points="1000.5,-377.1 990.9,-381.57 1001.19,-384.07 1000.5,-377.1"/>
</g>
<!-- r7&#45;&gt;r4 -->
<g id="edge78" class="edge">
<title>r7&#45;&gt;r4</title>
<path fill="none" stroke="dimgrey" d="M870.41,-448.97C881.43,-430.67 900.63,-400.15 920,-376 928.82,-364.99 939.53,-353.62 948.85,-344.24"/>
<polygon fill="dimgrey" stroke="dimgrey" points="951.32,-346.72 955.96,-337.19 946.4,-341.74 951.32,-346.72"/>
</g>
<!-- r7&#45;&gt;r7 -->
<g id="edge79" class="edge">
<title>r7&#45;&gt;r7</title>
<path fill="none" stroke="dimgrey" d="M880.9,-478.43C893.69,-481.68 906,-477.53 906,-466 906,-457.62 899.5,-453.14 891.04,-452.56"/>
<polygon fill="dimgrey" stroke="dimgrey" points="890.5,-449.1 880.9,-453.57 891.19,-456.07 890.5,-449.1"/>
</g>
<!-- r9&#45;&gt;r9 -->
<g id="edge80" class="edge">
<title>r9&#45;&gt;r9</title>
<path fill="none" stroke="dimgrey" d="M1080.9,-406.43C1093.69,-409.68 1106,-405.53 1106,-394 1106,-385.62 1099.5,-381.14 1091.04,-380.56"/>
<polygon fill="dimgrey" stroke="dimgrey" points="1090.5,-377.1 1080.9,-381.57 1091.19,-384.07 1090.5,-377.1"/>
</g>
<!-- r10&#45;&gt;r10 -->
<g id="edge81" class="edge">
<title>r10&#45;&gt;r10</title>
<path fill="none" stroke="dimgrey" d="M1130.9,-550.43C1143.69,-553.68 1156,-549.53 1156,-538 1156,-529.62 1149.5,-525.14 1141.04,-524.56"/>
<polygon fill="dimgrey" stroke="dimgrey" points="1140.5,-521.1 1130.9,-525.57 1141.19,-528.07 1140.5,-521.1"/>
</g>
</g>
</svg>
