<?xml version="1.0" encoding="UTF-8" standalone="no"?>
<!DOCTYPE svg PUBLIC "-//W3C//DTD SVG 1.1//EN"
 "http://www.w3.org/Graphics/SVG/1.1/DTD/svg11.dtd">
<!-- Generated by graphviz version 2.43.0 (0)
 -->
<!-- Title: G Pages: 1 -->
<svg width="8880pt" height="590pt"
 viewBox="0.00 0.00 8880.00 590.00" xmlns="http://www.w3.org/2000/svg" xmlns:xlink="http://www.w3.org/1999/xlink">
<g id="graph0" class="graph" transform="scale(1 1) rotate(0) translate(4 586)">
<title>G</title>
<polygon fill="transparent" stroke="transparent" points="-4,4 -4,-586 8876,-586 8876,4 -4,4"/>
<!-- N0 -->
<g id="node1" class="node">
<title>N0</title>
<polygon fill="black" stroke="black" points="638,-379.5 0,-379.5 0,-202.5 638,-202.5 638,-379.5"/>
<text text-anchor="middle" x="319" y="-332.3" font-family="Arial" font-size="14.00" fill="gray">ID: 1</text>
<text text-anchor="middle" x="319" y="-317.3" font-family="Arial" font-size="14.00" fill="gray">TIMESTAP: 04:11:22::12:39:43</text>
<text text-anchor="middle" x="319" y="-302.3" font-family="Arial" font-size="14.00" fill="gray">NONCE: 22</text>
<text text-anchor="middle" x="319" y="-287.3" font-family="Arial" font-size="14.00" fill="gray">DATA: </text>
<text text-anchor="middle" x="319" y="-272.3" font-family="Arial" font-size="14.00" fill="gray">PREVIOUSHASH: 00</text>
<text text-anchor="middle" x="319" y="-257.3" font-family="Arial" font-size="14.00" fill="gray">ROOTMERKLE: 3eff7c5314a5ed2d5d8fdad16bbc4851cd98b9861c950854246318c5576a37fd</text>
<text text-anchor="middle" x="319" y="-242.3" font-family="Arial" font-size="14.00" fill="gray">HASH: 0051030ef7018e401ce31734d3766b056a2557616cab249220e419dc606b6443</text>
</g>
<!-- N1 -->
<g id="node2" class="node">
<title>N1</title>
<polygon fill="black" stroke="black" points="1336,-379.5 674,-379.5 674,-202.5 1336,-202.5 1336,-379.5"/>
<text text-anchor="middle" x="1005" y="-332.3" font-family="Arial" font-size="14.00" fill="gray">ID: 2</text>
<text text-anchor="middle" x="1005" y="-317.3" font-family="Arial" font-size="14.00" fill="gray">TIMESTAP: 04:11:22::12:41:43</text>
<text text-anchor="middle" x="1005" y="-302.3" font-family="Arial" font-size="14.00" fill="gray">NONCE: 288</text>
<text text-anchor="middle" x="1005" y="-287.3" font-family="Arial" font-size="14.00" fill="gray">DATA: </text>
<text text-anchor="middle" x="1005" y="-272.3" font-family="Arial" font-size="14.00" fill="gray">PREVIOUSHASH: 0051030ef7018e401ce31734d3766b056a2557616cab249220e419dc606b6443</text>
<text text-anchor="middle" x="1005" y="-257.3" font-family="Arial" font-size="14.00" fill="gray">ROOTMERKLE: 3eff7c5314a5ed2d5d8fdad16bbc4851cd98b9861c950854246318c5576a37fd</text>
<text text-anchor="middle" x="1005" y="-242.3" font-family="Arial" font-size="14.00" fill="gray">HASH: 008674aed58936cc57ac15751d084fbdd2158246d8752190cee7b11ef0025c56</text>
</g>
<!-- N0&#45;&gt;N1 -->
<g id="edge1" class="edge">
<title>N0&#45;&gt;N1</title>
<path fill="none" stroke="red" d="M638.47,-291C646.83,-291 655.22,-291 663.6,-291"/>
<polygon fill="red" stroke="red" points="663.82,-294.5 673.82,-291 663.82,-287.5 663.82,-294.5"/>
</g>
<!-- N2 -->
<g id="node3" class="node">
<title>N2</title>
<polygon fill="black" stroke="black" points="2028,-582 1372,-582 1372,0 2028,0 2028,-582"/>
<text text-anchor="middle" x="1700" y="-534.8" font-family="Arial" font-size="14.00" fill="gray">ID: 3</text>
<text text-anchor="middle" x="1700" y="-519.8" font-family="Arial" font-size="14.00" fill="gray">TIMESTAP: 04:11:22::12:43:45</text>
<text text-anchor="middle" x="1700" y="-504.8" font-family="Arial" font-size="14.00" fill="gray">NONCE: 401</text>
<text text-anchor="middle" x="1700" y="-489.8" font-family="Arial" font-size="14.00" fill="gray">DATA: {</text>
<text text-anchor="middle" x="1700" y="-474.8" font-family="Arial" font-size="14.00" fill="gray">FROM:0x09d05903662eB0262E086B3cc62e85eC62c05c7F</text>
<text text-anchor="middle" x="1700" y="-459.8" font-family="Arial" font-size="14.00" fill="gray">SKINS:[</text>
<text text-anchor="middle" x="1700" y="-444.8" font-family="Arial" font-size="14.00" fill="gray">{</text>
<text text-anchor="middle" x="1700" y="-429.8" font-family="Arial" font-size="14.00" fill="gray">SKIN:1384,</text>
<text text-anchor="middle" x="1700" y="-414.8" font-family="Arial" font-size="14.00" fill="gray">VALUE:39},{</text>
<text text-anchor="middle" x="1700" y="-399.8" font-family="Arial" font-size="14.00" fill="gray">SKIN:660,</text>
<text text-anchor="middle" x="1700" y="-384.8" font-family="Arial" font-size="14.00" fill="gray">VALUE:38},{</text>
<text text-anchor="middle" x="1700" y="-369.8" font-family="Arial" font-size="14.00" fill="gray">SKIN:1106,</text>
<text text-anchor="middle" x="1700" y="-354.8" font-family="Arial" font-size="14.00" fill="gray">VALUE:39},{</text>
<text text-anchor="middle" x="1700" y="-339.8" font-family="Arial" font-size="14.00" fill="gray">SKIN:1530,</text>
<text text-anchor="middle" x="1700" y="-324.8" font-family="Arial" font-size="14.00" fill="gray">VALUE:35},{</text>
<text text-anchor="middle" x="1700" y="-309.8" font-family="Arial" font-size="14.00" fill="gray">SKIN:1092,</text>
<text text-anchor="middle" x="1700" y="-294.8" font-family="Arial" font-size="14.00" fill="gray">VALUE:26},{</text>
<text text-anchor="middle" x="1700" y="-279.8" font-family="Arial" font-size="14.00" fill="gray">SKIN:887,</text>
<text text-anchor="middle" x="1700" y="-264.8" font-family="Arial" font-size="14.00" fill="gray">VALUE:36},{</text>
<text text-anchor="middle" x="1700" y="-249.8" font-family="Arial" font-size="14.00" fill="gray">SKIN:1821,</text>
<text text-anchor="middle" x="1700" y="-234.8" font-family="Arial" font-size="14.00" fill="gray">VALUE:34},{</text>
<text text-anchor="middle" x="1700" y="-219.8" font-family="Arial" font-size="14.00" fill="gray">SKIN:1791,</text>
<text text-anchor="middle" x="1700" y="-204.8" font-family="Arial" font-size="14.00" fill="gray">VALUE:36},{</text>
<text text-anchor="middle" x="1700" y="-189.8" font-family="Arial" font-size="14.00" fill="gray">SKIN:501,</text>
<text text-anchor="middle" x="1700" y="-174.8" font-family="Arial" font-size="14.00" fill="gray">VALUE:33},{</text>
<text text-anchor="middle" x="1700" y="-159.8" font-family="Arial" font-size="14.00" fill="gray">SKIN:754,</text>
<text text-anchor="middle" x="1700" y="-144.8" font-family="Arial" font-size="14.00" fill="gray">VALUE:39},{</text>
<text text-anchor="middle" x="1700" y="-129.8" font-family="Arial" font-size="14.00" fill="gray">SKIN:1384,</text>
<text text-anchor="middle" x="1700" y="-114.8" font-family="Arial" font-size="14.00" fill="gray">VALUE:39},</text>
<text text-anchor="middle" x="1700" y="-99.8" font-family="Arial" font-size="14.00" fill="gray">]</text>
<text text-anchor="middle" x="1700" y="-84.8" font-family="Arial" font-size="14.00" fill="gray">},</text>
<text text-anchor="middle" x="1700" y="-69.8" font-family="Arial" font-size="14.00" fill="gray">PREVIOUSHASH: 008674aed58936cc57ac15751d084fbdd2158246d8752190cee7b11ef0025c56</text>
<text text-anchor="middle" x="1700" y="-54.8" font-family="Arial" font-size="14.00" fill="gray">ROOTMERKLE: 7909b2d66833a116eba54dc0b8ef58b36cbebed784bdb927d464c2c273093549</text>
<text text-anchor="middle" x="1700" y="-39.8" font-family="Arial" font-size="14.00" fill="gray">HASH: 00d1a83e4b84bcee836d28f394ab66eb11bb61d8190ae6dac523af3a55ffe3cb</text>
</g>
<!-- N1&#45;&gt;N2 -->
<g id="edge2" class="edge">
<title>N1&#45;&gt;N2</title>
<path fill="none" stroke="red" d="M1336.01,-291C1344.6,-291 1353.19,-291 1361.79,-291"/>
<polygon fill="red" stroke="red" points="1361.87,-294.5 1371.87,-291 1361.87,-287.5 1361.87,-294.5"/>
</g>
<!-- N3 -->
<g id="node4" class="node">
<title>N3</title>
<polygon fill="black" stroke="black" points="2714,-379.5 2064,-379.5 2064,-202.5 2714,-202.5 2714,-379.5"/>
<text text-anchor="middle" x="2389" y="-332.3" font-family="Arial" font-size="14.00" fill="gray">ID: 4</text>
<text text-anchor="middle" x="2389" y="-317.3" font-family="Arial" font-size="14.00" fill="gray">TIMESTAP: 04:11:22::12:45:46</text>
<text text-anchor="middle" x="2389" y="-302.3" font-family="Arial" font-size="14.00" fill="gray">NONCE: 727</text>
<text text-anchor="middle" x="2389" y="-287.3" font-family="Arial" font-size="14.00" fill="gray">DATA: </text>
<text text-anchor="middle" x="2389" y="-272.3" font-family="Arial" font-size="14.00" fill="gray">PREVIOUSHASH: 00d1a83e4b84bcee836d28f394ab66eb11bb61d8190ae6dac523af3a55ffe3cb</text>
<text text-anchor="middle" x="2389" y="-257.3" font-family="Arial" font-size="14.00" fill="gray">ROOTMERKLE: 3eff7c5314a5ed2d5d8fdad16bbc4851cd98b9861c950854246318c5576a37fd</text>
<text text-anchor="middle" x="2389" y="-242.3" font-family="Arial" font-size="14.00" fill="gray">HASH: 00fbbb44b15ecfd867080afc7e437d955812fcb6218aeda8e3760d137228e42f</text>
</g>
<!-- N2&#45;&gt;N3 -->
<g id="edge3" class="edge">
<title>N2&#45;&gt;N3</title>
<path fill="none" stroke="red" d="M2028.15,-291C2036.73,-291 2045.31,-291 2053.89,-291"/>
<polygon fill="red" stroke="red" points="2053.96,-294.5 2063.96,-291 2053.96,-287.5 2053.96,-294.5"/>
</g>
<!-- N4 -->
<g id="node5" class="node">
<title>N4</title>
<polygon fill="black" stroke="black" points="3397,-379.5 2750,-379.5 2750,-202.5 3397,-202.5 3397,-379.5"/>
<text text-anchor="middle" x="3073.5" y="-332.3" font-family="Arial" font-size="14.00" fill="gray">ID: 5</text>
<text text-anchor="middle" x="3073.5" y="-317.3" font-family="Arial" font-size="14.00" fill="gray">TIMESTAP: 04:11:22::12:47:47</text>
<text text-anchor="middle" x="3073.5" y="-302.3" font-family="Arial" font-size="14.00" fill="gray">NONCE: 750</text>
<text text-anchor="middle" x="3073.5" y="-287.3" font-family="Arial" font-size="14.00" fill="gray">DATA: </text>
<text text-anchor="middle" x="3073.5" y="-272.3" font-family="Arial" font-size="14.00" fill="gray">PREVIOUSHASH: 00fbbb44b15ecfd867080afc7e437d955812fcb6218aeda8e3760d137228e42f</text>
<text text-anchor="middle" x="3073.5" y="-257.3" font-family="Arial" font-size="14.00" fill="gray">ROOTMERKLE: 3eff7c5314a5ed2d5d8fdad16bbc4851cd98b9861c950854246318c5576a37fd</text>
<text text-anchor="middle" x="3073.5" y="-242.3" font-family="Arial" font-size="14.00" fill="gray">HASH: 007a1b8d9f428861dae6ab393279595dee73661fc3f5ade044a8414ce357d994</text>
</g>
<!-- N3&#45;&gt;N4 -->
<g id="edge4" class="edge">
<title>N3&#45;&gt;N4</title>
<path fill="none" stroke="red" d="M2714.26,-291C2722.79,-291 2731.33,-291 2739.87,-291"/>
<polygon fill="red" stroke="red" points="2739.88,-294.5 2749.88,-291 2739.88,-287.5 2739.88,-294.5"/>
</g>
<!-- N5 -->
<g id="node6" class="node">
<title>N5</title>
<polygon fill="black" stroke="black" points="4088,-379.5 3433,-379.5 3433,-202.5 4088,-202.5 4088,-379.5"/>
<text text-anchor="middle" x="3760.5" y="-332.3" font-family="Arial" font-size="14.00" fill="gray">ID: 6</text>
<text text-anchor="middle" x="3760.5" y="-317.3" font-family="Arial" font-size="14.00" fill="gray">TIMESTAP: 04:11:22::12:49:49</text>
<text text-anchor="middle" x="3760.5" y="-302.3" font-family="Arial" font-size="14.00" fill="gray">NONCE: 863</text>
<text text-anchor="middle" x="3760.5" y="-287.3" font-family="Arial" font-size="14.00" fill="gray">DATA: </text>
<text text-anchor="middle" x="3760.5" y="-272.3" font-family="Arial" font-size="14.00" fill="gray">PREVIOUSHASH: 007a1b8d9f428861dae6ab393279595dee73661fc3f5ade044a8414ce357d994</text>
<text text-anchor="middle" x="3760.5" y="-257.3" font-family="Arial" font-size="14.00" fill="gray">ROOTMERKLE: 3eff7c5314a5ed2d5d8fdad16bbc4851cd98b9861c950854246318c5576a37fd</text>
<text text-anchor="middle" x="3760.5" y="-242.3" font-family="Arial" font-size="14.00" fill="gray">HASH: 00cf70a6552fa66f00900ba42c472777bab063eb563914c88f1d1bc8ed11de11</text>
</g>
<!-- N4&#45;&gt;N5 -->
<g id="edge5" class="edge">
<title>N4&#45;&gt;N5</title>
<path fill="none" stroke="red" d="M3397.19,-291C3405.73,-291 3414.29,-291 3422.84,-291"/>
<polygon fill="red" stroke="red" points="3422.87,-294.5 3432.87,-291 3422.87,-287.5 3422.87,-294.5"/>
</g>
<!-- N6 -->
<g id="node7" class="node">
<title>N6</title>
<polygon fill="black" stroke="black" points="4773,-379.5 4124,-379.5 4124,-202.5 4773,-202.5 4773,-379.5"/>
<text text-anchor="middle" x="4448.5" y="-332.3" font-family="Arial" font-size="14.00" fill="gray">ID: 7</text>
<text text-anchor="middle" x="4448.5" y="-317.3" font-family="Arial" font-size="14.00" fill="gray">TIMESTAP: 04:11:22::12:51:51</text>
<text text-anchor="middle" x="4448.5" y="-302.3" font-family="Arial" font-size="14.00" fill="gray">NONCE: 882</text>
<text text-anchor="middle" x="4448.5" y="-287.3" font-family="Arial" font-size="14.00" fill="gray">DATA: </text>
<text text-anchor="middle" x="4448.5" y="-272.3" font-family="Arial" font-size="14.00" fill="gray">PREVIOUSHASH: 00cf70a6552fa66f00900ba42c472777bab063eb563914c88f1d1bc8ed11de11</text>
<text text-anchor="middle" x="4448.5" y="-257.3" font-family="Arial" font-size="14.00" fill="gray">ROOTMERKLE: 3eff7c5314a5ed2d5d8fdad16bbc4851cd98b9861c950854246318c5576a37fd</text>
<text text-anchor="middle" x="4448.5" y="-242.3" font-family="Arial" font-size="14.00" fill="gray">HASH: 0021e75a40fe8646f4d9ff78206d80e837e6bcbf8f6a8ca833cc7dae34c0c730</text>
</g>
<!-- N5&#45;&gt;N6 -->
<g id="edge6" class="edge">
<title>N5&#45;&gt;N6</title>
<path fill="none" stroke="red" d="M4088.18,-291C4096.74,-291 4105.31,-291 4113.88,-291"/>
<polygon fill="red" stroke="red" points="4113.93,-294.5 4123.93,-291 4113.93,-287.5 4113.93,-294.5"/>
</g>
<!-- N7 -->
<g id="node8" class="node">
<title>N7</title>
<polygon fill="black" stroke="black" points="5450,-379.5 4809,-379.5 4809,-202.5 5450,-202.5 5450,-379.5"/>
<text text-anchor="middle" x="5129.5" y="-332.3" font-family="Arial" font-size="14.00" fill="gray">ID: 8</text>
<text text-anchor="middle" x="5129.5" y="-317.3" font-family="Arial" font-size="14.00" fill="gray">TIMESTAP: 04:11:22::12:53:55</text>
<text text-anchor="middle" x="5129.5" y="-302.3" font-family="Arial" font-size="14.00" fill="gray">NONCE: 938</text>
<text text-anchor="middle" x="5129.5" y="-287.3" font-family="Arial" font-size="14.00" fill="gray">DATA: </text>
<text text-anchor="middle" x="5129.5" y="-272.3" font-family="Arial" font-size="14.00" fill="gray">PREVIOUSHASH: 0021e75a40fe8646f4d9ff78206d80e837e6bcbf8f6a8ca833cc7dae34c0c730</text>
<text text-anchor="middle" x="5129.5" y="-257.3" font-family="Arial" font-size="14.00" fill="gray">ROOTMERKLE: 3eff7c5314a5ed2d5d8fdad16bbc4851cd98b9861c950854246318c5576a37fd</text>
<text text-anchor="middle" x="5129.5" y="-242.3" font-family="Arial" font-size="14.00" fill="gray">HASH: 0034ad5526491a0931cc6a26dfeb0d60302ae6d524f981a0a3f4e6b87989f60e</text>
</g>
<!-- N6&#45;&gt;N7 -->
<g id="edge7" class="edge">
<title>N6&#45;&gt;N7</title>
<path fill="none" stroke="red" d="M4773.09,-291C4781.68,-291 4790.29,-291 4798.89,-291"/>
<polygon fill="red" stroke="red" points="4798.98,-294.5 4808.98,-291 4798.98,-287.5 4798.98,-294.5"/>
</g>
<!-- N8 -->
<g id="node9" class="node">
<title>N8</title>
<polygon fill="black" stroke="black" points="6138,-379.5 5486,-379.5 5486,-202.5 6138,-202.5 6138,-379.5"/>
<text text-anchor="middle" x="5812" y="-332.3" font-family="Arial" font-size="14.00" fill="gray">ID: 9</text>
<text text-anchor="middle" x="5812" y="-317.3" font-family="Arial" font-size="14.00" fill="gray">TIMESTAP: 04:11:22::12:55:57</text>
<text text-anchor="middle" x="5812" y="-302.3" font-family="Arial" font-size="14.00" fill="gray">NONCE: 970</text>
<text text-anchor="middle" x="5812" y="-287.3" font-family="Arial" font-size="14.00" fill="gray">DATA: </text>
<text text-anchor="middle" x="5812" y="-272.3" font-family="Arial" font-size="14.00" fill="gray">PREVIOUSHASH: 0034ad5526491a0931cc6a26dfeb0d60302ae6d524f981a0a3f4e6b87989f60e</text>
<text text-anchor="middle" x="5812" y="-257.3" font-family="Arial" font-size="14.00" fill="gray">ROOTMERKLE: 3eff7c5314a5ed2d5d8fdad16bbc4851cd98b9861c950854246318c5576a37fd</text>
<text text-anchor="middle" x="5812" y="-242.3" font-family="Arial" font-size="14.00" fill="gray">HASH: 009ac6e74e24661f4d2a0b73ff018ad74ba5ebc06e42dc05b1f679380dda25e6</text>
</g>
<!-- N7&#45;&gt;N8 -->
<g id="edge8" class="edge">
<title>N7&#45;&gt;N8</title>
<path fill="none" stroke="red" d="M5450.33,-291C5458.73,-291 5467.15,-291 5475.56,-291"/>
<polygon fill="red" stroke="red" points="5475.82,-294.5 5485.82,-291 5475.82,-287.5 5475.82,-294.5"/>
</g>
<!-- N9 -->
<g id="node10" class="node">
<title>N9</title>
<polygon fill="black" stroke="black" points="6825,-379.5 6174,-379.5 6174,-202.5 6825,-202.5 6825,-379.5"/>
<text text-anchor="middle" x="6499.5" y="-332.3" font-family="Arial" font-size="14.00" fill="gray">ID: 10</text>
<text text-anchor="middle" x="6499.5" y="-317.3" font-family="Arial" font-size="14.00" fill="gray">TIMESTAP: 04:11:22::12:57:57</text>
<text text-anchor="middle" x="6499.5" y="-302.3" font-family="Arial" font-size="14.00" fill="gray">NONCE: 1059</text>
<text text-anchor="middle" x="6499.5" y="-287.3" font-family="Arial" font-size="14.00" fill="gray">DATA: </text>
<text text-anchor="middle" x="6499.5" y="-272.3" font-family="Arial" font-size="14.00" fill="gray">PREVIOUSHASH: 009ac6e74e24661f4d2a0b73ff018ad74ba5ebc06e42dc05b1f679380dda25e6</text>
<text text-anchor="middle" x="6499.5" y="-257.3" font-family="Arial" font-size="14.00" fill="gray">ROOTMERKLE: 3eff7c5314a5ed2d5d8fdad16bbc4851cd98b9861c950854246318c5576a37fd</text>
<text text-anchor="middle" x="6499.5" y="-242.3" font-family="Arial" font-size="14.00" fill="gray">HASH: 00f8a5b8e720629eefdf5c89f26559ecb7d0016f7c4286dd4a48fe56ee98d77f</text>
</g>
<!-- N8&#45;&gt;N9 -->
<g id="edge9" class="edge">
<title>N8&#45;&gt;N9</title>
<path fill="none" stroke="red" d="M6138.18,-291C6146.76,-291 6155.35,-291 6163.93,-291"/>
<polygon fill="red" stroke="red" points="6164,-294.5 6174,-291 6164,-287.5 6164,-294.5"/>
</g>
<!-- N10 -->
<g id="node11" class="node">
<title>N10</title>
<polygon fill="black" stroke="black" points="7501,-379.5 6861,-379.5 6861,-202.5 7501,-202.5 7501,-379.5"/>
<text text-anchor="middle" x="7181" y="-332.3" font-family="Arial" font-size="14.00" fill="gray">ID: 11</text>
<text text-anchor="middle" x="7181" y="-317.3" font-family="Arial" font-size="14.00" fill="gray">TIMESTAP: 04:11:22::12:59:17</text>
<text text-anchor="middle" x="7181" y="-302.3" font-family="Arial" font-size="14.00" fill="gray">NONCE: 1689</text>
<text text-anchor="middle" x="7181" y="-287.3" font-family="Arial" font-size="14.00" fill="gray">DATA: </text>
<text text-anchor="middle" x="7181" y="-272.3" font-family="Arial" font-size="14.00" fill="gray">PREVIOUSHASH: 00f8a5b8e720629eefdf5c89f26559ecb7d0016f7c4286dd4a48fe56ee98d77f</text>
<text text-anchor="middle" x="7181" y="-257.3" font-family="Arial" font-size="14.00" fill="gray">ROOTMERKLE: 3eff7c5314a5ed2d5d8fdad16bbc4851cd98b9861c950854246318c5576a37fd</text>
<text text-anchor="middle" x="7181" y="-242.3" font-family="Arial" font-size="14.00" fill="gray">HASH: 00179a4b583eae8463a4072d415aed99f7d5b1ef9c578f7093935ac14312ab85</text>
</g>
<!-- N9&#45;&gt;N10 -->
<g id="edge10" class="edge">
<title>N9&#45;&gt;N10</title>
<path fill="none" stroke="red" d="M6825.32,-291C6833.85,-291 6842.38,-291 6850.91,-291"/>
<polygon fill="red" stroke="red" points="6850.91,-294.5 6860.91,-291 6850.91,-287.5 6850.91,-294.5"/>
</g>
<!-- N11 -->
<g id="node12" class="node">
<title>N11</title>
<polygon fill="black" stroke="black" points="8192,-379.5 7537,-379.5 7537,-202.5 8192,-202.5 8192,-379.5"/>
<text text-anchor="middle" x="7864.5" y="-332.3" font-family="Arial" font-size="14.00" fill="gray">ID: 12</text>
<text text-anchor="middle" x="7864.5" y="-317.3" font-family="Arial" font-size="14.00" fill="gray">TIMESTAP: 04:11:22::12:59:19</text>
<text text-anchor="middle" x="7864.5" y="-302.3" font-family="Arial" font-size="14.00" fill="gray">NONCE: 1730</text>
<text text-anchor="middle" x="7864.5" y="-287.3" font-family="Arial" font-size="14.00" fill="gray">DATA: </text>
<text text-anchor="middle" x="7864.5" y="-272.3" font-family="Arial" font-size="14.00" fill="gray">PREVIOUSHASH: 00179a4b583eae8463a4072d415aed99f7d5b1ef9c578f7093935ac14312ab85</text>
<text text-anchor="middle" x="7864.5" y="-257.3" font-family="Arial" font-size="14.00" fill="gray">ROOTMERKLE: 3eff7c5314a5ed2d5d8fdad16bbc4851cd98b9861c950854246318c5576a37fd</text>
<text text-anchor="middle" x="7864.5" y="-242.3" font-family="Arial" font-size="14.00" fill="gray">HASH: 00799cf671c3a7fac96a5e361f4a89cc22119e80a4ea972117306f6d90dfb164</text>
</g>
<!-- N10&#45;&gt;N11 -->
<g id="edge11" class="edge">
<title>N10&#45;&gt;N11</title>
<path fill="none" stroke="red" d="M7501.3,-291C7509.82,-291 7518.36,-291 7526.89,-291"/>
<polygon fill="red" stroke="red" points="7526.91,-294.5 7536.91,-291 7526.91,-287.5 7526.91,-294.5"/>
</g>
<!-- N12 -->
<g id="node13" class="node">
<title>N12</title>
<polygon fill="black" stroke="black" points="8872,-379.5 8228,-379.5 8228,-202.5 8872,-202.5 8872,-379.5"/>
<text text-anchor="middle" x="8550" y="-332.3" font-family="Arial" font-size="14.00" fill="gray">ID: 13</text>
<text text-anchor="middle" x="8550" y="-317.3" font-family="Arial" font-size="14.00" fill="gray">TIMESTAP: 04:11:22::12:59:20</text>
<text text-anchor="middle" x="8550" y="-302.3" font-family="Arial" font-size="14.00" fill="gray">NONCE: 1993</text>
<text text-anchor="middle" x="8550" y="-287.3" font-family="Arial" font-size="14.00" fill="gray">DATA: </text>
<text text-anchor="middle" x="8550" y="-272.3" font-family="Arial" font-size="14.00" fill="gray">PREVIOUSHASH: 00799cf671c3a7fac96a5e361f4a89cc22119e80a4ea972117306f6d90dfb164</text>
<text text-anchor="middle" x="8550" y="-257.3" font-family="Arial" font-size="14.00" fill="gray">ROOTMERKLE: 3eff7c5314a5ed2d5d8fdad16bbc4851cd98b9861c950854246318c5576a37fd</text>
<text text-anchor="middle" x="8550" y="-242.3" font-family="Arial" font-size="14.00" fill="gray">HASH: 0011802ea6d4f200f6d98ca9c1f8033e0fc1203cfefa39002aaa1046dd962f74</text>
</g>
<!-- N11&#45;&gt;N12 -->
<g id="edge12" class="edge">
<title>N11&#45;&gt;N12</title>
<path fill="none" stroke="red" d="M8192.24,-291C8200.65,-291 8209.08,-291 8217.51,-291"/>
<polygon fill="red" stroke="red" points="8217.77,-294.5 8227.77,-291 8217.77,-287.5 8217.77,-294.5"/>
</g>
</g>
</svg>
