<?xml version="1.0" encoding="UTF-8" standalone="no"?>
<!DOCTYPE svg PUBLIC "-//W3C//DTD SVG 1.1//EN"
 "http://www.w3.org/Graphics/SVG/1.1/DTD/svg11.dtd">
<!-- Generated by graphviz version 2.43.0 (0)
 -->
<!-- Title: G Pages: 1 -->
<svg width="246pt" height="320pt"
 viewBox="0.00 0.00 246.00 320.00" xmlns="http://www.w3.org/2000/svg" xmlns:xlink="http://www.w3.org/1999/xlink">
<g id="graph0" class="graph" transform="scale(1 1) rotate(0) translate(4 316)">
<title>G</title>
<polygon fill="white" stroke="transparent" points="-4,4 -4,-316 242,-316 242,4 -4,4"/>
<!-- arset -->
<g id="node1" class="node">
<title>arset</title>
<polygon fill="none" stroke="gray" points="11,-282 11,-305 81,-305 81,-282 11,-282"/>
<text text-anchor="start" x="14" y="-291" font-family="Times,serif" font-weight="bold" font-size="15.00" fill="blue">INDICE</text>
<polygon fill="none" stroke="gray" points="83,-282 83,-305 129,-305 129,-282 83,-282"/>
<text text-anchor="start" x="96" y="-291" font-family="Times,serif" font-weight="bold" font-size="15.00" fill="blue">ID</text>
<polygon fill="none" stroke="gray" points="131,-282 131,-305 227,-305 227,-282 131,-282"/>
<text text-anchor="start" x="139" y="-291" font-family="Times,serif" font-weight="bold" font-size="15.00" fill="blue">NOMBRE</text>
<polygon fill="none" stroke="gray" points="11,-257 11,-280 81,-280 81,-257 11,-257"/>
<text text-anchor="start" x="36" y="-265" font-family="Times,serif" font-size="15.00" fill="blue">43</text>
<polygon fill="none" stroke="gray" points="83,-257 83,-280 129,-280 129,-257 83,-257"/>
<text text-anchor="start" x="86" y="-265" font-family="Times,serif" font-size="15.00" fill="blue">1194</text>
<polygon fill="none" stroke="gray" points="131,-257 131,-280 227,-280 227,-257 131,-257"/>
<text text-anchor="start" x="144" y="-265" font-family="Times,serif" font-size="15.00" fill="blue">Whitfield</text>
<polygon fill="none" stroke="gray" points="11,-232 11,-255 81,-255 81,-232 11,-232"/>
<text text-anchor="start" x="36" y="-240" font-family="Times,serif" font-size="15.00" fill="blue">44</text>
<polygon fill="none" stroke="gray" points="83,-232 83,-255 129,-255 129,-232 83,-232"/>
<text text-anchor="start" x="91" y="-240" font-family="Times,serif" font-size="15.00" fill="blue">989</text>
<polygon fill="none" stroke="gray" points="131,-232 131,-255 227,-255 227,-232 131,-232"/>
<text text-anchor="start" x="156" y="-240" font-family="Times,serif" font-size="15.00" fill="blue">James</text>
<polygon fill="none" stroke="gray" points="11,-207 11,-230 81,-230 81,-207 11,-207"/>
<text text-anchor="start" x="36" y="-215" font-family="Times,serif" font-size="15.00" fill="blue">45</text>
<polygon fill="none" stroke="gray" points="83,-207 83,-230 129,-230 129,-207 83,-207"/>
<text text-anchor="start" x="86" y="-215" font-family="Times,serif" font-size="15.00" fill="blue">1923</text>
<polygon fill="none" stroke="gray" points="131,-207 131,-230 227,-230 227,-207 131,-207"/>
<text text-anchor="start" x="142.5" y="-215" font-family="Times,serif" font-size="15.00" fill="blue">Summers</text>
<polygon fill="none" stroke="gray" points="11,-182 11,-205 81,-205 81,-182 11,-182"/>
<text text-anchor="start" x="36" y="-190" font-family="Times,serif" font-size="15.00" fill="blue">46</text>
<polygon fill="none" stroke="gray" points="83,-182 83,-205 129,-205 129,-182 83,-182"/>
<text text-anchor="start" x="86" y="-190" font-family="Times,serif" font-size="15.00" fill="blue">1893</text>
<polygon fill="none" stroke="gray" points="131,-182 131,-205 227,-205 227,-182 131,-182"/>
<text text-anchor="start" x="148.5" y="-190" font-family="Times,serif" font-size="15.00" fill="blue">Leblanc</text>
<polygon fill="none" stroke="gray" points="11,-157 11,-180 81,-180 81,-157 11,-157"/>
<text text-anchor="start" x="36" y="-165" font-family="Times,serif" font-size="15.00" fill="blue">47</text>
<polygon fill="none" stroke="gray" points="83,-157 83,-180 129,-180 129,-157 83,-157"/>
<text text-anchor="start" x="91" y="-165" font-family="Times,serif" font-size="15.00" fill="blue">603</text>
<polygon fill="none" stroke="gray" points="131,-157 131,-180 227,-180 227,-157 131,-157"/>
<text text-anchor="start" x="149.5" y="-165" font-family="Times,serif" font-size="15.00" fill="blue">Barnett</text>
<polygon fill="none" stroke="gray" points="11,-132 11,-155 81,-155 81,-132 11,-132"/>
<text text-anchor="start" x="36" y="-140" font-family="Times,serif" font-size="15.00" fill="blue">48</text>
<polygon fill="none" stroke="gray" points="83,-132 83,-155 129,-155 129,-132 83,-132"/>
<text text-anchor="start" x="91" y="-140" font-family="Times,serif" font-size="15.00" fill="blue">856</text>
<polygon fill="none" stroke="gray" points="131,-132 131,-155 227,-155 227,-132 131,-132"/>
<text text-anchor="start" x="162" y="-140" font-family="Times,serif" font-size="15.00" fill="blue">Rice</text>
<polygon fill="none" stroke="gray" points="11,-107 11,-130 81,-130 81,-107 11,-107"/>
<text text-anchor="start" x="36" y="-115" font-family="Times,serif" font-size="15.00" fill="blue">49</text>
<polygon fill="none" stroke="gray" points="83,-107 83,-130 129,-130 129,-107 83,-107"/>
<text text-anchor="start" x="86" y="-115" font-family="Times,serif" font-size="15.00" fill="blue">1486</text>
<polygon fill="none" stroke="gray" points="131,-107 131,-130 227,-130 227,-107 131,-107"/>
<text text-anchor="start" x="149.5" y="-115" font-family="Times,serif" font-size="15.00" fill="blue">Charles</text>
<polygon fill="none" stroke="gray" points="11,-82 11,-105 81,-105 81,-82 11,-82"/>
<text text-anchor="start" x="36" y="-90" font-family="Times,serif" font-size="15.00" fill="blue">50</text>
<polygon fill="none" stroke="gray" points="83,-82 83,-105 129,-105 129,-82 83,-82"/>
<text text-anchor="start" x="86" y="-90" font-family="Times,serif" font-size="15.00" fill="blue">1486</text>
<polygon fill="none" stroke="gray" points="131,-82 131,-105 227,-105 227,-82 131,-82"/>
<text text-anchor="start" x="149.5" y="-90" font-family="Times,serif" font-size="15.00" fill="blue">Charles</text>
<polygon fill="none" stroke="gray" points="11,-57 11,-80 81,-80 81,-57 11,-57"/>
<text text-anchor="start" x="36" y="-65" font-family="Times,serif" font-size="15.00" fill="blue">51</text>
<polygon fill="none" stroke="gray" points="83,-57 83,-80 129,-80 129,-57 83,-57"/>
<text text-anchor="start" x="91" y="-65" font-family="Times,serif" font-size="15.00" fill="blue">762</text>
<polygon fill="none" stroke="gray" points="131,-57 131,-80 227,-80 227,-57 131,-57"/>
<text text-anchor="start" x="154" y="-65" font-family="Times,serif" font-size="15.00" fill="blue">Joyner</text>
<polygon fill="none" stroke="gray" points="11,-32 11,-55 81,-55 81,-32 11,-32"/>
<text text-anchor="start" x="36" y="-40" font-family="Times,serif" font-size="15.00" fill="blue">52</text>
<polygon fill="none" stroke="gray" points="83,-32 83,-55 129,-55 129,-32 83,-32"/>
<text text-anchor="start" x="86" y="-40" font-family="Times,serif" font-size="15.00" fill="blue">1208</text>
<polygon fill="none" stroke="gray" points="131,-32 131,-55 227,-55 227,-32 131,-32"/>
<text text-anchor="start" x="160.5" y="-40" font-family="Times,serif" font-size="15.00" fill="blue">Mills</text>
<polygon fill="none" stroke="gray" points="11,-7 11,-30 81,-30 81,-7 11,-7"/>
<text text-anchor="start" x="36" y="-15" font-family="Times,serif" font-size="15.00" fill="blue">53</text>
<polygon fill="none" stroke="gray" points="83,-7 83,-30 129,-30 129,-7 83,-7"/>
<text text-anchor="start" x="86" y="-15" font-family="Times,serif" font-size="15.00" fill="blue">1632</text>
<polygon fill="none" stroke="gray" points="131,-7 131,-30 227,-30 227,-7 131,-7"/>
<text text-anchor="start" x="134" y="-15" font-family="Times,serif" font-size="15.00" fill="blue">Washington</text>
<polygon fill="none" stroke="gray" points="8,-4 8,-308 230,-308 230,-4 8,-4"/>
</g>
</g>
</svg>
