<?xml version="1.0" encoding="UTF-8" standalone="no"?>
<!DOCTYPE svg PUBLIC "-//W3C//DTD SVG 1.1//EN"
 "http://www.w3.org/Graphics/SVG/1.1/DTD/svg11.dtd">
<!-- Generated by graphviz version 2.43.0 (0)
 -->
<!-- Title: G Pages: 1 -->
<svg width="548pt" height="656pt"
 viewBox="0.00 0.00 548.00 656.00" xmlns="http://www.w3.org/2000/svg" xmlns:xlink="http://www.w3.org/1999/xlink">
<g id="graph0" class="graph" transform="scale(1 1) rotate(0) translate(4 652)">
<title>G</title>
<polygon fill="transparent" stroke="transparent" points="-4,4 -4,-652 544,-652 544,4 -4,4"/>
<text text-anchor="middle" x="270" y="-12" font-family="Arial Black" font-size="25.00">Tablero</text>
<!-- raiz -->
<g id="node1" class="node">
<title>raiz</title>
<polygon fill="black" stroke="black" points="36,-648 0,-648 0,-612 36,-612 36,-648"/>
</g>
<!-- y1 -->
<g id="node2" class="node">
<title>y1</title>
<polygon fill="black" stroke="black" points="36,-576 0,-576 0,-540 36,-540 36,-576"/>
<text text-anchor="middle" x="18" y="-554.3" font-family="Arial" font-size="14.00" fill="white">1</text>
</g>
<!-- raiz&#45;&gt;y1 -->
<g id="edge8" class="edge">
<title>raiz&#45;&gt;y1</title>
<path fill="none" stroke="red" d="M18,-601.57C18,-596.68 18,-591.59 18,-586.69"/>
<polygon fill="red" stroke="red" points="14.5,-601.83 18,-611.83 21.5,-601.83 14.5,-601.83"/>
<polygon fill="red" stroke="red" points="21.5,-586.41 18,-576.41 14.5,-586.41 21.5,-586.41"/>
</g>
<!-- x1 -->
<g id="node10" class="node">
<title>x1</title>
<polygon fill="black" stroke="black" points="108,-648 72,-648 72,-612 108,-612 108,-648"/>
<text text-anchor="middle" x="90" y="-626.3" font-family="Arial" font-size="14.00" fill="white">1</text>
</g>
<!-- raiz&#45;&gt;x1 -->
<g id="edge15" class="edge">
<title>raiz&#45;&gt;x1</title>
<path fill="none" stroke="red" d="M46.43,-630C51.32,-630 56.41,-630 61.31,-630"/>
<polygon fill="red" stroke="red" points="46.17,-626.5 36.17,-630 46.17,-633.5 46.17,-626.5"/>
<polygon fill="red" stroke="red" points="61.59,-633.5 71.59,-630 61.59,-626.5 61.59,-633.5"/>
</g>
<!-- y5 -->
<g id="node3" class="node">
<title>y5</title>
<polygon fill="black" stroke="black" points="36,-504 0,-504 0,-468 36,-468 36,-504"/>
<text text-anchor="middle" x="18" y="-482.3" font-family="Arial" font-size="14.00" fill="white">5</text>
</g>
<!-- y1&#45;&gt;y5 -->
<g id="edge1" class="edge">
<title>y1&#45;&gt;y5</title>
<path fill="none" stroke="red" d="M18,-529.57C18,-524.68 18,-519.59 18,-514.69"/>
<polygon fill="red" stroke="red" points="14.5,-529.83 18,-539.83 21.5,-529.83 14.5,-529.83"/>
<polygon fill="red" stroke="red" points="21.5,-514.41 18,-504.41 14.5,-514.41 21.5,-514.41"/>
</g>
<!-- i1_1 -->
<g id="node17" class="node">
<title>i1_1</title>
<polygon fill="gray" stroke="white" points="108,-576 72,-576 72,-540 108,-540 108,-576"/>
<text text-anchor="middle" x="90" y="-554.3" font-family="Arial" font-size="14.00">D</text>
</g>
<!-- y1&#45;&gt;i1_1 -->
<g id="edge16" class="edge">
<title>y1&#45;&gt;i1_1</title>
<path fill="none" stroke="red" d="M46.43,-558C51.32,-558 56.41,-558 61.31,-558"/>
<polygon fill="red" stroke="red" points="46.17,-554.5 36.17,-558 46.17,-561.5 46.17,-554.5"/>
<polygon fill="red" stroke="red" points="61.59,-561.5 71.59,-558 61.59,-554.5 61.59,-561.5"/>
</g>
<!-- y6 -->
<g id="node4" class="node">
<title>y6</title>
<polygon fill="black" stroke="black" points="36,-432 0,-432 0,-396 36,-396 36,-432"/>
<text text-anchor="middle" x="18" y="-410.3" font-family="Arial" font-size="14.00" fill="white">6</text>
</g>
<!-- y5&#45;&gt;y6 -->
<g id="edge2" class="edge">
<title>y5&#45;&gt;y6</title>
<path fill="none" stroke="red" d="M18,-457.57C18,-452.68 18,-447.59 18,-442.69"/>
<polygon fill="red" stroke="red" points="14.5,-457.83 18,-467.83 21.5,-457.83 14.5,-457.83"/>
<polygon fill="red" stroke="red" points="21.5,-442.41 18,-432.41 14.5,-442.41 21.5,-442.41"/>
</g>
<!-- i5_5 -->
<g id="node18" class="node">
<title>i5_5</title>
<polygon fill="gray" stroke="white" points="396,-504 360,-504 360,-468 396,-468 396,-504"/>
<text text-anchor="middle" x="378" y="-482.3" font-family="Arial" font-size="14.00">D</text>
</g>
<!-- y5&#45;&gt;i5_5 -->
<g id="edge17" class="edge">
<title>y5&#45;&gt;i5_5</title>
<path fill="none" stroke="red" d="M46.35,-486C113.55,-486 281.94,-486 349.4,-486"/>
<polygon fill="red" stroke="red" points="46.35,-482.5 36.35,-486 46.35,-489.5 46.35,-482.5"/>
<polygon fill="red" stroke="red" points="349.69,-489.5 359.69,-486 349.69,-482.5 349.69,-489.5"/>
</g>
<!-- y7 -->
<g id="node5" class="node">
<title>y7</title>
<polygon fill="black" stroke="black" points="36,-360 0,-360 0,-324 36,-324 36,-360"/>
<text text-anchor="middle" x="18" y="-338.3" font-family="Arial" font-size="14.00" fill="white">7</text>
</g>
<!-- y6&#45;&gt;y7 -->
<g id="edge3" class="edge">
<title>y6&#45;&gt;y7</title>
<path fill="none" stroke="red" d="M18,-385.57C18,-380.68 18,-375.59 18,-370.69"/>
<polygon fill="red" stroke="red" points="14.5,-385.83 18,-395.83 21.5,-385.83 14.5,-385.83"/>
<polygon fill="red" stroke="red" points="21.5,-370.41 18,-360.41 14.5,-370.41 21.5,-370.41"/>
</g>
<!-- i6_5 -->
<g id="node19" class="node">
<title>i6_5</title>
<polygon fill="gray" stroke="white" points="396,-432 360,-432 360,-396 396,-396 396,-432"/>
<text text-anchor="middle" x="378" y="-410.3" font-family="Arial" font-size="14.00">D</text>
</g>
<!-- y6&#45;&gt;i6_5 -->
<g id="edge18" class="edge">
<title>y6&#45;&gt;i6_5</title>
<path fill="none" stroke="red" d="M46.35,-414C113.55,-414 281.94,-414 349.4,-414"/>
<polygon fill="red" stroke="red" points="46.35,-410.5 36.35,-414 46.35,-417.5 46.35,-410.5"/>
<polygon fill="red" stroke="red" points="349.69,-417.5 359.69,-414 349.69,-410.5 349.69,-417.5"/>
</g>
<!-- y8 -->
<g id="node6" class="node">
<title>y8</title>
<polygon fill="black" stroke="black" points="36,-288 0,-288 0,-252 36,-252 36,-288"/>
<text text-anchor="middle" x="18" y="-266.3" font-family="Arial" font-size="14.00" fill="white">8</text>
</g>
<!-- y7&#45;&gt;y8 -->
<g id="edge4" class="edge">
<title>y7&#45;&gt;y8</title>
<path fill="none" stroke="red" d="M18,-313.57C18,-308.68 18,-303.59 18,-298.69"/>
<polygon fill="red" stroke="red" points="14.5,-313.83 18,-323.83 21.5,-313.83 14.5,-313.83"/>
<polygon fill="red" stroke="red" points="21.5,-298.41 18,-288.41 14.5,-298.41 21.5,-298.41"/>
</g>
<!-- i7_5 -->
<g id="node20" class="node">
<title>i7_5</title>
<polygon fill="gray" stroke="white" points="396,-360 360,-360 360,-324 396,-324 396,-360"/>
<text text-anchor="middle" x="378" y="-338.3" font-family="Arial" font-size="14.00">B</text>
</g>
<!-- y7&#45;&gt;i7_5 -->
<g id="edge19" class="edge">
<title>y7&#45;&gt;i7_5</title>
<path fill="none" stroke="red" d="M46.35,-342C113.55,-342 281.94,-342 349.4,-342"/>
<polygon fill="red" stroke="red" points="46.35,-338.5 36.35,-342 46.35,-345.5 46.35,-338.5"/>
<polygon fill="red" stroke="red" points="349.69,-345.5 359.69,-342 349.69,-338.5 349.69,-345.5"/>
</g>
<!-- y25 -->
<g id="node7" class="node">
<title>y25</title>
<polygon fill="black" stroke="black" points="36,-216 0,-216 0,-180 36,-180 36,-216"/>
<text text-anchor="middle" x="18" y="-194.3" font-family="Arial" font-size="14.00" fill="white">25</text>
</g>
<!-- y8&#45;&gt;y25 -->
<g id="edge5" class="edge">
<title>y8&#45;&gt;y25</title>
<path fill="none" stroke="red" d="M18,-241.57C18,-236.68 18,-231.59 18,-226.69"/>
<polygon fill="red" stroke="red" points="14.5,-241.83 18,-251.83 21.5,-241.83 14.5,-241.83"/>
<polygon fill="red" stroke="red" points="21.5,-226.41 18,-216.41 14.5,-226.41 21.5,-226.41"/>
</g>
<!-- i8_1 -->
<g id="node21" class="node">
<title>i8_1</title>
<polygon fill="gray" stroke="white" points="108,-288 72,-288 72,-252 108,-252 108,-288"/>
<text text-anchor="middle" x="90" y="-266.3" font-family="Arial" font-size="14.00">B</text>
</g>
<!-- y8&#45;&gt;i8_1 -->
<g id="edge23" class="edge">
<title>y8&#45;&gt;i8_1</title>
<path fill="none" stroke="red" d="M46.43,-270C51.32,-270 56.41,-270 61.31,-270"/>
<polygon fill="red" stroke="red" points="46.17,-266.5 36.17,-270 46.17,-273.5 46.17,-266.5"/>
<polygon fill="red" stroke="red" points="61.59,-273.5 71.59,-270 61.59,-266.5 61.59,-273.5"/>
</g>
<!-- y26 -->
<g id="node8" class="node">
<title>y26</title>
<polygon fill="black" stroke="black" points="36,-144 0,-144 0,-108 36,-108 36,-144"/>
<text text-anchor="middle" x="18" y="-122.3" font-family="Arial" font-size="14.00" fill="white">26</text>
</g>
<!-- y25&#45;&gt;y26 -->
<g id="edge6" class="edge">
<title>y25&#45;&gt;y26</title>
<path fill="none" stroke="red" d="M18,-169.57C18,-164.68 18,-159.59 18,-154.69"/>
<polygon fill="red" stroke="red" points="14.5,-169.83 18,-179.83 21.5,-169.83 14.5,-169.83"/>
<polygon fill="red" stroke="red" points="21.5,-154.41 18,-144.41 14.5,-154.41 21.5,-154.41"/>
</g>
<!-- i25_4 -->
<g id="node25" class="node">
<title>i25_4</title>
<polygon fill="gray" stroke="white" points="324,-216 288,-216 288,-180 324,-180 324,-216"/>
<text text-anchor="middle" x="306" y="-194.3" font-family="Arial" font-size="14.00">X</text>
</g>
<!-- y25&#45;&gt;i25_4 -->
<g id="edge24" class="edge">
<title>y25&#45;&gt;i25_4</title>
<path fill="none" stroke="red" d="M46.07,-198C101.14,-198 222.79,-198 277.9,-198"/>
<polygon fill="red" stroke="red" points="46.02,-194.5 36.02,-198 46.02,-201.5 46.02,-194.5"/>
<polygon fill="red" stroke="red" points="277.99,-201.5 287.99,-198 277.99,-194.5 277.99,-201.5"/>
</g>
<!-- y40 -->
<g id="node9" class="node">
<title>y40</title>
<polygon fill="black" stroke="black" points="36,-72 0,-72 0,-36 36,-36 36,-72"/>
<text text-anchor="middle" x="18" y="-50.3" font-family="Arial" font-size="14.00" fill="white">40</text>
</g>
<!-- y26&#45;&gt;y40 -->
<g id="edge7" class="edge">
<title>y26&#45;&gt;y40</title>
<path fill="none" stroke="red" d="M18,-97.57C18,-92.68 18,-87.59 18,-82.69"/>
<polygon fill="red" stroke="red" points="14.5,-97.83 18,-107.83 21.5,-97.83 14.5,-97.83"/>
<polygon fill="red" stroke="red" points="21.5,-82.41 18,-72.41 14.5,-82.41 21.5,-82.41"/>
</g>
<!-- i26_26 -->
<g id="node26" class="node">
<title>i26_26</title>
<polygon fill="gray" stroke="white" points="468,-144 432,-144 432,-108 468,-108 468,-144"/>
<text text-anchor="middle" x="450" y="-122.3" font-family="Arial" font-size="14.00">X</text>
</g>
<!-- y26&#45;&gt;i26_26 -->
<g id="edge25" class="edge">
<title>y26&#45;&gt;i26_26</title>
<path fill="none" stroke="red" d="M46.06,-126C124.19,-126 343.59,-126 421.84,-126"/>
<polygon fill="red" stroke="red" points="46.01,-122.5 36.01,-126 46.01,-129.5 46.01,-122.5"/>
<polygon fill="red" stroke="red" points="421.91,-129.5 431.91,-126 421.91,-122.5 421.91,-129.5"/>
</g>
<!-- i40_40 -->
<g id="node27" class="node">
<title>i40_40</title>
<polygon fill="gray" stroke="white" points="540,-72 504,-72 504,-36 540,-36 540,-72"/>
<text text-anchor="middle" x="522" y="-50.3" font-family="Arial" font-size="14.00">B</text>
</g>
<!-- y40&#45;&gt;i40_40 -->
<g id="edge26" class="edge">
<title>y40&#45;&gt;i40_40</title>
<path fill="none" stroke="red" d="M46.49,-54C135.13,-54 405.34,-54 493.71,-54"/>
<polygon fill="red" stroke="red" points="46.24,-50.5 36.24,-54 46.24,-57.5 46.24,-50.5"/>
<polygon fill="red" stroke="red" points="493.79,-57.5 503.79,-54 493.79,-50.5 493.79,-57.5"/>
</g>
<!-- x2 -->
<g id="node11" class="node">
<title>x2</title>
<polygon fill="black" stroke="black" points="180,-648 144,-648 144,-612 180,-612 180,-648"/>
<text text-anchor="middle" x="162" y="-626.3" font-family="Arial" font-size="14.00" fill="white">2</text>
</g>
<!-- x1&#45;&gt;x2 -->
<g id="edge9" class="edge">
<title>x1&#45;&gt;x2</title>
<path fill="none" stroke="red" d="M118.43,-630C123.32,-630 128.41,-630 133.31,-630"/>
<polygon fill="red" stroke="red" points="118.17,-626.5 108.17,-630 118.17,-633.5 118.17,-626.5"/>
<polygon fill="red" stroke="red" points="133.59,-633.5 143.59,-630 133.59,-626.5 133.59,-633.5"/>
</g>
<!-- x1&#45;&gt;i1_1 -->
<g id="edge28" class="edge">
<title>x1&#45;&gt;i1_1</title>
<path fill="none" stroke="red" d="M90,-601.57C90,-596.68 90,-591.59 90,-586.69"/>
<polygon fill="red" stroke="red" points="86.5,-601.83 90,-611.83 93.5,-601.83 86.5,-601.83"/>
<polygon fill="red" stroke="red" points="93.5,-586.41 90,-576.41 86.5,-586.41 93.5,-586.41"/>
</g>
<!-- x3 -->
<g id="node12" class="node">
<title>x3</title>
<polygon fill="black" stroke="black" points="252,-648 216,-648 216,-612 252,-612 252,-648"/>
<text text-anchor="middle" x="234" y="-626.3" font-family="Arial" font-size="14.00" fill="white">3</text>
</g>
<!-- x2&#45;&gt;x3 -->
<g id="edge10" class="edge">
<title>x2&#45;&gt;x3</title>
<path fill="none" stroke="red" d="M190.43,-630C195.32,-630 200.41,-630 205.31,-630"/>
<polygon fill="red" stroke="red" points="190.17,-626.5 180.17,-630 190.17,-633.5 190.17,-626.5"/>
<polygon fill="red" stroke="red" points="205.59,-633.5 215.59,-630 205.59,-626.5 205.59,-633.5"/>
</g>
<!-- i8_2 -->
<g id="node22" class="node">
<title>i8_2</title>
<polygon fill="gray" stroke="white" points="180,-288 144,-288 144,-252 180,-252 180,-288"/>
<text text-anchor="middle" x="162" y="-266.3" font-family="Arial" font-size="14.00">B</text>
</g>
<!-- x2&#45;&gt;i8_2 -->
<g id="edge29" class="edge">
<title>x2&#45;&gt;i8_2</title>
<path fill="none" stroke="red" d="M162,-601.65C162,-534.45 162,-366.06 162,-298.6"/>
<polygon fill="red" stroke="red" points="158.5,-601.65 162,-611.65 165.5,-601.65 158.5,-601.65"/>
<polygon fill="red" stroke="red" points="165.5,-298.31 162,-288.31 158.5,-298.31 165.5,-298.31"/>
</g>
<!-- x4 -->
<g id="node13" class="node">
<title>x4</title>
<polygon fill="black" stroke="black" points="324,-648 288,-648 288,-612 324,-612 324,-648"/>
<text text-anchor="middle" x="306" y="-626.3" font-family="Arial" font-size="14.00" fill="white">4</text>
</g>
<!-- x3&#45;&gt;x4 -->
<g id="edge11" class="edge">
<title>x3&#45;&gt;x4</title>
<path fill="none" stroke="red" d="M262.43,-630C267.32,-630 272.41,-630 277.31,-630"/>
<polygon fill="red" stroke="red" points="262.17,-626.5 252.17,-630 262.17,-633.5 262.17,-626.5"/>
<polygon fill="red" stroke="red" points="277.59,-633.5 287.59,-630 277.59,-626.5 277.59,-633.5"/>
</g>
<!-- i8_3 -->
<g id="node23" class="node">
<title>i8_3</title>
<polygon fill="gray" stroke="white" points="252,-288 216,-288 216,-252 252,-252 252,-288"/>
<text text-anchor="middle" x="234" y="-266.3" font-family="Arial" font-size="14.00">A</text>
</g>
<!-- x3&#45;&gt;i8_3 -->
<g id="edge30" class="edge">
<title>x3&#45;&gt;i8_3</title>
<path fill="none" stroke="red" d="M234,-601.65C234,-534.45 234,-366.06 234,-298.6"/>
<polygon fill="red" stroke="red" points="230.5,-601.65 234,-611.65 237.5,-601.65 230.5,-601.65"/>
<polygon fill="red" stroke="red" points="237.5,-298.31 234,-288.31 230.5,-298.31 237.5,-298.31"/>
</g>
<!-- x5 -->
<g id="node14" class="node">
<title>x5</title>
<polygon fill="black" stroke="black" points="396,-648 360,-648 360,-612 396,-612 396,-648"/>
<text text-anchor="middle" x="378" y="-626.3" font-family="Arial" font-size="14.00" fill="white">5</text>
</g>
<!-- x4&#45;&gt;x5 -->
<g id="edge12" class="edge">
<title>x4&#45;&gt;x5</title>
<path fill="none" stroke="red" d="M334.43,-630C339.32,-630 344.41,-630 349.31,-630"/>
<polygon fill="red" stroke="red" points="334.17,-626.5 324.17,-630 334.17,-633.5 334.17,-626.5"/>
<polygon fill="red" stroke="red" points="349.59,-633.5 359.59,-630 349.59,-626.5 349.59,-633.5"/>
</g>
<!-- x4&#45;&gt;i25_4 -->
<g id="edge31" class="edge">
<title>x4&#45;&gt;i25_4</title>
<path fill="none" stroke="red" d="M306,-601.94C306,-523.81 306,-304.41 306,-226.16"/>
<polygon fill="red" stroke="red" points="302.5,-601.99 306,-611.99 309.5,-601.99 302.5,-601.99"/>
<polygon fill="red" stroke="red" points="309.5,-226.09 306,-216.09 302.5,-226.09 309.5,-226.09"/>
</g>
<!-- x26 -->
<g id="node15" class="node">
<title>x26</title>
<polygon fill="black" stroke="black" points="468,-648 432,-648 432,-612 468,-612 468,-648"/>
<text text-anchor="middle" x="450" y="-626.3" font-family="Arial" font-size="14.00" fill="white">26</text>
</g>
<!-- x5&#45;&gt;x26 -->
<g id="edge13" class="edge">
<title>x5&#45;&gt;x26</title>
<path fill="none" stroke="red" d="M406.43,-630C411.32,-630 416.41,-630 421.31,-630"/>
<polygon fill="red" stroke="red" points="406.17,-626.5 396.17,-630 406.17,-633.5 406.17,-626.5"/>
<polygon fill="red" stroke="red" points="421.59,-633.5 431.59,-630 421.59,-626.5 421.59,-633.5"/>
</g>
<!-- x5&#45;&gt;i5_5 -->
<g id="edge35" class="edge">
<title>x5&#45;&gt;i5_5</title>
<path fill="none" stroke="red" d="M378,-601.47C378,-576.14 378,-539.32 378,-514.12"/>
<polygon fill="red" stroke="red" points="374.5,-601.76 378,-611.76 381.5,-601.76 374.5,-601.76"/>
<polygon fill="red" stroke="red" points="381.5,-514.09 378,-504.09 374.5,-514.09 381.5,-514.09"/>
</g>
<!-- x40 -->
<g id="node16" class="node">
<title>x40</title>
<polygon fill="black" stroke="black" points="540,-648 504,-648 504,-612 540,-612 540,-648"/>
<text text-anchor="middle" x="522" y="-626.3" font-family="Arial" font-size="14.00" fill="white">40</text>
</g>
<!-- x26&#45;&gt;x40 -->
<g id="edge14" class="edge">
<title>x26&#45;&gt;x40</title>
<path fill="none" stroke="red" d="M478.43,-630C483.32,-630 488.41,-630 493.31,-630"/>
<polygon fill="red" stroke="red" points="478.17,-626.5 468.17,-630 478.17,-633.5 478.17,-626.5"/>
<polygon fill="red" stroke="red" points="493.59,-633.5 503.59,-630 493.59,-626.5 493.59,-633.5"/>
</g>
<!-- x26&#45;&gt;i26_26 -->
<g id="edge36" class="edge">
<title>x26&#45;&gt;i26_26</title>
<path fill="none" stroke="red" d="M450,-601.51C450,-512.87 450,-242.66 450,-154.29"/>
<polygon fill="red" stroke="red" points="446.5,-601.76 450,-611.76 453.5,-601.76 446.5,-601.76"/>
<polygon fill="red" stroke="red" points="453.5,-154.21 450,-144.21 446.5,-154.21 453.5,-154.21"/>
</g>
<!-- x40&#45;&gt;i40_40 -->
<g id="edge37" class="edge">
<title>x40&#45;&gt;i40_40</title>
<path fill="none" stroke="red" d="M522,-601.7C522,-503.77 522,-180.01 522,-82.22"/>
<polygon fill="red" stroke="red" points="518.5,-601.81 522,-611.81 525.5,-601.81 518.5,-601.81"/>
<polygon fill="red" stroke="red" points="525.5,-82.19 522,-72.19 518.5,-82.19 525.5,-82.19"/>
</g>
<!-- i1_1&#45;&gt;i8_1 -->
<g id="edge27" class="edge">
<title>i1_1&#45;&gt;i8_1</title>
<path fill="none" stroke="red" d="M90,-529.93C90,-474.86 90,-353.21 90,-298.1"/>
<polygon fill="red" stroke="red" points="86.5,-529.98 90,-539.98 93.5,-529.98 86.5,-529.98"/>
<polygon fill="red" stroke="red" points="93.5,-298.01 90,-288.01 86.5,-298.01 93.5,-298.01"/>
</g>
<!-- i5_5&#45;&gt;i6_5 -->
<g id="edge32" class="edge">
<title>i5_5&#45;&gt;i6_5</title>
<path fill="none" stroke="red" d="M378,-457.57C378,-452.68 378,-447.59 378,-442.69"/>
<polygon fill="red" stroke="red" points="374.5,-457.83 378,-467.83 381.5,-457.83 374.5,-457.83"/>
<polygon fill="red" stroke="red" points="381.5,-442.41 378,-432.41 374.5,-442.41 381.5,-442.41"/>
</g>
<!-- i6_5&#45;&gt;i7_5 -->
<g id="edge33" class="edge">
<title>i6_5&#45;&gt;i7_5</title>
<path fill="none" stroke="red" d="M378,-385.57C378,-380.68 378,-375.59 378,-370.69"/>
<polygon fill="red" stroke="red" points="374.5,-385.83 378,-395.83 381.5,-385.83 374.5,-385.83"/>
<polygon fill="red" stroke="red" points="381.5,-370.41 378,-360.41 374.5,-370.41 381.5,-370.41"/>
</g>
<!-- i8_5 -->
<g id="node24" class="node">
<title>i8_5</title>
<polygon fill="gray" stroke="white" points="396,-288 360,-288 360,-252 396,-252 396,-288"/>
<text text-anchor="middle" x="378" y="-266.3" font-family="Arial" font-size="14.00">B</text>
</g>
<!-- i7_5&#45;&gt;i8_5 -->
<g id="edge34" class="edge">
<title>i7_5&#45;&gt;i8_5</title>
<path fill="none" stroke="red" d="M378,-313.57C378,-308.68 378,-303.59 378,-298.69"/>
<polygon fill="red" stroke="red" points="374.5,-313.83 378,-323.83 381.5,-313.83 374.5,-313.83"/>
<polygon fill="red" stroke="red" points="381.5,-298.41 378,-288.41 374.5,-298.41 381.5,-298.41"/>
</g>
<!-- i8_1&#45;&gt;i8_2 -->
<g id="edge20" class="edge">
<title>i8_1&#45;&gt;i8_2</title>
<path fill="none" stroke="red" d="M118.43,-270C123.32,-270 128.41,-270 133.31,-270"/>
<polygon fill="red" stroke="red" points="118.17,-266.5 108.17,-270 118.17,-273.5 118.17,-266.5"/>
<polygon fill="red" stroke="red" points="133.59,-273.5 143.59,-270 133.59,-266.5 133.59,-273.5"/>
</g>
<!-- i8_2&#45;&gt;i8_3 -->
<g id="edge21" class="edge">
<title>i8_2&#45;&gt;i8_3</title>
<path fill="none" stroke="red" d="M190.43,-270C195.32,-270 200.41,-270 205.31,-270"/>
<polygon fill="red" stroke="red" points="190.17,-266.5 180.17,-270 190.17,-273.5 190.17,-266.5"/>
<polygon fill="red" stroke="red" points="205.59,-273.5 215.59,-270 205.59,-266.5 205.59,-273.5"/>
</g>
<!-- i8_3&#45;&gt;i8_5 -->
<g id="edge22" class="edge">
<title>i8_3&#45;&gt;i8_5</title>
<path fill="none" stroke="red" d="M262.53,-270C287.86,-270 324.68,-270 349.88,-270"/>
<polygon fill="red" stroke="red" points="262.24,-266.5 252.24,-270 262.24,-273.5 262.24,-266.5"/>
<polygon fill="red" stroke="red" points="349.91,-273.5 359.91,-270 349.91,-266.5 349.91,-273.5"/>
</g>
</g>
</svg>
